<svg width="22" height="22" viewBox="0 0 22 22" fill="none" xmlns="http://www.w3.org/2000/svg">
<g clip-path="url(#clip0_3310_6805)">
<path d="M16.2139 4.4843C16.1446 4.4843 16.0752 4.46695 16.0145 4.43227C14.3495 3.57375 12.91 3.20953 11.1843 3.20953C9.46723 3.20953 7.83692 3.61711 6.35403 4.43227C6.1459 4.545 5.88575 4.46695 5.76434 4.25883C5.65161 4.0507 5.72965 3.78188 5.93778 3.66914C7.55075 2.79328 9.31981 2.34235 11.1843 2.34235C13.0314 2.34235 14.6443 2.74992 16.4134 3.66047C16.6302 3.7732 16.7082 4.03336 16.5955 4.24149C16.5175 4.39758 16.37 4.4843 16.2139 4.4843ZM3.8045 9.03703C3.71778 9.03703 3.63106 9.01101 3.55301 8.95898C3.35356 8.82023 3.3102 8.5514 3.44895 8.35195C4.30747 7.13789 5.40012 6.18398 6.7009 5.51625C9.42387 4.11141 12.91 4.10274 15.6416 5.50758C16.9424 6.17531 18.035 7.12055 18.8936 8.32594C19.0323 8.51672 18.9889 8.79422 18.7895 8.93297C18.59 9.07172 18.3212 9.02836 18.1825 8.8289C17.402 7.73625 16.4134 6.87773 15.2427 6.27937C12.7539 5.00461 9.57129 5.00461 7.09114 6.28805C5.91176 6.89508 4.92317 7.76226 4.1427 8.85492C4.07332 8.97633 3.94325 9.03703 3.8045 9.03703ZM9.22442 19.504C9.11168 19.504 8.99895 19.4606 8.9209 19.3739C8.16645 18.6194 7.75887 18.1338 7.17785 17.0845C6.5795 16.0179 6.26731 14.7171 6.26731 13.3209C6.26731 10.7454 8.46996 8.6468 11.1756 8.6468C13.8812 8.6468 16.0839 10.7454 16.0839 13.3209C16.0839 13.5637 15.8931 13.7545 15.6503 13.7545C15.4075 13.7545 15.2167 13.5637 15.2167 13.3209C15.2167 11.2223 13.4043 9.51398 11.1756 9.51398C8.94692 9.51398 7.1345 11.2223 7.1345 13.3209C7.1345 14.5697 7.412 15.723 7.94098 16.6596C8.49598 17.6569 8.87754 18.0818 9.54528 18.7582C9.71004 18.9316 9.71004 19.2005 9.54528 19.3739C9.44988 19.4606 9.33715 19.504 9.22442 19.504ZM15.4421 17.8997C14.4102 17.8997 13.4996 17.6395 12.7539 17.1279C11.4618 16.252 10.69 14.8298 10.69 13.3209C10.69 13.0781 10.8807 12.8873 11.1236 12.8873C11.3664 12.8873 11.5571 13.0781 11.5571 13.3209C11.5571 14.5437 12.1815 15.697 13.2395 16.4081C13.8552 16.8244 14.575 17.0238 15.4421 17.0238C15.6503 17.0238 15.9971 16.9978 16.344 16.9371C16.5782 16.8937 16.8036 17.0498 16.847 17.2926C16.8903 17.5268 16.7343 17.7523 16.4914 17.7956C15.9971 17.891 15.5636 17.8997 15.4421 17.8997ZM13.6991 19.6861C13.6644 19.6861 13.6211 19.6774 13.5864 19.6687C12.2075 19.2872 11.3057 18.7755 10.3604 17.8476C9.14637 16.6423 8.47864 15.038 8.47864 13.3209C8.47864 11.9161 9.67535 10.7714 11.1496 10.7714C12.6238 10.7714 13.8205 11.9161 13.8205 13.3209C13.8205 14.2488 14.627 15.0033 15.6243 15.0033C16.6215 15.0033 17.428 14.2488 17.428 13.3209C17.428 10.0516 14.6096 7.39805 11.1409 7.39805C8.67809 7.39805 6.4234 8.7682 5.40879 10.8928C5.07059 11.5952 4.89715 12.4191 4.89715 13.3209C4.89715 13.9973 4.95786 15.064 5.47817 16.4515C5.56489 16.6769 5.45215 16.9284 5.22668 17.0065C5.00121 17.0932 4.74973 16.9718 4.67168 16.755C4.24676 15.619 4.03864 14.4916 4.03864 13.3209C4.03864 12.2803 4.23809 11.3351 4.62832 10.5112C5.78168 8.0918 8.33988 6.52219 11.1409 6.52219C15.0866 6.52219 18.2952 9.56601 18.2952 13.3123C18.2952 14.7171 17.0985 15.8618 15.6243 15.8618C14.15 15.8618 12.9533 14.7171 12.9533 13.3123C12.9533 12.3844 12.1468 11.6299 11.1496 11.6299C10.1523 11.6299 9.34582 12.3844 9.34582 13.3123C9.34582 14.7951 9.91817 16.1826 10.9675 17.2233C11.7913 18.0384 12.5804 18.4894 13.8032 18.8276C14.0373 18.8883 14.1674 19.1311 14.1067 19.3566C14.0633 19.556 13.8812 19.6861 13.6991 19.6861Z" fill="url(#paint0_linear_3310_6805)"/>
</g>
<defs>
<linearGradient id="paint0_linear_3310_6805" x1="7.57669" y1="2.46624" x2="18.824" y2="19.5622" gradientUnits="userSpaceOnUse">
<stop stop-color="#0A1C40"/>
<stop offset="1" stop-color="#02BB8E"/>
</linearGradient>
<clipPath id="clip0_3310_6805">
<rect width="20.8125" height="20.8125" fill="white" transform="translate(0.769531 0.607971)"/>
</clipPath>
</defs>
</svg>
