<svg width="24" height="22" viewBox="0 0 24 22" fill="none" xmlns="http://www.w3.org/2000/svg">
<path d="M6.10278 2.84973V4.81848H13.0028V2.84973C13.0028 2.48879 12.744 2.19348 12.4278 2.19348H6.67778C6.36153 2.19348 6.10278 2.48879 6.10278 2.84973ZM4.95278 4.81848V2.84973C4.95278 1.76282 5.72544 0.880981 6.67778 0.880981H12.4278C13.3801 0.880981 14.1528 1.76282 14.1528 2.84973V4.81848H16.4528C17.7214 4.81848 18.7528 5.99563 18.7528 7.44348V8.78469C18.5623 8.76418 18.3718 8.75598 18.1778 8.75598C17.9837 8.75598 17.7933 8.76418 17.6028 8.78469V7.44348C17.6028 6.7175 17.0889 6.13098 16.4528 6.13098H13.5778H5.52778H2.65278C2.01669 6.13098 1.50278 6.7175 1.50278 7.44348V11.381H6.67778H7.82778H13.0028H13.2975C13.0064 11.7829 12.7512 12.2259 12.5428 12.6935H7.82778V14.6622H11.957C11.8887 15.0888 11.8528 15.5277 11.8528 15.9747H7.82778C7.19169 15.9747 6.67778 15.3882 6.67778 14.6622V12.6935H1.50278V17.9435C1.50278 18.6695 2.01669 19.256 2.65278 19.256H12.5428C12.7548 19.7236 13.0064 20.1665 13.2975 20.5685H2.65278C1.38419 20.5685 0.352783 19.3913 0.352783 17.9435V7.44348C0.352783 5.99563 1.38419 4.81848 2.65278 4.81848H4.95278ZM18.1778 20.5685C19.2453 20.5685 20.2691 20.0845 21.0239 19.223C21.7787 18.3615 22.2028 17.1931 22.2028 15.9747C22.2028 14.7564 21.7787 13.588 21.0239 12.7265C20.2691 11.865 19.2453 11.381 18.1778 11.381C17.1103 11.381 16.0865 11.865 15.3317 12.7265C14.5768 13.588 14.1528 14.7564 14.1528 15.9747C14.1528 17.1931 14.5768 18.3615 15.3317 19.223C16.0865 20.0845 17.1103 20.5685 18.1778 20.5685ZM18.1778 10.0685C19.5503 10.0685 20.8666 10.6907 21.8371 11.7984C22.8076 12.906 23.3528 14.4083 23.3528 15.9747C23.3528 17.5412 22.8076 19.0434 21.8371 20.1511C20.8666 21.2587 19.5503 21.881 18.1778 21.881C16.8053 21.881 15.489 21.2587 14.5185 20.1511C13.548 19.0434 13.0028 17.5412 13.0028 15.9747C13.0028 14.4083 13.548 12.906 14.5185 11.7984C15.489 10.6907 16.8053 10.0685 18.1778 10.0685ZM18.1778 12.6935C18.494 12.6935 18.7528 12.9888 18.7528 13.3497V15.3185H19.9028C20.219 15.3185 20.4778 15.6138 20.4778 15.9747C20.4778 16.3357 20.219 16.631 19.9028 16.631H18.1778C17.8615 16.631 17.6028 16.3357 17.6028 15.9747V13.3497C17.6028 12.9888 17.8615 12.6935 18.1778 12.6935Z" fill="#0A1C40"/>
</svg>
