<svg width="24" height="24" viewBox="0 0 24 24" fill="none" xmlns="http://www.w3.org/2000/svg">
<g clip-path="url(#clip0_2976_9769)">
<path d="M18.8336 8.76477C19.0987 9.2095 19.1077 9.76204 18.8516 10.2113C18.5956 10.6605 18.1194 10.939 17.6028 10.939H8.97778C8.46118 10.939 7.98052 10.6605 7.72895 10.2113C7.47739 9.76204 7.48188 9.2095 7.74692 8.76477L12.0594 1.57727C12.3155 1.14602 12.7872 0.880981 13.2903 0.880981C13.7934 0.880981 14.2651 1.14602 14.5211 1.57727L18.8336 8.76477ZM13.2903 2.31848L8.97778 9.50598H17.6028L13.2903 2.31848ZM21.5559 14.5372H15.0872C14.8895 14.5372 14.7278 14.6989 14.7278 14.8966V21.3654C14.7278 21.563 14.8895 21.7247 15.0872 21.7247H21.5559C21.7536 21.7247 21.9153 21.563 21.9153 21.3654V14.8966C21.9153 14.6989 21.7536 14.5372 21.5559 14.5372ZM15.0872 13.0997H21.5559C22.5487 13.0997 23.3528 13.9038 23.3528 14.8966V21.3654C23.3528 22.3581 22.5487 23.1622 21.5559 23.1622H15.0872C14.0944 23.1622 13.2903 22.3581 13.2903 21.3654V14.8966C13.2903 13.9038 14.0944 13.0997 15.0872 13.0997ZM10.4153 18.131C10.4153 17.5647 10.3037 17.0039 10.087 16.4807C9.87029 15.9574 9.55263 15.482 9.15218 15.0816C8.75173 14.6811 8.27632 14.3635 7.75311 14.1468C7.22989 13.93 6.66911 13.8185 6.10278 13.8185C5.53646 13.8185 4.97568 13.93 4.45246 14.1468C3.92924 14.3635 3.45384 14.6811 3.05339 15.0816C2.65293 15.482 2.33528 15.9574 2.11855 16.4807C1.90183 17.0039 1.79028 17.5647 1.79028 18.131C1.79028 18.6973 1.90183 19.2581 2.11855 19.7813C2.33528 20.3045 2.65293 20.7799 3.05339 21.1804C3.45384 21.5808 3.92924 21.8985 4.45246 22.1152C4.97568 22.3319 5.53646 22.4435 6.10278 22.4435C6.66911 22.4435 7.22989 22.3319 7.75311 22.1152C8.27632 21.8985 8.75173 21.5808 9.15218 21.1804C9.55263 20.7799 9.87029 20.3045 10.087 19.7813C10.3037 19.2581 10.4153 18.6973 10.4153 18.131ZM0.352783 18.131C0.352783 16.606 0.958585 15.1435 2.03692 14.0651C3.11525 12.9868 4.57779 12.381 6.10278 12.381C7.62778 12.381 9.09031 12.9868 10.1686 14.0651C11.247 15.1435 11.8528 16.606 11.8528 18.131C11.8528 19.656 11.247 21.1185 10.1686 22.1968C9.09031 23.2752 7.62778 23.881 6.10278 23.881C4.57779 23.881 3.11525 23.2752 2.03692 22.1968C0.958585 21.1185 0.352783 19.656 0.352783 18.131Z" fill="#0A1C40"/>
</g>
<defs>
<clipPath id="clip0_2976_9769">
<rect width="23" height="23" fill="white" transform="translate(0.352783 0.880981)"/>
</clipPath>
</defs>
</svg>
