<svg width="24" height="19" viewBox="0 0 24 19" fill="none" xmlns="http://www.w3.org/2000/svg">
<path d="M3.22778 1.50598C2.43267 1.50598 1.79028 2.0925 1.79028 2.81848V15.9435C1.79028 16.6695 2.43267 17.256 3.22778 17.256H20.4778C21.2729 17.256 21.9153 16.6695 21.9153 15.9435V5.44348C21.9153 4.7175 21.2729 4.13098 20.4778 4.13098H13.4655C12.7018 4.13098 11.9696 3.85618 11.4305 3.36399L9.81782 1.89153C9.54829 1.64543 9.18442 1.50598 8.80259 1.50598H3.22778ZM0.352783 2.81848C0.352783 1.37063 1.64204 0.193481 3.22778 0.193481H8.80259C9.56626 0.193481 10.2985 0.468286 10.8375 0.960474L12.4502 2.43293C12.7198 2.67903 13.0836 2.81848 13.4655 2.81848H20.4778C22.0635 2.81848 23.3528 3.99563 23.3528 5.44348V15.9435C23.3528 17.3913 22.0635 18.5685 20.4778 18.5685H3.22778C1.64204 18.5685 0.352783 17.3913 0.352783 15.9435V2.81848Z" fill="#0A1C40"/>
</svg>
