<svg width="24" height="22" viewBox="0 0 24 22" fill="none" xmlns="http://www.w3.org/2000/svg">
<path d="M11.4016 1.07274C11.6491 0.818445 12.0564 0.818445 12.304 1.07274L16.1373 5.01024C16.3849 5.26454 16.3849 5.6829 16.1373 5.93719C15.8898 6.19149 15.4825 6.19149 15.2349 5.93719L12.4917 3.11942V9.41122C12.4917 9.77216 12.2042 10.0675 11.8528 10.0675C11.5014 10.0675 11.2139 9.77216 11.2139 9.41122V3.11942L8.47066 5.93719C8.2231 6.19149 7.8158 6.19149 7.56823 5.93719C7.32066 5.6829 7.32066 5.26454 7.56823 5.01024L11.4016 1.07274ZM16.0655 10.1167C16.2651 10.2028 16.4089 10.3874 16.4488 10.6048L17.2434 15.0304L21.5519 15.8425C21.7635 15.8835 21.9432 16.0311 22.0271 16.2362C22.1109 16.4413 22.087 16.6751 21.9632 16.8597L20.354 19.255H18.8047L20.35 16.9499L16.5766 16.2362C16.317 16.187 16.1134 15.9778 16.0655 15.7112L15.3707 11.8352L12.2122 14.0706C11.9925 14.2265 11.705 14.2265 11.4854 14.0706L8.32692 11.8352L7.63212 15.7112C7.58421 15.9778 7.38056 16.187 7.12101 16.2362L3.35556 16.9499L4.90087 19.255H3.35157L1.74237 16.8638C1.61858 16.6792 1.59462 16.4454 1.67848 16.2403C1.76233 16.0352 1.94202 15.8876 2.15365 15.8466L6.46216 15.0304L7.25278 10.6048C7.29271 10.3874 7.43646 10.2028 7.63612 10.1167C7.83577 10.0306 8.06337 10.0552 8.24306 10.1823L11.8528 12.7376L15.4585 10.1823C15.6382 10.0552 15.8658 10.0306 16.0655 10.1167ZM16.8042 19.255H15.4665C14.9394 17.7251 13.5219 16.63 11.8528 16.63C10.1837 16.63 8.76216 17.7251 8.23907 19.255H6.90139C7.46841 16.9909 9.46893 15.3175 11.8528 15.3175C14.2366 15.3175 16.2372 16.9909 16.8042 19.255ZM0.991672 20.5675H22.7139C23.0653 20.5675 23.3528 20.8628 23.3528 21.2237C23.3528 21.5847 23.0653 21.88 22.7139 21.88H0.991672C0.640283 21.88 0.352783 21.5847 0.352783 21.2237C0.352783 20.8628 0.640283 20.5675 0.991672 20.5675Z" fill="#0A1C40"/>
</svg>
