<svg width="24" height="22" viewBox="0 0 24 22" fill="none" xmlns="http://www.w3.org/2000/svg">
<path d="M21.9153 2.19348C21.9153 6.10227 18.7977 9.34661 14.7053 9.96184C14.8266 10.3802 14.9165 10.8109 14.9793 11.2497C19.7321 10.5156 23.3528 6.74211 23.3528 2.19348C23.3528 1.4675 22.7104 0.880981 21.9153 0.880981H20.4778C16.8391 0.880981 13.6497 2.64465 11.8797 5.29016C12.2301 5.63059 12.5581 5.99563 12.859 6.37297C14.31 3.88743 17.176 2.19348 20.4778 2.19348H21.9153ZM3.22778 4.81848C7.9895 4.81848 11.8528 8.34583 11.8528 12.6935H10.4153C5.65356 12.6935 1.79028 9.16614 1.79028 4.81848H3.22778ZM1.79028 3.50598C0.995166 3.50598 0.352783 4.0925 0.352783 4.81848C0.352783 9.89211 4.85845 14.006 10.4153 14.006H11.8528V21.2247C11.8528 21.5857 12.1762 21.881 12.5715 21.881C12.9668 21.881 13.2903 21.5857 13.2903 21.2247V14.006V13.3497V12.6935C13.2903 7.61985 8.78462 3.50598 3.22778 3.50598H1.79028Z" fill="#0A1C40"/>
</svg>
