<svg width="24" height="22" viewBox="0 0 24 22" fill="none" xmlns="http://www.w3.org/2000/svg">
<path d="M1.79028 6.29504V2.84973C1.79028 2.48879 1.46685 2.19348 1.07153 2.19348C0.676221 2.19348 0.352783 2.48879 0.352783 2.84973V8.09973C0.352783 8.46067 0.676221 8.75598 1.07153 8.75598H6.82153C7.21685 8.75598 7.54028 8.46067 7.54028 8.09973C7.54028 7.73879 7.21685 7.44348 6.82153 7.44348H2.7606C4.37329 4.3386 7.84126 2.19348 11.8528 2.19348C17.4096 2.19348 21.9153 6.30735 21.9153 11.381C21.9153 16.4546 17.4096 20.5685 11.8528 20.5685C8.56001 20.5685 5.64009 19.1247 3.80278 16.8935C3.5647 16.6023 3.11548 16.5448 2.79653 16.7622C2.47759 16.9796 2.4147 17.3898 2.65278 17.681C4.75063 20.2322 8.08833 21.881 11.8528 21.881C18.2047 21.881 23.3528 17.1806 23.3528 11.381C23.3528 5.58137 18.2047 0.880981 11.8528 0.880981C7.52231 0.880981 3.75337 3.06711 1.79028 6.29504ZM11.8528 6.13098C11.4575 6.13098 11.134 6.42629 11.134 6.78723V11.381C11.134 11.5532 11.2104 11.7214 11.3452 11.8445L14.9389 15.1257C15.2174 15.38 15.6756 15.38 15.9542 15.1257C16.2327 14.8714 16.2327 14.4531 15.9542 14.1988L12.5715 11.1103V6.78723C12.5715 6.42629 12.2481 6.13098 11.8528 6.13098Z" fill="#0A1C40"/>
</svg>
