<svg width="23" height="21" viewBox="0 0 23 21" fill="none" xmlns="http://www.w3.org/2000/svg">
<path d="M8.30556 1.3125V5.25C8.30556 5.47559 8.42135 5.68887 8.60903 5.80781C8.7967 5.92676 9.03229 5.93906 9.23194 5.83652L11.5 4.67168L13.7681 5.83652C13.9677 5.93906 14.2033 5.92676 14.391 5.80781C14.5786 5.68887 14.6944 5.47559 14.6944 5.25V1.3125H17.25C17.6014 1.3125 17.8889 1.60781 17.8889 1.96875V8.53125C17.8889 8.89219 17.6014 9.1875 17.25 9.1875H5.75C5.39861 9.1875 5.11111 8.89219 5.11111 8.53125V1.96875C5.11111 1.60781 5.39861 1.3125 5.75 1.3125H8.30556ZM8.94444 0H5.75C4.69184 0 3.83333 0.881836 3.83333 1.96875V8.53125C3.83333 9.61816 4.69184 10.5 5.75 10.5H17.25C18.3082 10.5 19.1667 9.61816 19.1667 8.53125V1.96875C19.1667 0.881836 18.3082 0 17.25 0H14.0556H8.94444ZM9.58333 1.3125H13.4167V4.1877L11.7875 3.35098C11.6078 3.25664 11.3962 3.25664 11.2165 3.35098L9.58333 4.1877V1.3125ZM7.80243 12.4688C7.17153 12.4688 6.5566 12.6615 6.02951 13.0184L3.00278 15.0938H0.638889C0.2875 15.0938 0 15.3891 0 15.75C0 16.1109 0.2875 16.4062 0.638889 16.4062H3.19444H3.38611L3.54583 16.2955L6.73628 14.1094C7.05174 13.892 7.4191 13.7771 7.79844 13.7771H13.7361C14.2672 13.7771 14.6944 14.216 14.6944 14.7615C14.6944 15.307 14.2672 15.7459 13.7361 15.7459H12.7778H10.2222C9.87083 15.7459 9.58333 16.0412 9.58333 16.4021C9.58333 16.7631 9.87083 17.0584 10.2222 17.0584H12.7778H13.7361H16.1559C16.2717 17.0584 16.3835 17.0256 16.4833 16.9641L20.4165 14.5605C20.5523 14.4785 20.704 14.4375 20.8597 14.4375H20.9116C21.3589 14.4375 21.7222 14.8107 21.7222 15.2701C21.7222 15.5531 21.5825 15.8156 21.3549 15.9674L16.5752 19.1584C16.0561 19.5029 15.4531 19.6875 14.8342 19.6875H0.638889C0.2875 19.6875 0 19.9828 0 20.3438C0 20.7047 0.2875 21 0.638889 21H14.8342C15.7007 21 16.5472 20.7416 17.27 20.2576L22.0457 17.0666C22.6406 16.6729 23 15.9961 23 15.2701C23 14.0848 22.0656 13.125 20.9116 13.125H20.8597C20.4724 13.125 20.097 13.2316 19.7616 13.4367L15.9802 15.75H15.7566C15.8964 15.4506 15.9722 15.1184 15.9722 14.7656C15.9722 13.4982 14.97 12.4688 13.7361 12.4688H7.80243Z" fill="#0A1C40"/>
</svg>
