<svg width="16" height="15" viewBox="0 0 16 15" fill="none" xmlns="http://www.w3.org/2000/svg">
<g clip-path="url(#clip0_2976_9306)">
<path d="M9.43583 10.5682C9.28249 10.5824 9.12854 10.5478 8.99606 10.4693C8.89926 10.3699 8.85285 10.2319 8.86993 10.0943C8.87351 9.97967 8.88719 9.86558 8.91083 9.75338C8.93371 9.62465 8.96327 9.4972 8.99945 9.37155L9.40173 7.98745C9.44321 7.85084 9.47063 7.71033 9.48355 7.56812C9.48355 7.41472 9.504 7.30902 9.504 7.24767C9.51256 6.97425 9.39581 6.71186 9.18695 6.53517C8.93005 6.33795 8.61013 6.241 8.28695 6.26245C8.05536 6.26593 7.82556 6.30384 7.60513 6.37495C7.36422 6.44995 7.1108 6.53971 6.8449 6.64427L6.729 7.09427C6.8074 7.067 6.90288 7.03633 7.01195 7.00222C7.11602 6.9714 7.22389 6.95532 7.3324 6.9545C7.48463 6.93801 7.63785 6.97539 7.76535 7.06017C7.85195 7.1635 7.89259 7.29774 7.87785 7.43177C7.87747 7.54641 7.8649 7.6607 7.84035 7.77267C7.81647 7.892 7.7858 8.01812 7.7483 8.15107L7.34263 9.54197C7.30993 9.67126 7.28377 9.8021 7.26423 9.93402C7.24829 10.047 7.24032 10.1609 7.24035 10.2749C7.23868 10.5502 7.36457 10.8108 7.58125 10.9806C7.84211 11.1809 8.1666 11.2802 8.49487 11.2601C8.72603 11.2649 8.95639 11.2315 9.1767 11.1613C9.36988 11.0953 9.62784 11.001 9.95058 10.8783L10.0597 10.4488C9.97226 10.485 9.88223 10.5147 9.79035 10.5374C9.67416 10.5639 9.55486 10.5742 9.43583 10.5682Z" fill="#FF3B3B"/>
<path d="M9.86218 4.00568C9.67665 3.83529 9.43219 3.74362 9.18036 3.75001C8.92867 3.74432 8.68445 3.83591 8.49853 4.00568C8.15775 4.29953 8.11969 4.81401 8.41357 5.15482C8.43976 5.1852 8.46815 5.21359 8.49853 5.23978C8.88677 5.58704 9.47394 5.58704 9.86215 5.23978C10.2029 4.94303 10.2386 4.42624 9.9419 4.08546C9.91723 4.05707 9.89057 4.03041 9.86218 4.00568Z" fill="#FF3B3B"/>
<path d="M8.43359 0C4.29146 0 0.933594 3.35786 0.933594 7.5C0.933594 11.6421 4.29146 15 8.43359 15C12.5757 15 15.9336 11.6421 15.9336 7.5C15.9336 3.35786 12.5757 0 8.43359 0ZM8.43359 14.3182C4.66801 14.3182 1.61542 11.2656 1.61542 7.5C1.61542 3.73441 4.66801 0.681826 8.43359 0.681826C12.1992 0.681826 15.2518 3.73441 15.2518 7.5C15.2518 11.2656 12.1992 14.3182 8.43359 14.3182Z" fill="#FF3B3B"/>
</g>
<defs>
<clipPath id="clip0_2976_9306">
<rect width="15" height="15" fill="white" transform="translate(0.933594)"/>
</clipPath>
</defs>
</svg>
