<svg width="22" height="22" viewBox="0 0 22 22" fill="none" xmlns="http://www.w3.org/2000/svg">
<path d="M9.64459 2.43137C9.66256 2.36985 9.70299 2.31653 9.7524 2.27551C10.1971 2.22219 10.6508 2.19348 11.1135 2.19348C11.5762 2.19348 12.0299 2.22219 12.4747 2.27551C12.5241 2.31653 12.56 2.36985 12.5825 2.43137L13.1979 4.38782C13.3551 4.88411 13.746 5.25325 14.2086 5.45832C14.5501 5.60598 14.8735 5.77825 15.1835 5.97102C15.6057 6.23762 16.1583 6.36067 16.7063 6.23762L18.8715 5.74543C18.9389 5.72903 19.0063 5.73313 19.0692 5.75364C19.3118 6.03665 19.5364 6.33606 19.7385 6.64778L19.9317 6.95129C20.1204 7.25891 20.2866 7.57883 20.4348 7.90696C20.4213 7.96848 20.3899 8.0259 20.3405 8.07102L18.7862 9.53528C18.3954 9.90442 18.2381 10.4007 18.2786 10.8683C18.292 11.0365 18.301 11.2087 18.301 11.381C18.301 11.5532 18.292 11.7255 18.2786 11.8937C18.2381 12.3613 18.3954 12.8575 18.7862 13.2267L20.336 14.6909C20.3854 14.7361 20.4169 14.7935 20.4303 14.855C20.2821 15.1831 20.1159 15.5031 19.9272 15.8148L19.7385 16.1142C19.5319 16.4259 19.3073 16.7212 19.0692 17.0083C19.0063 17.0288 18.9389 17.0288 18.8715 17.0165L16.7063 16.5243C16.1583 16.4013 15.6102 16.5243 15.1835 16.7909C14.8735 16.9837 14.5501 17.156 14.2086 17.3036C13.746 17.5046 13.3506 17.8779 13.1979 18.3741L12.5825 20.3306C12.5645 20.3921 12.5241 20.4454 12.4747 20.4865C12.0299 20.5398 11.5762 20.5685 11.1135 20.5685C10.6508 20.5685 10.1971 20.5398 9.7524 20.4865C9.70299 20.4454 9.66705 20.3921 9.64459 20.3306L9.02916 18.3741C8.87193 17.8779 8.48111 17.5087 8.01842 17.3036C7.67701 17.156 7.35357 16.9837 7.04361 16.7909C6.62135 16.5243 6.06881 16.4013 5.52076 16.5243L3.35553 17.0165C3.28814 17.0329 3.22076 17.0288 3.15787 17.0083C2.91529 16.7212 2.69068 16.4259 2.48404 16.1142L2.29537 15.8148C2.1067 15.5072 1.94049 15.1872 1.79224 14.855C1.80572 14.7935 1.83717 14.7361 1.88658 14.6909L3.44088 13.2267C3.8317 12.8575 3.98892 12.3613 3.94849 11.8937C3.93502 11.7255 3.92603 11.5532 3.92603 11.381C3.92603 11.2087 3.93502 11.0365 3.94849 10.8683C3.98892 10.4007 3.8317 9.90442 3.44088 9.53528L1.89107 8.06692C1.84166 8.0218 1.81021 7.96438 1.79674 7.90286C1.94498 7.57473 2.11119 7.25481 2.29986 6.94309L2.48853 6.64368C2.69517 6.33196 2.91978 6.03665 3.16236 5.74954C3.22525 5.72903 3.29263 5.72903 3.36002 5.74133L5.52525 6.23352C6.0733 6.35657 6.62135 6.23352 7.0481 5.96692C7.35806 5.77415 7.6815 5.60188 8.02291 5.45422C8.4856 5.25325 8.88092 4.88 9.03365 4.38372L9.64908 2.42727L9.64459 2.43137ZM11.1135 0.880981C10.5295 0.880981 9.95006 0.921997 9.38853 0.999927C9.31217 1.01223 9.2358 1.03274 9.16392 1.06555C8.73717 1.26653 8.40474 1.62336 8.26549 2.07043L7.65006 4.02688C7.6231 4.11711 7.53775 4.21145 7.39849 4.27297C6.9897 4.44934 6.59888 4.65852 6.23053 4.88821C6.10474 4.96614 5.96998 4.98665 5.87115 4.96204L3.70592 4.46985C3.21627 4.35911 2.71314 4.44524 2.30885 4.67903C2.24146 4.71594 2.18306 4.76516 2.13365 4.82258C1.8147 5.18762 1.51822 5.56907 1.25318 5.97102L1.24869 5.98333L1.05103 6.29504L1.04654 6.30735C0.803962 6.7093 0.588338 7.12356 0.404158 7.55422C0.377205 7.61985 0.359236 7.68958 0.354744 7.7593C0.332283 8.20227 0.502986 8.64524 0.857869 8.98157L2.40767 10.4458C2.47955 10.5156 2.52896 10.6263 2.51549 10.7657C2.49752 10.9708 2.48853 11.1759 2.48853 11.381C2.48853 11.5861 2.49752 11.7952 2.51549 11.9962C2.52896 12.1357 2.47955 12.2505 2.40767 12.3161L0.857869 13.7845C0.502986 14.1208 0.332283 14.5638 0.354744 15.0068C0.359236 15.0765 0.377205 15.1462 0.404158 15.2118C0.588338 15.6425 0.803962 16.0568 1.04654 16.4587L1.05103 16.471L1.24869 16.7827L1.25318 16.795C1.51822 17.197 1.81021 17.5825 2.13365 17.9476C2.18306 18.005 2.24146 18.0542 2.30885 18.0911C2.71314 18.3249 3.21627 18.4111 3.70592 18.3003L5.87115 17.8081C5.96998 17.7835 6.10474 17.804 6.23053 17.882C6.59888 18.1157 6.9897 18.3208 7.39849 18.4972C7.53775 18.5587 7.61861 18.6531 7.65006 18.7433L8.26549 20.6915C8.40474 21.1345 8.73717 21.4913 9.16392 21.6964C9.2358 21.7292 9.30767 21.7538 9.38853 21.762C9.95006 21.84 10.5295 21.881 11.1135 21.881C11.6975 21.881 12.277 21.84 12.8385 21.762C12.9149 21.7497 12.9913 21.7292 13.0631 21.6964C13.4899 21.4954 13.8223 21.1386 13.9616 20.6915L14.577 18.7351C14.604 18.6448 14.6893 18.5505 14.8286 18.489C15.2374 18.3126 15.6282 18.1034 15.9965 17.8738C16.1223 17.7958 16.2571 17.7753 16.3559 17.7999L18.5211 18.2921C19.0108 18.4029 19.5139 18.3208 19.9182 18.0829C19.9856 18.046 20.044 17.9968 20.0934 17.9394C20.4124 17.5743 20.7044 17.1929 20.9694 16.7909L20.9739 16.7786L21.176 16.4669L21.1805 16.4546C21.4231 16.0568 21.6387 15.6384 21.8229 15.2077C21.8499 15.1421 21.8678 15.0724 21.8723 15.0027C21.8948 14.5597 21.7241 14.1167 21.3692 13.7804L19.8194 12.3161C19.7475 12.2464 19.6981 12.1357 19.7116 11.9962C19.7295 11.7911 19.7385 11.5861 19.7385 11.381C19.7385 11.1759 19.7295 10.9667 19.7116 10.7657C19.6981 10.6263 19.7475 10.5114 19.8194 10.4458L21.3692 8.98157C21.7241 8.64524 21.8948 8.20227 21.8723 7.7593C21.8678 7.68958 21.8499 7.61985 21.8229 7.55422C21.6387 7.12356 21.4231 6.7093 21.1805 6.30735L21.176 6.29504L20.9784 5.98333L20.9739 5.97102C20.7088 5.56907 20.4169 5.18352 20.0979 4.82258C20.0485 4.76516 19.9901 4.71594 19.9227 4.67903C19.5184 4.44524 19.0153 4.35911 18.5256 4.46985L16.3604 4.96204C16.2616 4.98665 16.1268 4.96614 16.001 4.88821C15.6327 4.65442 15.2419 4.44934 14.8331 4.27297C14.6938 4.21145 14.6129 4.11711 14.5815 4.02688L13.9616 2.07043C13.8223 1.62747 13.4899 1.27063 13.0631 1.06555C12.9913 1.03274 12.9194 1.00813 12.8385 0.999927C12.277 0.921997 11.6975 0.880981 11.1135 0.880981ZM8.59791 11.381C8.59791 10.7718 8.86295 10.1876 9.33472 9.75685C9.80649 9.3261 10.4463 9.08411 11.1135 9.08411C11.7807 9.08411 12.4206 9.3261 12.8923 9.75685C13.3641 10.1876 13.6292 10.7718 13.6292 11.381C13.6292 11.9902 13.3641 12.5744 12.8923 13.0051C12.4206 13.4359 11.7807 13.6779 11.1135 13.6779C10.4463 13.6779 9.80649 13.4359 9.33472 13.0051C8.86295 12.5744 8.59791 11.9902 8.59791 11.381ZM15.0667 11.381C15.0667 10.4237 14.6502 9.50566 13.9088 8.82877C13.1675 8.15188 12.162 7.77161 11.1135 7.77161C10.0651 7.77161 9.05961 8.15188 8.31825 8.82877C7.5769 9.50566 7.16041 10.4237 7.16041 11.381C7.16041 12.3382 7.5769 13.2563 8.31825 13.9332C9.05961 14.6101 10.0651 14.9904 11.1135 14.9904C12.162 14.9904 13.1675 14.6101 13.9088 13.9332C14.6502 13.2563 15.0667 12.3382 15.0667 11.381Z" fill="#0A1C40"/>
</svg>
