<svg width="169" height="87" viewBox="0 0 169 87" fill="none" xmlns="http://www.w3.org/2000/svg">
<g clip-path="url(#clip0_3628_1687)">
<rect x="0.425781" y="0.918213" width="168.021" height="85.3694" rx="12.1092" fill="#02BB8E"/>
<path fill-rule="evenodd" clip-rule="evenodd" d="M65.7331 19.48C74.1574 38.3825 82.2513 56.5434 119.435 55.5677C153.554 54.6724 175.195 57.9816 187.514 63.7036V81.445C187.514 88.1327 182.092 93.5542 175.404 93.5542H-3.20531C-9.89301 93.5542 -15.3145 88.1327 -15.3145 81.445V-2.108C-15.3145 -8.7957 -9.893 -14.2172 -3.2053 -14.2172H39.0509C54.1779 -6.44758 60.0312 6.68607 65.7331 19.48Z" fill="white" fill-opacity="0.08"/>
<path fill-rule="evenodd" clip-rule="evenodd" d="M-4.87388 -14.1044C-10.772 -13.2915 -15.3145 -8.23082 -15.3145 -2.10923V81.4438C-15.3145 88.1315 -9.89301 93.5529 -3.20531 93.5529H175.404C180.158 93.5529 184.272 90.8135 186.254 86.8271C190.503 70.854 172.024 57.5321 109.107 59.1831C73.6012 60.1148 65.8726 42.7732 57.8284 24.7236C49.1312 5.20894 40.0652 -15.1334 -4.87388 -14.1044Z" fill="white" fill-opacity="0.08"/>
</g>
<defs>
<clipPath id="clip0_3628_1687">
<rect x="0.425781" y="0.918213" width="168.021" height="85.3694" rx="12.1092" fill="white"/>
</clipPath>
</defs>
</svg>
