<svg width="21" height="20" viewBox="0 0 21 20" fill="none" xmlns="http://www.w3.org/2000/svg">
<path d="M17.4362 12.631C17.8008 11.7456 17.9987 10.7977 17.9987 9.756C17.9987 9.006 17.8841 8.28725 17.6862 7.62058C17.0091 7.77683 16.3008 7.86016 15.5612 7.86016C14.0466 7.86179 12.5538 7.49925 11.2086 6.8031C9.86347 6.10696 8.7054 5.09762 7.83203 3.86016C6.89865 6.12135 5.1359 7.94 2.90495 8.9435C2.86328 9.20391 2.86328 9.48516 2.86328 9.756C2.86328 10.7505 3.05916 11.7352 3.43974 12.654C3.82031 13.5728 4.37813 14.4076 5.08134 15.1109C6.50153 16.5311 8.42774 17.3289 10.4362 17.3289C11.5299 17.3289 12.582 17.0893 13.5299 16.6622C14.1237 17.7977 14.3945 18.3602 14.3737 18.3602C12.6654 18.9331 11.3424 19.2143 10.4362 19.2143C7.91537 19.2143 5.50912 18.2247 3.73828 16.4435C2.66021 15.3705 1.8594 14.0513 1.40495 12.5997H0.0195312V7.86016H1.15495C1.49895 6.1857 2.28984 4.63559 3.44369 3.37432C4.59754 2.11305 6.07131 1.18767 7.70862 0.69637C9.34594 0.20507 11.0857 0.166176 12.7433 0.583816C14.401 1.00146 15.9146 1.86005 17.1237 3.0685C18.436 4.37639 19.3313 6.04379 19.6966 7.86016H20.8529V12.5997H20.7904L17.082 16.006L11.5612 15.381V13.6414H16.5924L17.4362 12.631ZM7.59245 9.51641C7.90495 9.51641 8.20703 9.64141 8.42578 9.87058C8.64562 10.0922 8.76898 10.3917 8.76898 10.7039C8.76898 11.0161 8.64562 11.3156 8.42578 11.5372C8.20703 11.756 7.90495 11.881 7.59245 11.881C6.9362 11.881 6.40495 11.3602 6.40495 10.7039C6.40495 10.0477 6.9362 9.51641 7.59245 9.51641ZM13.2695 9.51641C13.9258 9.51641 14.4466 10.0477 14.4466 10.7039C14.4466 11.3602 13.9258 11.881 13.2695 11.881C12.6133 11.881 12.082 11.3602 12.082 10.7039C12.082 10.389 12.2071 10.0869 12.4298 9.86422C12.6525 9.64153 12.9546 9.51641 13.2695 9.51641Z" fill="#696969"/>
</svg>
