<svg width="26" height="26" viewBox="0 0 26 26" fill="none" xmlns="http://www.w3.org/2000/svg">
<rect x="0.558594" y="0.384766" width="25.0017" height="25.005" rx="12.5008" fill="#26B049" fill-opacity="0.8"/>
<path d="M17.0321 7.2154C17.4506 6.79687 17.4506 6.11719 17.0321 5.69866C16.6136 5.28013 15.9339 5.28013 15.5153 5.69866L10.9182 10.2991L8.99637 8.37723C8.57785 7.95871 7.89816 7.95871 7.47963 8.37723C7.0611 8.79576 7.0611 9.47545 7.47963 9.89397L10.1582 12.5725C10.5767 12.9911 11.2564 12.9911 11.6749 12.5725L17.0321 7.2154ZM20.2464 11.5011C20.6649 11.0826 20.6649 10.4029 20.2464 9.98438C19.8278 9.56585 19.1482 9.56585 18.7296 9.98438L10.9182 17.7991L7.38923 14.2734C6.9707 13.8549 6.29102 13.8549 5.87249 14.2734C5.45396 14.692 5.45396 15.3717 5.87249 15.7902L10.1582 20.0759C10.5767 20.4944 11.2564 20.4944 11.6749 20.0759L20.2464 11.5045V11.5011Z" fill="white"/>
</svg>
