<svg width="17" height="12" viewBox="0 0 17 12" fill="none" xmlns="http://www.w3.org/2000/svg">
<path fill-rule="evenodd" clip-rule="evenodd" d="M16.0625 2H0.0625V1.25C0.0625 0.56 0.5105 0 1.0625 0H15.0625C15.6145 0 16.0625 0.56 16.0625 1.25V2ZM16.0625 4.5V11C16.0625 11.2652 15.9571 11.5196 15.7696 11.7071C15.5821 11.8946 15.3277 12 15.0625 12H1.0625C0.797284 12 0.54293 11.8946 0.355393 11.7071C0.167857 11.5196 0.0625 11.2652 0.0625 11V4.5H16.0625ZM4.0625 8C3.79728 8 3.54293 8.10536 3.35539 8.29289C3.16786 8.48043 3.0625 8.73478 3.0625 9C3.0625 9.26522 3.16786 9.51957 3.35539 9.70711C3.54293 9.89464 3.79728 10 4.0625 10H5.0625C5.32772 10 5.58207 9.89464 5.76961 9.70711C5.95714 9.51957 6.0625 9.26522 6.0625 9C6.0625 8.73478 5.95714 8.48043 5.76961 8.29289C5.58207 8.10536 5.32772 8 5.0625 8H4.0625Z" fill="#0A1C40"/>
</svg>
