<svg width="14" height="15" viewBox="0 0 14 15" fill="none" xmlns="http://www.w3.org/2000/svg">
<path d="M7.49694 1.263C7.49694 1.02597 7.30301 0.832031 7.06597 0.832031C6.82894 0.832031 6.635 1.02597 6.635 1.263V9.70468L3.92256 6.99224C3.75556 6.82524 3.48082 6.82524 3.31382 6.99224C3.14681 7.15925 3.14681 7.43399 3.31382 7.60099L6.7616 11.0488C6.9286 11.2158 7.20334 11.2158 7.37034 11.0488L10.8181 7.60099C10.9851 7.43399 10.9851 7.15925 10.8181 6.99224C10.6511 6.82524 10.3764 6.82524 10.2094 6.99224L7.49694 9.70468V1.263ZM3.94411 9.45148H1.8943C0.943467 9.45148 0.17041 10.2245 0.17041 11.1754V12.8993C0.17041 13.8501 0.943467 14.6232 1.8943 14.6232H12.2376C13.1885 14.6232 13.9615 13.8501 13.9615 12.8993V11.1754C13.9615 10.2245 13.1885 9.45148 12.2376 9.45148H10.1878L9.32588 10.3134H12.2376C12.7144 10.3134 13.0996 10.6986 13.0996 11.1754V12.8993C13.0996 13.376 12.7144 13.7612 12.2376 13.7612H1.8943C1.41754 13.7612 1.03236 13.376 1.03236 12.8993V11.1754C1.03236 10.6986 1.41754 10.3134 1.8943 10.3134H4.80606L3.94411 9.45148ZM11.8067 12.0373C11.8067 11.8659 11.7386 11.7014 11.6173 11.5802C11.4961 11.459 11.3317 11.3909 11.1602 11.3909C10.9888 11.3909 10.8243 11.459 10.7031 11.5802C10.5819 11.7014 10.5138 11.8659 10.5138 12.0373C10.5138 12.2088 10.5819 12.3732 10.7031 12.4944C10.8243 12.6157 10.9888 12.6838 11.1602 12.6838C11.3317 12.6838 11.4961 12.6157 11.6173 12.4944C11.7386 12.3732 11.8067 12.2088 11.8067 12.0373Z" fill="#0A1C40"/>
</svg>
