<svg width="17" height="22" viewBox="0 0 17 22" fill="none" xmlns="http://www.w3.org/2000/svg">
<rect x="-0.00390625" y="0.384766" width="17" height="21.0063" rx="5" fill="#FF3B3B"/>
<path d="M7.90546 5.97439C7.90546 5.64764 8.16833 5.38477 8.49508 5.38477C8.82183 5.38477 9.08471 5.64764 9.08471 5.97439V13.0499C9.08471 13.3767 8.82183 13.6395 8.49508 13.6395C8.16833 13.6395 7.90546 13.3767 7.90546 13.0499V5.97439ZM8.49508 16.3911C8.28658 16.3911 8.08661 16.3083 7.93918 16.1608C7.79174 16.0134 7.70891 15.8134 7.70891 15.6049C7.70891 15.3964 7.79174 15.1965 7.93918 15.049C8.08661 14.9016 8.28658 14.8188 8.49508 14.8188C8.70359 14.8188 8.90355 14.9016 9.05099 15.049C9.19842 15.1965 9.28125 15.3964 9.28125 15.6049C9.28125 15.8134 9.19842 16.0134 9.05099 16.1608C8.90355 16.3083 8.70359 16.3911 8.49508 16.3911Z" fill="white"/>
</svg>
