<svg width="21" height="20" viewBox="0 0 21 20" fill="none" xmlns="http://www.w3.org/2000/svg">
<path d="M1.93652 10C1.93652 5.02944 5.96596 1 10.9365 1C15.9071 1 19.9365 5.02944 19.9365 10C19.9365 14.9706 15.9071 19 10.9365 19C5.96596 19 1.93652 14.9706 1.93652 10Z" fill="white"/>
<path d="M1.93652 10C1.93652 5.02944 5.96596 1 10.9365 1C15.9071 1 19.9365 5.02944 19.9365 10C19.9365 14.9706 15.9071 19 10.9365 19C5.96596 19 1.93652 14.9706 1.93652 10Z" stroke="#F1359C" stroke-width="2"/>
<path d="M9.98986 12.3858C9.85653 12.3858 9.72986 12.3324 9.63653 12.2391L7.74986 10.3524C7.55653 10.1591 7.55653 9.83909 7.74986 9.64576C7.94319 9.45242 8.26319 9.45242 8.45653 9.64576L9.98986 11.1791L13.4165 7.75242C13.6099 7.55909 13.9299 7.55909 14.1232 7.75242C14.3165 7.94576 14.3165 8.26575 14.1232 8.45909L10.3432 12.2391C10.2499 12.3324 10.1232 12.3858 9.98986 12.3858Z" fill="#F1359C"/>
</svg>
