<svg width="188" height="73" viewBox="0 0 188 73" fill="none" xmlns="http://www.w3.org/2000/svg">
<path d="M76.2485 36.1552C76.2485 17.3802 80.0423 15.0625 84.6682 15.0625C89.4124 15.0625 92.1985 16.9633 92.9124 31.1068L87.2789 32.3536C86.9811 22.6085 86.6874 20.1108 84.6682 20.1108C82.9467 20.1108 81.882 22.0116 81.882 36.1552C81.882 50.2987 82.653 52.7922 84.6682 52.7922C86.9199 52.7922 87.0382 50.2946 87.2789 40.1366L92.9124 40.9092C92.2026 55.4656 89.3553 57.8447 84.6682 57.8447C80.0423 57.8447 76.2485 54.9301 76.2485 36.1552Z" fill="#0A1C40"/>
<path d="M95.5801 36.4536C95.5801 17.6786 99.0189 15.0625 103.943 15.0625C108.805 15.0625 112.305 17.6786 112.305 36.4536C112.305 55.2285 108.805 57.8447 103.943 57.8447C99.0189 57.8447 95.5801 55.2285 95.5801 36.4536ZM106.668 36.4536C106.668 22.31 105.778 20.1108 103.939 20.1108C102.099 20.1108 101.209 22.31 101.209 36.4536C101.209 50.5971 102.099 52.7963 103.939 52.7963C105.778 52.7923 106.668 50.5931 106.668 36.4536Z" fill="#0A1C40"/>
<path d="M124.042 15.6562C129.496 15.6562 132.698 17.6184 132.698 25.2829C132.698 30.274 131.393 33.1272 128.905 34.4925L132.698 57.2489H126.946L124.042 35.6207C123.924 35.6207 123.744 35.6207 123.626 35.6207H121.492V57.2489H116.157V15.6562H124.042ZM121.492 20.7046V30.5683H123.626C126.175 30.5683 127.363 29.3788 127.363 25.2788C127.363 21.7715 126.175 20.7046 123.626 20.7046H121.492Z" fill="#0A1C40"/>
<path d="M143.844 15.6562C149.298 15.6562 152.5 17.6184 152.5 25.8183C152.5 34.1982 149.298 36.6917 143.428 36.6917H141.294V57.253H135.958V15.6562H143.844ZM141.294 20.7046V31.6393H143.428C145.977 31.6393 147.164 30.4497 147.164 25.8143C147.164 21.7756 145.977 20.7046 143.428 20.7046H141.294Z" fill="#0A1C40"/>
<path d="M163.535 20.7048H153.753V15.6523H169.405V19.8137L158.257 52.1967H169.703V57.2491H153.1L152.509 53.0878L163.535 20.7048Z" fill="#0A1C40"/>
<path d="M170.888 36.4536C170.888 17.6786 174.327 15.0625 179.25 15.0625C184.113 15.0625 187.613 17.6786 187.613 36.4536C187.613 55.2285 184.113 57.8447 179.25 57.8447C174.327 57.8447 170.888 55.2285 170.888 36.4536ZM181.975 36.4536C181.975 22.31 181.086 20.1108 179.246 20.1108C177.406 20.1108 176.517 22.31 176.517 36.4536C176.517 50.5971 177.406 52.7963 179.246 52.7963C181.086 52.7923 181.975 50.5931 181.975 36.4536Z" fill="#0A1C40"/>
<path d="M35.9305 72.1972C16.2316 72.1972 0.26123 56.1937 0.26123 36.4541C0.26123 16.7144 16.2316 0.710938 35.9305 0.710938C55.6294 0.710938 71.5998 16.7144 71.5998 36.4541C71.5998 56.1937 55.6334 72.1972 35.9305 72.1972Z" fill="url(#paint0_linear_3845_19742)"/>
<path fill-rule="evenodd" clip-rule="evenodd" d="M43.968 44.5698C41.7733 45.322 38.5099 47.7174 34.9038 49.9289C34.2348 49.5405 32.0646 48.212 29.3968 45.8084C26.1782 42.898 22.9556 38.3033 22.9556 38.3033L20.9812 42.714C20.9812 42.714 22.9842 45.2811 26.113 48.2856C28.638 50.7096 30.3391 51.8215 30.9021 52.1648C27.1002 54.0248 23.2248 55.0181 20.0348 53.2358C12.4433 47.5457 24.2243 32.7563 25.1625 31.7303C26.8268 29.8009 28.6054 27.9696 30.5349 26.3018C32.1054 24.9446 33.7779 23.6938 35.5524 22.6146C37.0006 21.7358 38.5222 20.9673 40.109 20.3541C41.3981 19.8595 42.7361 19.4671 44.0945 19.2136C45.1877 19.0093 46.2973 18.8948 47.4109 18.8785C48.2594 18.8703 49.1079 18.9193 49.9442 19.042C50.964 19.1891 52.0042 19.4385 52.8527 20.0475C53.7379 20.6811 54.411 21.7112 54.4803 22.8108C54.5211 23.4199 54.3579 24.0208 54.0438 24.54C53.7787 24.9773 53.4319 25.3616 53.0526 25.705C50.0747 27.8878 42.6422 22.5247 42.6422 22.5247L36.7844 24.4132C36.7844 24.4132 39.2279 25.8194 39.6195 26.1423C40.0111 26.4612 49.6015 32.2331 53.95 29.7273C58.2985 27.2256 58.3801 22.1732 58.2945 21.7235C57.8253 13.8914 46.4931 14.3247 46.1912 14.4065C42.32 14.8766 38.8118 16.1029 35.7482 17.6603C33.7372 16.7651 19.5005 10.7561 15.3437 18.2857C11.2766 25.6559 15.4538 35.6341 16.2493 37.3918C11.554 46.769 14.385 52.7821 14.4707 52.9701C17.1059 59.1058 24.2365 58.4886 24.2365 58.4886C34.5571 57.7773 41.5 51.3064 44.5962 49.1644C45.253 48.772 53.0893 43.9649 53.897 48.9069C55.1942 56.2689 42.4831 53.3135 42.4831 53.3135L37.9021 56.2158C54.978 61.9222 59.4367 53.1582 58.0864 48.6085C57.1604 46.0251 55.0881 39.4724 43.968 44.5698ZM19.2108 20.4236C22.9719 16.8918 29.6008 19.7491 31.0979 20.4686C25.4644 24.3969 22.1724 28.7667 22.0459 28.9588C21.071 30.0788 20.2062 31.1662 19.4311 32.229C18.6683 30.7656 15.4252 23.9799 19.2108 20.4236Z" fill="white"/>
<defs>
<linearGradient id="paint0_linear_3845_19742" x1="35.9315" y1="0.708648" x2="35.9315" y2="72.1961" gradientUnits="userSpaceOnUse">
<stop offset="0.1553" stop-color="#0C1C3F"/>
<stop offset="1" stop-color="#90D0B9"/>
</linearGradient>
</defs>
</svg>
