<svg width="26" height="26" viewBox="0 0 26 26" fill="none" xmlns="http://www.w3.org/2000/svg">
<g clip-path="url(#clip0_3845_19387)">
<path d="M17.6029 3.38281C18.4 3.38277 19.1669 3.68732 19.7469 4.23415C20.3268 4.78098 20.6759 5.52876 20.7227 6.32448L20.7279 6.50781V16.9245H21.5091C22.1831 16.9245 22.7383 17.437 22.8049 18.0932L22.8112 18.2266V20.0495C22.8112 20.8466 22.5067 21.6136 21.9599 22.1935C21.413 22.7734 20.6653 23.1225 19.8695 23.1693L19.6862 23.1745H9.26953C8.47244 23.1745 7.70545 22.87 7.12551 22.3231C6.54557 21.7763 6.1965 21.0285 6.14974 20.2328L6.14453 20.0495V9.63281H4.32161C3.99926 9.63296 3.68831 9.51353 3.44894 9.29763C3.20957 9.08174 3.05879 8.78472 3.02578 8.46406L3.01953 8.33073V6.50781C3.01949 5.71072 3.32404 4.94373 3.87087 4.36379C4.4177 3.78385 5.16548 3.43478 5.9612 3.38802L6.14453 3.38281H17.6029ZM17.6029 5.46615H8.22787V20.0495C8.22787 20.3257 8.33761 20.5907 8.53296 20.7861C8.72831 20.9814 8.99326 21.0911 9.26953 21.0911C9.5458 21.0911 9.81075 20.9814 10.0061 20.7861C10.2015 20.5907 10.3112 20.3257 10.3112 20.0495V18.2266C10.3112 17.5078 10.8945 16.9245 11.6133 16.9245H18.6445V6.50781C18.6445 6.23155 18.5348 5.96659 18.3394 5.77124C18.1441 5.57589 17.8791 5.46615 17.6029 5.46615ZM20.7279 19.0078H12.3945V20.0495C12.3945 20.4141 12.332 20.7651 12.2174 21.0911H19.6862C19.9625 21.0911 20.2274 20.9814 20.4228 20.7861C20.6181 20.5907 20.7279 20.3257 20.7279 20.0495V19.0078ZM13.4362 12.7578C13.7125 12.7578 13.9774 12.8676 14.1728 13.0629C14.3681 13.2583 14.4779 13.5232 14.4779 13.7995C14.4779 14.0757 14.3681 14.3407 14.1728 14.536C13.9774 14.7314 13.7125 14.8411 13.4362 14.8411H11.3529C11.0766 14.8411 10.8116 14.7314 10.6163 14.536C10.4209 14.3407 10.3112 14.0757 10.3112 13.7995C10.3112 13.5232 10.4209 13.2583 10.6163 13.0629C10.8116 12.8676 11.0766 12.7578 11.3529 12.7578H13.4362ZM15.5195 8.59115C15.7958 8.59115 16.0608 8.70089 16.2561 8.89624C16.4515 9.09159 16.5612 9.35655 16.5612 9.63281C16.5612 9.90908 16.4515 10.174 16.2561 10.3694C16.0608 10.5647 15.7958 10.6745 15.5195 10.6745H11.3529C11.0766 10.6745 10.8116 10.5647 10.6163 10.3694C10.4209 10.174 10.3112 9.90908 10.3112 9.63281C10.3112 9.35655 10.4209 9.09159 10.6163 8.89624C10.8116 8.70089 11.0766 8.59115 11.3529 8.59115H15.5195ZM6.14453 5.46615C5.88939 5.46618 5.64314 5.55985 5.45248 5.72939C5.26182 5.89893 5.14001 6.13255 5.11016 6.38594L5.10286 6.50781V7.54948H6.14453V5.46615Z" fill="#696969"/>
</g>
<defs>
<clipPath id="clip0_3845_19387">
<rect width="25" height="25" fill="white" transform="translate(0.936523 0.257812)"/>
</clipPath>
</defs>
</svg>
