<svg width="15" height="15" viewBox="0 0 15 15" fill="none" xmlns="http://www.w3.org/2000/svg">
<path d="M3.29035 5.18705H2.44357V2.64669C2.44357 1.71258 3.20303 0.953125 4.13714 0.953125H10.2102C10.66 0.953125 11.0914 1.13042 11.4089 1.44796L12.1101 2.14921C12.4277 2.46675 12.605 2.89808 12.605 3.34794V5.18705H11.7582V3.34794C11.7582 3.12301 11.6682 2.90867 11.5095 2.7499L10.8082 2.04865C10.6494 1.88988 10.4351 1.79991 10.2102 1.79991H4.13714C3.66876 1.79991 3.29035 2.17832 3.29035 2.64669V5.18705ZM12.605 6.88062H2.44357C1.97519 6.88062 1.59678 7.25902 1.59678 7.7274V11.1145H2.44357V10.2678C2.44357 9.79938 2.82198 9.42097 3.29035 9.42097H11.7582C12.2266 9.42097 12.605 9.79938 12.605 10.2678V11.1145H13.4518V7.7274C13.4518 7.25902 13.0734 6.88062 12.605 6.88062ZM12.605 11.9613V13.6549C12.605 14.1233 12.2266 14.5017 11.7582 14.5017H3.29035C2.82198 14.5017 2.44357 14.1233 2.44357 13.6549V11.9613H1.59678C1.12841 11.9613 0.75 11.5829 0.75 11.1145V7.7274C0.75 6.79329 1.50946 6.03383 2.44357 6.03383H12.605C13.5391 6.03383 14.2986 6.79329 14.2986 7.7274V11.1145C14.2986 11.5829 13.9201 11.9613 13.4518 11.9613H12.605ZM3.29035 10.2678V13.6549H11.7582V10.2678H3.29035ZM12.1816 7.5157C12.35 7.5157 12.5116 7.58262 12.6307 7.70172C12.7498 7.82082 12.8167 7.98236 12.8167 8.15079C12.8167 8.31923 12.7498 8.48077 12.6307 8.59987C12.5116 8.71897 12.35 8.78588 12.1816 8.78588C12.0132 8.78588 11.8516 8.71897 11.7325 8.59987C11.6134 8.48077 11.5465 8.31923 11.5465 8.15079C11.5465 7.98236 11.6134 7.82082 11.7325 7.70172C11.8516 7.58262 12.0132 7.5157 12.1816 7.5157Z" fill="#0A1C40"/>
</svg>
