<svg width="26" height="14" viewBox="0 0 26 14" fill="none" xmlns="http://www.w3.org/2000/svg">
<path d="M3.12803 9.79444H3.28212L3.13781 10.4301C3.1158 10.5235 3.12069 10.5962 3.15004 10.6429C3.17939 10.6896 3.2332 10.7129 3.31392 10.7129C3.39219 10.7129 3.45823 10.6896 3.5096 10.6429C3.56096 10.5962 3.59521 10.5235 3.61722 10.4301L3.76154 9.79444H3.91808L3.77132 10.4457C3.73952 10.5858 3.68326 10.6922 3.6001 10.7622C3.51938 10.8323 3.41176 10.8686 3.27968 10.8686C3.14759 10.8686 3.05709 10.8349 3.00817 10.7648C2.95925 10.6948 2.94947 10.5884 2.98127 10.4483L3.12803 9.79444ZM3.89606 10.8401L4.14066 9.75293L4.6054 10.3912C4.61763 10.4094 4.62986 10.4275 4.64209 10.4483C4.65432 10.4691 4.66655 10.4924 4.68123 10.5184L4.84511 9.79444H4.98942L4.74482 10.879L4.2703 10.2278L4.23361 10.1733C4.22138 10.1525 4.2116 10.1343 4.20426 10.111L4.04038 10.8375H3.89606V10.8401ZM4.97719 10.8401L5.212 9.79444H5.36855L5.13373 10.8401H4.97719ZM5.35632 10.8401L5.59113 9.79444H6.1268L6.095 9.93974H5.71588L5.65717 10.1992H6.0363L6.00206 10.3471H5.62293L5.51286 10.8375H5.35632V10.8401ZM6.06565 10.8401L6.30047 9.79444H6.45701L6.2222 10.8401H6.06565ZM6.44478 10.8401L6.67959 9.79444H7.21527L7.18347 9.93974H6.80434L6.74564 10.2018H7.12476L7.09052 10.3497H6.71139L6.63557 10.687H7.01469L6.98045 10.8401H6.44478ZM7.16145 10.8401L7.39627 9.79444H7.60662C7.7436 9.79444 7.83899 9.80223 7.89036 9.8178C7.94172 9.83336 7.98575 9.85672 8.01999 9.89304C8.06402 9.93974 8.09337 9.99942 8.1056 10.0695C8.11783 10.1421 8.11294 10.2252 8.09337 10.316C8.07136 10.4094 8.03956 10.4898 7.99553 10.5625C7.95151 10.6351 7.89525 10.6922 7.82921 10.7389C7.78029 10.7752 7.72648 10.7986 7.66777 10.8141C7.61152 10.8297 7.5259 10.8375 7.41339 10.8375H7.16145V10.8401ZM7.35224 10.6844H7.48432C7.55526 10.6844 7.61151 10.6792 7.65065 10.6688C7.68979 10.6585 7.72403 10.6403 7.75583 10.6169C7.79986 10.5832 7.83654 10.5417 7.8659 10.4898C7.89525 10.4405 7.91726 10.3808 7.93194 10.3134C7.94661 10.2459 7.95151 10.1888 7.94417 10.1395C7.93683 10.0902 7.91971 10.0461 7.89036 10.0124C7.86834 9.98645 7.84144 9.97088 7.80475 9.9605C7.76806 9.95012 7.7118 9.94493 7.63108 9.94493H7.51857L7.35224 10.6844ZM8.81249 10.3705L8.70732 10.8401H8.56056L8.79537 9.79444H9.03263C9.10356 9.79444 9.15248 9.79963 9.18428 9.80742C9.21608 9.8152 9.24054 9.82817 9.26011 9.84893C9.28457 9.87228 9.30169 9.90601 9.30903 9.94753C9.31637 9.98904 9.31392 10.0332 9.30414 10.0824C9.29191 10.1317 9.27478 10.1785 9.24788 10.22C9.22097 10.2615 9.18917 10.2952 9.15493 10.3186C9.12558 10.3367 9.09378 10.3523 9.05954 10.3601C9.02529 10.3679 8.97148 10.3731 8.90299 10.3731H8.81249V10.3705ZM8.85407 10.2303H8.89321C8.97882 10.2303 9.03997 10.22 9.07421 10.1992C9.10846 10.1785 9.13047 10.1421 9.1427 10.0902C9.15493 10.0357 9.14759 9.99423 9.12313 9.97347C9.09623 9.95012 9.04242 9.93974 8.9617 9.93974H8.92256L8.85407 10.2303ZM9.83491 10.8401L9.78599 10.5702H9.40442L9.2332 10.8401H9.06932L9.77866 9.75293L9.9988 10.8401H9.83491ZM9.49737 10.4275H9.76398L9.71995 10.1888C9.71751 10.1733 9.71506 10.1551 9.71506 10.1369C9.71261 10.1162 9.71261 10.0954 9.71261 10.0721C9.70283 10.0954 9.69305 10.1162 9.68082 10.1369C9.67103 10.1577 9.66125 10.1759 9.65146 10.1914L9.49737 10.4275ZM10.2238 10.8401L10.3314 10.3627L10.1358 9.79704H10.2997L10.4219 10.1525C10.4244 10.1629 10.4268 10.1733 10.4317 10.1888C10.4366 10.2044 10.4391 10.22 10.444 10.2355L10.4733 10.1888C10.4831 10.1733 10.4929 10.1603 10.5027 10.1473L10.7888 9.79704H10.9454L10.488 10.3601L10.3804 10.8375H10.2238V10.8401ZM11.7134 10.3238C11.7134 10.316 11.7159 10.2926 11.7208 10.2563C11.7232 10.2252 11.7257 10.2018 11.7281 10.181C11.7183 10.2044 11.7085 10.2278 11.6963 10.2537C11.6841 10.277 11.6694 10.303 11.6523 10.3263L11.2756 10.8842L11.1533 10.316C11.1484 10.2926 11.1435 10.2693 11.1411 10.2485C11.1386 10.2278 11.1362 10.2044 11.1362 10.1836C11.1313 10.2044 11.1239 10.2278 11.1166 10.2537C11.1093 10.277 11.0995 10.303 11.0873 10.3289L10.8671 10.8427H10.7228L11.1949 9.75293L11.3294 10.412C11.3319 10.4223 11.3343 10.4405 11.3367 10.4639C11.3392 10.4872 11.3441 10.5184 11.349 10.5547C11.3661 10.5235 11.3881 10.4872 11.4175 10.4405C11.4248 10.4275 11.4321 10.4198 11.4346 10.412L11.8602 9.75293L11.8455 10.8427H11.7012L11.7134 10.3238ZM11.9727 10.8401L12.2075 9.79444H12.7432L12.7114 9.93974H12.3323L12.2736 10.2018H12.6527L12.6184 10.3497H12.2393L12.1635 10.687H12.5426L12.5084 10.8401H11.9727ZM12.6869 10.8401L12.9315 9.75293L13.3963 10.3912C13.4085 10.4094 13.4207 10.4275 13.433 10.4483C13.4452 10.4691 13.4574 10.4924 13.4721 10.5184L13.636 9.79444H13.7803L13.5357 10.879L13.0612 10.2278L13.0245 10.1733C13.0122 10.1525 13.0025 10.1343 12.9951 10.111L12.8312 10.8375H12.6869V10.8401ZM14.2793 9.93715L14.0763 10.8375H13.9197L14.1227 9.93715H13.8683L13.9001 9.79185H14.5654L14.5337 9.93715H14.2793ZM14.4431 10.6299L14.5826 10.5676C14.585 10.6144 14.5972 10.6507 14.6242 10.674C14.6511 10.6974 14.6877 10.7104 14.7367 10.7104C14.7831 10.7104 14.8223 10.6974 14.8565 10.6688C14.8908 10.6403 14.9128 10.604 14.9226 10.5573C14.9372 10.495 14.903 10.4405 14.8198 10.3938C14.8076 10.386 14.8003 10.3808 14.7929 10.3782C14.7 10.3212 14.6413 10.2719 14.6168 10.2252C14.5924 10.1785 14.5875 10.124 14.6021 10.0591C14.6217 9.97347 14.6633 9.90601 14.7293 9.85153C14.7954 9.79963 14.8687 9.77109 14.9568 9.77109C15.0277 9.77109 15.084 9.78666 15.1256 9.8152C15.1672 9.84374 15.1892 9.88785 15.1965 9.94234L15.0595 10.0098C15.0473 9.97607 15.0326 9.95272 15.0131 9.93715C14.9935 9.92158 14.969 9.9138 14.9397 9.9138C14.8981 9.9138 14.8614 9.92677 14.8321 9.95012C14.8027 9.97347 14.7831 10.0046 14.7734 10.0461C14.7587 10.1084 14.8003 10.1681 14.8957 10.2226C14.903 10.2278 14.9079 10.2303 14.9128 10.2329C14.9959 10.2796 15.0522 10.3263 15.0767 10.3731C15.1011 10.4198 15.106 10.4742 15.0913 10.5443C15.0693 10.6429 15.0228 10.7207 14.9519 10.7804C14.881 10.8375 14.7978 10.8686 14.7 10.8686C14.6193 10.8686 14.5557 10.8479 14.5116 10.8064C14.4627 10.7648 14.4407 10.7052 14.4431 10.6299ZM15.5952 10.8401L15.83 9.79444H15.9866L15.7518 10.8401H15.5952ZM15.9768 10.8401L16.2214 9.75293L16.6861 10.3912C16.6983 10.4094 16.7106 10.4275 16.7228 10.4483C16.735 10.4691 16.7473 10.4924 16.7619 10.5184L16.9258 9.79444H17.0701L16.8255 10.879L16.351 10.2278L16.3143 10.1733C16.3021 10.1525 16.2923 10.1343 16.285 10.111L16.1211 10.8375H15.9768V10.8401ZM17.5691 9.93715L17.3661 10.8375H17.2096L17.4126 9.93715H17.1582L17.19 9.79185H17.8553L17.8235 9.93715H17.5691ZM17.7379 10.8401L17.9727 9.79444H18.5108L18.479 9.93974H18.0999L18.0412 10.2018H18.4203L18.3861 10.3497H18.0069L17.9311 10.687H18.3102L18.276 10.8401H17.7379ZM18.7041 10.3705L18.5989 10.8375H18.4521L18.6869 9.79185H18.9046C18.9682 9.79185 19.0171 9.79704 19.0489 9.80482C19.0832 9.81261 19.1101 9.82817 19.1297 9.84893C19.1541 9.87488 19.1688 9.90601 19.1761 9.94753C19.1835 9.98645 19.181 10.0306 19.1712 10.0799C19.1517 10.1629 19.1199 10.2303 19.071 10.277C19.022 10.3238 18.9609 10.3523 18.8875 10.3627L19.1101 10.8375H18.934L18.7212 10.3705H18.7041ZM18.7432 10.2381H18.7725C18.8557 10.2381 18.912 10.2278 18.9438 10.207C18.9756 10.1862 18.9976 10.1499 19.0098 10.0954C19.022 10.0383 19.0171 9.99683 18.9927 9.97347C18.9682 9.95012 18.9169 9.93715 18.8386 9.93715H18.8092L18.7432 10.2381ZM19.2055 10.8401L19.4403 9.79444H19.976L19.9442 9.93974H19.565L19.5063 10.1992H19.8855L19.8512 10.3471H19.4721L19.362 10.8375H19.2055V10.8401ZM20.497 10.8401L20.448 10.5702H20.0665L19.8952 10.8401H19.7314L20.4407 9.75293L20.6608 10.8401H20.497ZM20.157 10.4275H20.4236L20.3796 10.1888C20.3771 10.1733 20.3747 10.1551 20.3747 10.1369C20.3722 10.1162 20.3722 10.0954 20.3722 10.0721C20.3624 10.0954 20.3526 10.1162 20.3404 10.1369C20.3306 10.1577 20.3208 10.1759 20.3111 10.1914L20.157 10.4275ZM21.6784 10.0487C21.6441 10.0072 21.6025 9.97607 21.5585 9.95791C21.5145 9.93715 21.4656 9.92677 21.4093 9.92677C21.3041 9.92677 21.2112 9.9631 21.128 10.0357C21.0449 10.1084 20.991 10.2044 20.9641 10.3212C20.9397 10.4327 20.9495 10.5261 20.9984 10.6014C21.0449 10.674 21.1182 10.7104 21.2161 10.7104C21.2723 10.7104 21.3286 10.7 21.3849 10.6766C21.4411 10.6559 21.4974 10.6221 21.5561 10.578L21.512 10.77C21.4631 10.8038 21.4118 10.8271 21.3579 10.8427C21.3041 10.8583 21.2503 10.866 21.1916 10.866C21.1182 10.866 21.0522 10.8531 20.9959 10.8271C20.9397 10.8012 20.8932 10.7622 20.8565 10.7104C20.8198 10.6611 20.7978 10.6014 20.788 10.5339C20.7782 10.4665 20.7807 10.3938 20.8003 10.316C20.8174 10.2381 20.8467 10.1681 20.8859 10.1006C20.925 10.0332 20.9764 9.97347 21.0351 9.92418C21.0938 9.87228 21.1574 9.83336 21.2259 9.80742C21.2943 9.78147 21.3628 9.7685 21.4338 9.7685C21.49 9.7685 21.5414 9.77628 21.5903 9.79444C21.6368 9.81261 21.6808 9.83855 21.72 9.87488L21.6784 10.0487ZM21.693 10.8401L21.9279 9.79444H22.4635L22.4317 9.93974H22.0526L21.9939 10.2018H22.373L22.3388 10.3497H21.9597L21.8838 10.687H22.263L22.2287 10.8401H21.693Z" fill="#3D3D3C"/>
<path d="M18.8466 8.883H17.7728L19.2649 3.16699H20.3387L18.8466 8.883ZM18.2889 3.34602C18.2156 3.23705 18.1006 3.18256 17.9441 3.18256H12.0443L11.7533 4.30345H17.1198L16.8067 5.49958H12.514V5.49699H11.4402L10.5498 8.90895H11.6236L12.2204 6.62047H17.0464C17.198 6.62047 17.3399 6.56598 17.472 6.45701C17.6041 6.34803 17.6921 6.21311 17.7337 6.05224L18.3305 3.76376C18.377 3.59251 18.3623 3.455 18.2889 3.34602ZM9.92367 8.52494C9.86497 8.75068 9.66929 8.90895 9.44915 8.90895H3.91389C3.76224 8.90895 3.64972 8.85446 3.57634 8.74549C3.50296 8.63651 3.48584 8.50159 3.52987 8.34072L4.88005 3.18256H5.95384L4.74797 7.79066H9.04312L10.249 3.18256H11.3228L9.92367 8.52494Z" fill="#525252"/>
<path d="M22.1923 3.17773L23.5498 6.04223L20.6953 8.90672L22.1923 3.17773Z" fill="#098041"/>
<path d="M21.2377 3.17773L22.5952 6.04223L19.7383 8.90672L21.2377 3.17773Z" fill="#E97626"/>
</svg>
