<svg width="181" height="168" viewBox="0 0 181 168" fill="none" xmlns="http://www.w3.org/2000/svg">
<path d="M118.063 132.419L8.11421 164.289C3.34659 165.671 -1.01597 161.139 0.545349 156.427L36.5688 47.7686L118.063 132.419Z" fill="#FCD031"/>
<path d="M121.452 130.545C129.571 122.729 117.597 97.1206 94.7094 73.3462C71.8215 49.5717 46.6863 36.6343 38.5682 44.4497C30.4501 52.265 42.4234 77.8736 65.3113 101.648C88.1991 125.422 113.334 138.36 121.452 130.545Z" fill="#FFDA64"/>
<path d="M117.693 126.634C114.516 129.69 107.421 128.687 98.2158 123.877C88.5397 118.82 77.5982 110.206 67.4118 99.6249C57.2254 89.0475 49.0366 77.7871 44.3506 67.9219C39.8933 58.5445 39.1575 51.4127 42.3316 48.3573C45.5054 45.3019 52.6041 46.3081 61.809 51.1181C71.4851 56.1754 82.4267 64.7861 92.613 75.367C102.799 85.9479 110.988 97.2086 115.674 107.07C120.131 116.447 120.867 123.579 117.693 126.634Z" fill="url(#paint0_linear_4131_35286)"/>
<path d="M102.285 136.991L81.0044 143.159C76.342 141.392 71.7641 139.289 67.2793 136.858C57.5179 131.564 48.1595 124.68 39.4649 116.401C38.0537 115.057 36.5097 113.529 34.8681 111.824C30.6248 107.416 25.7421 101.824 20.8727 95.118L25.487 81.1998C33.2024 93.2907 41.6082 102.342 47.5064 107.956C64.1082 123.767 82.5155 133.519 102.285 136.991Z" fill="#2252FF"/>
<path d="M66.7917 147.283L50.0136 152.146C40.5722 146.916 31.518 140.201 23.0846 132.172C21.6734 130.828 20.1294 129.3 18.4878 127.595C16.5511 125.583 14.4852 123.328 12.3452 120.832L16.6904 107.723C21.9906 114.549 27.1351 119.926 31.1261 123.727C42.2486 134.322 54.1815 142.194 66.7917 147.283Z" fill="#2252FF"/>
<path d="M36.4124 156.086L21.6863 160.354C16.5202 156.665 11.5113 152.513 6.70657 147.938C5.90489 147.172 5.06062 146.35 4.17885 145.468L8.32703 132.957C10.6579 135.488 12.8368 137.671 14.7481 139.492C21.667 146.082 28.8985 151.619 36.4124 156.086Z" fill="#2252FF"/>
<path d="M65.6677 62.1787L60.59 56.9043C68.966 48.8406 73.8645 38.3674 75.1493 25.7755C76.1268 16.1961 74.5334 8.92493 74.5172 8.8527L81.6572 7.2328C81.7332 7.56703 83.5097 15.5409 82.4603 26.2486C81.0608 40.5256 75.2542 52.95 65.6677 62.1787Z" fill="#F2112D"/>
<path d="M105.938 109.286L100.86 104.012C111.188 94.0689 125.625 89.2433 142.611 90.0566C155.22 90.6605 164.756 94.1184 165.156 94.2655L162.63 101.137L163.893 97.7015L162.634 101.139C162.545 101.106 153.589 97.8797 142.058 97.3603C127.014 96.6823 114.862 100.695 105.938 109.286Z" fill="#2252FF"/>
<path d="M81.6321 55.0864C84.3686 50.7266 87.8786 49.6414 90.4414 48.8488C92.6105 48.1783 93.9197 47.7734 95.2127 45.7139C96.5053 43.6544 96.3006 42.2993 95.9614 40.0546C95.561 37.4022 95.0124 33.7693 97.7486 29.4095C100.485 25.0493 103.995 23.9638 106.558 23.1712C108.728 22.5003 110.037 22.0954 111.33 20.0356C112.623 17.9754 112.419 16.6203 112.08 14.3752C111.679 11.7225 111.131 8.08963 113.867 3.72946L120.068 7.62178C118.775 9.68198 118.98 11.0371 119.319 13.2822C119.719 15.9349 120.268 19.5677 117.531 23.9279C114.794 28.2877 111.285 29.3733 108.722 30.1658C106.552 30.8367 105.243 31.2416 103.95 33.3018C102.657 35.361 102.862 36.7164 103.201 38.9608C103.601 41.6135 104.15 45.246 101.413 49.6062C98.6769 53.966 95.1669 55.0512 92.6041 55.8438C90.435 56.5143 89.1258 56.9192 87.8328 58.9787L81.6321 55.0864Z" fill="#FF4901"/>
<path d="M111.438 75.279L107.973 68.8297C112.646 66.3191 116.35 67.137 119.055 67.7341C121.398 68.2517 122.812 68.5641 125.093 67.3389C127.373 66.1141 127.893 64.762 128.754 62.5226C129.749 59.9371 131.111 56.3968 135.784 53.8858C140.457 51.3749 144.162 52.1932 146.867 52.7903C149.21 53.3075 150.625 53.62 152.905 52.3944C155.186 51.1688 155.707 49.8168 156.569 47.5773C157.563 44.9919 158.926 41.4512 163.599 38.9403L167.064 45.39C164.784 46.6155 164.264 47.9672 163.402 50.207C162.407 52.7925 161.044 56.3332 156.371 58.8441C151.698 61.355 147.993 60.5367 145.288 59.9396C142.945 59.422 141.53 59.1096 139.25 60.3352C136.97 61.56 136.449 62.9121 135.588 65.1515C134.593 67.737 133.231 71.2773 128.558 73.7883C123.886 76.2988 120.181 75.4806 117.476 74.8835C115.133 74.3662 113.718 74.0538 111.438 75.279Z" fill="#7416EF"/>
<path d="M157.82 76.6505C159.841 76.6889 161.511 75.0813 161.549 73.0599C161.588 71.0385 159.98 69.3687 157.959 69.3303C155.938 69.2919 154.268 70.8994 154.229 72.9208C154.191 74.9422 155.798 76.6121 157.82 76.6505Z" fill="#7416EF"/>
<path d="M140.705 119.045C142.726 119.083 144.396 117.476 144.434 115.454C144.473 113.433 142.865 111.763 140.844 111.725C138.822 111.686 137.152 113.294 137.114 115.315C137.076 117.337 138.683 119.007 140.705 119.045Z" fill="#F2112D"/>
<path d="M174.941 88.627C176.962 88.6654 178.632 87.0579 178.671 85.0365C178.709 83.0151 177.101 81.3453 175.08 81.3068C173.059 81.2684 171.389 82.876 171.35 84.8974C171.312 86.9188 172.92 88.5886 174.941 88.627Z" fill="#2252FF"/>
<path d="M146.136 37.5938C148.158 37.6322 149.827 36.0247 149.866 34.0033C149.904 31.9819 148.297 30.3121 146.275 30.2736C144.254 30.2352 142.584 31.8428 142.546 33.8642C142.507 35.8856 144.115 37.5554 146.136 37.5938Z" fill="#FF4901"/>
<path d="M92.8159 9.65438C94.8374 9.69278 96.5072 8.08524 96.5456 6.06383C96.584 4.04241 94.9764 2.3726 92.955 2.33419C90.9336 2.29578 89.2638 3.90333 89.2254 5.92474C89.187 7.94615 90.7945 9.61597 92.8159 9.65438Z" fill="#2252FF"/>
<path d="M117.578 41.711C119.599 41.7494 121.269 40.1419 121.307 38.1205C121.346 36.0991 119.738 34.4292 117.717 34.3908C115.695 34.3524 114.026 35.96 113.987 37.9814C113.949 40.0028 115.556 41.6726 117.578 41.711Z" fill="#FCD031"/>
<path d="M89.0249 86.4776C91.0463 86.516 92.7161 84.9085 92.7546 82.8871C92.793 80.8657 91.1854 79.1958 89.164 79.1574C87.1426 79.119 85.4728 80.7266 85.4344 82.748C85.396 84.7694 87.0035 86.4392 89.0249 86.4776Z" fill="#FF4901"/>
<path d="M51.853 26.2227C53.8744 26.2611 55.5443 24.6536 55.5827 22.6322C55.6211 20.6108 54.0135 18.941 51.9921 18.9026C49.9707 18.8641 48.3009 20.4717 48.2625 22.4931C48.2241 24.5145 49.8316 26.1843 51.853 26.2227Z" fill="#7416EF"/>
<defs>
<linearGradient id="paint0_linear_4131_35286" x1="67.7559" y1="100.082" x2="92.2689" y2="74.9103" gradientUnits="userSpaceOnUse">
<stop stop-color="#765246"/>
<stop offset="1" stop-color="#513C35"/>
</linearGradient>
</defs>
</svg>
