<svg width="647" height="261" viewBox="0 0 647 261" fill="none" xmlns="http://www.w3.org/2000/svg">
<g style="mix-blend-mode:multiply" opacity="0.8">
<path d="M535.584 179.633H544.405C548.698 179.633 552.816 181.338 555.851 184.374C558.887 187.41 560.593 191.527 560.593 195.82C560.599 198.533 559.924 201.204 558.629 203.587C557.334 205.971 555.46 207.991 553.181 209.462L534.993 221.17L535.584 179.633Z" fill="#59A562"/>
<path d="M534.367 223.228L534.981 178.496H544.927C548.651 178.516 552.27 179.736 555.246 181.975C558.223 184.213 560.399 187.351 561.451 190.924C562.504 194.496 562.377 198.313 561.09 201.808C559.803 205.302 557.424 208.289 554.306 210.326L534.367 223.228ZM537.277 180.77L536.754 219.022L553.135 208.461C555.863 206.698 557.947 204.1 559.077 201.055C560.206 198.01 560.321 194.681 559.402 191.565C558.484 188.45 556.583 185.715 553.982 183.769C551.381 181.823 548.221 180.771 544.973 180.77H537.277Z" fill="#463E3B"/>
<path d="M537.095 185.316H542.984C545.845 185.316 548.589 186.453 550.612 188.476C552.635 190.499 553.771 193.243 553.771 196.104C553.776 197.913 553.325 199.694 552.461 201.283C551.597 202.872 550.347 204.219 548.827 205.198L536.72 212.997L537.095 185.316Z" fill="white"/>
<path d="M535.503 215.077L535.924 184.18H542.927C545.502 184.179 548.009 185.013 550.071 186.556C552.134 188.099 553.641 190.268 554.368 192.739C555.095 195.21 555.002 197.85 554.104 200.264C553.205 202.678 551.549 204.736 549.383 206.131L535.503 215.077ZM538.22 186.453L537.891 210.871L548.212 204.221C549.966 203.093 551.307 201.426 552.035 199.472C552.763 197.518 552.838 195.38 552.249 193.38C551.66 191.379 550.439 189.623 548.769 188.374C547.099 187.126 545.069 186.452 542.983 186.453H538.22Z" fill="#463E3B"/>
<path d="M528.763 247.839C549.793 231.356 544.109 167.129 544.109 167.129H471.924L445.779 218.283L451.463 248.601L528.763 247.839Z" fill="#76D98C"/>
<path d="M537.698 166.559H535.015C535.015 166.559 540.699 230.786 519.669 247.269L450.326 247.951V248.031L527.626 247.269C544.962 233.628 544.143 187.646 543.325 171.89C543.236 170.454 542.605 169.106 541.561 168.116C540.517 167.127 539.136 166.57 537.698 166.559Z" fill="#6DCC7E"/>
<path d="M529.467 247.6L528.069 245.815C544.95 232.583 544.052 186.157 543.37 172.232C543.306 170.856 542.713 169.557 541.716 168.607C540.719 167.656 539.394 167.127 538.016 167.128H471.924V164.854H538.016C539.975 164.855 541.86 165.61 543.278 166.962C544.696 168.315 545.539 170.161 545.632 172.118C546.519 190.307 546.724 234.072 529.467 247.6Z" fill="#463E3B"/>
<path d="M190.005 242.154H79.2728L45.9656 208.858L47.5798 207.244L80.205 239.881H190.005V242.154Z" fill="#463E3B"/>
<path d="M1.22327 246.701H645.145V259.206H1.22327V246.701Z" fill="#EA9178"/>
<path d="M2.15576 247.417H646.077V249.565H2.15576V247.417Z" fill="#A76C59"/>
<path opacity="0.2" d="M639.369 245.623V255.911H5.34912V245.623H0.392822V258.127H644.325V245.623H639.369Z" fill="white"/>
<path d="M646.281 260.344H0.0864258V245.566H646.281V260.344ZM2.35996 258.071H644.008V247.84H2.35996V258.071Z" fill="#463E3B"/>
<g opacity="0.15">
<path d="M70.6463 65.9579H0.166748V44.3594H70.6463V65.9579ZM2.44028 63.6844H68.3727V46.6329H2.44028V63.6844Z" fill="#463E3B"/>
<path d="M138.852 65.9579H68.3727V44.3594H138.852V65.9579ZM70.6462 63.6844H136.579V46.6329H70.6462V63.6844Z" fill="#463E3B"/>
<path d="M103.612 46.6327H33.1329V25.0342H103.612V46.6327ZM35.4065 44.3592H101.339V27.3077H35.4065V44.3592Z" fill="#463E3B"/>
</g>
<g opacity="0.15">
<path d="M498.07 68.2294H427.591V46.6309H498.07V68.2294ZM429.864 65.9559H495.797V48.9044H429.864V65.9559Z" fill="#463E3B"/>
<path d="M566.276 68.2294H495.797V46.6309H566.276V68.2294ZM498.07 65.9559H564.003V48.9044H498.07V65.9559Z" fill="#463E3B"/>
<path d="M531.037 48.9042H460.557V27.3057H531.037V48.9042ZM462.831 46.6307H528.763V29.5792H462.831V46.6307Z" fill="#463E3B"/>
</g>
<g opacity="0.15">
<path d="M578.78 135.3H508.301V113.701H578.78V135.3ZM510.574 133.026H576.507V115.975H510.574V133.026Z" fill="#463E3B"/>
<path d="M629.935 155.762H559.455V134.163H629.935V155.762ZM561.729 153.488H627.661V136.437H561.729V153.488Z" fill="#463E3B"/>
</g>
<g opacity="0.15">
<path d="M134.305 177.36H63.8257V155.762H134.305V177.36ZM66.0992 175.087H132.032V158.035H66.0992V175.087Z" fill="#463E3B"/>
<path d="M185.46 197.822H114.98V176.224H185.46V197.822ZM117.254 195.549H183.186V178.497H117.254V195.549Z" fill="#463E3B"/>
</g>
<path d="M31.3811 165.832C47.3465 165.832 60.2891 152.889 60.2891 136.924C60.2891 120.958 47.3465 108.016 31.3811 108.016C15.4157 108.016 2.47314 120.958 2.47314 136.924C2.47314 152.889 15.4157 165.832 31.3811 165.832Z" fill="#E8F0F9"/>
<path d="M31.3816 108.016C27.6695 108.009 23.9909 108.719 20.5482 110.107C27.633 108.308 35.1366 109.257 41.5494 112.766C47.9622 116.275 52.8084 122.082 55.1131 129.019C57.4177 135.956 57.0099 143.508 53.9715 150.157C50.9332 156.805 45.4898 162.056 38.7365 164.854C45.4937 163.029 51.3599 158.816 55.247 152.995C59.134 147.174 60.7782 140.142 59.8745 133.201C58.9709 126.26 55.5807 119.883 50.3327 115.251C45.0848 110.62 38.3353 108.049 31.3361 108.016H31.3816Z" fill="#BCD9EA"/>
<path d="M10.4189 136.356C10.4199 129.279 13.0173 122.448 17.7189 117.157C22.4204 111.867 28.8994 108.485 35.9279 107.653C31.874 107.175 27.7649 107.561 23.8709 108.785C19.9769 110.01 16.3863 112.045 13.3356 114.757C10.2848 117.469 7.84307 120.797 6.17098 124.521C4.49889 128.244 3.6344 132.28 3.6344 136.362C3.6344 140.444 4.49889 144.48 6.17098 148.204C7.84307 151.927 10.2848 155.255 13.3356 157.967C16.3863 160.679 19.9769 162.714 23.8709 163.939C27.7649 165.163 31.874 165.549 35.9279 165.071C28.8975 164.239 22.4169 160.855 17.7151 155.563C13.0133 150.27 10.4171 143.436 10.4189 136.356Z" fill="white"/>
<path d="M31.3823 166.981C25.442 166.972 19.6376 165.202 14.7028 161.896C9.76793 158.589 5.9241 153.893 3.65706 148.402C1.39002 142.912 0.801513 136.872 1.96593 131.047C3.13034 125.222 5.9954 119.873 10.199 115.675C14.4027 111.478 19.7562 108.621 25.5831 107.466C31.4099 106.31 37.4486 106.908 42.9359 109.183C48.4232 111.458 53.1129 115.309 56.4122 120.249C59.7116 125.189 61.4725 130.996 61.4725 136.936C61.4635 144.91 58.2889 152.553 52.6466 158.187C47.0042 163.821 39.3558 166.984 31.3823 166.981ZM31.3823 109.154C25.8921 109.163 20.5278 110.799 15.9671 113.855C11.4064 116.912 7.85392 121.252 5.75862 126.326C3.66332 131.401 3.11917 136.983 4.19494 142.366C5.27071 147.75 7.91811 152.694 11.8027 156.574C15.6872 160.454 20.6346 163.095 26.0196 164.164C31.4047 165.234 36.9859 164.683 42.058 162.581C47.1301 160.48 51.4654 156.922 54.5163 152.357C57.5672 147.793 59.1968 142.427 59.199 136.936C59.193 129.564 56.2593 122.496 51.043 117.286C45.8267 112.076 38.7548 109.151 31.3823 109.154Z" fill="#463E3B"/>
<path d="M20.8674 121.27H41.8976C42.9408 121.27 43.9412 121.684 44.6788 122.422C45.4164 123.159 45.8308 124.16 45.8308 125.203V135.718C45.8308 139.553 44.3074 143.231 41.5957 145.942C38.884 148.654 35.2061 150.178 31.3712 150.178C27.5362 150.178 23.8584 148.654 21.1466 145.942C18.4349 143.231 16.9115 139.553 16.9115 135.718V125.203C16.9115 124.684 17.014 124.171 17.2131 123.692C17.4121 123.214 17.7039 122.779 18.0715 122.414C18.4392 122.048 18.8755 121.759 19.3553 121.562C19.8351 121.366 20.349 121.267 20.8674 121.27Z" fill="#463E3B"/>
<path d="M30.244 144.153H32.5176V192.341H30.244V144.153Z" fill="#463E3B"/>
<path d="M35.9631 190.865H39.9873V191.434H35.9631V190.865Z" fill="#EA2424"/>
<path d="M35.368 193.206L35.6156 192.694L39.238 194.447L38.9904 194.959L35.368 193.206Z" fill="#EA2424"/>
<path d="M33.7007 194.69L34.2375 194.504L35.5596 198.304L35.0228 198.491L33.7007 194.69Z" fill="#EA2424"/>
<path d="M39.6465 209.484H43.6706V210.053H39.6465V209.484Z" fill="#EA2424"/>
<path d="M40.3925 206.476L40.64 205.964L44.2624 207.717L44.0149 208.228L40.3925 206.476Z" fill="#EA2424"/>
<path d="M44.0914 202.597L44.6283 202.41L45.9503 206.211L45.4135 206.397L44.0914 202.597Z" fill="#EA2424"/>
<path d="M165.918 1.16113H471.64C475.068 1.16113 478.355 2.52287 480.779 4.94679C483.203 7.3707 484.565 10.6582 484.565 14.0862V230.788H152.993V14.0862C152.993 12.3888 153.327 10.7081 153.977 9.13997C154.626 7.57183 155.578 6.14699 156.778 4.94679C157.979 3.74659 159.403 2.79454 160.972 2.14499C162.54 1.49545 164.22 1.16113 165.918 1.16113Z" fill="#E8F0F9"/>
<path d="M162.724 218.044H474.198V221.17H162.724V218.044Z" fill="#BCD9EA"/>
<path d="M471.64 1.16113H165.918C164.22 1.16113 162.54 1.49545 160.972 2.14499C159.403 2.79454 157.979 3.74659 156.778 4.94679C155.578 6.14699 154.626 7.57183 153.977 9.13997C153.327 10.7081 152.993 12.3888 152.993 14.0862V20.9068C152.993 19.2094 153.327 17.5287 153.977 15.9606C154.626 14.3924 155.578 12.9676 156.778 11.7674C157.979 10.5672 159.403 9.61513 160.972 8.96559C162.54 8.31605 164.22 7.98173 165.918 7.98173H471.64C475.068 7.98173 478.355 9.34347 480.779 11.7674C483.203 14.1913 484.565 17.4788 484.565 20.9068V14.0862C484.565 10.6582 483.203 7.3707 480.779 4.94679C478.355 2.52287 475.068 1.16113 471.64 1.16113Z" fill="white"/>
<path d="M485.485 231.924H151.674V14.0852C151.677 10.3567 153.159 6.78181 155.796 4.14537C158.432 1.50892 162.007 0.026448 165.736 0.0234375L471.458 0.0234375C475.18 0.0354641 478.746 1.52192 481.375 4.15739C484.004 6.79286 485.482 10.3626 485.485 14.0852V231.924ZM153.925 229.65H483.212V14.0852C483.209 10.9656 481.97 7.97411 479.768 5.76501C477.565 3.55591 474.577 2.30899 471.458 2.29697H165.736C162.61 2.29998 159.613 3.54292 157.403 5.753C155.193 7.96307 153.95 10.9597 153.947 14.0852L153.925 229.65Z" fill="#463E3B"/>
<path d="M163.041 21.623H473.379V218.284H163.041V21.623Z" fill="white"/>
<path opacity="0.1" d="M164.178 21.623H473.379V27.3069H164.178V21.623Z" fill="#463E3B"/>
<path d="M474.117 219.419H163.041V20.4854H474.117V219.419ZM165.292 217.146H471.844V22.7589H165.315L165.292 217.146Z" fill="#463E3B"/>
<path d="M107.022 230.787H529.331V237.221C529.331 240.037 528.212 242.738 526.221 244.729C524.23 246.72 521.53 247.839 518.714 247.839H120.368C116.828 247.839 113.434 246.433 110.931 243.93C108.428 241.427 107.022 238.032 107.022 234.493V230.787Z" fill="#E8F0F9"/>
<path d="M108.239 230.787H530.536V237.608H108.239V230.787Z" fill="#BCD9EA"/>
<path d="M516.497 248.975H120.652C116.842 248.972 113.189 247.458 110.495 244.764C107.801 242.07 106.286 238.417 106.283 234.607V229.65H530.865V234.607C530.862 238.417 529.347 242.07 526.653 244.764C523.959 247.458 520.306 248.972 516.497 248.975ZM108.568 231.924V234.607C108.571 237.812 109.845 240.885 112.11 243.152C114.375 245.419 117.447 246.696 120.652 246.702H516.497C519.703 246.699 522.778 245.424 525.046 243.156C527.313 240.888 528.589 237.814 528.592 234.607V231.924H108.568Z" fill="#463E3B"/>
<path d="M315.654 13.5401C316.683 13.5401 317.518 12.7054 317.518 11.6758C317.518 10.6462 316.683 9.81152 315.654 9.81152C314.624 9.81152 313.79 10.6462 313.79 11.6758C313.79 12.7054 314.624 13.5401 315.654 13.5401Z" fill="#FF4E00"/>
<path d="M315.654 14.1075C315.173 14.1075 314.702 13.9649 314.302 13.6976C313.902 13.4303 313.59 13.0503 313.406 12.6058C313.222 12.1613 313.174 11.6722 313.268 11.2003C313.362 10.7284 313.593 10.2949 313.934 9.9547C314.274 9.61449 314.707 9.3828 315.179 9.28893C315.651 9.19507 316.14 9.24324 316.585 9.42737C317.029 9.61149 317.409 9.92329 317.677 10.3233C317.944 10.7234 318.087 11.1937 318.087 11.6749C318.087 12.3201 317.83 12.9388 317.374 13.395C316.918 13.8512 316.299 14.1075 315.654 14.1075ZM315.654 10.379C315.398 10.379 315.147 10.455 314.934 10.5974C314.721 10.7398 314.555 10.9421 314.457 11.1789C314.359 11.4157 314.333 11.6763 314.383 11.9277C314.433 12.1791 314.556 12.41 314.738 12.5912C314.919 12.7725 315.15 12.8959 315.401 12.9459C315.652 12.9959 315.913 12.9702 316.15 12.8721C316.387 12.7741 316.589 12.608 316.731 12.3948C316.874 12.1817 316.95 11.9312 316.95 11.6749C316.95 11.3312 316.813 11.0016 316.57 10.7585C316.327 10.5155 315.998 10.379 315.654 10.379Z" fill="#463E3B"/>
<path d="M342.082 239.131H295.93C290.1 239.147 284.387 237.503 279.458 234.391L276.048 232.219L277.287 230.31L280.697 232.481C285.255 235.359 290.539 236.877 295.93 236.857H342.082C348.66 236.906 355.041 234.618 360.089 230.401L361.578 232.117C356.134 236.723 349.213 239.213 342.082 239.131Z" fill="#463E3B"/>
<path d="M237.278 95.532H212.112V110.118C215.33 108.611 218.754 107.858 222.383 107.858C226.218 107.858 229.642 108.748 232.655 110.529C235.668 112.309 238.031 114.911 239.743 118.335C241.455 121.759 242.311 125.8 242.311 130.456C242.311 135.318 241.181 139.632 238.921 143.399C236.73 147.096 233.546 149.973 229.368 152.027C225.26 154.081 220.5 155.109 215.09 155.109C205.709 155.109 198.005 151.616 191.979 144.631L201.018 136.208C204.784 140.659 209.27 142.885 214.474 142.885C218.035 142.885 220.774 141.824 222.692 139.701C224.678 137.578 225.67 134.531 225.67 130.559C225.67 122.821 222.418 118.952 215.912 118.952C214.543 118.952 213.207 119.157 211.906 119.568C210.605 119.91 209.167 120.527 207.592 121.417H196.601V83.9248H239.127L237.278 95.532ZM275.811 82.4867C284.302 82.4867 290.773 85.6025 295.224 91.8341C299.744 98.0657 302.004 107.036 302.004 118.746C302.004 130.388 299.744 139.358 295.224 145.658C290.773 151.958 284.302 155.109 275.811 155.109C267.319 155.109 260.814 151.958 256.294 145.658C251.843 139.358 249.617 130.388 249.617 118.746C249.617 107.036 251.843 98.0657 256.294 91.8341C260.814 85.6025 267.319 82.4867 275.811 82.4867ZM275.811 94.5048C273.482 94.5048 271.633 95.258 270.264 96.7646C268.894 98.2711 267.867 100.771 267.182 104.263C266.566 107.755 266.258 112.583 266.258 118.746C266.258 124.909 266.566 129.771 267.182 133.332C267.867 136.825 268.894 139.324 270.264 140.831C271.633 142.337 273.482 143.09 275.811 143.09C278.139 143.09 279.988 142.371 281.357 140.933C282.727 139.427 283.72 136.927 284.336 133.435C285.021 129.874 285.363 124.978 285.363 118.746C285.363 112.515 285.021 107.653 284.336 104.16C283.72 100.599 282.727 98.0999 281.357 96.6619C279.988 95.2238 278.139 94.5048 275.811 94.5048ZM329.144 82.4867C334.143 82.4867 338.423 83.377 341.984 85.1574C345.613 86.9379 348.352 89.3346 350.201 92.3477C352.118 95.3608 353.077 98.682 353.077 102.311C353.077 106.009 352.324 109.536 350.817 112.891C349.311 116.247 346.64 120.116 342.805 124.498C338.971 128.813 333.389 134.291 326.062 140.933H354.515L352.872 153.362H307.676V141.858C316.099 133.572 322.227 127.34 326.062 123.163C329.897 118.917 332.568 115.391 334.074 112.583C335.649 109.776 336.437 106.899 336.437 103.955C336.437 101.147 335.615 98.9559 333.972 97.3809C332.397 95.7374 330.239 94.9156 327.5 94.9156C325.035 94.9156 322.844 95.4977 320.926 96.6619C319.009 97.7575 316.989 99.5722 314.866 102.106L305.313 94.5048C308.189 90.7384 311.613 87.7939 315.585 85.671C319.625 83.5482 324.145 82.4867 329.144 82.4867ZM370.087 136.517C372.621 136.517 374.778 137.441 376.559 139.29C378.408 141.07 379.332 143.227 379.332 145.761C379.332 148.363 378.408 150.589 376.559 152.438C374.778 154.218 372.621 155.109 370.087 155.109C367.485 155.109 365.26 154.218 363.411 152.438C361.63 150.589 360.74 148.363 360.74 145.761C360.74 143.227 361.63 141.07 363.411 139.29C365.26 137.441 367.485 136.517 370.087 136.517ZM394.764 136.517C397.298 136.517 399.455 137.441 401.235 139.29C403.084 141.07 404.009 143.227 404.009 145.761C404.009 148.363 403.084 150.589 401.235 152.438C399.455 154.218 397.298 155.109 394.764 155.109C392.162 155.109 389.936 154.218 388.087 152.438C386.307 150.589 385.417 148.363 385.417 145.761C385.417 143.227 386.307 141.07 388.087 139.29C389.936 137.441 392.162 136.517 394.764 136.517ZM419.44 136.517C421.974 136.517 424.131 137.441 425.912 139.29C427.76 141.07 428.685 143.227 428.685 145.761C428.685 148.363 427.76 150.589 425.912 152.438C424.131 154.218 421.974 155.109 419.44 155.109C416.838 155.109 414.613 154.218 412.764 152.438C410.983 150.589 410.093 148.363 410.093 145.761C410.093 143.227 410.983 141.07 412.764 139.29C414.613 137.441 416.838 136.517 419.44 136.517Z" fill="#939393"/>
<path d="M118.39 42.6515C118.842 42.6515 119.276 42.4719 119.596 42.1521C119.916 41.8323 120.095 41.3986 120.095 40.9464C120.095 40.4941 119.916 40.0604 119.596 39.7406C119.276 39.4209 118.842 39.2412 118.39 39.2412C117.938 39.2412 117.504 39.4209 117.184 39.7406C116.865 40.0604 116.685 40.4941 116.685 40.9464C116.685 41.3986 116.865 41.8323 117.184 42.1521C117.504 42.4719 117.938 42.6515 118.39 42.6515Z" fill="#E8F0F9"/>
<path opacity="0.35" d="M507.028 158.646C504.287 156.676 501.913 154.241 500.014 151.451C499.09 149.951 498.508 148.267 498.309 146.517C498.078 144.703 498.37 142.862 499.15 141.208C499.564 140.358 500.126 139.588 500.81 138.935C501.459 138.347 502.15 137.807 502.878 137.321C504.22 136.377 505.55 135.445 505.868 134.32C506.186 133.194 505.686 131.978 504.731 130.671C503.707 129.302 502.787 127.858 501.98 126.351C498.824 120.145 498.017 113.007 499.707 106.253C500.519 102.92 502 99.7874 504.061 97.045C506.092 94.3284 508.801 92.1922 511.916 90.8496C510.498 91.6966 509.186 92.7077 508.005 93.862C506.855 95.0187 505.837 96.2997 504.97 97.6816C503.231 100.426 502.02 103.472 501.401 106.662C500.151 113.001 501.072 119.576 504.015 125.328C504.762 126.759 505.617 128.131 506.573 129.431C507.119 130.187 507.558 131.013 507.88 131.887C508.24 132.902 508.24 134.009 507.88 135.024C507.517 135.976 506.904 136.812 506.107 137.446C505.431 137.998 504.721 138.506 503.981 138.969C502.646 139.686 501.518 140.735 500.707 142.015C500.005 143.362 499.686 144.876 499.786 146.392C499.848 147.977 500.255 149.529 500.98 150.939C502.356 153.838 504.811 156.225 507.028 158.646Z" fill="#141414"/>
<path opacity="0.35" d="M516.11 151.554C518.384 148.962 518.725 145.529 518.293 142.46C517.861 139.391 516.451 136.287 515.269 133.104C514.659 131.474 514.18 129.798 513.837 128.091C513.524 126.359 513.425 124.596 513.541 122.839C513.736 119.365 514.837 116.002 516.735 113.086C515.708 116.24 515.227 119.546 515.314 122.862C515.46 126.111 516.163 129.31 517.395 132.32C518.531 135.435 519.884 138.686 520.043 142.301C520.14 144.082 519.877 145.864 519.27 147.541C518.676 149.184 517.568 150.591 516.11 151.554Z" fill="#141414"/>
<path opacity="0.35" d="M526.341 125.409C528.614 122.817 528.955 119.384 528.523 116.314C528.091 113.245 526.682 110.142 525.5 106.959C524.889 105.329 524.41 103.652 524.067 101.946C523.755 100.214 523.656 98.45 523.772 96.6939C523.967 93.2196 525.068 89.8569 526.966 86.9404C525.939 90.0944 525.458 93.4007 525.545 96.7166C525.69 99.9653 526.394 103.165 527.625 106.175C528.762 109.289 530.115 112.54 530.274 116.155C530.371 117.936 530.108 119.719 529.501 121.396C528.907 123.039 527.799 124.446 526.341 125.409Z" fill="#141414"/>
</g>
</svg>
