<svg width="647" height="261" viewBox="0 0 647 261" fill="none" xmlns="http://www.w3.org/2000/svg">
<g style="mix-blend-mode:multiply" opacity="0.8">
<path d="M536.158 179.789H544.979C549.273 179.789 553.39 181.495 556.426 184.53C559.461 187.566 561.167 191.683 561.167 195.977C561.173 198.689 560.498 201.36 559.203 203.744C557.908 206.127 556.035 208.147 553.755 209.618L535.567 221.326L536.158 179.789Z" fill="#59A562"/>
<path d="M534.941 223.384L535.555 178.652H545.501C549.226 178.673 552.844 179.892 555.821 182.131C558.797 184.369 560.973 187.508 562.025 191.08C563.078 194.652 562.951 198.469 561.664 201.964C560.377 205.459 557.998 208.445 554.88 210.482L534.941 223.384ZM537.851 180.926L537.328 219.178L553.709 208.618C556.437 206.855 558.521 204.256 559.651 201.211C560.781 198.166 560.895 194.837 559.977 191.721C559.058 188.606 557.157 185.871 554.556 183.925C551.955 181.98 548.795 180.927 545.547 180.926H537.851Z" fill="#463E3B"/>
<path d="M537.67 185.473H543.558C546.419 185.473 549.163 186.609 551.186 188.632C553.209 190.655 554.346 193.399 554.346 196.261C554.35 198.069 553.9 199.85 553.035 201.439C552.171 203.029 550.922 204.375 549.401 205.355L537.294 213.153L537.67 185.473Z" fill="white"/>
<path d="M536.078 215.233L536.498 184.336H543.501C546.076 184.336 548.583 185.169 550.646 186.712C552.708 188.255 554.215 190.425 554.942 192.896C555.669 195.367 555.576 198.007 554.678 200.42C553.779 202.834 552.123 204.893 549.958 206.287L536.078 215.233ZM538.795 186.609L538.465 211.027L548.787 204.377C550.541 203.249 551.882 201.583 552.609 199.628C553.337 197.674 553.412 195.536 552.823 193.536C552.235 191.535 551.014 189.779 549.343 188.53C547.673 187.282 545.643 186.608 543.558 186.609H538.795Z" fill="#463E3B"/>
<path d="M529.337 247.996C550.367 231.512 544.683 167.285 544.683 167.285H472.499L446.353 218.44L452.037 248.757L529.337 247.996Z" fill="#76D98C"/>
<path d="M538.272 166.715H535.589C535.589 166.715 541.273 230.942 520.243 247.425L450.9 248.107V248.187L528.2 247.425C545.536 233.784 544.717 187.802 543.899 172.046C543.81 170.611 543.179 169.262 542.135 168.273C541.091 167.283 539.71 166.726 538.272 166.715Z" fill="#6DCC7E"/>
<path d="M530.042 247.756L528.643 245.971C545.524 232.739 544.626 186.314 543.944 172.388C543.88 171.012 543.288 169.714 542.29 168.763C541.293 167.812 539.968 167.283 538.59 167.284H472.499V165.011H538.59C540.55 165.011 542.434 165.766 543.852 167.119C545.27 168.471 546.113 170.317 546.206 172.275C547.093 190.463 547.298 234.228 530.042 247.756Z" fill="#463E3B"/>
<path d="M190.579 242.31H79.847L46.5398 209.015L48.154 207.4L80.7792 240.037H190.579V242.31Z" fill="#463E3B"/>
<path d="M1.79736 246.857H645.719V259.362H1.79736V246.857Z" fill="#EA9178"/>
<path d="M2.72998 247.573H646.651V249.722H2.72998V247.573Z" fill="#A76C59"/>
<path opacity="0.2" d="M639.943 245.779V256.067H5.92334V245.779H0.967041V258.284H644.9V245.779H639.943Z" fill="white"/>
<path d="M646.855 260.501H0.660645V245.723H646.855V260.501ZM2.93418 258.227H644.582V247.996H2.93418V258.227Z" fill="#463E3B"/>
<g opacity="0.15">
<path d="M71.2205 66.1142H0.740967V44.5156H71.2205V66.1142ZM3.0145 63.8407H68.9469V46.7892H3.0145V63.8407Z" fill="#463E3B"/>
<path d="M139.427 66.1142H68.947V44.5156H139.427V66.1142ZM71.2206 63.8407H137.153V46.7892H71.2206V63.8407Z" fill="#463E3B"/>
<path d="M104.187 46.789H33.7073V25.1904H104.187V46.789ZM35.9808 44.5155H101.913V27.464H35.9808V44.5155Z" fill="#463E3B"/>
</g>
<g opacity="0.15">
<path d="M498.645 68.3857H428.165V46.7871H498.645V68.3857ZM430.439 66.1121H496.371V49.0606H430.439V66.1121Z" fill="#463E3B"/>
<path d="M566.851 68.3857H496.371V46.7871H566.851V68.3857ZM498.645 66.1121H564.577V49.0606H498.645V66.1121Z" fill="#463E3B"/>
<path d="M531.611 49.0605H461.131V27.4619H531.611V49.0605ZM463.405 46.7869H529.337V29.7354H463.405V46.7869Z" fill="#463E3B"/>
</g>
<g opacity="0.15">
<path d="M579.355 135.456H508.875V113.857H579.355V135.456ZM511.149 133.182H577.081V116.131H511.149V133.182Z" fill="#463E3B"/>
<path d="M630.509 155.918H560.029V134.319H630.509V155.918ZM562.303 153.644H628.235V136.593H562.303V153.644Z" fill="#463E3B"/>
</g>
<g opacity="0.15">
<path d="M134.879 177.517H64.3999V155.918H134.879V177.517ZM66.6734 175.243H132.606V158.192H66.6734V175.243Z" fill="#463E3B"/>
<path d="M186.034 197.978H115.554V176.38H186.034V197.978ZM117.828 195.705H183.76V178.653H117.828V195.705Z" fill="#463E3B"/>
</g>
<path d="M31.9553 165.988C47.9208 165.988 60.8633 153.045 60.8633 137.08C60.8633 121.114 47.9208 108.172 31.9553 108.172C15.9899 108.172 3.04736 121.114 3.04736 137.08C3.04736 153.045 15.9899 165.988 31.9553 165.988Z" fill="#E8F0F9"/>
<path d="M31.9559 108.172C28.2438 108.165 24.5653 108.875 21.1226 110.264C28.2074 108.464 35.711 109.414 42.1237 112.922C48.5365 116.431 53.3827 122.238 55.6874 129.175C57.9921 136.112 57.5842 143.664 54.5459 150.313C51.5075 156.961 46.0642 162.213 39.3108 165.01C46.0681 163.186 51.9342 158.972 55.8213 153.151C59.7084 147.331 61.3526 140.298 60.4489 133.357C59.5452 126.416 56.155 120.039 50.9071 115.408C45.6591 110.776 38.9097 108.206 31.9105 108.172H31.9559Z" fill="#BCD9EA"/>
<path d="M10.993 136.513C10.994 129.435 13.5914 122.604 18.293 117.313C22.9945 112.023 29.4735 108.641 36.502 107.809C32.4481 107.331 28.339 107.717 24.445 108.942C20.5509 110.166 16.9604 112.201 13.9097 114.913C10.8589 117.626 8.41717 120.953 6.74508 124.677C5.07299 128.401 4.2085 132.436 4.2085 136.518C4.2085 140.6 5.07299 144.636 6.74508 148.36C8.41717 152.084 10.8589 155.411 13.9097 158.123C16.9604 160.835 20.5509 162.871 24.445 164.095C28.339 165.32 32.4481 165.705 36.502 165.227C29.4716 164.395 22.991 161.012 18.2892 155.719C13.5874 150.426 10.9912 143.592 10.993 136.513Z" fill="white"/>
<path d="M31.9566 167.137C26.0162 167.128 20.2118 165.359 15.277 162.052C10.3422 158.745 6.49832 154.049 4.23128 148.559C1.96423 143.068 1.37573 137.028 2.54014 131.203C3.70456 125.378 6.56962 120.029 10.7733 115.832C14.9769 111.634 20.3304 108.777 26.1573 107.622C31.9842 106.466 38.0228 107.064 43.5101 109.339C48.9974 111.615 53.6871 115.466 56.9864 120.405C60.2858 125.345 62.0467 131.152 62.0468 137.093C62.0377 145.066 58.8632 152.71 53.2208 158.343C47.5784 163.977 39.93 167.14 31.9566 167.137ZM31.9566 109.31C26.4664 109.319 21.102 110.955 16.5413 114.012C11.9806 117.068 8.42814 121.408 6.33284 126.482C4.23754 131.557 3.69339 137.139 4.76916 142.523C5.84493 147.907 8.49233 152.851 12.3769 156.73C16.2614 160.61 21.2088 163.252 26.5939 164.321C31.979 165.39 37.5601 164.839 42.6322 162.737C47.7043 160.636 52.0396 157.078 55.0905 152.514C58.1414 147.949 59.771 142.583 59.7732 137.093C59.7672 129.72 56.8335 122.652 51.6172 117.442C46.4009 112.232 39.329 109.307 31.9566 109.31Z" fill="#463E3B"/>
<path d="M21.4415 121.426H42.4717C43.5149 121.426 44.5153 121.84 45.2529 122.578C45.9905 123.315 46.4049 124.316 46.4049 125.359V135.874C46.4049 139.709 44.8815 143.387 42.1698 146.099C39.4581 148.81 35.7802 150.334 31.9453 150.334C28.1103 150.334 24.4324 148.81 21.7207 146.099C19.009 143.387 17.4856 139.709 17.4856 135.874V125.359C17.4856 124.841 17.5881 124.327 17.7872 123.849C17.9862 123.37 18.278 122.935 18.6456 122.57C19.0133 122.204 19.4496 121.915 19.9294 121.719C20.4092 121.522 20.9231 121.423 21.4415 121.426Z" fill="#463E3B"/>
<path d="M30.8184 144.31H33.0919V192.497H30.8184V144.31Z" fill="#463E3B"/>
<path d="M36.5374 191.021H40.5615V191.59H36.5374V191.021Z" fill="#EA2424"/>
<path d="M35.9424 193.362L36.1899 192.851L39.8123 194.603L39.5648 195.115L35.9424 193.362Z" fill="#EA2424"/>
<path d="M34.2749 194.847L34.8117 194.66L36.1338 198.461L35.597 198.647L34.2749 194.847Z" fill="#EA2424"/>
<path d="M40.2207 209.641H44.2449V210.209H40.2207V209.641Z" fill="#EA2424"/>
<path d="M40.9668 206.632L41.2144 206.12L44.8368 207.873L44.5892 208.385L40.9668 206.632Z" fill="#EA2424"/>
<path d="M44.6658 202.753L45.2026 202.566L46.5247 206.367L45.9879 206.554L44.6658 202.753Z" fill="#EA2424"/>
<path d="M166.492 1.31738H472.214C475.642 1.31738 478.929 2.67912 481.353 5.10304C483.777 7.52695 485.139 10.8145 485.139 14.2424V230.944H153.567V14.2424C153.567 12.5451 153.901 10.8644 154.551 9.29622C155.2 7.72808 156.152 6.30324 157.353 5.10304C158.553 3.90284 159.978 2.95079 161.546 2.30124C163.114 1.6517 164.795 1.31738 166.492 1.31738Z" fill="#E8F0F9"/>
<path d="M163.298 218.2H474.772V221.326H163.298V218.2Z" fill="#BCD9EA"/>
<path d="M472.214 1.31738H166.492C164.795 1.31738 163.114 1.6517 161.546 2.30124C159.978 2.95079 158.553 3.90284 157.353 5.10304C156.152 6.30324 155.2 7.72808 154.551 9.29622C153.901 10.8644 153.567 12.5451 153.567 14.2424V21.063C153.567 19.3657 153.901 17.685 154.551 16.1168C155.2 14.5487 156.152 13.1238 157.353 11.9236C158.553 10.7234 159.978 9.77138 161.546 9.12184C163.114 8.4723 164.795 8.13798 166.492 8.13798H472.214C475.642 8.13798 478.929 9.49972 481.353 11.9236C483.777 14.3475 485.139 17.6351 485.139 21.063V14.2424C485.139 10.8145 483.777 7.52695 481.353 5.10304C478.929 2.67912 475.642 1.31738 472.214 1.31738Z" fill="white"/>
<path d="M486.059 232.08H152.248V14.2415C152.251 10.513 153.734 6.93806 156.37 4.30162C159.006 1.66517 162.581 0.182698 166.31 0.179688L472.032 0.179688C475.754 0.191714 479.32 1.67817 481.95 4.31364C484.579 6.94911 486.056 10.5189 486.059 14.2415V232.08ZM154.499 229.806H483.786V14.2415C483.783 11.1219 482.545 8.13036 480.342 5.92126C478.139 3.71216 475.151 2.46524 472.032 2.45322H166.31C163.184 2.45623 160.188 3.69917 157.978 5.90925C155.768 8.11932 154.525 11.116 154.522 14.2415L154.499 229.806Z" fill="#463E3B"/>
<path d="M163.616 21.7793H473.953V218.44H163.616V21.7793Z" fill="white"/>
<path opacity="0.1" d="M164.752 21.7793H473.953V27.4631H164.752V21.7793Z" fill="#463E3B"/>
<path d="M474.692 219.576H163.616V20.6416H474.692V219.576ZM165.867 217.302H472.418V22.9151H165.889L165.867 217.302Z" fill="#463E3B"/>
<path d="M107.597 230.943H529.905V237.377C529.905 240.193 528.787 242.894 526.796 244.885C524.804 246.876 522.104 247.995 519.288 247.995H120.942C117.403 247.995 114.008 246.589 111.506 244.086C109.003 241.583 107.597 238.189 107.597 234.649V230.943Z" fill="#E8F0F9"/>
<path d="M108.813 230.943H531.111V237.764H108.813V230.943Z" fill="#BCD9EA"/>
<path d="M517.071 249.132H121.226C117.416 249.129 113.763 247.614 111.069 244.92C108.375 242.226 106.86 238.573 106.857 234.763V229.807H531.439V234.763C531.436 238.573 529.922 242.226 527.228 244.92C524.534 247.614 520.881 249.129 517.071 249.132ZM109.142 232.08V234.763C109.145 237.968 110.419 241.041 112.684 243.308C114.949 245.576 118.021 246.852 121.226 246.858H517.071C520.278 246.855 523.352 245.58 525.62 243.312C527.888 241.045 529.163 237.97 529.166 234.763V232.08H109.142Z" fill="#463E3B"/>
<path d="M316.228 13.6964C317.258 13.6964 318.092 12.8617 318.092 11.8321C318.092 10.8024 317.258 9.96777 316.228 9.96777C315.198 9.96777 314.364 10.8024 314.364 11.8321C314.364 12.8617 315.198 13.6964 316.228 13.6964Z" fill="#FF4E00"/>
<path d="M316.228 14.2638C315.747 14.2638 315.277 14.1211 314.877 13.8538C314.476 13.5865 314.165 13.2066 313.981 12.7621C313.796 12.3176 313.748 11.8284 313.842 11.3565C313.936 10.8846 314.168 10.4512 314.508 10.111C314.848 9.77074 315.282 9.53905 315.753 9.44518C316.225 9.35132 316.715 9.39949 317.159 9.58362C317.604 9.76774 317.983 10.0795 318.251 10.4796C318.518 10.8796 318.661 11.35 318.661 11.8311C318.661 12.4763 318.404 13.0951 317.948 13.5513C317.492 14.0075 316.873 14.2638 316.228 14.2638ZM316.228 10.5352C315.972 10.5352 315.721 10.6112 315.508 10.7536C315.295 10.896 315.129 11.0984 315.031 11.3352C314.933 11.572 314.907 11.8326 314.957 12.0839C315.007 12.3353 315.13 12.5662 315.312 12.7475C315.493 12.9287 315.724 13.0521 315.975 13.1021C316.227 13.1521 316.487 13.1265 316.724 13.0284C316.961 12.9303 317.163 12.7642 317.306 12.5511C317.448 12.338 317.524 12.0874 317.524 11.8311C317.524 11.4874 317.387 11.1578 317.144 10.9148C316.901 10.6717 316.572 10.5352 316.228 10.5352Z" fill="#463E3B"/>
<path d="M342.656 239.287H296.504C290.674 239.303 284.961 237.659 280.032 234.547L276.622 232.376L277.861 230.466L281.271 232.637C285.829 235.515 291.113 237.033 296.504 237.014H342.656C349.234 237.063 355.615 234.774 360.663 230.557L362.152 232.273C356.708 236.879 349.787 239.369 342.656 239.287Z" fill="#463E3B"/>
<path d="M229.187 155.891H215.034L201.49 119.526C201.942 123.092 202.281 126.253 202.506 129.006C202.777 131.715 202.913 134.943 202.913 138.69V155.891H193.026V108.962H206.84L220.722 145.394C219.729 139.209 219.233 133.386 219.233 127.923V108.962H229.187V155.891ZM256.89 107.811C263.571 107.811 268.763 109.955 272.465 114.244C276.212 118.533 278.086 124.582 278.086 132.392C278.086 137.494 277.228 141.896 275.512 145.597C273.842 149.299 271.404 152.144 268.199 154.13C265.039 156.071 261.269 157.042 256.89 157.042C252.511 157.042 248.741 156.071 245.581 154.13C242.421 152.189 239.983 149.39 238.267 145.733C236.597 142.031 235.762 137.584 235.762 132.392C235.762 127.336 236.597 122.957 238.267 119.255C239.983 115.553 242.421 112.732 245.581 110.79C248.741 108.804 252.511 107.811 256.89 107.811ZM256.89 115.937C253.684 115.937 251.292 117.246 249.712 119.865C248.177 122.438 247.409 126.614 247.409 132.392C247.409 138.171 248.199 142.37 249.779 144.988C251.359 147.606 253.73 148.916 256.89 148.916C260.14 148.916 262.533 147.629 264.068 145.056C265.648 142.437 266.438 138.216 266.438 132.392C266.438 126.569 265.648 122.37 264.068 119.797C262.488 117.224 260.095 115.937 256.89 115.937ZM283.327 138.826V130.564H304.93V138.826H283.327ZM325.396 108.962C332.754 108.962 338.646 110.632 343.07 113.973C347.54 117.269 349.774 123.341 349.774 132.189C349.774 140.902 347.607 147.042 343.273 150.609C338.939 154.13 333.319 155.891 326.412 155.891H312.326V108.962H325.396ZM323.432 117.02V147.832H327.089C330.745 147.832 333.522 146.704 335.418 144.446C337.314 142.144 338.262 138.058 338.262 132.189C338.262 128.171 337.788 125.056 336.84 122.844C335.892 120.632 334.605 119.12 332.98 118.307C331.355 117.449 329.346 117.02 326.953 117.02H323.432ZM384.148 145.462C384.148 146.816 384.329 147.81 384.69 148.442C385.096 149.074 385.728 149.548 386.586 149.864L384.351 156.839C382.139 156.658 380.333 156.184 378.934 155.417C377.534 154.604 376.451 153.34 375.683 151.624C373.336 155.236 369.724 157.042 364.848 157.042C361.282 157.042 358.438 156.003 356.316 153.927C354.194 151.85 353.133 149.141 353.133 145.801C353.133 141.873 354.578 138.871 357.467 136.794C360.357 134.717 364.532 133.679 369.995 133.679H373.652V132.122C373.652 130 373.2 128.555 372.297 127.788C371.395 126.975 369.814 126.569 367.557 126.569C366.383 126.569 364.961 126.749 363.291 127.11C361.621 127.426 359.905 127.878 358.144 128.465L355.707 121.422C357.964 120.564 360.266 119.91 362.614 119.458C365.006 119.007 367.219 118.781 369.25 118.781C374.397 118.781 378.166 119.842 380.559 121.964C382.952 124.086 384.148 127.268 384.148 131.512V145.462ZM367.964 149.39C370.401 149.39 372.297 148.238 373.652 145.936V139.571H371.011C368.573 139.571 366.745 139.999 365.526 140.857C364.352 141.715 363.765 143.047 363.765 144.853C363.765 146.297 364.126 147.426 364.848 148.238C365.616 149.006 366.654 149.39 367.964 149.39ZM415.221 154.198C413.912 155.101 412.377 155.8 410.616 156.297C408.9 156.794 407.185 157.042 405.469 157.042C397.614 156.997 393.686 152.663 393.686 144.04V127.381H388.608V119.932H393.686V112.145L404.386 110.926V119.932H412.647L411.496 127.381H404.386V143.905C404.386 145.575 404.657 146.771 405.198 147.494C405.74 148.216 406.598 148.577 407.772 148.577C408.991 148.577 410.277 148.193 411.632 147.426L415.221 154.198ZM446.576 145.462C446.576 146.816 446.756 147.81 447.118 148.442C447.524 149.074 448.156 149.548 449.014 149.864L446.779 156.839C444.567 156.658 442.761 156.184 441.362 155.417C439.962 154.604 438.879 153.34 438.111 151.624C435.764 155.236 432.152 157.042 427.276 157.042C423.71 157.042 420.866 156.003 418.744 153.927C416.622 151.85 415.561 149.141 415.561 145.801C415.561 141.873 417.006 138.871 419.895 136.794C422.784 134.717 426.96 133.679 432.423 133.679H436.08V132.122C436.08 130 435.628 128.555 434.725 127.788C433.822 126.975 432.242 126.569 429.985 126.569C428.811 126.569 427.389 126.749 425.719 127.11C424.048 127.426 422.333 127.878 420.572 128.465L418.134 121.422C420.392 120.564 422.694 119.91 425.041 119.458C427.434 119.007 429.646 118.781 431.678 118.781C436.824 118.781 440.594 119.842 442.987 121.964C445.38 124.086 446.576 127.268 446.576 131.512V145.462ZM430.391 149.39C432.829 149.39 434.725 148.238 436.08 145.936V139.571H433.439C431.001 139.571 429.172 139.999 427.953 140.857C426.78 141.715 426.193 143.047 426.193 144.853C426.193 146.297 426.554 147.426 427.276 148.238C428.044 149.006 429.082 149.39 430.391 149.39Z" fill="#939393"/>
<path d="M118.964 42.8078C119.416 42.8078 119.85 42.6281 120.17 42.3083C120.49 41.9886 120.669 41.5548 120.669 41.1026C120.669 40.6504 120.49 40.2167 120.17 39.8969C119.85 39.5771 119.416 39.3975 118.964 39.3975C118.512 39.3975 118.078 39.5771 117.758 39.8969C117.439 40.2167 117.259 40.6504 117.259 41.1026C117.259 41.5548 117.439 41.9886 117.758 42.3083C118.078 42.6281 118.512 42.8078 118.964 42.8078Z" fill="#E8F0F9"/>
<path opacity="0.35" d="M507.602 158.803C504.861 156.833 502.487 154.397 500.588 151.607C499.664 150.107 499.082 148.423 498.883 146.673C498.652 144.86 498.944 143.018 499.724 141.365C500.138 140.514 500.7 139.744 501.384 139.091C502.033 138.503 502.724 137.963 503.453 137.477C504.794 136.533 506.124 135.601 506.442 134.476C506.761 133.35 506.26 132.134 505.306 130.827C504.281 129.458 503.361 128.014 502.555 126.507C499.398 120.301 498.591 113.163 500.281 106.409C501.093 103.076 502.574 99.9437 504.635 97.2012C506.666 94.4847 509.375 92.3485 512.49 91.0059C511.073 91.8528 509.76 92.864 508.579 94.0183C507.429 95.1749 506.411 96.456 505.544 97.8378C503.805 100.583 502.594 103.628 501.975 106.818C500.725 113.157 501.646 119.732 504.589 125.484C505.336 126.915 506.191 128.287 507.147 129.588C507.693 130.343 508.132 131.169 508.454 132.043C508.814 133.058 508.814 134.166 508.454 135.181C508.091 136.132 507.478 136.968 506.681 137.602C506.005 138.154 505.295 138.663 504.555 139.125C503.22 139.842 502.092 140.891 501.281 142.172C500.579 143.518 500.26 145.033 500.361 146.548C500.422 148.133 500.829 149.685 501.554 151.095C502.93 153.994 505.385 156.381 507.602 158.803Z" fill="#141414"/>
<path opacity="0.35" d="M516.684 151.71C518.958 149.119 519.299 145.686 518.867 142.616C518.435 139.547 517.025 136.444 515.843 133.261C515.233 131.63 514.754 129.954 514.411 128.248C514.099 126.515 513.999 124.752 514.115 122.996C514.31 119.521 515.411 116.159 517.309 113.242C516.282 116.396 515.802 119.702 515.889 123.018C516.034 126.267 516.737 129.466 517.969 132.476C519.106 135.591 520.458 138.842 520.617 142.457C520.714 144.238 520.451 146.02 519.844 147.698C519.25 149.34 518.142 150.748 516.684 151.71Z" fill="#141414"/>
<path opacity="0.35" d="M526.915 125.565C529.189 122.973 529.53 119.54 529.098 116.471C528.666 113.401 527.256 110.298 526.074 107.115C525.464 105.485 524.985 103.809 524.642 102.102C524.33 100.37 524.23 98.6063 524.346 96.8501C524.541 93.3759 525.642 90.0132 527.54 87.0967C526.513 90.2506 526.033 93.557 526.119 96.8729C526.265 100.122 526.968 103.321 528.2 106.331C529.337 109.446 530.689 112.697 530.848 116.312C530.945 118.093 530.682 119.875 530.075 121.552C529.481 123.195 528.373 124.602 526.915 125.565Z" fill="#141414"/>
</g>
</svg>
