<svg width="648" height="261" viewBox="0 0 648 261" fill="none" xmlns="http://www.w3.org/2000/svg">
<path d="M536.349 179.633H545.171C549.464 179.633 553.581 181.338 556.617 184.374C559.653 187.41 561.358 191.527 561.358 195.82C561.365 198.533 560.689 201.204 559.394 203.587C558.099 205.971 556.226 207.991 553.946 209.462L535.758 221.17L536.349 179.633Z" fill="#59A562"/>
<path d="M535.132 223.228L535.746 178.496H545.693C549.417 178.516 553.035 179.736 556.012 181.975C558.988 184.213 561.164 187.351 562.216 190.924C563.269 194.496 563.142 198.313 561.855 201.808C560.568 205.302 558.189 208.289 555.071 210.326L535.132 223.228ZM538.042 180.77L537.519 219.022L553.9 208.461C556.628 206.698 558.712 204.1 559.842 201.055C560.972 198.01 561.086 194.681 560.168 191.565C559.249 188.45 557.348 185.715 554.747 183.769C552.146 181.823 548.986 180.771 545.738 180.77H538.042Z" fill="#463E3B"/>
<path d="M537.861 185.316H543.749C546.61 185.316 549.354 186.453 551.377 188.476C553.4 190.499 554.537 193.243 554.537 196.104C554.541 197.913 554.091 199.694 553.226 201.283C552.362 202.872 551.113 204.219 549.592 205.198L537.485 212.997L537.861 185.316Z" fill="white"/>
<path d="M536.269 215.077L536.689 184.18H543.692C546.268 184.179 548.774 185.013 550.837 186.556C552.899 188.099 554.406 190.268 555.133 192.739C555.86 195.21 555.767 197.85 554.869 200.264C553.97 202.678 552.314 204.736 550.149 206.131L536.269 215.077ZM538.986 186.453L538.656 210.871L548.978 204.221C550.732 203.093 552.073 201.426 552.801 199.472C553.528 197.518 553.603 195.38 553.015 193.38C552.426 191.379 551.205 189.623 549.534 188.374C547.864 187.126 545.834 186.452 543.749 186.453H538.986Z" fill="#463E3B"/>
<path d="M529.528 247.839C550.558 231.356 544.874 167.129 544.874 167.129H472.69L446.544 218.283L452.228 248.601L529.528 247.839Z" fill="#76D98C"/>
<path d="M538.463 166.559H535.78C535.78 166.559 541.464 230.786 520.434 247.269L451.091 247.951V248.031L528.391 247.269C545.727 233.628 544.908 187.646 544.09 171.89C544.001 170.454 543.371 169.106 542.326 168.116C541.282 167.127 539.901 166.57 538.463 166.559Z" fill="#6DCC7E"/>
<path d="M530.233 247.6L528.835 245.815C545.716 232.583 544.818 186.157 544.135 172.232C544.071 170.856 543.479 169.557 542.482 168.607C541.484 167.656 540.159 167.127 538.781 167.128H472.69V164.854H538.781C540.741 164.855 542.625 165.61 544.043 166.962C545.461 168.315 546.304 170.161 546.398 172.118C547.284 190.307 547.489 234.072 530.233 247.6Z" fill="#463E3B"/>
<path d="M190.771 242.154H80.0382L46.731 208.858L48.3452 207.244L80.9704 239.881H190.771V242.154Z" fill="#463E3B"/>
<path d="M1.98859 246.701H645.91V259.206H1.98859V246.701Z" fill="#EA9178"/>
<path d="M2.92108 247.417H646.842V249.565H2.92108V247.417Z" fill="#A76C59"/>
<path opacity="0.2" d="M640.134 245.623V255.911H6.1145V245.623H1.1582V258.127H645.091V245.623H640.134Z" fill="white"/>
<path d="M647.047 260.344H0.851807V245.566H647.047V260.344ZM3.12534 258.071H644.773V247.84H3.12534V258.071Z" fill="#463E3B"/>
<g opacity="0.15">
<path d="M71.4116 65.9579H0.932068V44.3594H71.4116V65.9579ZM3.2056 63.6844H69.138V46.6329H3.2056V63.6844Z" fill="#463E3B"/>
<path d="M139.618 65.9579H69.1381V44.3594H139.618V65.9579ZM71.4116 63.6844H137.344V46.6329H71.4116V63.6844Z" fill="#463E3B"/>
<path d="M104.378 46.6327H33.8983V25.0342H104.378V46.6327ZM36.1718 44.3592H102.104V27.3077H36.1718V44.3592Z" fill="#463E3B"/>
</g>
<g opacity="0.15">
<path d="M498.836 68.2294H428.356V46.6309H498.836V68.2294ZM430.63 65.9559H496.562V48.9044H430.63V65.9559Z" fill="#463E3B"/>
<path d="M567.042 68.2294H496.562V46.6309H567.042V68.2294ZM498.836 65.9559H564.768V48.9044H498.836V65.9559Z" fill="#463E3B"/>
<path d="M531.802 48.9042H461.322V27.3057H531.802V48.9042ZM463.596 46.6307H529.528V29.5792H463.596V46.6307Z" fill="#463E3B"/>
</g>
<g opacity="0.15">
<path d="M579.546 135.3H509.066V113.701H579.546V135.3ZM511.34 133.026H577.272V115.975H511.34V133.026Z" fill="#463E3B"/>
<path d="M630.7 155.762H560.221V134.163H630.7V155.762ZM562.494 153.488H628.427V136.437H562.494V153.488Z" fill="#463E3B"/>
</g>
<g opacity="0.15">
<path d="M135.071 177.36H64.591V155.762H135.071V177.36ZM66.8645 175.087H132.797V158.035H66.8645V175.087Z" fill="#463E3B"/>
<path d="M186.225 197.822H115.745V176.224H186.225V197.822ZM118.019 195.549H183.951V178.497H118.019V195.549Z" fill="#463E3B"/>
</g>
<path d="M32.1466 165.832C48.112 165.832 61.0545 152.889 61.0545 136.924C61.0545 120.958 48.112 108.016 32.1466 108.016C16.1811 108.016 3.23859 120.958 3.23859 136.924C3.23859 152.889 16.1811 165.832 32.1466 165.832Z" fill="#E8F0F9"/>
<path d="M32.147 108.016C28.4348 108.009 24.7563 108.719 21.3136 110.107C28.3984 108.308 35.902 109.257 42.3148 112.766C48.7276 116.275 53.5738 122.082 55.8784 129.019C58.1831 135.956 57.7752 143.508 54.7369 150.157C51.6986 156.805 46.2552 162.056 39.5019 164.854C46.2591 163.029 52.1253 158.816 56.0123 152.995C59.8994 147.174 61.5436 140.142 60.6399 133.201C59.7362 126.26 56.346 119.883 51.0981 115.251C45.8502 110.62 39.1007 108.049 32.1015 108.016H32.147Z" fill="#BCD9EA"/>
<path d="M11.1843 136.356C11.1853 129.279 13.7827 122.448 18.4843 117.157C23.1858 111.867 29.6648 108.485 36.6933 107.653C32.6394 107.175 28.5302 107.561 24.6362 108.785C20.7422 110.01 17.1517 112.045 14.101 114.757C11.0502 117.469 8.60846 120.797 6.93636 124.521C5.26428 128.244 4.39978 132.28 4.39978 136.362C4.39978 140.444 5.26428 144.48 6.93636 148.204C8.60846 151.927 11.0502 155.255 14.101 157.967C17.1517 160.679 20.7422 162.714 24.6362 163.939C28.5302 165.163 32.6394 165.549 36.6933 165.071C29.6629 164.239 23.1823 160.855 18.4805 155.563C13.7787 150.27 11.1825 143.436 11.1843 136.356Z" fill="white"/>
<path d="M32.1477 166.981C26.2074 166.972 20.403 165.202 15.4682 161.896C10.5333 158.589 6.68948 153.893 4.42244 148.402C2.1554 142.912 1.56689 136.872 2.73131 131.047C3.89572 125.222 6.76078 119.873 10.9644 115.675C15.1681 111.478 20.5216 108.621 26.3485 107.466C32.1753 106.31 38.214 106.908 43.7013 109.183C49.1886 111.458 53.8783 115.309 57.1776 120.249C60.477 125.189 62.2379 130.996 62.2379 136.936C62.2289 144.91 59.0543 152.553 53.412 158.187C47.7696 163.821 40.1212 166.984 32.1477 166.981ZM32.1477 109.154C26.6575 109.163 21.2932 110.799 16.7325 113.855C12.1717 116.912 8.6193 121.252 6.524 126.326C4.4287 131.401 3.88456 136.983 4.96032 142.366C6.03609 147.75 8.68349 152.694 12.568 156.574C16.4526 160.454 21.3999 163.095 26.785 164.164C32.1701 165.234 37.7513 164.683 42.8234 162.581C47.8954 160.48 52.2308 156.922 55.2817 152.357C58.3326 147.793 59.9621 142.427 59.9644 136.936C59.9584 129.564 57.0247 122.496 51.8083 117.286C46.592 112.076 39.5202 109.151 32.1477 109.154Z" fill="#463E3B"/>
<path d="M21.6328 121.27H42.6629C43.7061 121.27 44.7065 121.684 45.4441 122.422C46.1818 123.159 46.5962 124.16 46.5962 125.203V135.718C46.5962 139.553 45.0727 143.231 42.361 145.942C39.6493 148.654 35.9714 150.178 32.1365 150.178C28.3015 150.178 24.6237 148.654 21.912 145.942C19.2002 143.231 17.6768 139.553 17.6768 135.718V125.203C17.6768 124.684 17.7793 124.171 17.9784 123.692C18.1775 123.214 18.4692 122.779 18.8369 122.414C19.2045 122.048 19.6408 121.759 20.1206 121.562C20.6004 121.366 21.1143 121.267 21.6328 121.27Z" fill="#463E3B"/>
<path d="M31.0094 144.153H33.2829V192.341H31.0094V144.153Z" fill="#463E3B"/>
<path d="M36.7285 190.865H40.7526V191.434H36.7285V190.865Z" fill="#EA2424"/>
<path d="M36.1335 193.206L36.381 192.694L40.0034 194.447L39.7559 194.959L36.1335 193.206Z" fill="#EA2424"/>
<path d="M34.4661 194.69L35.0029 194.504L36.325 198.304L35.7881 198.491L34.4661 194.69Z" fill="#EA2424"/>
<path d="M40.4119 209.484H44.4361V210.053H40.4119V209.484Z" fill="#EA2424"/>
<path d="M41.1579 206.476L41.4055 205.964L45.0279 207.717L44.7803 208.228L41.1579 206.476Z" fill="#EA2424"/>
<path d="M44.8568 202.597L45.3936 202.41L46.7157 206.211L46.1789 206.397L44.8568 202.597Z" fill="#EA2424"/>
<path d="M166.683 1.16113H472.405C475.833 1.16113 479.12 2.52287 481.544 4.94679C483.968 7.3707 485.33 10.6582 485.33 14.0862V230.788H153.758V14.0862C153.758 12.3888 154.092 10.7081 154.742 9.13997C155.391 7.57183 156.343 6.14699 157.544 4.94679C158.744 3.74659 160.169 2.79454 161.737 2.14499C163.305 1.49545 164.986 1.16113 166.683 1.16113Z" fill="#E8F0F9"/>
<path d="M163.489 218.044H474.963V221.17H163.489V218.044Z" fill="#BCD9EA"/>
<path d="M472.405 1.16113H166.683C164.986 1.16113 163.305 1.49545 161.737 2.14499C160.169 2.79454 158.744 3.74659 157.544 4.94679C156.343 6.14699 155.391 7.57183 154.742 9.13997C154.092 10.7081 153.758 12.3888 153.758 14.0862V20.9068C153.758 19.2094 154.092 17.5287 154.742 15.9606C155.391 14.3924 156.343 12.9676 157.544 11.7674C158.744 10.5672 160.169 9.61513 161.737 8.96559C163.305 8.31605 164.986 7.98173 166.683 7.98173H472.405C475.833 7.98173 479.12 9.34347 481.544 11.7674C483.968 14.1913 485.33 17.4788 485.33 20.9068V14.0862C485.33 10.6582 483.968 7.3707 481.544 4.94679C479.12 2.52287 475.833 1.16113 472.405 1.16113Z" fill="white"/>
<path d="M486.251 231.924H152.439V14.0852C152.442 10.3567 153.925 6.78181 156.561 4.14537C159.198 1.50892 162.772 0.026448 166.501 0.0234375L472.223 0.0234375C475.945 0.0354641 479.512 1.52192 482.141 4.15739C484.77 6.79286 486.248 10.3626 486.251 14.0852V231.924ZM154.69 229.65H483.977V14.0852C483.974 10.9656 482.736 7.97411 480.533 5.76501C478.33 3.55591 475.342 2.30899 472.223 2.29697H166.501C163.375 2.29998 160.379 3.54292 158.169 5.753C155.959 7.96307 154.716 10.9597 154.713 14.0852L154.69 229.65Z" fill="#463E3B"/>
<path d="M163.807 21.623H474.144V218.284H163.807V21.623Z" fill="white"/>
<path opacity="0.1" d="M164.944 21.623H474.144V27.3069H164.944V21.623Z" fill="#463E3B"/>
<path d="M474.883 219.419H163.807V20.4854H474.883V219.419ZM166.058 217.146H472.609V22.7589H166.08L166.058 217.146Z" fill="#463E3B"/>
<path d="M107.788 230.787H530.096V237.221C530.096 240.037 528.978 242.738 526.987 244.729C524.996 246.72 522.295 247.839 519.479 247.839H121.133C117.594 247.839 114.199 246.433 111.697 243.93C109.194 241.427 107.788 238.032 107.788 234.493V230.787Z" fill="#E8F0F9"/>
<path d="M109.004 230.787H531.302V237.608H109.004V230.787Z" fill="#BCD9EA"/>
<path d="M517.262 248.975H121.417C117.607 248.972 113.954 247.458 111.26 244.764C108.566 242.07 107.051 238.417 107.048 234.607V229.65H531.631V234.607C531.628 238.417 530.113 242.07 527.419 244.764C524.725 247.458 521.072 248.972 517.262 248.975ZM109.333 231.924V234.607C109.336 237.812 110.61 240.885 112.875 243.152C115.14 245.419 118.212 246.696 121.417 246.702H517.262C520.469 246.699 523.544 245.424 525.811 243.156C528.079 240.888 529.354 237.814 529.357 234.607V231.924H109.333Z" fill="#463E3B"/>
<path d="M316.419 13.5401C317.449 13.5401 318.283 12.7054 318.283 11.6758C318.283 10.6462 317.449 9.81152 316.419 9.81152C315.39 9.81152 314.555 10.6462 314.555 11.6758C314.555 12.7054 315.39 13.5401 316.419 13.5401Z" fill="#FF4E00"/>
<path d="M316.419 14.1075C315.938 14.1075 315.468 13.9649 315.068 13.6976C314.668 13.4303 314.356 13.0503 314.172 12.6058C313.988 12.1613 313.939 11.6722 314.033 11.2003C314.127 10.7284 314.359 10.2949 314.699 9.9547C315.039 9.61449 315.473 9.3828 315.945 9.28893C316.416 9.19507 316.906 9.24324 317.35 9.42737C317.795 9.61149 318.175 9.92329 318.442 10.3233C318.709 10.7234 318.852 11.1937 318.852 11.6749C318.852 12.3201 318.596 12.9388 318.139 13.395C317.683 13.8512 317.064 14.1075 316.419 14.1075ZM316.419 10.379C316.163 10.379 315.912 10.455 315.699 10.5974C315.486 10.7398 315.32 10.9421 315.222 11.1789C315.124 11.4157 315.098 11.6763 315.148 11.9277C315.198 12.1791 315.322 12.41 315.503 12.5912C315.684 12.7725 315.915 12.8959 316.166 12.9459C316.418 12.9959 316.678 12.9702 316.915 12.8721C317.152 12.7741 317.354 12.608 317.497 12.3948C317.639 12.1817 317.715 11.9312 317.715 11.6749C317.715 11.3312 317.579 11.0016 317.336 10.7585C317.092 10.5155 316.763 10.379 316.419 10.379Z" fill="#463E3B"/>
<path d="M342.848 239.131H296.695C290.866 239.147 285.152 237.503 280.223 234.391L276.813 232.219L278.052 230.31L281.462 232.481C286.02 235.359 291.305 236.877 296.695 236.857H342.848C349.425 236.906 355.806 234.618 360.854 230.401L362.343 232.117C356.899 236.723 349.978 239.213 342.848 239.131Z" fill="#463E3B"/>
<path d="M247.288 126.245V138.365H239.481V153.362H223.662L223.56 138.365H194.285V127.58L214.007 82.1786L227.771 87.3145L211.028 126.245H223.765L225.511 109.81H239.481V126.245H247.288ZM279.585 82.4867C288.077 82.4867 294.548 85.6025 298.999 91.8341C303.519 98.0657 305.778 107.036 305.778 118.746C305.778 130.388 303.519 139.358 298.999 145.658C294.548 151.958 288.077 155.109 279.585 155.109C271.094 155.109 264.588 151.958 260.069 145.658C255.618 139.358 253.392 130.388 253.392 118.746C253.392 107.036 255.618 98.0657 260.069 91.8341C264.588 85.6025 271.094 82.4867 279.585 82.4867ZM279.585 94.5048C277.257 94.5048 275.408 95.258 274.039 96.7646C272.669 98.2711 271.642 100.771 270.957 104.263C270.341 107.755 270.032 112.583 270.032 118.746C270.032 124.909 270.341 129.771 270.957 133.332C271.642 136.825 272.669 139.324 274.039 140.831C275.408 142.337 277.257 143.09 279.585 143.09C281.914 143.09 283.762 142.371 285.132 140.933C286.502 139.427 287.495 136.927 288.111 133.435C288.796 129.874 289.138 124.978 289.138 118.746C289.138 112.515 288.796 107.653 288.111 104.16C287.495 100.599 286.502 98.0999 285.132 96.6619C283.762 95.2238 281.914 94.5048 279.585 94.5048ZM365.454 126.245V138.365H357.647V153.362H341.829L341.726 138.365H312.451V127.58L332.173 82.1786L345.937 87.3145L329.194 126.245H341.931L343.677 109.81H357.647V126.245H365.454ZM379.981 136.517C382.515 136.517 384.672 137.441 386.452 139.29C388.301 141.07 389.226 143.227 389.226 145.761C389.226 148.363 388.301 150.589 386.452 152.438C384.672 154.218 382.515 155.109 379.981 155.109C377.379 155.109 375.153 154.218 373.304 152.438C371.524 150.589 370.634 148.363 370.634 145.761C370.634 143.227 371.524 141.07 373.304 139.29C375.153 137.441 377.379 136.517 379.981 136.517ZM404.658 136.517C407.191 136.517 409.348 137.441 411.129 139.29C412.978 141.07 413.902 143.227 413.902 145.761C413.902 148.363 412.978 150.589 411.129 152.438C409.348 154.218 407.191 155.109 404.658 155.109C402.055 155.109 399.83 154.218 397.981 152.438C396.2 150.589 395.31 148.363 395.31 145.761C395.31 143.227 396.2 141.07 397.981 139.29C399.83 137.441 402.055 136.517 404.658 136.517ZM429.334 136.517C431.868 136.517 434.025 137.441 435.805 139.29C437.654 141.07 438.579 143.227 438.579 145.761C438.579 148.363 437.654 150.589 435.805 152.438C434.025 154.218 431.868 155.109 429.334 155.109C426.732 155.109 424.506 154.218 422.657 152.438C420.877 150.589 419.987 148.363 419.987 145.761C419.987 143.227 420.877 141.07 422.657 139.29C424.506 137.441 426.732 136.517 429.334 136.517Z" fill="#939393"/>
<path d="M119.155 42.6515C119.608 42.6515 120.041 42.4719 120.361 42.1521C120.681 41.8323 120.861 41.3986 120.861 40.9464C120.861 40.4941 120.681 40.0604 120.361 39.7406C120.041 39.4209 119.608 39.2412 119.155 39.2412C118.703 39.2412 118.269 39.4209 117.95 39.7406C117.63 40.0604 117.45 40.4941 117.45 40.9464C117.45 41.3986 117.63 41.8323 117.95 42.1521C118.269 42.4719 118.703 42.6515 119.155 42.6515Z" fill="#E8F0F9"/>
<path opacity="0.35" d="M507.793 158.646C505.052 156.676 502.678 154.241 500.779 151.451C499.855 149.951 499.273 148.267 499.074 146.517C498.844 144.703 499.135 142.862 499.915 141.208C500.329 140.358 500.891 139.588 501.575 138.935C502.224 138.347 502.915 137.807 503.644 137.321C504.985 136.377 506.315 135.445 506.634 134.32C506.952 133.194 506.452 131.978 505.497 130.671C504.472 129.302 503.552 127.858 502.746 126.351C499.59 120.145 498.782 113.007 500.472 106.253C501.284 102.92 502.766 99.7874 504.826 97.045C506.858 94.3284 509.566 92.1922 512.681 90.8496C511.264 91.6966 509.951 92.7077 508.771 93.862C507.62 95.0187 506.602 96.2997 505.736 97.6816C503.996 100.426 502.786 103.472 502.166 106.662C500.916 113.001 501.837 119.576 504.781 125.328C505.527 126.759 506.382 128.131 507.338 129.431C507.884 130.187 508.324 131.013 508.646 131.887C509.005 132.902 509.005 134.009 508.646 135.024C508.282 135.976 507.67 136.812 506.872 137.446C506.197 137.998 505.486 138.506 504.747 138.969C503.411 139.686 502.283 140.735 501.473 142.015C500.77 143.362 500.451 144.876 500.552 146.392C500.613 147.977 501.021 149.529 501.745 150.939C503.121 153.838 505.576 156.225 507.793 158.646Z" fill="#141414"/>
<path opacity="0.35" d="M516.875 151.554C519.149 148.962 519.49 145.529 519.058 142.46C518.626 139.391 517.216 136.287 516.034 133.104C515.424 131.474 514.945 129.798 514.602 128.091C514.29 126.359 514.19 124.596 514.306 122.839C514.501 119.365 515.603 116.002 517.501 113.086C516.473 116.24 515.993 119.546 516.08 122.862C516.225 126.111 516.929 129.31 518.16 132.32C519.297 135.435 520.649 138.686 520.809 142.301C520.905 144.082 520.642 145.864 520.036 147.541C519.441 149.184 518.333 150.591 516.875 151.554Z" fill="#141414"/>
<path opacity="0.35" d="M527.106 125.409C529.38 122.817 529.721 119.384 529.289 116.314C528.857 113.245 527.447 110.142 526.265 106.959C525.655 105.329 525.176 103.652 524.833 101.946C524.521 100.214 524.421 98.45 524.537 96.6939C524.732 93.2196 525.833 89.8569 527.731 86.9404C526.704 90.0944 526.223 93.4007 526.31 96.7166C526.456 99.9653 527.159 103.165 528.391 106.175C529.528 109.289 530.88 112.54 531.039 116.155C531.136 117.936 530.873 119.719 530.266 121.396C529.672 123.039 528.564 124.446 527.106 125.409Z" fill="#141414"/>
</svg>
