<svg width="579" height="764" viewBox="0 0 579 764" fill="none" xmlns="http://www.w3.org/2000/svg">
<rect width="579" height="764" rx="16" fill="url(#paint0_linear_1103_6371)"/>
<mask id="mask0_1103_6371" style="mask-type:alpha" maskUnits="userSpaceOnUse" x="0" y="0" width="579" height="764">
<rect width="579" height="764" fill="url(#paint1_linear_1103_6371)"/>
</mask>
<g mask="url(#mask0_1103_6371)">
<ellipse cx="514.5" cy="777.5" rx="43.5" ry="41.5" fill="#E8A200"/>
<g filter="url(#filter0_b_1103_6371)">
<path d="M315.051 771.361C315.051 971.294 144.119 1136.72 -70.9744 1136.72C-286.068 1136.72 -457 971.294 -457 771.361C-457 571.429 -286.068 406 -70.9744 406C144.119 406 315.051 571.429 315.051 771.361Z" stroke="url(#paint2_radial_1103_6371)" stroke-opacity="0.7" stroke-width="80"/>
</g>
<g filter="url(#filter1_b_1103_6371)">
<path d="M211.92 795.228C211.92 952.561 77.2822 1083.46 -93.04 1083.46C-263.362 1083.46 -398 952.561 -398 795.228C-398 637.895 -263.362 507 -93.04 507C77.2822 507 211.92 637.895 211.92 795.228Z" stroke="url(#paint3_radial_1103_6371)" stroke-opacity="0.7" stroke-width="80"/>
</g>
<g filter="url(#filter2_b_1103_6371)">
<path d="M104.936 824.582C104.936 945.66 1.18692 1047.16 -131.032 1047.16C-263.251 1047.16 -367 945.66 -367 824.582C-367 703.504 -263.251 602 -131.032 602C1.18692 602 104.936 703.504 104.936 824.582Z" stroke="url(#paint4_radial_1103_6371)" stroke-opacity="0.7" stroke-width="80"/>
</g>
</g>
<rect x="68.0852" y="654.525" width="48" height="16" rx="8" fill="#616161"/>
<rect opacity="0.6" x="124.085" y="654.525" width="16" height="16" rx="8" fill="#969696"/>
<rect opacity="0.6" x="148.085" y="654.525" width="16" height="16" rx="8" fill="#969696"/>
<path d="M75.589 122.361C74.2336 122.361 72.872 122.253 71.504 122.038C70.1486 121.835 68.8946 121.544 67.742 121.164V116.148C68.54 116.414 69.3886 116.642 70.288 116.832C71.1873 117.009 72.0866 117.149 72.986 117.25C73.898 117.351 74.7593 117.402 75.57 117.402C77.4573 117.402 78.7936 117.117 79.579 116.547C80.3643 115.964 80.757 115.154 80.757 114.115C80.757 113.241 80.4656 112.557 79.883 112.063C79.313 111.569 78.2426 111.119 76.672 110.714L74.544 110.163C72.0866 109.542 70.2246 108.58 68.958 107.275C67.704 105.958 67.077 104.222 67.077 102.069C67.077 99.3837 68.046 97.2873 69.984 95.78C71.9346 94.2727 74.867 93.519 78.781 93.519C80.0476 93.519 81.251 93.595 82.391 93.747C83.5436 93.8863 84.5633 94.0827 85.45 94.336V99.352C84.5507 99.0733 83.55 98.858 82.448 98.706C81.346 98.554 80.2376 98.478 79.123 98.478C77.6536 98.478 76.4883 98.6173 75.627 98.896C74.7656 99.162 74.145 99.542 73.765 100.036C73.3976 100.53 73.214 101.1 73.214 101.746C73.214 102.569 73.4673 103.215 73.974 103.684C74.4806 104.153 75.4306 104.577 76.824 104.957L78.933 105.508C80.757 105.951 82.258 106.54 83.436 107.275C84.614 107.997 85.4817 108.89 86.039 109.954C86.609 111.005 86.894 112.253 86.894 113.697C86.894 115.496 86.4443 117.047 85.545 118.352C84.6583 119.644 83.3726 120.638 81.688 121.335C80.0033 122.019 77.9703 122.361 75.589 122.361ZM99.2179 122.38C96.7099 122.38 94.7782 121.759 93.4229 120.518C92.0802 119.264 91.4089 117.282 91.4089 114.571V101.214L92.5109 93.88H97.4509V113.621C97.4509 115.052 97.7169 116.04 98.2489 116.585C98.7935 117.13 99.6675 117.402 100.871 117.402C101.2 117.402 101.536 117.383 101.878 117.345C102.233 117.294 102.625 117.231 103.056 117.155V121.943C102.511 122.057 101.897 122.158 101.213 122.247C100.542 122.336 99.8765 122.38 99.2179 122.38ZM88.0269 105.983V101.214H102.923V105.983H88.0269ZM111.677 122.38C109.549 122.38 107.89 121.829 106.699 120.727C105.521 119.612 104.932 118.162 104.932 116.376C104.932 114.413 105.61 112.88 106.965 111.778C108.333 110.676 110.537 110.024 113.577 109.821L117.947 109.46L118.593 112.804L114.185 113.165C113.02 113.254 112.177 113.52 111.658 113.963C111.151 114.406 110.898 115.014 110.898 115.787C110.898 116.547 111.132 117.136 111.601 117.554C112.07 117.959 112.754 118.162 113.653 118.162C114.21 118.162 114.78 118.067 115.363 117.877C115.946 117.674 116.478 117.332 116.959 116.851V109.251C116.959 108.301 116.801 107.554 116.484 107.009C116.18 106.464 115.68 106.078 114.983 105.85C114.299 105.609 113.381 105.489 112.228 105.489C111.43 105.489 110.524 105.559 109.511 105.698C108.498 105.825 107.529 106.034 106.604 106.325V101.765C107.617 101.474 108.726 101.258 109.929 101.119C111.145 100.967 112.272 100.891 113.311 100.891C115.515 100.891 117.32 101.163 118.726 101.708C120.145 102.253 121.19 103.165 121.861 104.444C122.532 105.711 122.868 107.44 122.868 109.631V122H117.89L117.472 119.929H117.187C116.566 120.778 115.775 121.398 114.812 121.791C113.849 122.184 112.804 122.38 111.677 122.38ZM127.223 122V101.214H132.182L132.638 103.893H132.942C133.524 102.867 134.297 102.12 135.26 101.651C136.222 101.17 137.28 100.929 138.433 100.929C138.749 100.929 139.053 100.942 139.345 100.967C139.636 100.992 139.896 101.03 140.124 101.081V106.553C139.807 106.49 139.465 106.452 139.098 106.439C138.743 106.414 138.401 106.401 138.072 106.401C137.476 106.401 136.875 106.477 136.267 106.629C135.659 106.768 135.095 106.99 134.576 107.294C134.056 107.585 133.619 107.946 133.265 108.377V122H127.223ZM152.507 122.38C149.999 122.38 148.067 121.759 146.712 120.518C145.369 119.264 144.698 117.282 144.698 114.571V101.214L145.8 93.88H150.74V113.621C150.74 115.052 151.006 116.04 151.538 116.585C152.083 117.13 152.957 117.402 154.16 117.402C154.489 117.402 154.825 117.383 155.167 117.345C155.522 117.294 155.914 117.231 156.345 117.155V121.943C155.8 122.057 155.186 122.158 154.502 122.247C153.831 122.336 153.166 122.38 152.507 122.38ZM141.316 105.983V101.214H156.212V105.983H141.316ZM172.564 130.36L175.547 122L177.637 117.212L182.805 101.214H188.771L178.511 130.36H172.564ZM173.875 122L166.579 101.214H172.906L179.499 122H173.875ZM199.857 122.399C197.779 122.399 195.981 122.006 194.461 121.221C192.953 120.423 191.788 119.232 190.965 117.649C190.141 116.053 189.73 114.058 189.73 111.664C189.73 109.245 190.129 107.237 190.927 105.641C191.737 104.045 192.896 102.854 194.404 102.069C195.924 101.284 197.741 100.891 199.857 100.891C201.972 100.891 203.783 101.29 205.291 102.088C206.811 102.873 207.97 104.064 208.768 105.66C209.578 107.243 209.984 109.232 209.984 111.626C209.984 114.033 209.572 116.034 208.749 117.63C207.925 119.226 206.754 120.423 205.234 121.221C203.726 122.006 201.934 122.399 199.857 122.399ZM199.857 117.801C200.705 117.801 201.427 117.617 202.023 117.25C202.631 116.883 203.093 116.256 203.41 115.369C203.726 114.47 203.885 113.241 203.885 111.683C203.885 110.087 203.726 108.839 203.41 107.94C203.093 107.041 202.631 106.407 202.023 106.04C201.427 105.66 200.705 105.47 199.857 105.47C199.008 105.47 198.28 105.654 197.672 106.021C197.076 106.388 196.62 107.022 196.304 107.921C195.987 108.808 195.829 110.036 195.829 111.607C195.829 113.203 195.987 114.451 196.304 115.35C196.62 116.249 197.076 116.883 197.672 117.25C198.28 117.617 199.008 117.801 199.857 117.801ZM220.531 122.361C219.15 122.361 217.922 122.095 216.845 121.563C215.768 121.018 214.92 120.151 214.299 118.96C213.678 117.769 213.368 116.192 213.368 114.229V101.214H219.429V113.811C219.429 115.065 219.689 115.933 220.208 116.414C220.74 116.895 221.43 117.136 222.279 117.136C222.697 117.136 223.134 117.079 223.59 116.965C224.059 116.838 224.502 116.648 224.92 116.395C225.338 116.142 225.705 115.825 226.022 115.445V101.214H232.064V122H227.086L226.668 119.91H226.402C225.617 120.708 224.724 121.316 223.723 121.734C222.722 122.152 221.658 122.361 220.531 122.361ZM236.584 122V101.214H241.543L241.999 103.893H242.303C242.886 102.867 243.658 102.12 244.621 101.651C245.584 101.17 246.641 100.929 247.794 100.929C248.111 100.929 248.415 100.942 248.706 100.967C248.997 100.992 249.257 101.03 249.485 101.081V106.553C249.168 106.49 248.826 106.452 248.459 106.439C248.104 106.414 247.762 106.401 247.433 106.401C246.838 106.401 246.236 106.477 245.628 106.629C245.02 106.768 244.456 106.99 243.937 107.294C243.418 107.585 242.981 107.946 242.626 108.377V122H236.584ZM269.558 122.38C268.228 122.38 266.86 122.285 265.454 122.095C264.06 121.905 262.762 121.614 261.559 121.221V91.296H267.601V103.247H267.905C268.513 102.5 269.266 101.923 270.166 101.518C271.065 101.1 272.104 100.891 273.282 100.891C274.726 100.891 276.062 101.246 277.291 101.955C278.519 102.664 279.501 103.779 280.236 105.299C280.97 106.819 281.338 108.782 281.338 111.189C281.338 114.85 280.362 117.63 278.412 119.53C276.474 121.43 273.522 122.38 269.558 122.38ZM270.09 117.801C271.8 117.801 273.085 117.332 273.947 116.395C274.821 115.445 275.258 113.868 275.258 111.664C275.258 110.157 275.074 108.985 274.707 108.149C274.352 107.3 273.852 106.705 273.206 106.363C272.572 106.021 271.831 105.85 270.983 105.85C270.375 105.85 269.773 105.951 269.178 106.154C268.582 106.344 268.057 106.654 267.601 107.085V117.497C267.943 117.586 268.323 117.662 268.741 117.725C269.171 117.776 269.621 117.801 270.09 117.801ZM291.93 122.361C290.549 122.361 289.32 122.095 288.244 121.563C287.167 121.018 286.318 120.151 285.698 118.96C285.077 117.769 284.767 116.192 284.767 114.229V101.214H290.828V113.811C290.828 115.065 291.087 115.933 291.607 116.414C292.139 116.895 292.829 117.136 293.678 117.136C294.096 117.136 294.533 117.079 294.989 116.965C295.457 116.838 295.901 116.648 296.319 116.395C296.737 116.142 297.104 115.825 297.421 115.445V101.214H303.463V122H298.485L298.067 119.91H297.801C297.015 120.708 296.122 121.316 295.122 121.734C294.121 122.152 293.057 122.361 291.93 122.361ZM314.081 122.399C312.891 122.399 311.732 122.323 310.604 122.171C309.49 122.019 308.438 121.791 307.45 121.487V117.041C308.451 117.345 309.509 117.579 310.623 117.744C311.738 117.896 312.865 117.972 314.005 117.972C315.373 117.972 316.336 117.795 316.893 117.44C317.463 117.073 317.748 116.566 317.748 115.92C317.748 115.401 317.609 115.008 317.33 114.742C317.052 114.476 316.564 114.273 315.867 114.134L312.485 113.526C310.535 113.159 309.116 112.481 308.229 111.493C307.343 110.505 306.899 109.181 306.899 107.522C306.899 105.533 307.697 103.931 309.293 102.715C310.902 101.499 313.366 100.891 316.684 100.891C317.698 100.891 318.679 100.948 319.629 101.062C320.592 101.176 321.46 101.334 322.232 101.537V105.983C321.422 105.755 320.56 105.584 319.648 105.47C318.736 105.356 317.805 105.299 316.855 105.299C315.703 105.299 314.816 105.4 314.195 105.603C313.575 105.793 313.138 106.046 312.884 106.363C312.644 106.68 312.523 107.022 312.523 107.389C312.523 107.832 312.663 108.193 312.941 108.472C313.22 108.751 313.701 108.966 314.385 109.118L317.767 109.726C319.617 110.068 321.01 110.701 321.947 111.626C322.897 112.538 323.372 113.9 323.372 115.711C323.372 117.776 322.562 119.41 320.94 120.613C319.332 121.804 317.045 122.399 314.081 122.399ZM326.574 122V101.214H332.635V122H326.574ZM329.595 98.193C328.329 98.193 327.385 97.9143 326.764 97.357C326.156 96.7997 325.852 96.027 325.852 95.039C325.852 94.0257 326.156 93.2467 326.764 92.702C327.385 92.1447 328.329 91.866 329.595 91.866C330.875 91.866 331.818 92.1447 332.426 92.702C333.034 93.2467 333.338 94.0257 333.338 95.039C333.338 96.027 333.034 96.7997 332.426 97.357C331.818 97.9143 330.875 98.193 329.595 98.193ZM337.15 122V101.214H342.147L342.546 103.323H342.831C343.604 102.538 344.51 101.936 345.548 101.518C346.587 101.1 347.714 100.891 348.93 100.891C350.298 100.891 351.514 101.163 352.578 101.708C353.655 102.24 354.497 103.108 355.105 104.311C355.713 105.502 356.017 107.079 356.017 109.042V122H349.956V109.422C349.956 108.168 349.697 107.3 349.177 106.819C348.658 106.338 347.942 106.097 347.03 106.097C346.574 106.097 346.112 106.16 345.643 106.287C345.187 106.401 344.744 106.585 344.313 106.838C343.895 107.091 343.522 107.408 343.192 107.788V122H337.15ZM370.85 122.399C368.241 122.399 366.094 122.025 364.409 121.278C362.724 120.531 361.47 119.359 360.647 117.763C359.836 116.167 359.431 114.109 359.431 111.588C359.431 109.295 359.805 107.351 360.552 105.755C361.312 104.159 362.408 102.949 363.839 102.126C365.283 101.303 367.031 100.891 369.083 100.891C371.046 100.891 372.699 101.309 374.042 102.145C375.385 102.968 376.398 104.191 377.082 105.812C377.766 107.433 378.108 109.422 378.108 111.778V113.355H362.889V109.878H373.434L372.465 110.239C372.465 108.871 372.338 107.782 372.085 106.971C371.832 106.16 371.445 105.584 370.926 105.242C370.419 104.9 369.786 104.729 369.026 104.729C368.253 104.729 367.601 104.9 367.069 105.242C366.55 105.584 366.151 106.16 365.872 106.971C365.606 107.769 365.473 108.852 365.473 110.22V112.652C365.473 113.931 365.657 114.951 366.024 115.711C366.404 116.458 367.044 116.997 367.943 117.326C368.855 117.655 370.109 117.82 371.705 117.82C372.516 117.82 373.364 117.763 374.251 117.649C375.15 117.522 376.05 117.358 376.949 117.155V121.696C375.847 121.949 374.796 122.127 373.795 122.228C372.807 122.342 371.825 122.399 370.85 122.399ZM387.558 122.399C386.367 122.399 385.208 122.323 384.081 122.171C382.966 122.019 381.915 121.791 380.927 121.487V117.041C381.928 117.345 382.985 117.579 384.1 117.744C385.215 117.896 386.342 117.972 387.482 117.972C388.85 117.972 389.813 117.795 390.37 117.44C390.94 117.073 391.225 116.566 391.225 115.92C391.225 115.401 391.086 115.008 390.807 114.742C390.528 114.476 390.041 114.273 389.344 114.134L385.962 113.526C384.011 113.159 382.593 112.481 381.706 111.493C380.819 110.505 380.376 109.181 380.376 107.522C380.376 105.533 381.174 103.931 382.77 102.715C384.379 101.499 386.842 100.891 390.161 100.891C391.174 100.891 392.156 100.948 393.106 101.062C394.069 101.176 394.936 101.334 395.709 101.537V105.983C394.898 105.755 394.037 105.584 393.125 105.47C392.213 105.356 391.282 105.299 390.332 105.299C389.179 105.299 388.293 105.4 387.672 105.603C387.051 105.793 386.614 106.046 386.361 106.363C386.12 106.68 386 107.022 386 107.389C386 107.832 386.139 108.193 386.418 108.472C386.697 108.751 387.178 108.966 387.862 109.118L391.244 109.726C393.093 110.068 394.487 110.701 395.424 111.626C396.374 112.538 396.849 113.9 396.849 115.711C396.849 117.776 396.038 119.41 394.417 120.613C392.808 121.804 390.522 122.399 387.558 122.399ZM406.15 122.399C404.959 122.399 403.8 122.323 402.673 122.171C401.558 122.019 400.507 121.791 399.519 121.487V117.041C400.519 117.345 401.577 117.579 402.692 117.744C403.806 117.896 404.934 117.972 406.074 117.972C407.442 117.972 408.404 117.795 408.962 117.44C409.532 117.073 409.817 116.566 409.817 115.92C409.817 115.401 409.677 115.008 409.399 114.742C409.12 114.476 408.632 114.273 407.936 114.134L404.554 113.526C402.603 113.159 401.184 112.481 400.298 111.493C399.411 110.505 398.968 109.181 398.968 107.522C398.968 105.533 399.766 103.931 401.362 102.715C402.97 101.499 405.434 100.891 408.753 100.891C409.766 100.891 410.748 100.948 411.698 101.062C412.66 101.176 413.528 101.334 414.301 101.537V105.983C413.49 105.755 412.629 105.584 411.717 105.47C410.805 105.356 409.874 105.299 408.924 105.299C407.771 105.299 406.884 105.4 406.264 105.603C405.643 105.793 405.206 106.046 404.953 106.363C404.712 106.68 404.592 107.022 404.592 107.389C404.592 107.832 404.731 108.193 405.01 108.472C405.288 108.751 405.77 108.966 406.454 109.118L409.836 109.726C411.685 110.068 413.078 110.701 414.016 111.626C414.966 112.538 415.441 113.9 415.441 115.711C415.441 117.776 414.63 119.41 413.009 120.613C411.4 121.804 409.114 122.399 406.15 122.399ZM436.216 122.38C434.886 122.38 433.518 122.285 432.112 122.095C430.718 121.905 429.42 121.614 428.217 121.221V91.296H434.259V103.247H434.563C435.171 102.5 435.924 101.923 436.824 101.518C437.723 101.1 438.762 100.891 439.94 100.891C441.384 100.891 442.72 101.246 443.949 101.955C445.177 102.664 446.159 103.779 446.894 105.299C447.628 106.819 447.996 108.782 447.996 111.189C447.996 114.85 447.02 117.63 445.07 119.53C443.132 121.43 440.18 122.38 436.216 122.38ZM436.748 117.801C438.458 117.801 439.743 117.332 440.605 116.395C441.479 115.445 441.916 113.868 441.916 111.664C441.916 110.157 441.732 108.985 441.365 108.149C441.01 107.3 440.51 106.705 439.864 106.363C439.23 106.021 438.489 105.85 437.641 105.85C437.033 105.85 436.431 105.951 435.836 106.154C435.24 106.344 434.715 106.654 434.259 107.085V117.497C434.601 117.586 434.981 117.662 435.399 117.725C435.829 117.776 436.279 117.801 436.748 117.801ZM454.855 130.36L457.838 122L459.928 117.212L465.096 101.214H471.062L460.802 130.36H454.855ZM456.166 122L448.87 101.214H455.197L461.79 122H456.166ZM77.47 168.399C75.3926 168.399 73.594 168.006 72.074 167.221C70.5666 166.423 69.4013 165.232 68.578 163.649C67.7546 162.053 67.343 160.058 67.343 157.664C67.343 155.245 67.742 153.237 68.54 151.641C69.3506 150.045 70.5096 148.854 72.017 148.069C73.537 147.284 75.3546 146.891 77.47 146.891C79.5853 146.891 81.3967 147.29 82.904 148.088C84.424 148.873 85.583 150.064 86.381 151.66C87.1917 153.243 87.597 155.232 87.597 157.626C87.597 160.033 87.1853 162.034 86.362 163.63C85.5386 165.226 84.367 166.423 82.847 167.221C81.3396 168.006 79.5473 168.399 77.47 168.399ZM77.47 163.801C78.3186 163.801 79.0406 163.617 79.636 163.25C80.244 162.883 80.7063 162.256 81.023 161.369C81.3396 160.47 81.498 159.241 81.498 157.683C81.498 156.087 81.3396 154.839 81.023 153.94C80.7063 153.041 80.244 152.407 79.636 152.04C79.0406 151.66 78.3186 151.47 77.47 151.47C76.6213 151.47 75.893 151.654 75.285 152.021C74.6896 152.388 74.2336 153.022 73.917 153.921C73.6003 154.808 73.442 156.036 73.442 157.607C73.442 159.203 73.6003 160.451 73.917 161.35C74.2336 162.249 74.6896 162.883 75.285 163.25C75.893 163.617 76.6213 163.801 77.47 163.801ZM91.1524 168V147.214H96.1494L96.5484 149.323H96.8334C97.606 148.538 98.5117 147.936 99.5504 147.518C100.589 147.1 101.716 146.891 102.932 146.891C104.3 146.891 105.516 147.163 106.58 147.708C107.657 148.24 108.499 149.108 109.107 150.311C109.715 151.502 110.019 153.079 110.019 155.042V168H103.958V155.422C103.958 154.168 103.699 153.3 103.179 152.819C102.66 152.338 101.944 152.097 101.032 152.097C100.576 152.097 100.114 152.16 99.6454 152.287C99.1894 152.401 98.746 152.585 98.3154 152.838C97.8974 153.091 97.5237 153.408 97.1944 153.788V168H91.1524ZM124.852 168.399C122.242 168.399 120.095 168.025 118.411 167.278C116.726 166.531 115.472 165.359 114.649 163.763C113.838 162.167 113.433 160.109 113.433 157.588C113.433 155.295 113.806 153.351 114.554 151.755C115.314 150.159 116.409 148.949 117.841 148.126C119.285 147.303 121.033 146.891 123.085 146.891C125.048 146.891 126.701 147.309 128.044 148.145C129.386 148.968 130.4 150.191 131.084 151.812C131.768 153.433 132.11 155.422 132.11 157.778V159.355H116.891V155.878H127.436L126.467 156.239C126.467 154.871 126.34 153.782 126.087 152.971C125.833 152.16 125.447 151.584 124.928 151.242C124.421 150.9 123.788 150.729 123.028 150.729C122.255 150.729 121.603 150.9 121.071 151.242C120.551 151.584 120.152 152.16 119.874 152.971C119.608 153.769 119.475 154.852 119.475 156.22V158.652C119.475 159.931 119.658 160.951 120.026 161.711C120.406 162.458 121.045 162.997 121.945 163.326C122.857 163.655 124.111 163.82 125.707 163.82C126.517 163.82 127.366 163.763 128.253 163.649C129.152 163.522 130.051 163.358 130.951 163.155V167.696C129.849 167.949 128.797 168.127 127.797 168.228C126.809 168.342 125.827 168.399 124.852 168.399ZM154.877 168.399C152.559 168.399 150.596 168.006 148.987 167.221C147.391 166.436 146.175 165.251 145.339 163.668C144.503 162.072 144.085 160.064 144.085 157.645C144.085 155.2 144.529 153.186 145.415 151.603C146.315 150.007 147.613 148.823 149.31 148.05C151.02 147.277 153.085 146.891 155.504 146.891C156.34 146.891 157.145 146.929 157.917 147.005C158.703 147.081 159.444 147.201 160.14 147.366V152.154C159.482 152.027 158.842 151.932 158.221 151.869C157.601 151.806 156.974 151.774 156.34 151.774C154.947 151.774 153.807 151.97 152.92 152.363C152.034 152.756 151.381 153.383 150.963 154.244C150.545 155.093 150.336 156.207 150.336 157.588C150.336 159.019 150.539 160.172 150.944 161.046C151.362 161.907 151.977 162.534 152.787 162.927C153.598 163.32 154.611 163.516 155.827 163.516C156.486 163.516 157.151 163.459 157.822 163.345C158.494 163.231 159.266 163.054 160.14 162.813V167.601C159.38 167.854 158.551 168.051 157.651 168.19C156.752 168.329 155.827 168.399 154.877 168.399ZM163.627 168V137.296H169.669V168H163.627ZM174.203 168V147.214H180.264V168H174.203ZM177.224 144.193C175.957 144.193 175.014 143.914 174.393 143.357C173.785 142.8 173.481 142.027 173.481 141.039C173.481 140.026 173.785 139.247 174.393 138.702C175.014 138.145 175.957 137.866 177.224 137.866C178.503 137.866 179.447 138.145 180.055 138.702C180.663 139.247 180.967 140.026 180.967 141.039C180.967 142.027 180.663 142.8 180.055 143.357C179.447 143.914 178.503 144.193 177.224 144.193ZM194.621 168.399C192.303 168.399 190.34 168.006 188.731 167.221C187.135 166.436 185.919 165.251 185.083 163.668C184.247 162.072 183.829 160.064 183.829 157.645C183.829 155.2 184.273 153.186 185.159 151.603C186.059 150.007 187.357 148.823 189.054 148.05C190.764 147.277 192.829 146.891 195.248 146.891C196.084 146.891 196.889 146.929 197.661 147.005C198.447 147.081 199.188 147.201 199.884 147.366V152.154C199.226 152.027 198.586 151.932 197.965 151.869C197.345 151.806 196.718 151.774 196.084 151.774C194.691 151.774 193.551 151.97 192.664 152.363C191.778 152.756 191.125 153.383 190.707 154.244C190.289 155.093 190.08 156.207 190.08 157.588C190.08 159.019 190.283 160.172 190.688 161.046C191.106 161.907 191.721 162.534 192.531 162.927C193.342 163.32 194.355 163.516 195.571 163.516C196.23 163.516 196.895 163.459 197.566 163.345C198.238 163.231 199.01 163.054 199.884 162.813V167.601C199.124 167.854 198.295 168.051 197.395 168.19C196.496 168.329 195.571 168.399 194.621 168.399ZM217.545 168L210.192 157.322L217.013 147.214H223.473L216.329 158.006V156.41L224.138 168H217.545ZM208.9 159.754V154.909H212.339V159.754H208.9ZM203.371 168V137.296H209.413V168H203.371ZM226.724 174.498C227.345 173.143 227.826 171.889 228.168 170.736C228.523 169.583 228.7 168.418 228.7 167.24L230.011 168.323H229.251C228.073 168.323 227.123 167.994 226.401 167.335C225.679 166.664 225.318 165.764 225.318 164.637C225.318 163.484 225.667 162.585 226.363 161.939C227.06 161.293 227.991 160.97 229.156 160.97C230.461 160.97 231.449 161.369 232.12 162.167C232.804 162.965 233.146 164.162 233.146 165.758C233.146 167.291 232.874 168.823 232.329 170.356C231.797 171.901 231.082 173.282 230.182 174.498H226.724ZM256.85 168.399C254.241 168.399 252.094 168.025 250.409 167.278C248.724 166.531 247.47 165.359 246.647 163.763C245.836 162.167 245.431 160.109 245.431 157.588C245.431 155.295 245.805 153.351 246.552 151.755C247.312 150.159 248.408 148.949 249.839 148.126C251.283 147.303 253.031 146.891 255.083 146.891C257.046 146.891 258.699 147.309 260.042 148.145C261.385 148.968 262.398 150.191 263.082 151.812C263.766 153.433 264.108 155.422 264.108 157.778V159.355H248.889V155.878H259.434L258.465 156.239C258.465 154.871 258.338 153.782 258.085 152.971C257.832 152.16 257.445 151.584 256.926 151.242C256.419 150.9 255.786 150.729 255.026 150.729C254.253 150.729 253.601 150.9 253.069 151.242C252.55 151.584 252.151 152.16 251.872 152.971C251.606 153.769 251.473 154.852 251.473 156.22V158.652C251.473 159.931 251.657 160.951 252.024 161.711C252.404 162.458 253.044 162.997 253.943 163.326C254.855 163.655 256.109 163.82 257.705 163.82C258.516 163.82 259.364 163.763 260.251 163.649C261.15 163.522 262.05 163.358 262.949 163.155V167.696C261.847 167.949 260.796 168.127 259.795 168.228C258.807 168.342 257.825 168.399 256.85 168.399ZM279.463 168L275.226 161.692L271.692 157.531L264.548 147.214H271.217L275.34 153.256L278.798 157.455L286.132 168H279.463ZM264.415 168L271.692 157.531L275.34 153.256L279.425 147.214H285.885L278.798 157.455L275.226 161.692L270.913 168H264.415ZM288.24 176.36V147.214H293.332L293.693 149.437H293.978C294.574 148.664 295.334 148.05 296.258 147.594C297.196 147.125 298.279 146.891 299.507 146.891C301.04 146.891 302.452 147.239 303.744 147.936C305.036 148.633 306.069 149.741 306.841 151.261C307.627 152.768 308.019 154.751 308.019 157.208C308.019 159.627 307.589 161.667 306.727 163.326C305.879 164.985 304.612 166.246 302.927 167.107C301.255 167.956 299.178 168.38 296.695 168.38C296.277 168.38 295.859 168.361 295.441 168.323C295.036 168.298 294.65 168.266 294.282 168.228V176.36H288.24ZM296.695 163.782C298.443 163.782 299.754 163.313 300.628 162.376C301.502 161.439 301.939 159.874 301.939 157.683C301.939 156.163 301.762 154.979 301.407 154.13C301.053 153.281 300.559 152.686 299.925 152.344C299.292 152.002 298.557 151.831 297.721 151.831C297.101 151.831 296.48 151.945 295.859 152.173C295.251 152.388 294.726 152.743 294.282 153.237V163.535C294.624 163.598 295.011 163.655 295.441 163.706C295.872 163.757 296.29 163.782 296.695 163.782ZM311.582 168V137.296H317.624V168H311.582ZM331.335 168.399C329.258 168.399 327.459 168.006 325.939 167.221C324.432 166.423 323.267 165.232 322.443 163.649C321.62 162.053 321.208 160.058 321.208 157.664C321.208 155.245 321.607 153.237 322.405 151.641C323.216 150.045 324.375 148.854 325.882 148.069C327.402 147.284 329.22 146.891 331.335 146.891C333.451 146.891 335.262 147.29 336.769 148.088C338.289 148.873 339.448 150.064 340.246 151.66C341.057 153.243 341.462 155.232 341.462 157.626C341.462 160.033 341.051 162.034 340.227 163.63C339.404 165.226 338.232 166.423 336.712 167.221C335.205 168.006 333.413 168.399 331.335 168.399ZM331.335 163.801C332.184 163.801 332.906 163.617 333.501 163.25C334.109 162.883 334.572 162.256 334.888 161.369C335.205 160.47 335.363 159.241 335.363 157.683C335.363 156.087 335.205 154.839 334.888 153.94C334.572 153.041 334.109 152.407 333.501 152.04C332.906 151.66 332.184 151.47 331.335 151.47C330.487 151.47 329.758 151.654 329.15 152.021C328.555 152.388 328.099 153.022 327.782 153.921C327.466 154.808 327.307 156.036 327.307 157.607C327.307 159.203 327.466 160.451 327.782 161.35C328.099 162.249 328.555 162.883 329.15 163.25C329.758 163.617 330.487 163.801 331.335 163.801ZM345.018 168V147.214H349.977L350.433 149.893H350.737C351.319 148.867 352.092 148.12 353.055 147.651C354.017 147.17 355.075 146.929 356.228 146.929C356.544 146.929 356.848 146.942 357.14 146.967C357.431 146.992 357.691 147.03 357.919 147.081V152.553C357.602 152.49 357.26 152.452 356.893 152.439C356.538 152.414 356.196 152.401 355.867 152.401C355.271 152.401 354.67 152.477 354.062 152.629C353.454 152.768 352.89 152.99 352.371 153.294C351.851 153.585 351.414 153.946 351.06 154.377V168H345.018ZM370.701 168.399C368.092 168.399 365.945 168.025 364.26 167.278C362.576 166.531 361.322 165.359 360.498 163.763C359.688 162.167 359.282 160.109 359.282 157.588C359.282 155.295 359.656 153.351 360.403 151.755C361.163 150.159 362.259 148.949 363.69 148.126C365.134 147.303 366.882 146.891 368.934 146.891C370.898 146.891 372.551 147.309 373.893 148.145C375.236 148.968 376.249 150.191 376.933 151.812C377.617 153.433 377.959 155.422 377.959 157.778V159.355H362.74V155.878H373.285L372.316 156.239C372.316 154.871 372.19 153.782 371.936 152.971C371.683 152.16 371.297 151.584 370.777 151.242C370.271 150.9 369.637 150.729 368.877 150.729C368.105 150.729 367.452 150.9 366.92 151.242C366.401 151.584 366.002 152.16 365.723 152.971C365.457 153.769 365.324 154.852 365.324 156.22V158.652C365.324 159.931 365.508 160.951 365.875 161.711C366.255 162.458 366.895 162.997 367.794 163.326C368.706 163.655 369.96 163.82 371.556 163.82C372.367 163.82 373.216 163.763 374.102 163.649C375.002 163.522 375.901 163.358 376.8 163.155V167.696C375.698 167.949 374.647 168.127 373.646 168.228C372.658 168.342 371.677 168.399 370.701 168.399ZM396.566 168.38C394.438 168.38 392.778 167.829 391.588 166.727C390.41 165.612 389.821 164.162 389.821 162.376C389.821 160.413 390.498 158.88 391.854 157.778C393.222 156.676 395.426 156.024 398.466 155.821L402.836 155.46L403.482 158.804L399.074 159.165C397.908 159.254 397.066 159.52 396.547 159.963C396.04 160.406 395.787 161.014 395.787 161.787C395.787 162.547 396.021 163.136 396.49 163.554C396.958 163.959 397.642 164.162 398.542 164.162C399.099 164.162 399.669 164.067 400.252 163.877C400.834 163.674 401.366 163.332 401.848 162.851V155.251C401.848 154.301 401.689 153.554 401.373 153.009C401.069 152.464 400.568 152.078 399.872 151.85C399.188 151.609 398.269 151.489 397.117 151.489C396.319 151.489 395.413 151.559 394.4 151.698C393.386 151.825 392.417 152.034 391.493 152.325V147.765C392.506 147.474 393.614 147.258 394.818 147.119C396.034 146.967 397.161 146.891 398.2 146.891C400.404 146.891 402.209 147.163 403.615 147.708C405.033 148.253 406.078 149.165 406.75 150.444C407.421 151.711 407.757 153.44 407.757 155.631V168H402.779L402.361 165.929H402.076C401.455 166.778 400.663 167.398 399.701 167.791C398.738 168.184 397.693 168.38 396.566 168.38ZM412.111 168V137.296H418.153V168H412.111ZM422.688 168V137.296H428.73V168H422.688ZM452.091 168.38C449.583 168.38 447.651 167.759 446.296 166.518C444.953 165.264 444.282 163.282 444.282 160.571V147.214L445.384 139.88H450.324V159.621C450.324 161.052 450.59 162.04 451.122 162.585C451.667 163.13 452.541 163.402 453.744 163.402C454.073 163.402 454.409 163.383 454.751 163.345C455.106 163.294 455.498 163.231 455.929 163.155V167.943C455.384 168.057 454.77 168.158 454.086 168.247C453.415 168.336 452.75 168.38 452.091 168.38ZM440.9 151.983V147.214H455.796V151.983H440.9ZM459.018 168V137.296H465.06V149.304H465.364C466.073 148.519 466.909 147.923 467.872 147.518C468.834 147.1 469.911 146.891 471.102 146.891C472.368 146.891 473.515 147.157 474.541 147.689C475.567 148.221 476.377 149.089 476.973 150.292C477.581 151.483 477.885 153.066 477.885 155.042V168H471.824V155.441C471.824 154.174 471.558 153.307 471.026 152.838C470.506 152.357 469.797 152.116 468.898 152.116C468.442 152.116 467.979 152.179 467.511 152.306C467.042 152.42 466.592 152.604 466.162 152.857C465.744 153.11 465.376 153.427 465.06 153.807V168H459.018ZM492.717 168.399C490.108 168.399 487.961 168.025 486.276 167.278C484.591 166.531 483.337 165.359 482.514 163.763C481.703 162.167 481.298 160.109 481.298 157.588C481.298 155.295 481.672 153.351 482.419 151.755C483.179 150.159 484.275 148.949 485.706 148.126C487.15 147.303 488.898 146.891 490.95 146.891C492.913 146.891 494.566 147.309 495.909 148.145C497.252 148.968 498.265 150.191 498.949 151.812C499.633 153.433 499.975 155.422 499.975 157.778V159.355H484.756V155.878H495.301L494.332 156.239C494.332 154.871 494.205 153.782 493.952 152.971C493.699 152.16 493.312 151.584 492.793 151.242C492.286 150.9 491.653 150.729 490.893 150.729C490.12 150.729 489.468 150.9 488.936 151.242C488.417 151.584 488.018 152.16 487.739 152.971C487.473 153.769 487.34 154.852 487.34 156.22V158.652C487.34 159.931 487.524 160.951 487.891 161.711C488.271 162.458 488.911 162.997 489.81 163.326C490.722 163.655 491.976 163.82 493.572 163.82C494.383 163.82 495.231 163.763 496.118 163.649C497.017 163.522 497.917 163.358 498.816 163.155V167.696C497.714 167.949 496.663 168.127 495.662 168.228C494.674 168.342 493.692 168.399 492.717 168.399ZM74.392 214.399C73.2013 214.399 72.0423 214.323 70.915 214.171C69.8003 214.019 68.749 213.791 67.761 213.487V209.041C68.7616 209.345 69.8193 209.579 70.934 209.744C72.0486 209.896 73.176 209.972 74.316 209.972C75.684 209.972 76.6466 209.795 77.204 209.44C77.774 209.073 78.059 208.566 78.059 207.92C78.059 207.401 77.9196 207.008 77.641 206.742C77.3623 206.476 76.8746 206.273 76.178 206.134L72.796 205.526C70.8453 205.159 69.4266 204.481 68.54 203.493C67.6533 202.505 67.21 201.181 67.21 199.522C67.21 197.533 68.008 195.931 69.604 194.715C71.2126 193.499 73.6763 192.891 76.995 192.891C78.0083 192.891 78.99 192.948 79.94 193.062C80.9026 193.176 81.7703 193.334 82.543 193.537V197.983C81.7323 197.755 80.871 197.584 79.959 197.47C79.047 197.356 78.116 197.299 77.166 197.299C76.0133 197.299 75.1266 197.4 74.506 197.603C73.8853 197.793 73.4483 198.046 73.195 198.363C72.9543 198.68 72.834 199.022 72.834 199.389C72.834 199.832 72.9733 200.193 73.252 200.472C73.5306 200.751 74.012 200.966 74.696 201.118L78.078 201.726C79.9273 202.068 81.3206 202.701 82.258 203.626C83.208 204.538 83.683 205.9 83.683 207.711C83.683 209.776 82.8723 211.41 81.251 212.613C79.6423 213.804 77.356 214.399 74.392 214.399ZM97.3538 214.399C94.7444 214.399 92.5974 214.025 90.9128 213.278C89.2281 212.531 87.9741 211.359 87.1508 209.763C86.3401 208.167 85.9348 206.109 85.9348 203.588C85.9348 201.295 86.3084 199.351 87.0558 197.755C87.8158 196.159 88.9114 194.949 90.3428 194.126C91.7868 193.303 93.5348 192.891 95.5868 192.891C97.5501 192.891 99.2031 193.309 100.546 194.145C101.888 194.968 102.902 196.191 103.586 197.812C104.27 199.433 104.612 201.422 104.612 203.778V205.355H89.3928V201.878H99.9378L98.9688 202.239C98.9688 200.871 98.8421 199.782 98.5888 198.971C98.3354 198.16 97.9491 197.584 97.4298 197.242C96.9231 196.9 96.2898 196.729 95.5298 196.729C94.7571 196.729 94.1048 196.9 93.5728 197.242C93.0534 197.584 92.6544 198.16 92.3758 198.971C92.1098 199.769 91.9768 200.852 91.9768 202.22V204.652C91.9768 205.931 92.1604 206.951 92.5278 207.711C92.9078 208.458 93.5474 208.997 94.4468 209.326C95.3588 209.655 96.6128 209.82 98.2088 209.82C99.0194 209.82 99.8681 209.763 100.755 209.649C101.654 209.522 102.553 209.358 103.453 209.155V213.696C102.351 213.949 101.299 214.127 100.299 214.228C99.3108 214.342 98.3291 214.399 97.3538 214.399ZM107.963 214V193.214H112.922L113.378 195.893H113.682C114.265 194.867 115.037 194.12 116 193.651C116.963 193.17 118.02 192.929 119.173 192.929C119.49 192.929 119.794 192.942 120.085 192.967C120.376 192.992 120.636 193.03 120.864 193.081V198.553C120.547 198.49 120.205 198.452 119.838 198.439C119.483 198.414 119.141 198.401 118.812 198.401C118.217 198.401 117.615 198.477 117.007 198.629C116.399 198.768 115.835 198.99 115.316 199.294C114.797 199.585 114.36 199.946 114.005 200.377V214H107.963ZM129.233 214L121.937 193.214H128.264L133.432 209.212H132.995L138.163 193.214H144.129L136.814 214H129.233ZM146.371 214V193.214H152.432V214H146.371ZM149.392 190.193C148.125 190.193 147.182 189.914 146.561 189.357C145.953 188.8 145.649 188.027 145.649 187.039C145.649 186.026 145.953 185.247 146.561 184.702C147.182 184.145 148.125 183.866 149.392 183.866C150.671 183.866 151.615 184.145 152.223 184.702C152.831 185.247 153.135 186.026 153.135 187.039C153.135 188.027 152.831 188.8 152.223 189.357C151.615 189.914 150.671 190.193 149.392 190.193ZM166.789 214.399C164.471 214.399 162.508 214.006 160.899 213.221C159.303 212.436 158.087 211.251 157.251 209.668C156.415 208.072 155.997 206.064 155.997 203.645C155.997 201.2 156.441 199.186 157.327 197.603C158.227 196.007 159.525 194.823 161.222 194.05C162.932 193.277 164.997 192.891 167.416 192.891C168.252 192.891 169.057 192.929 169.829 193.005C170.615 193.081 171.356 193.201 172.052 193.366V198.154C171.394 198.027 170.754 197.932 170.133 197.869C169.513 197.806 168.886 197.774 168.252 197.774C166.859 197.774 165.719 197.97 164.832 198.363C163.946 198.756 163.293 199.383 162.875 200.244C162.457 201.093 162.248 202.207 162.248 203.588C162.248 205.019 162.451 206.172 162.856 207.046C163.274 207.907 163.889 208.534 164.699 208.927C165.51 209.32 166.523 209.516 167.739 209.516C168.398 209.516 169.063 209.459 169.734 209.345C170.406 209.231 171.178 209.054 172.052 208.813V213.601C171.292 213.854 170.463 214.051 169.563 214.19C168.664 214.329 167.739 214.399 166.789 214.399ZM185.451 214.399C182.842 214.399 180.695 214.025 179.01 213.278C177.326 212.531 176.072 211.359 175.248 209.763C174.438 208.167 174.032 206.109 174.032 203.588C174.032 201.295 174.406 199.351 175.153 197.755C175.913 196.159 177.009 194.949 178.44 194.126C179.884 193.303 181.632 192.891 183.684 192.891C185.648 192.891 187.301 193.309 188.643 194.145C189.986 194.968 190.999 196.191 191.683 197.812C192.367 199.433 192.709 201.422 192.709 203.778V205.355H177.49V201.878H188.035L187.066 202.239C187.066 200.871 186.94 199.782 186.686 198.971C186.433 198.16 186.047 197.584 185.527 197.242C185.021 196.9 184.387 196.729 183.627 196.729C182.855 196.729 182.202 196.9 181.67 197.242C181.151 197.584 180.752 198.16 180.473 198.971C180.207 199.769 180.074 200.852 180.074 202.22V204.652C180.074 205.931 180.258 206.951 180.625 207.711C181.005 208.458 181.645 208.997 182.544 209.326C183.456 209.655 184.71 209.82 186.306 209.82C187.117 209.82 187.966 209.763 188.852 209.649C189.752 209.522 190.651 209.358 191.55 209.155V213.696C190.448 213.949 189.397 214.127 188.396 214.228C187.408 214.342 186.427 214.399 185.451 214.399ZM202.16 214.399C200.969 214.399 199.81 214.323 198.683 214.171C197.568 214.019 196.517 213.791 195.529 213.487V209.041C196.529 209.345 197.587 209.579 198.702 209.744C199.816 209.896 200.944 209.972 202.084 209.972C203.452 209.972 204.414 209.795 204.972 209.44C205.542 209.073 205.827 208.566 205.827 207.92C205.827 207.401 205.687 207.008 205.409 206.742C205.13 206.476 204.642 206.273 203.946 206.134L200.564 205.526C198.613 205.159 197.194 204.481 196.308 203.493C195.421 202.505 194.978 201.181 194.978 199.522C194.978 197.533 195.776 195.931 197.372 194.715C198.98 193.499 201.444 192.891 204.763 192.891C205.776 192.891 206.758 192.948 207.708 193.062C208.67 193.176 209.538 193.334 210.311 193.537V197.983C209.5 197.755 208.639 197.584 207.727 197.47C206.815 197.356 205.884 197.299 204.934 197.299C203.781 197.299 202.894 197.4 202.274 197.603C201.653 197.793 201.216 198.046 200.963 198.363C200.722 198.68 200.602 199.022 200.602 199.389C200.602 199.832 200.741 200.193 201.02 200.472C201.298 200.751 201.78 200.966 202.464 201.118L205.846 201.726C207.695 202.068 209.088 202.701 210.026 203.626C210.976 204.538 211.451 205.9 211.451 207.711C211.451 209.776 210.64 211.41 209.019 212.613C207.41 213.804 205.124 214.399 202.16 214.399ZM216.248 205.108L214.842 195.684V185.88H221.283V195.684L219.934 205.108H216.248ZM218.053 214.323C216.863 214.323 215.906 214.006 215.184 213.373C214.475 212.74 214.12 211.891 214.12 210.827C214.12 209.75 214.469 208.895 215.165 208.262C215.875 207.629 216.837 207.312 218.053 207.312C219.269 207.312 220.226 207.635 220.922 208.281C221.632 208.927 221.986 209.776 221.986 210.827C221.986 211.866 221.625 212.708 220.903 213.354C220.194 214 219.244 214.323 218.053 214.323Z" fill="#1C1C1C"/>
<path opacity="0.5" d="M311.15 535.843C300.362 542.074 282.874 542.074 272.087 535.843C261.3 529.611 261.3 519.51 272.087 513.279C282.873 507.048 300.362 507.048 311.148 513.279C321.936 519.51 321.936 529.612 311.15 535.843ZM544.01 624.717C528.824 633.488 504.205 633.488 489.018 624.715C473.834 615.944 473.832 601.722 489.018 592.95C504.204 584.177 528.824 584.179 544.01 592.951C559.195 601.722 559.196 615.945 544.01 624.717Z" fill="#C4D9E8"/>
<path d="M275.779 328.436C275.779 328.436 276.499 343.297 277.629 353.284C278.76 363.271 302.799 345.613 302.799 345.613V334.242L275.779 328.436Z" fill="#6614CF"/>
<path d="M288.582 513.331C288.944 514.234 295.172 521.821 301.401 523.717C304.108 524.542 305.93 524.65 307.122 524.508C308.32 524.366 309.061 523.131 308.657 521.993C307.586 518.974 304.513 512.686 296.707 508.814C286.145 503.577 288.582 513.331 288.582 513.331ZM286.506 516.246C286.506 516.246 288.853 521.754 289.575 526.362C290.016 529.17 288.475 532.821 287.205 535.24C286.417 536.741 284.421 537.079 283.166 535.94C281.13 534.09 278.539 530.881 278.11 526.271C277.388 518.503 278.11 517.148 278.11 517.148L286.506 516.246Z" fill="#173D7A"/>
<path d="M271.501 422.363C271.501 422.363 270.689 432.162 271.501 443C272.313 453.838 275.222 504.526 275.764 516.719C275.764 516.719 275.493 520.411 282.636 519.598C289.778 518.785 289.204 514.686 289.204 514.686C289.204 514.686 299.235 514.551 299.551 508.635C299.867 502.718 309.824 437.99 309.824 414.718L271.501 422.363Z" fill="#0079D1"/>
<path d="M313.536 371.701L318.451 379.317L335.344 399.734C335.344 399.734 334.764 401.628 332.661 402.124C331.017 402.511 316.808 388.948 310.672 382.996C309.882 382.23 309.385 381.212 309.267 380.117C309.148 379.023 309.416 377.922 310.024 377.004L313.536 371.701Z" fill="#FFC2B0"/>
<path d="M303.948 340.44C303.948 340.44 311.754 340.238 314.472 351.527C317.191 362.816 319.316 376.952 316.952 378.126C309.857 381.652 305.366 377.526 305.366 377.526L303.948 340.44Z" fill="#8A2AE3"/>
<path d="M306.284 340.92C304.946 340.367 303.46 340.285 302.07 340.688C295.418 342.599 270.41 349.943 266.288 353.468C261.526 357.54 273.43 380.425 273.258 387.928C273.086 395.431 272.242 404.276 271.579 412.433C270.916 420.59 270.019 425.061 276.687 428.529C283.355 431.996 294.74 432.157 303.262 425.66C311.785 419.163 310.239 414.718 309.884 410.001C309.53 405.285 306.627 384.885 306.879 379.094C306.879 379.094 309.881 376.88 312.107 373.085C314.331 369.289 310.402 362.312 308.771 357.776C307.139 353.24 309.69 348.054 309.185 344.353C308.925 342.448 307.709 341.515 306.284 340.92Z" fill="#983BE9"/>
<path d="M289.847 357.39C295.037 356.725 298.816 352.845 298.288 348.724C297.761 344.602 293.126 341.8 287.937 342.465C282.747 343.129 278.968 347.01 279.496 351.131C280.023 355.253 284.658 358.055 289.847 357.39Z" fill="white"/>
<path d="M289.578 355.257C293.287 354.782 295.987 352.009 295.61 349.063C295.233 346.117 291.921 344.115 288.213 344.59C284.504 345.065 281.803 347.838 282.18 350.784C282.557 353.73 285.869 355.732 289.578 355.257Z" fill="#FFC2B0"/>
<path d="M291.923 339.394C291.923 339.394 287.408 335.678 286.522 337.559C285.635 339.442 284.903 347.515 284.903 347.515L293.87 349.925L292.509 341.744C292.509 341.744 294.303 340.222 291.923 339.394Z" fill="#FFC2B0"/>
<path d="M292.572 343.149C299.965 343.149 305.958 337.152 305.958 329.755C305.958 322.359 299.965 316.362 292.572 316.362C285.179 316.362 279.185 322.359 279.185 329.755C279.185 337.152 285.179 343.149 292.572 343.149Z" fill="#FFC2B0"/>
<path d="M285.897 339.901C285.817 340.322 285.741 340.774 285.668 341.236C286.569 345.895 293.537 347.936 293.537 347.936L292.508 341.745C292.508 341.745 293.353 341.028 293.114 340.31C290.36 339.44 286.889 338.67 285.897 339.901Z" fill="#EA9C92"/>
<path d="M292.572 343.149C299.965 343.149 305.958 337.152 305.958 329.755C305.958 322.359 299.965 316.362 292.572 316.362C285.179 316.362 279.185 322.359 279.185 329.755C279.185 337.152 285.179 343.149 292.572 343.149Z" fill="#FFC2B0"/>
<path d="M259.589 386.448L261.089 422.289L266.326 422.829L269.733 390.565L259.589 386.448Z" fill="#FFC2B0"/>
<path d="M276.799 383.452C275.066 375.8 271.644 358.891 271.644 358.891L270.18 375.709C271.869 380.697 273.318 385.275 273.258 387.928C273.157 392.332 272.823 397.2 272.431 402.118L272.431 402.134C272.431 402.134 278.534 391.106 276.799 383.452Z" fill="#8A2AE3"/>
<path d="M267.288 352.733C267.288 352.733 263.101 354.334 260.73 367.203C258.36 380.073 256.588 392.964 260.813 394.625C265.038 396.287 268.568 397.536 269.811 394.093C271.053 390.651 271.823 374.066 271.979 368.1C272.135 362.135 272.362 353.912 267.288 352.733Z" fill="#B45EF4"/>
<path d="M334.092 398.242C334.092 398.242 336.359 399.076 337.998 400.862C339.343 402.327 340.079 403.571 340.668 404.448C341.973 406.394 343.072 410.603 342.277 411.126C341.481 411.65 336.933 404.081 336.199 405.842C335.465 407.603 336.205 409.23 335.266 409.257C334.325 409.284 331.055 401.647 328.484 399.281C325.914 396.913 334.092 398.242 334.092 398.242Z" fill="#FFC2B0"/>
<path d="M289.204 514.686C289.204 514.686 290.447 514.669 292.069 514.389L294.033 435.599L289.204 514.686Z" fill="#D8892B"/>
<path d="M261.13 421.989C261.13 421.989 259.746 430.354 259.954 433.034C260.161 435.713 261.596 440.134 262.683 440.039C263.771 439.947 262.719 429.265 264.629 430.329C266.54 431.393 266.74 433.218 267.607 432.574C268.471 431.929 266.097 422.8 266.731 418.84C267.364 414.88 261.13 421.989 261.13 421.989Z" fill="#FFC2B0"/>
<path d="M297.713 330.924C304.429 333.311 305.735 331.855 305.799 331.777C305.86 331.372 305.91 330.962 305.935 330.545C306.018 329.104 305.867 327.659 305.487 326.265L288.066 323.912C288.066 323.912 290.817 328.474 297.713 330.924Z" fill="#EA9C92"/>
<path d="M306.417 317.201C304.835 315.844 299.125 309.133 288.894 310.717C282.5 311.707 277.11 316.071 275.915 326.025C275.108 332.733 277.569 339.34 282.102 344.223C282.348 344.11 282.602 344.005 282.829 343.855C285.391 342.167 285.667 341.24 285.667 341.232L286.233 336.152C286.215 335.431 285.676 334.79 284.956 334.744C284.401 334.709 283.725 334.442 283.082 333.601C281.612 331.679 282.291 328.681 285.23 328.568C286.766 328.51 287.361 327.678 287.578 326.897C287.621 326.737 287.697 326.587 287.802 326.458C287.906 326.329 288.036 326.222 288.183 326.145C288.33 326.069 288.492 326.023 288.658 326.012C288.823 326.001 288.99 326.025 289.146 326.081C292.49 327.292 300.729 329.901 306.03 328.398C312.812 326.477 307.999 318.559 306.417 317.201Z" fill="#6614CF"/>
<path d="M298.788 336.975L302.884 335.85C302.884 335.85 300.929 338.926 298.075 339.71C295.221 340.495 294.777 338.078 294.777 338.078L298.788 336.975Z" fill="white"/>
<path opacity="0.5" d="M424.661 620.565L331.967 567.684C328.577 565.726 329.003 562.305 332.917 560.043L386.251 529.236C390.164 526.974 396.086 526.728 399.475 528.686L492.169 581.569C495.558 583.527 495.133 586.947 491.22 589.208L437.885 620.017C433.971 622.278 428.05 622.524 424.661 620.565Z" fill="#C4D9E8"/>
<path d="M500.432 563.768V347.258L414.404 324.73L398.559 315.577C394.923 313.476 388.571 313.739 384.371 316.165L369.587 324.705L323.702 324.678L337.289 533.689C337.186 535.11 337.978 536.483 339.725 537.491L425.576 602.304C429.213 604.405 435.565 604.141 439.764 601.715L496.978 568.666C499.401 567.267 500.57 565.455 500.432 563.768Z" fill="#396CAA"/>
<path d="M391.975 314.169C389.314 314.234 386.553 314.905 384.371 316.165L369.587 324.705L323.702 324.678V541.771C323.598 543.192 324.39 544.566 326.138 545.574L425.576 602.304C427.324 603.314 429.698 603.772 432.16 603.712L433.185 385.262L391.975 314.169Z" fill="#D4ECFF"/>
<path d="M426.49 602.752C429.626 604.096 434.163 604.021 437.83 602.622V382.681H426.49V602.752Z" fill="#5793CE"/>
<path d="M425.577 385.288L326.139 328.558C322.503 326.458 322.958 322.788 327.157 320.362L384.371 287.313C388.571 284.887 394.923 284.623 398.559 286.724L497.997 343.454C501.633 345.555 501.177 349.224 496.979 351.65L439.765 384.7C435.565 387.125 429.213 387.389 425.577 385.288Z" fill="#D4ECFF"/>
<path d="M496.979 347.625L439.764 380.675C435.565 383.101 429.213 383.365 425.576 381.263L326.139 324.533C325.328 324.064 324.732 323.515 324.323 322.922C323.074 324.933 323.642 327.116 326.139 328.558L425.576 385.288C429.213 387.389 435.565 387.126 439.764 384.7L496.979 351.651C500.241 349.766 501.233 347.132 499.812 345.065C499.242 345.983 498.294 346.865 496.979 347.625Z" fill="#FAFDFF"/>
<path d="M428.39 362.296L362.186 323.9C360.484 322.917 360.698 321.2 362.663 320.065L389.436 304.6C391.402 303.464 394.374 303.341 396.076 304.325L462.278 342.72C463.981 343.703 463.768 345.42 461.802 346.555L435.029 362.02C433.064 363.157 430.091 363.28 428.39 362.296Z" fill="#173D7A"/>
<path d="M392.648 325.625L388.811 323.41C388.575 323.273 388.606 323.036 388.878 322.878L392.582 320.738C392.853 320.581 393.265 320.564 393.501 320.7L397.337 322.916C397.573 323.052 397.543 323.289 397.271 323.447L393.567 325.586C393.294 325.744 392.883 325.761 392.648 325.625ZM405.464 332.998L401.628 330.782C401.392 330.646 401.422 330.408 401.694 330.251L405.398 328.111C405.671 327.954 406.081 327.937 406.317 328.073L410.153 330.289C410.389 330.425 410.359 330.663 410.087 330.819L406.384 332.959C406.112 333.117 405.7 333.134 405.464 332.998ZM418.28 340.371L414.443 338.156C414.208 338.02 414.237 337.781 414.51 337.625L418.214 335.485C418.486 335.328 418.897 335.311 419.133 335.447L422.969 337.663C423.205 337.799 423.175 338.036 422.903 338.194L419.199 340.333C418.928 340.49 418.516 340.507 418.28 340.371ZM431.097 347.745L427.26 345.528C427.024 345.392 427.054 345.155 427.326 344.998L431.031 342.859C431.302 342.701 431.713 342.685 431.949 342.821L435.785 345.036C436.021 345.172 435.992 345.41 435.719 345.567L432.015 347.707C431.744 347.864 431.332 347.881 431.097 347.745Z" fill="#D4ECFF"/>
<path d="M362.186 323.9L362.264 323.946C362.394 323.853 362.513 323.758 362.663 323.672L389.435 308.206C391.402 307.07 394.374 306.947 396.075 307.931L462.2 346.282C463.768 345.158 463.85 343.629 462.278 342.721L396.075 304.325C394.374 303.343 391.402 303.466 389.435 304.6L362.663 320.066C360.698 321.201 360.484 322.917 362.186 323.9ZM414.59 428.183L341.116 385.741C338.998 384.517 337.28 381.235 337.28 378.409V364.942C337.28 362.115 338.998 360.817 341.116 362.041L414.59 404.484C416.708 405.708 418.426 408.99 418.426 411.816V425.283C418.426 428.109 416.708 429.408 414.59 428.183Z" fill="#5793CE"/>
<path d="M409.033 416.278L405.581 414.284C405.12 414.017 404.744 413.302 404.744 412.686V408.996C404.744 408.379 405.119 408.097 405.581 408.363L409.033 410.358C409.495 410.625 409.87 411.34 409.87 411.956V415.646C409.87 416.262 409.495 416.545 409.033 416.278ZM397.488 409.609L394.035 407.614C393.573 407.348 393.198 406.632 393.198 406.015V402.326C393.198 401.709 393.573 401.426 394.035 401.693L397.488 403.688C397.95 403.953 398.324 404.67 398.324 405.286V408.976C398.323 409.593 397.95 409.875 397.488 409.609Z" fill="#173D7A"/>
<path d="M414.59 476.845L341.116 434.402C338.998 433.179 337.28 429.895 337.28 427.07V413.601C337.28 410.776 338.998 409.478 341.116 410.701L414.59 453.144C416.708 454.368 418.426 457.65 418.426 460.476V473.944C418.426 476.77 416.708 478.069 414.59 476.845Z" fill="#5793CE"/>
<path d="M409.033 464.939L405.58 462.944C405.12 462.678 404.744 461.962 404.744 461.346V457.656C404.744 457.04 405.119 456.756 405.58 457.024L409.033 459.018C409.494 459.285 409.87 460 409.87 460.616V464.305C409.869 464.923 409.494 465.205 409.033 464.939Z" fill="#173D7A"/>
<path d="M397.488 458.269L394.035 456.275C393.573 456.008 393.198 455.293 393.198 454.677V450.986C393.198 450.37 393.573 450.087 394.035 450.355L397.488 452.348C397.95 452.616 398.324 453.33 398.324 453.946V457.636C398.323 458.253 397.95 458.536 397.488 458.269Z" fill="#D4ECFF"/>
<path d="M414.59 525.505L341.116 483.062C338.998 481.839 337.28 478.557 337.28 475.73V462.263C337.28 459.437 338.998 458.138 341.116 459.362L414.59 501.804C416.708 503.028 418.426 506.312 418.426 509.137V522.603C418.426 525.43 416.708 526.728 414.59 525.505Z" fill="#5793CE"/>
<path d="M409.033 513.599L405.58 511.604C405.12 511.338 404.744 510.623 404.744 510.006V506.316C404.744 505.7 405.119 505.417 405.58 505.684L409.033 507.679C409.494 507.947 409.87 508.662 409.87 509.277V512.967C409.869 513.583 409.494 513.866 409.033 513.599Z" fill="#D4ECFF"/>
<path d="M397.488 506.931L394.035 504.936C393.573 504.669 393.198 503.954 393.198 503.338V499.649C393.198 499.032 393.573 498.749 394.035 499.016L397.488 501.011C397.95 501.277 398.324 501.992 398.324 502.609V506.298C398.323 506.914 397.95 507.197 397.488 506.931Z" fill="#173D7A"/>
<path d="M414.59 574.165L341.116 531.722C338.998 530.499 337.28 527.216 337.28 524.391V510.924C337.28 508.097 338.998 506.799 341.116 508.023L414.59 550.466C416.708 551.689 418.426 554.972 418.426 557.797V571.266C418.426 574.09 416.708 575.388 414.59 574.165Z" fill="#5793CE"/>
<path d="M409.033 562.261L405.581 560.266C405.12 559.999 404.744 559.283 404.744 558.668V554.978C404.744 554.362 405.119 554.079 405.581 554.346L409.033 556.34C409.495 556.607 409.87 557.322 409.87 557.938V561.628C409.87 562.243 409.495 562.527 409.033 562.261ZM397.488 555.592L394.035 553.596C393.573 553.329 393.198 552.614 393.198 551.998V548.308C393.198 547.692 393.573 547.409 394.035 547.676L397.488 549.67C397.95 549.937 398.324 550.652 398.324 551.268V554.957C398.323 555.575 397.95 555.857 397.488 555.592Z" fill="#D4ECFF"/>
<path d="M450.936 428.183L488.577 406.621C490.695 405.397 492.412 402.115 492.412 399.289V385.821C492.412 382.996 490.695 381.697 488.577 382.921L450.936 404.483C448.818 405.708 447.1 408.99 447.1 411.816V425.283C447.1 428.109 448.818 429.408 450.936 428.183ZM450.936 476.845L488.577 455.281C490.695 454.058 492.412 450.775 492.412 447.949V434.482C492.412 431.655 490.695 430.357 488.577 431.581L450.936 453.143C448.818 454.367 447.1 457.65 447.1 460.475V473.943C447.1 476.77 448.818 478.069 450.936 476.845ZM450.936 525.505L488.577 503.942C490.695 502.719 492.412 499.436 492.412 496.611V483.143C492.412 480.317 490.695 479.019 488.577 480.242L450.936 501.805C448.818 503.028 447.1 506.313 447.1 509.137V522.604C447.1 525.43 448.818 526.728 450.936 525.505ZM450.936 574.166L488.577 552.603C490.695 551.379 492.412 548.096 492.412 545.271V531.803C492.412 528.977 490.695 527.679 488.577 528.904L450.936 550.466C448.818 551.689 447.1 554.973 447.1 557.797V571.266C447.1 574.09 448.818 575.388 450.936 574.166Z" fill="#173D7A"/>
<path opacity="0.5" d="M212.058 610.418L182.417 593.296C180.597 592.245 180.825 590.409 182.926 589.197L211.548 572.663C213.648 571.449 216.826 571.318 218.646 572.369L248.287 589.491C250.106 590.541 249.877 592.378 247.777 593.591L219.156 610.124C217.055 611.337 213.877 611.469 212.058 610.418Z" fill="#C4D9E8"/>
<path d="M258.119 576.449V563.636L229.401 563.62L219.475 557.887C217.197 556.57 213.218 556.735 210.587 558.254L201.326 563.604L172.584 563.588V576.766C172.518 577.657 173.015 578.517 174.109 579.149L211.227 600.59C213.505 601.905 217.484 601.741 220.114 600.222L255.954 579.518C257.472 578.641 258.204 577.506 258.119 576.449Z" fill="#721BD5"/>
<path d="M215.352 557.004C213.685 557.044 211.954 557.464 210.587 558.254L201.326 563.603L172.584 563.588V576.766C172.518 577.657 173.015 578.517 174.109 579.15L211.227 600.59C212.321 601.223 213.809 601.508 215.352 601.471V557.004Z" fill="#983BE9"/>
<path d="M175.836 563.59L172.584 563.588V576.766C172.518 577.657 173.015 578.517 174.109 579.149L175.836 580.146L175.836 563.59Z" fill="#B45EF4"/>
<path d="M211.799 600.869C213.764 601.712 216.606 601.665 218.904 600.789V585.826H211.799V600.869Z" fill="#7E23DC"/>
<path d="M211.227 587.459L174.109 566.017C171.831 564.702 172.117 562.404 174.747 560.885L210.587 540.181C213.217 538.661 217.196 538.496 219.474 539.813L256.592 561.254C258.87 562.569 258.584 564.868 255.954 566.388L220.115 587.09C217.485 588.61 213.505 588.774 211.227 587.459Z" fill="#8A2AE3"/>
<path d="M211.895 583.599L180.79 565.632C178.881 564.53 179.12 562.603 181.326 561.33L211.36 543.981C213.564 542.706 216.899 542.569 218.808 543.672L249.912 561.64C251.822 562.742 251.582 564.668 249.378 565.941L219.344 583.292C217.139 584.564 213.805 584.702 211.895 583.599Z" fill="#6614CF"/>
<path d="M244.467 579.831C244.467 580.788 243.796 581.95 242.968 582.428C242.14 582.908 241.469 582.519 241.469 581.562C241.469 580.606 242.14 579.443 242.968 578.964C243.796 578.487 244.467 578.875 244.467 579.831ZM249.29 577.045C249.29 578.002 248.619 579.164 247.791 579.642C246.963 580.122 246.291 579.733 246.291 578.776C246.291 577.82 246.962 576.657 247.791 576.178C248.619 575.7 249.29 576.088 249.29 577.045ZM254.115 574.257C254.115 575.214 253.443 576.378 252.615 576.856C251.786 577.335 251.115 576.947 251.115 575.99C251.115 575.033 251.786 573.87 252.615 573.392C253.443 572.914 254.115 573.302 254.115 574.257Z" fill="#FF2C9C"/>
<path d="M258.119 555.668V542.855L229.401 542.839L219.475 537.106C217.197 535.79 213.218 535.954 210.587 537.473L201.326 542.823L172.584 542.807V555.985C172.518 556.877 173.015 557.736 174.109 558.368L211.227 579.809C213.505 581.124 217.484 580.96 220.114 579.44L255.954 558.737C257.472 557.86 258.204 556.725 258.119 555.668Z" fill="#721BD5"/>
<path d="M215.352 536.224C213.685 536.263 211.954 536.683 210.587 537.473L201.326 542.823L172.584 542.807V555.985C172.518 556.877 173.015 557.736 174.109 558.368L211.227 579.809C212.321 580.441 213.809 580.727 215.352 580.69V536.224Z" fill="#983BE9"/>
<path d="M175.836 542.809L172.584 542.807V555.985C172.518 556.877 173.015 557.736 174.109 558.368L175.836 559.366L175.836 542.809Z" fill="#B45EF4"/>
<path d="M211.799 580.089C213.764 580.93 216.606 580.884 218.904 580.008V565.045H211.799V580.089Z" fill="#7E23DC"/>
<path d="M211.227 566.678L174.109 545.237C171.831 543.92 172.117 541.622 174.747 540.103L210.587 519.4C213.217 517.879 217.196 517.714 219.474 519.031L256.592 540.472C258.87 541.787 258.584 544.086 255.954 545.606L220.114 566.308C217.485 567.828 213.505 567.994 211.227 566.678Z" fill="#8A2AE3"/>
<path d="M211.895 562.819L180.79 544.85C178.881 543.749 179.12 541.823 181.326 540.549L211.36 523.199C213.564 521.926 216.899 521.788 218.808 522.891L249.912 540.858C251.822 541.961 251.582 543.888 249.378 545.161L219.344 562.511C217.139 563.783 213.805 563.921 211.895 562.819Z" fill="#6614CF"/>
<path d="M244.467 559.05C244.467 560.007 243.796 561.17 242.968 561.647C242.14 562.126 241.469 561.738 241.469 560.782C241.469 559.825 242.14 558.662 242.968 558.183C243.796 557.704 244.467 558.093 244.467 559.05ZM249.29 556.264C249.29 557.219 248.619 558.383 247.791 558.861C246.963 559.34 246.291 558.952 246.291 557.995C246.291 557.038 246.962 555.876 247.791 555.397C248.619 554.919 249.29 555.307 249.29 556.264ZM254.115 553.478C254.115 554.433 253.443 555.598 252.615 556.075C251.786 556.553 251.115 556.166 251.115 555.209C251.115 554.252 251.786 553.09 252.615 552.611C253.443 552.133 254.115 552.521 254.115 553.478Z" fill="#FF2C9C"/>
<path d="M258.119 534.887V522.073L229.401 522.057L219.475 516.324C217.197 515.007 213.218 515.172 210.587 516.691L201.326 522.042L172.584 522.026V535.204C172.518 536.096 173.015 536.955 174.109 537.588L211.227 559.028C213.505 560.344 217.484 560.18 220.114 558.661L255.954 537.958C257.472 537.08 258.204 535.944 258.119 534.887Z" fill="#721BD5"/>
<path d="M215.352 515.443C213.685 515.483 211.954 515.902 210.587 516.692L201.326 522.043L172.584 522.026V535.204C172.518 536.096 173.015 536.955 174.109 537.588L211.227 559.028C212.321 559.66 213.809 559.947 215.352 559.91V515.443Z" fill="#983BE9"/>
<path d="M175.836 522.028L172.584 522.026V535.204C172.518 536.096 173.015 536.955 174.109 537.588L175.836 538.584L175.836 522.028Z" fill="#B45EF4"/>
<path d="M211.799 559.308C213.764 560.15 216.606 560.103 218.904 559.227V544.265H211.799V559.308Z" fill="#7E23DC"/>
<path d="M211.227 545.897L174.109 524.455C171.831 523.14 172.117 520.841 174.747 519.322L210.587 498.619C213.217 497.1 217.196 496.933 219.474 498.25L256.592 519.691C258.87 521.006 258.584 523.305 255.954 524.825L220.114 545.528C217.485 547.048 213.505 547.213 211.227 545.897Z" fill="#8A2AE3"/>
<path d="M255.955 522.303L220.115 543.006C217.485 544.527 213.505 544.692 211.228 543.375L174.11 521.934C173.602 521.64 173.228 521.296 172.972 520.926C172.19 522.185 172.545 523.552 174.11 524.455L211.227 545.897C213.505 547.213 217.484 547.048 220.115 545.528L255.954 524.825C257.998 523.644 258.619 521.995 257.729 520.699C257.372 521.275 256.779 521.827 255.955 522.303Z" fill="#B45EF4"/>
<path d="M244.467 538.268C244.467 539.225 243.796 540.388 242.968 540.866C242.14 541.345 241.469 540.956 241.469 540C241.469 539.043 242.14 537.88 242.968 537.403C243.796 536.925 244.467 537.313 244.467 538.268ZM249.29 535.482C249.29 536.439 248.619 537.602 247.791 538.08C246.963 538.559 246.291 538.171 246.291 537.214C246.291 536.257 246.962 535.094 247.791 534.615C248.619 534.138 249.29 534.526 249.29 535.482ZM254.115 532.695C254.115 533.652 253.443 534.816 252.615 535.294C251.786 535.773 251.115 535.385 251.115 534.428C251.115 533.47 251.786 532.309 252.615 531.829C253.443 531.352 254.115 531.74 254.115 532.695Z" fill="#FF2C9C"/>
<path d="M213.422 533.174L196.053 523.14C194.987 522.524 195.12 521.449 196.352 520.737L213.123 511.05C214.354 510.337 216.216 510.262 217.282 510.877L234.651 520.91C235.717 521.526 235.584 522.601 234.352 523.313L217.58 533C216.35 533.712 214.488 533.79 213.422 533.174Z" fill="#6614CF"/>
<path d="M215.085 524.773L212.682 523.385C212.535 523.3 212.553 523.15 212.724 523.052L215.044 521.712C215.214 521.613 215.471 521.602 215.62 521.689L218.022 523.076C218.17 523.16 218.151 523.31 217.981 523.409L215.662 524.749C215.49 524.847 215.232 524.858 215.085 524.773Z" fill="#FF2C9C"/>
<path d="M225.732 535.785L223.329 534.396C223.181 534.311 223.2 534.162 223.37 534.063L225.69 532.723C225.861 532.625 226.118 532.614 226.266 532.699L228.669 534.087C228.816 534.172 228.797 534.321 228.628 534.42L226.307 535.76C226.137 535.859 225.879 535.869 225.732 535.785ZM230.981 532.722L228.578 531.333C228.431 531.249 228.449 531.1 228.62 531.001L230.939 529.661C231.11 529.561 231.367 529.551 231.515 529.637L233.917 531.026C234.065 531.11 234.047 531.259 233.877 531.358L231.557 532.698C231.387 532.796 231.128 532.807 230.981 532.722Z" fill="#6614CF"/>
<path d="M236.231 529.659L233.828 528.271C233.681 528.187 233.699 528.037 233.869 527.938L236.19 526.598C236.36 526.499 236.617 526.488 236.765 526.573L239.168 527.961C239.316 528.047 239.297 528.197 239.127 528.294L236.807 529.635C236.636 529.734 236.379 529.744 236.231 529.659ZM196.053 523.14L196.102 523.168C196.182 523.11 196.258 523.051 196.352 522.995L213.123 513.309C214.354 512.598 216.216 512.521 217.282 513.136L234.602 523.14C235.585 522.437 235.636 521.479 234.651 520.909L217.282 510.876C216.216 510.261 214.354 510.337 213.123 511.049L196.352 520.737C195.12 521.45 194.986 522.525 196.053 523.14Z" fill="#B45EF4"/>
<path d="M200.134 569.386L185.108 560.705C184.181 560.17 183.431 558.734 183.431 557.499C183.431 556.263 184.181 555.695 185.108 556.229L200.134 564.91C201.061 565.446 201.812 566.881 201.812 568.117C201.812 569.352 201.06 569.921 200.134 569.386Z" fill="#6614CF"/>
<path d="M201.478 568.558L186.451 559.877C185.525 559.341 184.774 557.907 184.774 556.671C184.774 556.462 184.802 556.28 184.842 556.112C184.043 555.821 183.43 556.384 183.43 557.499C183.43 558.734 184.181 560.17 185.107 560.705L200.134 569.386C200.904 569.831 201.546 569.506 201.743 568.675C201.651 568.644 201.562 568.605 201.478 568.558Z" fill="#B45EF4"/>
<path d="M538.691 597.424C541.324 598.549 542.981 601.488 542.762 604.644C542.658 606.132 542.479 607.52 542.169 608.172C541.331 609.933 538.584 612.348 534.202 610.614C529.82 608.881 520.085 599.731 519.72 593.741C519.042 582.614 531.758 594.462 538.691 597.424ZM512.938 615.827C512.938 615.827 513.99 622.242 513.479 623.419C512.968 624.594 509.918 627.104 505.411 626.561C500.905 626.018 487.939 621.545 485.052 612.997C480.575 599.743 510.079 613.991 510.079 613.991L512.938 615.827Z" fill="#173D7A"/>
<path d="M500.269 513.274L499.265 613.419C499.371 616.902 501.652 619.844 504.719 620.362C505.097 620.426 505.503 620.477 505.937 620.516C509.043 620.787 510.852 619.456 511.882 618.055C512.719 616.92 513.159 615.482 513.222 614.011L514.5 571.261L520.878 533.038L529.704 600.689C529.846 602.518 530.721 604.21 532.128 605.142C533.102 605.787 534.422 606.287 536.153 606.235C538.679 606.159 540.434 604.806 541.503 603.598C542.352 602.641 542.799 601.327 542.782 599.976L539.283 559.271L537.981 507.354L500.269 513.274Z" fill="#0079D1"/>
<path d="M542.079 480.382C541.896 480.382 541.712 480.368 541.528 480.34L525.54 477.862C524.598 477.716 523.752 477.201 523.189 476.431C522.626 475.661 522.391 474.699 522.537 473.756C522.684 472.813 523.198 471.968 523.968 471.404C524.737 470.841 525.699 470.606 526.641 470.751L537.673 472.461L533.907 450.885C533.826 450.42 533.837 449.943 533.94 449.482C534.043 449.02 534.235 448.584 534.507 448.197C534.779 447.811 535.124 447.482 535.523 447.228C535.921 446.975 536.366 446.803 536.832 446.722C537.297 446.641 537.774 446.652 538.234 446.755C538.695 446.858 539.132 447.051 539.518 447.323C539.904 447.594 540.233 447.94 540.486 448.339C540.739 448.738 540.911 449.183 540.992 449.648L545.62 476.167C545.71 476.684 545.687 477.214 545.55 477.721C545.414 478.227 545.169 478.698 544.831 479.1C544.494 479.502 544.072 479.825 543.597 480.046C543.121 480.267 542.603 480.382 542.079 480.382Z" fill="#FFC2B0"/>
<path d="M527.481 429.209C527.481 429.209 532.825 428.896 539.712 443.09C546.601 457.284 537.166 461.767 537.166 461.767L527.481 429.209Z" fill="#983BE9"/>
<path d="M512.818 432.924C513.058 432.827 527.559 423.485 532.92 433.261C541.659 449.202 541.145 500.514 538.385 507.161C535.831 513.311 529.453 517.847 524.985 520.402C521.008 522.674 516.556 524.067 511.978 524.103C507.445 524.14 498.756 520.109 499.072 514.182C500.523 486.921 498.113 463.945 495.89 441.65C495.89 441.65 498.67 438.655 512.818 432.924Z" fill="#983BE9"/>
<path d="M489.941 488.591C490.361 488.572 490.773 488.467 491.15 488.281C492.209 487.768 492.963 486.684 493.152 485.406L500.047 465.294C500.354 463.217 496.731 455.116 494.883 454.772C493.032 454.429 488.345 458.103 488.038 460.18L486.345 478.151L469.328 469.774C467.562 468.843 466.1 466.95 465.056 468.699C464.011 470.448 464.427 472.815 465.983 473.99L487.915 487.947C488.494 488.392 489.211 488.62 489.941 488.591Z" fill="#FFC2B0"/>
<path d="M468.003 469.102L466.931 466.484C466.546 465.543 465.959 464.698 465.212 464.008L460.723 459.867C460.557 459.718 460.34 459.638 460.116 459.644C459.893 459.65 459.68 459.741 459.522 459.899C459.364 460.057 459.273 460.27 459.267 460.493C459.261 460.716 459.34 460.934 459.489 461.1L461.364 463.139C461.669 463.471 461.765 463.946 461.613 464.371L460.899 466.373C460.782 466.703 460.752 467.057 460.812 467.402C460.872 467.746 461.021 468.069 461.244 468.339L465.744 473.795L468.003 469.102Z" fill="#FFC2B0"/>
<path d="M495.89 441.65C495.89 441.65 486.21 449.114 484.723 471.838C484.723 471.838 484.513 474.358 490.108 475.869C495.702 477.381 499.525 473.052 499.525 473.052C499.525 473.052 506.035 457.967 495.89 441.65Z" fill="#983BE9"/>
<path d="M514.147 424.141L515.729 433.267C515.729 433.267 515.787 436.381 512.314 437.243C508.839 438.106 507.766 435.861 507.766 435.861L506.194 425.584L514.147 424.141Z" fill="#FFC2B0"/>
<path d="M495.372 424.492C499.13 431.777 507.423 434.951 513.894 431.583C520.366 428.215 522.566 419.577 518.809 412.293C515.052 405.008 506.76 401.834 500.288 405.202C493.815 408.57 491.615 417.207 495.372 424.492Z" fill="#FFC2B0"/>
<path d="M504.735 423.124C504.185 423.209 503.634 423.047 503.245 422.65C502.566 421.958 502.289 418.285 500.514 417.977C497.74 417.495 492.104 421.835 489.817 412.518C488.628 407.675 490.789 405.961 490.316 403.277C490.316 403.277 490.341 404.659 502.804 401.648C515.267 398.637 521.295 409.132 522.512 414.415C523.729 419.699 522.659 428.916 514.249 431.606C512.856 432.052 506.023 428.258 506.07 427.598C506.116 426.939 508.387 426.583 507.742 424.797C507.205 423.308 506.174 422.903 504.735 423.124Z" fill="#173D7A"/>
<path d="M520.878 533.037L529.704 600.688C529.846 602.518 530.721 604.21 532.128 605.142C532.36 605.294 532.612 605.437 532.883 605.569C531.052 604.193 525.701 547.411 524.711 541.094C523.721 534.775 520.878 533.037 520.878 533.037Z" fill="#D8892B"/>
<path d="M498.732 473.795L498.73 474.019C499.523 486.567 499.84 499.773 499.072 514.183C498.947 516.531 500.246 518.574 502.129 520.193C504.335 492.584 502.129 468.534 502.129 468.534C500.941 472.597 498.732 473.795 498.732 473.795Z" fill="#6614CF"/>
<path opacity="0.5" d="M361.144 636.759C346.927 644.972 323.873 644.972 309.655 636.759C295.437 628.545 295.436 615.228 309.654 607.015C323.872 598.802 346.925 598.802 361.144 607.016C375.363 615.23 375.363 628.547 361.144 636.759Z" fill="#C4D9E8"/>
<path d="M350.169 610.628C349.23 610.095 348.255 609.629 347.251 609.232L347.281 609.231L341.668 606.741L342.092 607.722C337.839 606.875 333.223 606.822 328.932 607.581L329.194 606.494L322.592 609.42L322.631 609.422C321.773 609.787 320.939 610.18 320.163 610.628C311.878 615.414 311.878 623.175 320.164 627.96C328.449 632.746 341.883 632.746 350.169 627.96C358.454 623.174 358.454 615.415 350.169 610.628Z" fill="#983BE9"/>
<path d="M342.195 615.148C338.313 617.39 332.018 617.39 328.136 615.147C324.254 612.905 324.254 609.268 328.136 607.025C332.018 604.782 338.313 604.784 342.195 607.025C346.078 609.268 346.078 612.905 342.195 615.148Z" fill="#8A2AE3"/>
<path d="M335.165 612.634C334.269 612.634 333.409 612.278 332.776 611.644C332.142 611.01 331.786 610.15 331.786 609.253V566.505H338.545V609.253C338.545 610.15 338.189 611.01 337.555 611.644C336.921 612.278 336.062 612.634 335.165 612.634Z" fill="#8A2AE3"/>
<path d="M337.544 568.057C336.196 568.834 334.012 568.834 332.664 568.057C331.316 567.278 331.316 566.015 332.664 565.238C334.011 564.46 336.195 564.46 337.544 565.238C338.889 566.016 338.889 567.278 337.544 568.057Z" fill="#983BE9"/>
<path d="M335.165 567.973C334.439 567.973 333.742 567.685 333.228 567.171C332.714 566.657 332.425 565.96 332.425 565.233V525.048H337.906V565.233C337.906 565.96 337.617 566.657 337.103 567.171C336.589 567.685 335.892 567.973 335.165 567.973Z" fill="#8A2AE3"/>
<path d="M374.561 546.104V544.531L376.783 544.209L379.27 542.348C379.672 542.047 380.442 542.017 380.909 542.287L382.745 543.347L384.563 543.085V544.679L384.555 544.68C384.545 544.861 384.409 545.04 384.137 545.16L378.344 547.742C377.885 547.947 377.236 547.923 376.826 547.686L374.897 546.572C374.675 546.444 374.57 546.273 374.57 546.103L374.561 546.104Z" fill="#B45EF4"/>
<path d="M374.8 544.108L379.27 540.762C379.672 540.461 380.442 540.432 380.909 540.701L384.244 542.627C384.709 542.896 384.661 543.341 384.138 543.575L378.345 546.155C377.886 546.36 377.236 546.335 376.826 546.099L374.898 544.985C374.489 544.749 374.447 544.374 374.8 544.108Z" fill="#8A2AE3"/>
<path d="M367.258 551.699C367.898 551.699 368.538 551.551 369.048 551.257L375.994 547.244C376.171 547.134 376.298 546.96 376.349 546.757C376.399 546.555 376.369 546.341 376.265 546.161C376.16 545.98 375.99 545.847 375.789 545.79C375.589 545.733 375.374 545.757 375.191 545.855L368.247 549.867C367.731 550.166 366.789 550.166 366.271 549.867L354.728 543.178C354.637 543.125 354.536 543.091 354.432 543.077C354.327 543.064 354.221 543.071 354.12 543.098C354.018 543.125 353.923 543.172 353.84 543.237C353.756 543.301 353.686 543.381 353.634 543.472C353.581 543.563 353.547 543.664 353.533 543.768C353.519 543.872 353.526 543.979 353.553 544.08C353.581 544.182 353.628 544.277 353.692 544.361C353.756 544.444 353.836 544.514 353.928 544.566L365.471 551.256C365.98 551.551 366.62 551.699 367.258 551.699Z" fill="#B45EF4"/>
<path d="M300.479 536.999L311.632 530.512L305.383 527.688L300.036 531.481L300.479 536.999Z" fill="url(#paint5_radial_1103_6371)"/>
<path d="M372.097 527.369C371.443 527.028 370.815 526.638 370.22 526.202L346.455 508.776C342.164 505.628 337.745 504.819 334.33 506.551C334.241 506.596 334.164 506.659 334.079 506.706L334.053 506.699L301.231 525.751L304.18 526.733L315.675 531.949L331.313 543.048L343.653 549.6L344.213 549.72C347.091 547.295 350.313 545.214 352.081 541.678C355.135 536.327 363.643 534.796 368.645 530.459C369.15 530.78 369.655 531.08 370.158 531.341C371.192 530.326 371.471 528.881 372.097 527.369Z" fill="#8A2AE3"/>
<path d="M382.522 519.511C382.013 519.511 381.55 519.691 381.176 519.982L381.17 519.974L349.05 538.576L350.224 543.382L351.429 542.806C349.59 545.678 346.768 547.566 344.212 549.72L347.843 550.488L379.3 532.176C379.444 532.113 379.593 532.059 379.735 531.987C380.161 531.768 380.567 531.51 380.946 531.217L381.001 531.184L380.981 531.187C383.375 529.337 384.728 526.118 384.728 522.098V521.72C384.728 521.135 384.496 520.573 384.082 520.159C383.668 519.745 383.107 519.512 382.522 519.511Z" fill="#721BD5"/>
<path d="M338.536 505.663C340.541 505.737 342.69 506.425 344.842 507.705C342.69 506.425 340.54 505.736 338.536 505.663Z" fill="#EAEAEA"/>
<path d="M353.164 540.074V539.696C353.164 539.111 352.931 538.549 352.517 538.135C352.103 537.72 351.542 537.488 350.956 537.488C350.371 537.488 349.809 537.72 349.395 538.135C348.981 538.549 348.749 539.111 348.749 539.696V540.074C348.749 543.026 347.811 545.195 346.174 546.025C344.325 546.96 341.514 546.272 338.657 544.176L314.891 526.752C311.233 524.07 307.486 523.104 304.344 523.944L323.972 512.55L301.23 525.751L304.179 526.733L315.674 531.949L331.312 543.048L343.652 549.6L344.212 549.72C347.09 547.295 350.312 545.214 352.078 541.678C352.382 541.146 352.754 540.66 353.158 540.197C353.158 540.155 353.164 540.116 353.164 540.074Z" fill="#B45EF4"/>
<path d="M343.641 551.571C341.04 551.572 338.177 550.513 335.369 548.454L311.602 531.03C308.745 528.935 305.937 528.244 304.085 529.181C302.449 530.011 301.51 532.179 301.51 535.132C301.51 535.718 301.278 536.28 300.864 536.694C300.45 537.108 299.888 537.341 299.303 537.341C298.717 537.341 298.156 537.108 297.742 536.694C297.328 536.28 297.095 535.718 297.095 535.132C297.095 530.455 298.915 526.851 302.089 525.242C305.502 523.512 309.921 524.322 314.213 527.467L337.979 544.892C340.837 546.987 343.648 547.677 345.497 546.741C347.133 545.91 348.072 543.743 348.072 540.789V540.412C348.072 539.826 348.304 539.264 348.718 538.85C349.132 538.436 349.694 538.203 350.279 538.203C350.865 538.203 351.426 538.436 351.84 538.85C352.254 539.264 352.487 539.826 352.487 540.412V540.789C352.487 545.466 350.666 549.07 347.493 550.68C346.313 551.276 345.014 551.571 343.641 551.571Z" fill="#983BE9"/>
<path d="M324.964 590.527C324.964 590.527 320.488 588.27 317.739 591.633C314.991 594.994 311.06 602.934 310.939 608.297C310.816 613.662 315.182 613.3 317.776 612.03C320.37 610.761 327.949 599.762 328.409 597.606C328.867 595.451 327.867 592.536 327.138 591.965C326.409 591.395 324.964 590.527 324.964 590.527Z" fill="#173D7A"/>
<path d="M325.94 589.448L326.148 594.088C326.193 595.074 325.695 596.015 324.837 596.501C324.055 596.945 322.92 597.286 321.384 597.04C318.013 596.496 317.71 595.533 317.47 590.894C317.23 586.256 325.94 589.448 325.94 589.448Z" fill="#E8A200"/>
<path d="M308.579 581.607C308.579 581.607 304.103 579.347 301.354 582.71C298.605 586.074 294.676 594.012 294.555 599.376C294.432 604.741 298.796 604.378 301.392 603.11C303.986 601.84 311.565 590.839 312.024 588.684C312.483 586.528 311.483 583.615 310.754 583.045C310.024 582.475 308.579 581.607 308.579 581.607Z" fill="#173D7A"/>
<path d="M309.556 580.527L309.763 585.166C309.807 586.154 309.311 587.093 308.452 587.581C307.671 588.024 306.535 588.365 304.998 588.117C301.627 587.576 301.327 586.612 301.085 581.973C300.845 577.335 309.556 580.527 309.556 580.527Z" fill="#E8A200"/>
<path d="M349.496 495.344C348.17 473.777 326.151 498.518 326.151 498.518L311.081 513.298L297.51 528.214C296.201 529.653 295.221 531.36 294.639 533.217C294.057 535.073 293.886 537.035 294.14 538.964L299.628 580.788C299.76 581.784 300.252 582.698 301.011 583.357C301.77 584.015 302.744 584.373 303.749 584.361C304.43 584.351 305.11 584.292 305.783 584.182C310.68 583.419 310.319 578.76 310.319 578.76L309.315 539.642L337.815 522.453C337.814 522.453 350.82 516.911 349.496 495.344Z" fill="#0079D1"/>
<path d="M365.88 503.562C364.556 481.995 342.537 506.735 342.537 506.735L327.465 521.514L313.895 536.431C312.586 537.87 311.606 539.577 311.024 541.434C310.442 543.291 310.271 545.252 310.525 547.181L316.014 589.004C316.145 590.001 316.637 590.915 317.396 591.574C318.155 592.232 319.129 592.589 320.134 592.578C320.815 592.568 321.495 592.509 322.167 592.399C327.065 591.636 326.704 586.977 326.704 586.977L325.701 547.86L354.2 530.67C354.199 530.67 367.205 525.129 365.88 503.562Z" fill="#0079D1"/>
<path d="M352.854 434.332C369.548 441.256 369.213 451.13 369.213 451.13C369.213 451.13 365.943 487.326 367.058 511.5C367.526 521.605 313.396 522.376 321.468 495.417C330.987 463.628 327.419 437.894 331.874 434.012C336.33 430.13 348.535 432.541 352.854 434.332Z" fill="#983BE9"/>
<path d="M348.302 447.088C352.907 448.275 357.348 446.487 358.221 443.096C359.094 439.704 356.068 435.993 351.464 434.807C346.859 433.62 342.418 435.407 341.545 438.799C340.672 442.19 343.697 445.902 348.302 447.088Z" fill="#FFC2B0"/>
<path d="M351.155 448.244C350.126 448.241 349.102 448.11 348.106 447.851C343.082 446.556 339.794 442.402 340.775 438.589C341.757 434.776 346.645 432.73 351.667 434.024C356.69 435.319 359.979 439.474 358.998 443.286C358.51 445.178 357.078 446.689 354.964 447.54C353.798 448.008 352.501 448.244 351.155 448.244ZM348.609 435.226C345.511 435.226 342.919 436.669 342.321 438.987C341.559 441.947 344.333 445.229 348.504 446.304C350.566 446.836 352.651 446.748 354.366 446.058C355.998 445.401 357.094 444.275 357.451 442.887C358.212 439.928 355.439 436.645 351.267 435.571C350.399 435.344 349.506 435.229 348.609 435.226Z" fill="white"/>
<path d="M346.161 433.578C346.161 433.578 346.305 434.247 346.016 439.541C345.926 441.205 351.749 442.76 353.254 441.253C354.759 439.747 354.156 438.181 354.518 432.518C354.88 426.855 346.161 433.578 346.161 433.578Z" fill="#FFC2B0"/>
<path d="M354.517 432.518C354.517 432.518 353.083 437.769 346.014 439.782L346.122 435.011L354.517 432.518Z" fill="#EA9C92"/>
<path d="M346.555 435.253C353.652 435.253 359.405 429.497 359.405 422.396C359.405 415.295 353.652 409.539 346.555 409.539C339.458 409.539 333.705 415.295 333.705 422.396C333.705 429.497 339.458 435.253 346.555 435.253Z" fill="#FFC2B0"/>
<path d="M349.507 422.868C349.507 422.868 342.432 425.9 337.532 425.935C332.634 425.969 333.714 421.865 333.714 421.865L348.256 419.763L349.507 422.868Z" fill="#EA9C92"/>
<path d="M336.072 423.667C336.072 423.667 342.235 421.049 347.641 422.14C348.912 422.397 350.09 423.077 350.909 424.083C351.177 424.412 351.514 424.712 351.898 424.798C352.857 425.016 354.426 421.036 356.289 420.944C358.152 420.854 359.397 422.174 357.868 424.621C356.34 427.069 356.857 429.808 357.561 430.201C358.263 430.593 365.72 424.88 359.143 411.842C352.565 398.805 335.856 405.827 333.257 408.469C333.257 408.469 330.519 410.856 328.293 408.732C328.293 408.734 325.797 427.437 336.072 423.667Z" fill="#FF2C9C"/>
<path d="M359.849 477.574V487.354C359.849 487.909 359.733 488.457 359.509 488.964C359.285 489.471 358.958 489.926 358.548 490.3L338.467 508.617L340.748 512.108L367.272 494.334C367.884 493.89 368.396 493.322 368.775 492.667C369.153 492.012 369.389 491.285 369.468 490.533L371.257 472.006L359.849 477.574Z" fill="#FFC2B0"/>
<path d="M367.8 446.239C367.8 446.239 373.891 455.406 376.161 479.535C376.161 479.535 365.755 482.904 359.849 480.991C353.942 479.079 367.8 446.239 367.8 446.239Z" fill="#983BE9"/>
<path d="M358.737 457.83C358.737 457.83 356.35 470.601 356.216 476.603C356.195 477.407 356.427 478.196 356.879 478.86C357.332 479.524 357.982 480.029 358.737 480.303V457.83Z" fill="#6614CF"/>
<path d="M353.526 521.336L349.087 520.75L320.437 504.199C319.517 503.669 317.913 503.734 316.852 504.348L296.551 516.071L293.866 515.715V518.389L293.869 518.39C293.851 518.742 294.051 519.081 294.485 519.331L326.955 538.087C327.874 538.618 329.477 538.55 330.538 537.939L352.648 525.171C353.244 524.827 353.543 524.382 353.525 523.965V521.336H353.526Z" fill="#173D7A"/>
<path d="M331.997 510.877L329.961 509.702H307.583L296.551 516.071L293.866 515.715V518.389L293.869 518.39C293.851 518.742 294.051 519.081 294.485 519.331L326.955 538.087C327.441 538.367 328.117 538.48 328.804 538.434L331.997 510.877Z" fill="#396CAA"/>
<path d="M295.057 515.873L293.866 515.715V518.389L293.869 518.39C293.851 518.742 294.051 519.081 294.485 519.331L295.057 519.662V515.873Z" fill="#5793CE"/>
<path d="M327.282 538.24C328.152 538.569 329.397 538.497 330.327 538.05V533.502H327.282V538.24Z" fill="#274F89"/>
<path d="M326.956 535.416L294.485 516.66C293.568 516.129 293.682 515.203 294.743 514.589L316.852 501.822C317.913 501.209 319.517 501.142 320.437 501.674L352.906 520.43C353.824 520.959 353.71 521.887 352.649 522.499L330.538 535.268C329.478 535.88 327.875 535.946 326.956 535.416Z" fill="white"/>
<path d="M326.406 532.572L299.408 516.976C298.644 516.535 298.74 515.765 299.622 515.255L311.469 508.589C312.351 508.08 313.686 508.025 314.45 508.466L341.448 524.063C342.211 524.503 342.115 525.273 341.234 525.784L329.387 532.449C328.505 532.957 327.171 533.013 326.406 532.572Z" fill="#D4ECFF"/>
<path d="M318.108 501.206L317.771 503.448C317.485 505.358 317.535 507.303 317.917 509.196L318.317 511.171C318.427 511.715 318.698 512.214 319.095 512.603C319.491 512.992 319.995 513.254 320.541 513.353C320.748 513.391 320.96 513.385 321.165 513.337C321.369 513.289 321.561 513.2 321.73 513.075C321.898 512.949 322.039 512.791 322.144 512.608C322.249 512.426 322.315 512.225 322.338 512.016L322.874 507.224C322.874 507.224 324.1 508.83 324.691 508.83C325.283 508.83 324.03 504.03 322.691 501.315C321.354 498.6 318.108 501.206 318.108 501.206Z" fill="#FFC2B0"/>
<path d="M329.114 465.58L325.63 472.479C324.806 474.11 324.321 475.892 324.204 477.716L322.691 501.316L318.108 501.206L316.027 474.704C315.963 473.885 316.003 473.062 316.145 472.253L318.522 458.815L329.114 465.58Z" fill="#FFC2B0"/>
<path d="M325.855 537.218L323.132 533.662L294.502 517.076C293.584 516.545 292.841 515.119 292.842 513.894L292.868 490.441L291.22 488.292L292.768 487.395L292.77 487.398C293.066 487.205 293.459 487.21 293.893 487.462L326.34 506.258C327.257 506.79 328.001 508.214 328 509.44L327.972 534.981C327.972 535.67 327.735 536.149 327.364 536.342L325.855 537.218Z" fill="#173D7A"/>
<path d="M306.055 523.769L304.022 522.59L292.856 503.185L292.868 490.441L291.22 488.292L292.768 487.395L292.77 487.398C293.066 487.205 293.459 487.21 293.893 487.462L326.34 506.258C326.825 506.539 327.26 507.071 327.563 507.689L306.055 523.769Z" fill="#396CAA"/>
<path d="M291.952 489.246L291.221 488.291L292.768 487.395L292.771 487.397C293.067 487.205 293.46 487.209 293.893 487.461L294.464 487.793L291.952 489.246Z" fill="#5793CE"/>
<path d="M326.634 506.465C327.355 507.055 327.915 508.171 327.99 509.2L324.819 511.032L323.299 508.391L326.634 506.465Z" fill="#274F89"/>
<path d="M324.795 507.153L292.347 488.358C291.43 487.826 290.684 488.388 290.683 489.613L290.656 515.155C290.653 516.379 291.397 517.804 292.314 518.337L324.762 537.132C325.679 537.663 326.426 537.101 326.426 535.877L326.454 510.335C326.456 509.11 325.713 507.685 324.795 507.153Z" fill="white"/>
<path d="M340.749 512.108L340.228 513.186C339.631 514.428 338.69 515.471 337.517 516.193L334.294 518.182C333.291 518.801 332.022 518.851 331.003 518.258L330.894 518.192C329.869 517.55 329.777 516.078 330.62 515.211L333.988 511.747C333.988 511.747 332.096 513.198 331.566 512.614C331.177 512.185 333.401 510.097 335.108 510.027C336.816 509.96 338.468 508.618 338.468 508.618L340.749 512.108Z" fill="#FFC2B0"/>
<path d="M332.209 433.961C332.209 433.961 319.862 447.402 314.882 459.734C314.882 459.734 319.104 467.345 329.438 470.33C339.773 473.317 332.209 433.961 332.209 433.961Z" fill="#983BE9"/>
<path d="M327.113 469.533L329.115 450.191L324.399 468.313C325.281 468.769 326.186 469.177 327.113 469.533Z" fill="#6614CF"/>
<path d="M341.456 431.249L338.139 430.337C338.139 430.337 339.722 432.83 342.035 433.465C344.348 434.1 344.707 432.142 344.707 432.142L341.456 431.249Z" fill="white"/>
<defs>
<filter id="filter0_b_1103_6371" x="-507" y="356" width="872.051" height="830.722" filterUnits="userSpaceOnUse" color-interpolation-filters="sRGB">
<feFlood flood-opacity="0" result="BackgroundImageFix"/>
<feGaussianBlur in="BackgroundImageFix" stdDeviation="5"/>
<feComposite in2="SourceAlpha" operator="in" result="effect1_backgroundBlur_1103_6371"/>
<feBlend mode="normal" in="SourceGraphic" in2="effect1_backgroundBlur_1103_6371" result="shape"/>
</filter>
<filter id="filter1_b_1103_6371" x="-448" y="457" width="709.92" height="676.455" filterUnits="userSpaceOnUse" color-interpolation-filters="sRGB">
<feFlood flood-opacity="0" result="BackgroundImageFix"/>
<feGaussianBlur in="BackgroundImageFix" stdDeviation="5"/>
<feComposite in2="SourceAlpha" operator="in" result="effect1_backgroundBlur_1103_6371"/>
<feBlend mode="normal" in="SourceGraphic" in2="effect1_backgroundBlur_1103_6371" result="shape"/>
</filter>
<filter id="filter2_b_1103_6371" x="-417" y="552" width="571.936" height="545.164" filterUnits="userSpaceOnUse" color-interpolation-filters="sRGB">
<feFlood flood-opacity="0" result="BackgroundImageFix"/>
<feGaussianBlur in="BackgroundImageFix" stdDeviation="5"/>
<feComposite in2="SourceAlpha" operator="in" result="effect1_backgroundBlur_1103_6371"/>
<feBlend mode="normal" in="SourceGraphic" in2="effect1_backgroundBlur_1103_6371" result="shape"/>
</filter>
<linearGradient id="paint0_linear_1103_6371" x1="579" y1="764" x2="-156.545" y2="206.564" gradientUnits="userSpaceOnUse">
<stop stop-color="#FFD700"/>
<stop offset="0.750282" stop-color="#FFE34B"/>
</linearGradient>
<linearGradient id="paint1_linear_1103_6371" x1="579" y1="764" x2="-156.545" y2="206.564" gradientUnits="userSpaceOnUse">
<stop stop-color="#FFD700"/>
<stop offset="1" stop-color="#FFD700"/>
</linearGradient>
<radialGradient id="paint2_radial_1103_6371" cx="0" cy="0" r="1" gradientUnits="userSpaceOnUse" gradientTransform="translate(-82.9564 789.096) rotate(88.728) scale(539.77 567.26)">
<stop offset="1" stop-color="#E87F00"/>
</radialGradient>
<radialGradient id="paint3_radial_1103_6371" cx="0" cy="0" r="1" gradientUnits="userSpaceOnUse" gradientTransform="translate(-102.742 809.588) rotate(88.728) scale(437.061 459.32)">
<stop offset="1" stop-color="#FFAF66"/>
</radialGradient>
<radialGradient id="paint4_radial_1103_6371" cx="0" cy="0" r="1" gradientUnits="userSpaceOnUse" gradientTransform="translate(-138.794 836.07) rotate(88.728) scale(349.649 367.456)">
<stop offset="1" stop-color="#FFD5A2"/>
</radialGradient>
<radialGradient id="paint5_radial_1103_6371" cx="0" cy="0" r="1" gradientUnits="userSpaceOnUse" gradientTransform="translate(226.71 528.687) scale(68.8538 68.8896)">
<stop stop-color="#01C8EF"/>
<stop offset="0.089" stop-color="#03BEE9"/>
<stop offset="0.239" stop-color="#08A5D7"/>
<stop offset="0.429" stop-color="#107BBB"/>
<stop offset="0.446" stop-color="#1177B8"/>
<stop offset="1" stop-color="#112564"/>
</radialGradient>
</defs>
</svg>
