<svg width="181" height="168" viewBox="0 0 181 168" fill="none" xmlns="http://www.w3.org/2000/svg">
<path d="M118.488 132.484L8.5395 164.354C3.77188 165.735 -0.590675 161.204 0.970642 156.492L36.9941 47.833L118.488 132.484Z" fill="#FCD031"/>
<path d="M121.878 130.609C129.996 122.794 118.023 97.1851 95.1347 73.4106C72.2468 49.6362 47.1116 36.6988 38.9935 44.5141C30.8754 52.3295 42.8487 77.938 65.7365 101.712C88.6244 125.487 113.76 138.424 121.878 130.609Z" fill="#FFDA64"/>
<path d="M118.118 126.698C114.94 129.753 107.846 128.751 98.6407 123.941C88.9645 118.883 78.023 110.269 67.8367 99.6883C57.6503 89.111 49.4615 77.8506 44.7755 67.9854C40.3182 58.608 39.5824 51.4762 42.7565 48.4208C45.9303 45.3654 53.0289 46.3716 62.2338 51.1816C71.91 56.2389 82.8516 64.8495 93.0379 75.4304C103.224 86.0113 111.413 97.2721 116.099 107.133C120.556 116.511 121.292 123.643 118.118 126.698Z" fill="url(#paint0_linear_3645_12335)"/>
<path d="M102.709 137.056L81.4284 143.223C76.766 141.457 72.188 139.353 67.7033 136.923C57.9418 131.629 48.5834 124.745 39.8888 116.466C38.4776 115.122 36.9336 113.594 35.292 111.889C31.0488 107.481 26.1661 101.888 21.2966 95.1824L25.9109 81.2643C33.6263 93.3552 42.0321 102.406 47.9304 108.02C64.5321 123.832 82.9395 133.584 102.709 137.056Z" fill="#2252FF"/>
<path d="M67.2168 147.347L50.4386 152.211C40.9973 146.981 31.9431 140.266 23.5096 132.237C22.0985 130.893 20.5544 129.365 18.9128 127.659C16.9762 125.648 14.9103 123.392 12.7702 120.897L17.1155 107.788C22.4156 114.613 27.5601 119.99 31.5512 123.791C42.6737 134.386 54.6066 142.259 67.2168 147.347Z" fill="#2252FF"/>
<path d="M36.8365 156.151L22.1105 160.419C16.9443 156.73 11.9354 152.577 7.1307 148.002C6.32902 147.237 5.48475 146.415 4.60299 145.532L8.75116 133.022C11.082 135.552 13.2609 137.735 15.1722 139.557C22.0911 146.147 29.3227 151.683 36.8365 156.151Z" fill="#2252FF"/>
<path d="M66.0928 62.2422L61.0151 56.9677C69.3911 48.9041 74.2896 38.4309 75.5745 25.839C76.5519 16.2596 74.9585 8.98841 74.9423 8.91617L82.0823 7.29627C82.1583 7.63051 83.9348 15.6044 82.8854 26.3121C81.4859 40.5891 75.6793 53.0135 66.0928 62.2422Z" fill="#F2112D"/>
<path d="M106.363 109.349L101.285 104.075C111.613 94.1314 126.05 89.3058 143.036 90.1191C155.645 90.723 165.181 94.1809 165.581 94.328L163.055 101.2L164.318 97.764L163.059 101.201C162.97 101.169 154.014 97.9422 142.483 97.4228C127.44 96.7448 115.287 100.758 106.363 109.349Z" fill="#2252FF"/>
<path d="M82.0568 55.1498C84.7934 50.79 88.3033 49.7048 90.8662 48.9123C93.0352 48.2417 94.3444 47.8368 95.6374 45.7773C96.93 43.7179 96.7253 42.3628 96.3862 40.118C95.9857 37.4656 95.4371 33.8328 98.1733 29.473C100.91 25.1128 104.42 24.0273 106.983 23.2347C109.152 22.5638 110.462 22.1589 111.755 20.0991C113.048 18.0389 112.843 16.6838 112.504 14.4387C112.104 11.7859 111.555 8.1531 114.292 3.79294L120.493 7.68525C119.2 9.74546 119.405 11.1005 119.744 13.3456C120.144 15.9984 120.693 19.6312 117.956 23.9914C115.219 28.3512 111.709 29.4367 109.146 30.2293C106.977 30.9002 105.667 31.3051 104.374 33.3653C103.082 35.4244 103.286 36.7799 103.625 39.0242C104.026 41.677 104.575 45.3095 101.838 49.6697C99.1016 54.0295 95.5917 55.1147 93.0288 55.9072C90.8597 56.5778 89.5505 56.9827 88.2575 59.0422L82.0568 55.1498Z" fill="#FF4901"/>
<path d="M111.863 75.3425L108.397 68.8932C113.07 66.3826 116.774 67.2005 119.479 67.7976C121.822 68.3152 123.237 68.6276 125.517 67.4024C127.797 66.1775 128.317 64.8255 129.179 62.586C130.173 60.0006 131.536 56.4602 136.208 53.9493C140.881 51.4384 144.586 52.2567 147.291 52.8538C149.635 53.371 151.049 53.6834 153.33 52.4579C155.61 51.2323 156.131 49.8803 156.993 47.6408C157.988 45.0554 159.35 41.5147 164.023 39.0037L167.489 45.4534C165.208 46.679 164.688 48.0307 163.826 50.2705C162.831 52.856 161.468 56.3967 156.795 58.9076C152.122 61.4185 148.418 60.6002 145.713 60.0031C143.369 59.4855 141.955 59.1731 139.674 60.3987C137.394 61.6235 136.874 62.9756 136.012 65.215C135.018 67.8005 133.655 71.3408 128.983 73.8517C124.31 76.3623 120.605 75.544 117.9 74.9469C115.557 74.4297 114.143 74.1173 111.863 75.3425Z" fill="#7416EF"/>
<path d="M158.245 76.7139C160.267 76.7523 161.936 75.1448 161.975 73.1234C162.013 71.102 160.406 69.4322 158.384 69.3938C156.363 69.3554 154.693 70.9629 154.655 72.9843C154.616 75.0057 156.224 76.6755 158.245 76.7139Z" fill="#7416EF"/>
<path d="M141.129 119.107C143.15 119.146 144.82 117.538 144.859 115.517C144.897 113.496 143.29 111.826 141.268 111.787C139.247 111.749 137.577 113.356 137.538 115.378C137.5 117.399 139.108 119.069 141.129 119.107Z" fill="#F2112D"/>
<path d="M175.364 88.6905C177.385 88.7289 179.055 87.1214 179.093 85.1C179.132 83.0785 177.524 81.4087 175.503 81.3703C173.482 81.3319 171.812 82.9395 171.773 84.9609C171.735 86.9823 173.342 88.6521 175.364 88.6905Z" fill="#2252FF"/>
<path d="M146.56 37.6573C148.582 37.6957 150.251 36.0882 150.29 34.0668C150.328 32.0453 148.721 30.3755 146.699 30.3371C144.678 30.2987 143.008 31.9063 142.97 33.9277C142.931 35.9491 144.539 37.6189 146.56 37.6573Z" fill="#FF4901"/>
<path d="M93.2398 9.71785C95.2612 9.75626 96.9311 8.14872 96.9695 6.1273C97.0079 4.10589 95.4003 2.43607 93.3789 2.39767C91.3575 2.35926 89.6877 3.9668 89.6493 5.98822C89.6109 8.00963 91.2184 9.67944 93.2398 9.71785Z" fill="#2252FF"/>
<path d="M118.003 41.7745C120.024 41.8129 121.694 40.2054 121.733 38.1839C121.771 36.1625 120.163 34.4927 118.142 34.4543C116.121 34.4159 114.451 36.0234 114.412 38.0449C114.374 40.0663 115.982 41.7361 118.003 41.7745Z" fill="#FCD031"/>
<path d="M89.4499 86.5401C91.4713 86.5785 93.1412 84.971 93.1796 82.9496C93.218 80.9282 91.6104 79.2583 89.589 79.2199C87.5676 79.1815 85.8978 80.7891 85.8594 82.8105C85.821 84.8319 87.4285 86.5017 89.4499 86.5401Z" fill="#FF4901"/>
<path d="M52.2777 26.2852C54.2991 26.3236 55.9689 24.7161 56.0073 22.6947C56.0457 20.6733 54.4382 19.0035 52.4167 18.9651C50.3953 18.9266 48.7255 20.5342 48.6871 22.5556C48.6487 24.577 50.2562 26.2468 52.2777 26.2852Z" fill="#7416EF"/>
<defs>
<linearGradient id="paint0_linear_3645_12335" x1="68.1808" y1="100.145" x2="92.6938" y2="74.9737" gradientUnits="userSpaceOnUse">
<stop stop-color="#765246"/>
<stop offset="1" stop-color="#513C35"/>
</linearGradient>
</defs>
</svg>
