<svg width="29" height="21" viewBox="0 0 29 21" fill="none" xmlns="http://www.w3.org/2000/svg">
<path fill-rule="evenodd" clip-rule="evenodd" d="M21.4885 7.65409C21.8344 8.00003 21.8344 8.56071 21.4885 8.90594L16.7108 13.684C16.8526 13.9965 16.9316 14.3437 16.9316 14.7082C16.9316 16.0861 15.8113 17.2063 14.4337 17.2063C13.0567 17.2063 11.936 16.0862 11.936 14.7082C11.936 13.3313 13.0567 12.2103 14.4337 12.2103C14.7989 12.2103 15.1455 12.29 15.4586 12.4315L20.236 7.65409C20.5818 7.30815 21.1425 7.30815 21.4885 7.65409ZM14.4337 6.50284C15.4075 6.50284 16.36 6.67159 17.2641 7.0037C17.7232 7.17251 18.2324 6.93714 18.4012 6.47805C18.5694 6.01897 18.3344 5.51038 17.8753 5.34157C16.7745 4.93716 15.6165 4.73173 14.4337 4.73173C8.93264 4.73173 4.45713 9.20723 4.45713 14.7082C4.45713 15.1976 4.85387 15.594 5.34254 15.594C5.83186 15.594 6.22824 15.1976 6.22824 14.7082C6.22818 10.1842 9.90928 6.50284 14.4337 6.50284ZM26.217 17.5625C26.4417 16.6333 26.5552 15.6731 26.5552 14.7082C26.5552 8.02505 21.1174 2.58673 14.4337 2.58673C7.75016 2.58673 2.31242 8.0251 2.31242 14.7082C2.31242 15.6731 2.42621 16.6333 2.65098 17.5625C2.77379 18.0717 3.20844 18.4134 3.73186 18.4134H25.1362C25.6595 18.4135 26.0942 18.0717 26.217 17.5625ZM24.2575 4.88507C21.6335 2.26077 18.1446 0.815613 14.4337 0.815613C10.723 0.815613 7.23447 2.26071 4.61047 4.88507C1.98646 7.50907 0.541016 10.9976 0.541016 14.7082C0.541016 15.8132 0.671562 16.9134 0.929023 17.9788C1.24279 19.2773 2.39533 20.1845 3.7318 20.1845H25.1361C26.4719 20.1845 27.6245 19.2773 27.9382 17.9788C28.1957 16.9127 28.3263 15.8126 28.3263 14.7082C28.3263 10.9976 26.8812 7.50913 24.2575 4.88507Z" fill="black"/>
</svg>
