<svg width="105" height="115" viewBox="0 0 105 115" fill="none" xmlns="http://www.w3.org/2000/svg">
<path d="M52.4216 95.0787C53.372 95.0787 54.1871 94.4013 54.1871 93.4509C54.1871 92.5018 53.5085 91.6879 52.5568 91.6879C51.6064 91.6879 50.7925 92.3653 50.7925 93.3157C50.7925 94.2648 51.4712 94.9435 52.4216 95.0787Z" fill="#0A1C40"/>
<mask id="mask0_2976_9838" style="mask-type:luminance" maskUnits="userSpaceOnUse" x="18" y="0" width="80" height="63">
<path d="M18.7734 0.380981H97.7176V62.0801H18.7734V0.380981Z" fill="white"/>
</mask>
<g mask="url(#mask0_2976_9838)">
<path d="M84.6043 3.77311H91.9371L53.9159 46.238L38.7069 35.6559C37.8917 35.1124 36.9413 35.2489 36.3991 36.0628L19.1528 59.2618C18.6094 60.077 18.7459 61.0261 19.5598 61.7048C19.8315 61.9753 20.2397 61.9753 20.6467 61.9753C21.1901 61.9753 21.7336 61.7048 22.004 61.2978L38.2999 39.3185L53.2372 49.9006C53.9159 50.444 54.8663 50.3075 55.545 49.6301L94.2461 6.21484V12.4557C94.2461 13.4061 94.9248 14.0835 95.8752 14.0835C96.8256 14.0835 97.5056 13.2696 97.5056 12.4557V2.0088C97.5056 1.05966 96.6904 0.380981 95.8752 0.380981H84.4691C83.5187 0.380981 82.84 1.19489 82.84 2.0088C82.84 2.82271 83.6539 3.77311 84.6043 3.77311Z" fill="#0A1C40"/>
</g>
<mask id="mask1_2976_9838" style="mask-type:luminance" maskUnits="userSpaceOnUse" x="0" y="21" width="105" height="94">
<path d="M0.331543 21.6371H104.512V114.616H0.331543V21.6371Z" fill="white"/>
</mask>
<g mask="url(#mask1_2976_9838)">
<path d="M104.43 26.4294C104.43 23.8512 102.394 21.8164 99.9494 21.8164H86.0978C85.1474 21.8164 84.4687 22.6303 84.4687 23.4442C84.4687 24.2594 85.2839 25.0733 86.0978 25.0733H99.8129C100.492 25.0733 100.9 25.6155 100.9 26.2942V85.3102H95.0609V35.7906C95.0609 34.8415 94.2458 34.1628 93.4306 34.1628H83.6535C82.7031 34.1628 82.0245 34.9767 82.0245 35.7906V85.4467H74.6917V66.4525C74.6917 65.5021 73.8765 64.8247 73.0626 64.8247H63.0139C62.0634 64.8247 61.3835 65.6386 61.3835 66.4525V85.4467H54.0507V60.7539C54.0507 59.8048 53.2368 59.1261 52.4217 59.1261H42.6446C41.6942 59.1261 41.0155 59.94 41.0155 60.7539V85.4467H33.6828V74.8634C33.6828 73.9142 32.8676 73.2355 32.0524 73.2355H22.1402C21.1898 73.2355 20.5111 74.0495 20.5111 74.8634V85.4467H3.80824V78.2555H12.6349C13.5853 78.2555 14.2639 77.4416 14.2639 76.6277C14.2639 75.8138 13.4488 74.9999 12.6349 74.9999H3.80824V68.2156H12.6349C13.5853 68.2156 14.2639 67.4017 14.2639 66.5878C14.2639 65.7739 13.4488 64.9599 12.6349 64.9599H3.80824V58.1769H12.6349C13.5853 58.1769 14.2639 57.363 14.2639 56.5479C14.2639 55.734 13.4488 54.92 12.6349 54.92H3.80824V48.137H12.6349C13.5853 48.137 14.2639 47.3231 14.2639 46.5092C14.2639 45.6953 13.4488 44.8801 12.6349 44.8801H3.80824V38.0971H12.6349C13.5853 38.0971 14.2639 37.2832 14.2639 36.4693C14.2639 35.5189 13.4488 34.8415 12.6349 34.8415H3.80824V27.1081C3.80824 26.4294 4.35168 25.8872 4.89387 25.8872H67.0872C68.0376 25.8872 68.7163 25.0733 68.7163 24.2594C68.7163 23.4442 67.9024 22.6303 67.0872 22.6303H5.03036C2.44961 22.6303 0.548805 24.6664 0.548805 27.2433L0.413574 95.8936C0.548805 98.7423 2.72134 100.912 5.57381 101.184H39.25C39.25 103.626 39.25 107.697 39.1135 108.646C38.7065 110.003 37.6209 110.952 36.2623 111.359H31.102C30.1516 111.359 29.4729 112.173 29.4729 112.987C29.4729 113.801 30.2881 114.616 31.102 114.616H73.8765C74.8269 114.616 75.5069 113.801 75.5069 112.987C75.5069 112.173 74.6917 111.359 73.8765 111.359H68.4446C67.0872 110.952 66.1368 110.003 65.8651 108.646C65.7298 107.697 65.7298 103.626 65.5933 101.184H100.085C102.801 101.184 104.43 98.6058 104.43 96.0288V26.4294ZM101.172 96.0288C101.172 96.8427 100.763 97.7919 100.22 97.7919H5.43732C4.48691 97.6566 3.80824 96.8427 3.67174 95.8936V88.9741H101.035V96.0288H101.172Z" fill="#0A1C40"/>
</g>
</svg>
