<svg width="101" height="100" viewBox="0 0 101 100" fill="none" xmlns="http://www.w3.org/2000/svg">
<path d="M88.5005 53.3159L85.7478 56.7059L81.2149 62.288L81.0297 62.5147L77.3509 67.0428L71.0303 74.8244C70.5892 75.3691 69.9215 75.6847 69.2208 75.6847H43.4621C40.3439 75.6847 37.3584 76.9239 35.1517 79.127L34.9055 79.3707L34.7276 79.5462L20.4902 65.3234C20.4914 65.3198 20.4926 65.3161 20.4951 65.3125C20.5987 65.1114 20.7059 64.9128 20.818 64.7166C20.8546 64.6545 20.8911 64.5923 20.9264 64.5314C21.0093 64.3888 21.0958 64.2475 21.1848 64.1061C21.2225 64.0452 21.2628 63.983 21.3018 63.9209C21.4126 63.7479 21.5272 63.5773 21.6478 63.4091C21.6527 63.4006 21.6576 63.3908 21.6661 63.3823C21.6734 63.3701 21.6807 63.3591 21.688 63.347C21.8209 63.1605 21.9585 62.9777 22.0999 62.7962C22.1413 62.7426 22.1852 62.6877 22.2278 62.6329C22.3314 62.5025 22.4387 62.3721 22.5459 62.2442C22.5946 62.1881 22.6409 62.1321 22.6897 62.0772C22.8188 61.9286 22.9492 61.7824 23.0833 61.6386C23.1064 61.613 23.132 61.5862 23.1552 61.5606C23.3136 61.3924 23.4756 61.2279 23.6401 61.0659C23.6877 61.022 23.734 60.9781 23.7815 60.933C23.907 60.8136 24.0325 60.6954 24.1604 60.5809C24.2128 60.5309 24.2677 60.4834 24.3225 60.4359C24.4663 60.3079 24.6137 60.1836 24.7612 60.0618C24.7929 60.035 24.8258 60.0069 24.8562 59.9814C25.0378 59.8351 25.223 59.6926 25.4095 59.5512C25.4545 59.5183 25.5021 59.4854 25.5471 59.4513C25.6934 59.3441 25.842 59.2393 25.9919 59.1369C26.048 59.0967 26.1052 59.0577 26.1625 59.0199C26.3221 58.9127 26.4854 58.8067 26.6487 58.7043C26.6853 58.6812 26.7218 58.6592 26.7572 58.6361C26.9606 58.5118 27.1654 58.3924 27.3725 58.2754C27.4115 58.2535 27.4529 58.2315 27.4919 58.2108C27.6613 58.117 27.8331 58.0268 28.0062 57.9379C28.0634 57.9086 28.1207 57.8806 28.1768 57.8513C28.3534 57.7636 28.5313 57.6795 28.7117 57.5979C28.7495 57.5808 28.7872 57.5638 28.825 57.5467C29.0456 57.4468 29.2698 57.3517 29.4952 57.2628C29.5013 57.2604 29.5086 57.2567 29.5135 57.2543C29.5939 57.2226 29.6743 57.1933 29.7548 57.1641C29.8608 57.1227 29.9668 57.0825 30.074 57.0435C30.2227 56.9898 30.3726 56.9387 30.5224 56.8887C30.5931 56.8656 30.6638 56.8448 30.7345 56.8217C30.8429 56.7876 30.9526 56.7547 31.0635 56.7218L31.2901 56.6572C31.3961 56.6267 31.5021 56.5987 31.6106 56.5707C31.6874 56.5499 31.7641 56.5317 31.8421 56.5122C31.9481 56.4866 32.0554 56.461 32.1626 56.4391C32.2394 56.4208 32.3186 56.4037 32.3966 56.3879C32.5062 56.3647 32.6147 56.344 32.7231 56.3221C32.7999 56.3099 32.8779 56.2941 32.9546 56.2807C33.0667 56.2612 33.1789 56.2429 33.2934 56.2258C33.3665 56.2136 33.4408 56.2039 33.5164 56.1917C33.5493 56.188 33.5785 56.182 33.6102 56.1771C33.6919 56.1673 33.7723 56.1588 33.8539 56.1478C33.9343 56.1393 34.0136 56.1296 34.094 56.1222C34.2073 56.1101 34.3206 56.0991 34.4339 56.0893C34.5144 56.0845 34.5924 56.0772 34.6703 56.0711C34.7946 56.0613 34.9189 56.0552 35.0432 56.0491C35.1127 56.0455 35.1809 56.0418 35.2504 56.0382C35.4295 56.0333 35.6098 56.0296 35.7902 56.0296C35.8024 56.0296 35.8158 56.0284 35.8304 56.0284C38.3333 56.0284 40.8849 56.5975 43.3195 57.8599C43.5084 57.9574 43.6997 58.0475 43.8935 58.1328C43.902 58.1365 43.9093 58.1401 43.9191 58.1438C43.9227 58.1462 43.9251 58.1475 43.9276 58.1499C44.3334 58.3241 44.7464 58.4716 45.1681 58.5947C46.2245 58.9017 47.3285 59.048 48.4374 59.048H64.9644C65.051 59.048 65.1387 59.0516 65.224 59.0589C65.2484 59.0601 65.2752 59.0638 65.2983 59.065C65.3861 59.0748 65.4726 59.0845 65.5579 59.1016C65.5652 59.1016 65.5701 59.1028 65.5761 59.104C65.6602 59.1198 65.7419 59.1393 65.8211 59.1601C65.8442 59.1662 65.8686 59.1722 65.8917 59.1808C65.9758 59.2039 66.0587 59.2295 66.1379 59.26C66.1452 59.2612 66.1513 59.2649 66.1562 59.2661C66.2342 59.2965 66.3073 59.3282 66.384 59.3623C66.4048 59.3721 66.4242 59.3831 66.4462 59.3916C66.5242 59.4281 66.5997 59.4696 66.674 59.5122C66.6801 59.5159 66.685 59.5195 66.6899 59.5232C66.7618 59.5646 66.8276 59.6085 66.8946 59.656C66.9129 59.667 66.9324 59.6816 66.9494 59.6926C67.0201 59.745 67.0871 59.7961 67.1517 59.851C67.159 59.8558 67.1627 59.8619 67.17 59.8668C67.2297 59.918 67.287 59.9728 67.3418 60.0277C67.3577 60.0447 67.3747 60.0618 67.3905 60.0788C67.449 60.1385 67.5063 60.2007 67.5587 60.2653C67.5672 60.2738 67.5733 60.2836 67.5806 60.2921C67.6111 60.3335 67.644 60.3737 67.6732 60.4164C67.6879 60.4347 67.6988 60.4541 67.7135 60.4736C67.7269 60.4931 67.7403 60.5126 67.7537 60.5346C67.8012 60.6052 67.8451 60.6771 67.8853 60.7515C67.8889 60.7576 67.8914 60.7649 67.8938 60.771C67.934 60.8416 67.9681 60.916 67.9998 60.9891C68.0096 61.0098 68.0169 61.0293 68.0242 61.0488C68.0583 61.1304 68.09 61.2133 68.1144 61.2998C68.1424 61.3839 68.1631 61.4704 68.1814 61.5594C68.1863 61.5801 68.1887 61.5996 68.1936 61.6191C68.2106 61.7092 68.224 61.8006 68.2326 61.8932C68.2545 62.104 68.2533 62.3124 68.2326 62.5147C68.1607 63.2678 67.8231 63.9428 67.3138 64.4473C66.7435 65.0103 65.9588 65.3575 65.0912 65.3575H49.0113C48.5264 65.3575 48.0804 65.5306 47.7319 65.8169C47.3651 66.1204 47.108 66.5529 47.0288 67.0428C47.0117 67.1488 47.0007 67.256 47.0007 67.3657C47.0007 67.4412 47.0056 67.5144 47.0129 67.5875C47.0166 67.6106 47.0215 67.6313 47.0239 67.6545C47.0312 67.7045 47.0385 67.7532 47.0495 67.8019C47.0556 67.8275 47.0629 67.8531 47.0702 67.8787C47.0812 67.9226 47.0933 67.9664 47.108 68.0103C47.1177 68.0371 47.1262 68.0615 47.136 68.0859C47.1518 68.1285 47.1701 68.1687 47.1884 68.2101C47.2006 68.2333 47.2115 68.2577 47.2237 68.2808C47.2444 68.3235 47.2688 68.3625 47.2932 68.4027C47.3054 68.4222 47.3163 68.4441 47.3285 68.4612C47.3602 68.5087 47.3907 68.5526 47.4236 68.5952C47.4333 68.6074 47.4418 68.6208 47.4516 68.6305C47.4967 68.6866 47.5442 68.739 47.5954 68.789C47.5966 68.7914 47.6003 68.7938 47.6015 68.795C47.6478 68.8426 47.699 68.8864 47.7501 68.9279C47.783 68.9535 47.8159 68.979 47.8488 69.0022C47.8647 69.0119 47.8781 69.0241 47.8927 69.0339C47.9415 69.0656 47.9926 69.0972 48.0438 69.1265C48.0609 69.135 48.0779 69.1423 48.0962 69.1521C48.1328 69.1704 48.1693 69.1899 48.2071 69.2057C48.2302 69.2154 48.251 69.2228 48.2741 69.2313C48.3082 69.2447 48.3424 69.2593 48.3789 69.2703C48.4033 69.2788 48.4264 69.2861 48.4508 69.2934C48.4861 69.3044 48.5251 69.3141 48.5617 69.3227C48.5848 69.3263 48.6092 69.3324 48.6336 69.3373C48.6726 69.3446 48.7152 69.3507 48.7554 69.3556C48.7761 69.358 48.7981 69.3617 48.8188 69.3653C48.8797 69.3702 48.9407 69.3739 49.0028 69.3739H64.9657C65.2021 69.3739 65.4409 69.3653 65.6761 69.3446C66.1818 69.3044 66.6814 69.2179 67.1651 69.0704C67.3796 69.0046 67.5892 68.9279 67.7915 68.845C67.8134 68.8377 67.8317 68.8292 67.8524 68.8194C67.9328 68.7865 68.012 68.7512 68.0912 68.7146C68.1192 68.7037 68.1473 68.689 68.1765 68.6744C68.246 68.6415 68.313 68.6098 68.3812 68.5745C68.4129 68.5586 68.4446 68.5404 68.4763 68.5221C68.5384 68.4904 68.5993 68.4575 68.6615 68.4222C68.6956 68.4027 68.7285 68.382 68.7638 68.3625C68.8199 68.3283 68.8772 68.2954 68.9308 68.2589C68.9673 68.237 69.0027 68.2138 69.0368 68.1906C69.0904 68.1565 69.1428 68.1224 69.1928 68.0883C69.2281 68.0615 69.2634 68.0371 69.3 68.0103C69.3487 67.975 69.3963 67.9408 69.445 67.9043C69.4803 67.8787 69.5145 67.8495 69.551 67.8214C69.5961 67.7861 69.6424 67.7495 69.6863 67.713C69.7216 67.6825 69.757 67.6533 69.7911 67.6228C69.8337 67.5863 69.8776 67.5497 69.9178 67.5119C69.9531 67.4802 69.9873 67.4473 70.0214 67.4144C70.0616 67.3779 70.1006 67.3413 70.1396 67.3023C70.1737 67.2682 70.2066 67.2353 70.2395 67.2C70.2773 67.161 70.315 67.1232 70.3516 67.083C70.3638 67.0696 70.376 67.0562 70.3882 67.0428C70.4101 67.0209 70.4284 66.9977 70.4479 66.977C70.4832 66.9368 70.5173 66.8978 70.5527 66.8588C70.5843 66.821 70.6148 66.7832 70.6465 66.7442C70.6782 66.704 70.7111 66.665 70.7428 66.6248C70.7732 66.5858 70.8037 66.5456 70.8329 66.5066C70.8622 66.4652 70.8951 66.425 70.9231 66.3848C70.9511 66.3433 70.9804 66.3019 71.0096 66.2605C71.0364 66.2203 71.0644 66.1788 71.0925 66.1374C71.1205 66.0948 71.1461 66.0521 71.1741 66.0082C71.1997 65.968 71.2253 65.9254 71.2509 65.884C71.2765 65.8401 71.3021 65.7962 71.3277 65.7511C71.3508 65.7097 71.3752 65.6671 71.3983 65.6256C71.4239 65.5805 71.4458 65.533 71.4702 65.4879C71.4909 65.4453 71.5129 65.4039 71.5348 65.36C71.5567 65.3125 71.5787 65.2662 71.6006 65.2199C71.6213 65.176 71.6408 65.1333 71.6603 65.0895C71.681 65.0432 71.7005 64.9944 71.7212 64.9457C71.7395 64.9018 71.7578 64.8592 71.7736 64.8153C71.7931 64.7666 71.8114 64.7166 71.8297 64.6691C71.8443 64.6252 71.8614 64.5801 71.876 64.5363C71.8931 64.4851 71.9089 64.4363 71.9272 64.3864C71.9394 64.3413 71.9528 64.2974 71.9674 64.2536C71.982 64.2012 71.9978 64.15 72.0112 64.0988C72.0234 64.0549 72.0344 64.0098 72.0478 63.966C72.0588 63.9148 72.071 63.8624 72.0831 63.8112C72.0941 63.7661 72.1039 63.7198 72.1136 63.6747C72.1246 63.6236 72.1343 63.5712 72.1441 63.52C72.1526 63.4749 72.1623 63.4274 72.1697 63.3823C72.1782 63.3287 72.1855 63.2775 72.194 63.2251C72.2001 63.1788 72.2074 63.1337 72.2111 63.0862C72.2196 63.0338 72.2245 62.9826 72.2294 62.929C72.2342 62.8827 72.2391 62.8364 72.244 62.7889C72.2476 62.7365 72.2513 62.6841 72.2537 62.6305C72.2574 62.5842 72.2598 62.5366 72.2623 62.4891C72.2647 62.4355 72.2647 62.3843 72.2659 62.3319C72.2684 62.2832 72.2684 62.2369 72.2684 62.1881C72.2684 62.1357 72.2659 62.0821 72.2659 62.0297C72.2647 61.9822 72.2635 61.9347 72.2623 61.8859C72.2586 61.8335 72.255 61.7824 72.2525 61.7287C72.2476 61.6568 72.244 61.5862 72.2355 61.5143C72.2245 61.3741 72.2038 61.2389 72.1831 61.1048C72.1477 60.8782 72.099 60.654 72.0417 60.4347L77.6336 55.0377L81.2149 51.5832L84.0382 48.8561C84.3282 48.5697 84.6585 48.348 85.0118 48.1956C85.0131 48.1932 85.0155 48.1932 85.0179 48.1932C85.0752 48.1676 85.1325 48.1445 85.191 48.1238C85.2507 48.1018 85.3116 48.0823 85.3713 48.064C85.6662 47.9763 85.9696 47.9324 86.2742 47.9324C86.2974 47.9324 86.323 47.9361 86.3486 47.9373C86.524 47.9422 86.7007 47.9568 86.8738 47.9909C86.8884 47.9946 86.903 47.9995 86.9189 48.0019C87.3514 48.0933 87.7657 48.2773 88.135 48.5478C88.2641 48.6429 88.386 48.7416 88.5005 48.8561C89.122 49.4702 89.4254 50.2806 89.4254 51.0824C89.4254 51.8927 89.122 52.7018 88.5005 53.3159ZM33.1886 85.4062C33.1667 85.5134 33.1374 85.6206 33.1021 85.7242C33.068 85.8302 33.0253 85.9326 32.9766 86.0337C32.8962 86.2019 32.7975 86.3627 32.6793 86.515C32.6098 86.604 32.5355 86.6917 32.4526 86.7758L24.476 94.745L4.66139 74.9511L12.6379 66.9806C13.0145 66.6053 13.4763 66.3653 13.9601 66.258C13.9856 66.252 14.0112 66.2446 14.0368 66.2398C14.0563 66.2349 14.077 66.2337 14.0978 66.23C14.2476 66.2044 14.3987 66.1898 14.5511 66.1898C15.0689 66.1898 15.588 66.3373 16.0389 66.6346C16.19 66.7333 16.3313 66.849 16.4629 66.9806L32.4526 82.9545C32.6841 83.1848 32.8633 83.4468 32.9936 83.7258C33.0497 83.8452 33.0972 83.9683 33.1325 84.0938C33.2069 84.3436 33.2447 84.6031 33.2447 84.8615C33.2447 85.043 33.2264 85.227 33.1886 85.4062ZM91.3324 46.0047C89.9957 44.6631 88.191 43.9174 86.2742 43.9174C86.0976 43.9174 85.9221 43.9247 85.7478 43.9369C84.1455 44.0526 82.6491 44.6875 81.4586 45.7671C81.3794 45.839 81.3014 45.9133 81.2246 45.9889L81.2149 45.9998L74.7712 52.2168L69.8886 56.9289C68.5774 55.7542 66.8325 55.0304 64.9547 55.0304H48.3606C47.4748 55.0304 46.6206 54.8781 45.848 54.5905C45.6116 54.5028 45.3813 54.4029 45.162 54.2908C42.2448 52.781 39.1034 52.0133 35.8304 52.0133C34.2292 52.0133 32.6403 52.1985 31.0891 52.558C29.7998 52.8578 28.5362 53.277 27.3201 53.8095C26.9412 53.9752 26.5671 54.1531 26.1991 54.3407C24.5748 55.1645 23.0479 56.1941 21.6661 57.4127C21.2006 57.8197 20.7522 58.2474 20.3221 58.697C19.1218 59.9533 18.1177 61.3193 17.2952 62.7657C16.4471 62.3794 15.5149 62.1735 14.5511 62.1735C12.7525 62.1735 11.0636 62.8729 9.79631 64.1414L0.829084 73.0977C-0.192051 74.1176 -0.192051 75.7773 0.829084 76.8033L22.6202 98.5725C23.6474 99.5924 25.3083 99.5924 26.3307 98.5725L35.2955 89.6162C37.0989 87.814 37.6619 85.249 36.9904 82.9654L37.5753 82.3866C39.2935 80.6648 41.6245 79.7022 44.0592 79.7022H69.2281C71.1388 79.7022 72.9495 78.8407 74.1498 77.3541L82.526 67.0428L85.7478 63.0777L91.5115 55.9833C92.7642 54.6515 93.4466 52.9236 93.4466 51.0824C93.4466 49.1546 92.6947 47.3549 91.3324 46.0047Z" fill="#0A1C40"/>
<path d="M14.8372 71.0944C13.5687 71.0944 12.5403 72.1228 12.5403 73.3901C12.5403 74.6574 13.5687 75.6858 14.8372 75.6858C16.1069 75.6858 17.1354 74.6574 17.1354 73.3901C17.1354 72.1228 16.1069 71.0944 14.8372 71.0944Z" fill="#0A1C40"/>
<mask id="mask0_2976_9854" style="mask-type:luminance" maskUnits="userSpaceOnUse" x="74" y="0" width="19" height="18">
<path d="M74.9731 0.44104H92.7541V17.8588H74.9731V0.44104Z" fill="white"/>
</mask>
<g mask="url(#mask0_2976_9854)">
<path d="M92.4913 9.14872C92.4913 13.9583 88.5895 17.8576 83.775 17.8576C78.9606 17.8576 75.0576 13.9583 75.0576 9.14872C75.0576 4.33915 78.9606 0.44104 83.775 0.44104C88.5895 0.44104 92.4913 4.33915 92.4913 9.14872Z" fill="#0A1C40"/>
</g>
<mask id="mask1_2976_9854" style="mask-type:luminance" maskUnits="userSpaceOnUse" x="21" y="0" width="18" height="18">
<path d="M21.0059 0.44104H38.7868V17.8588H21.0059V0.44104Z" fill="white"/>
</mask>
<g mask="url(#mask1_2976_9854)">
<path d="M38.6922 9.14872C38.6922 13.9583 34.7904 17.8576 29.9748 17.8576C25.1615 17.8576 21.2585 13.9583 21.2585 9.14872C21.2585 4.33915 25.1615 0.44104 29.9748 0.44104C34.7904 0.44104 38.6922 4.33915 38.6922 9.14872Z" fill="#0A1C40"/>
</g>
<mask id="mask2_2976_9854" style="mask-type:luminance" maskUnits="userSpaceOnUse" x="70" y="19" width="31" height="19">
<path d="M70.0815 19.7308H100.78V37.1998H70.0815V19.7308Z" fill="white"/>
</mask>
<g mask="url(#mask2_2976_9854)">
<path d="M88.5381 19.8551H79.0116C76.0213 19.8551 73.2723 20.9408 71.1411 22.7357C69.886 23.7946 69.9908 25.7516 71.3555 26.6655C72.2512 27.2638 73.0956 27.9559 73.8767 28.7358C75.7642 30.6221 77.1375 32.8801 77.9283 35.3403C78.2549 36.3553 79.1993 37.0426 80.2667 37.0426H95.8153C98.546 37.0426 100.78 34.8102 100.78 32.0831C100.78 25.358 95.2718 19.8551 88.5381 19.8551Z" fill="#0A1C40"/>
</g>
<path d="M42.395 26.6648C43.761 25.7509 43.8658 23.7939 42.6095 22.735C40.4782 20.9401 37.7304 19.8544 34.7401 19.8544H25.2124C18.48 19.8544 12.9709 25.3573 12.9709 32.0824C12.9709 34.8095 15.2045 37.0419 17.9365 37.0419H33.4838C34.5513 37.0419 35.4969 36.3546 35.8234 35.3396C36.6118 32.8793 37.9863 30.6214 39.8738 28.7351C40.6549 27.9552 41.4994 27.2631 42.395 26.6648Z" fill="#0A1C40"/>
<path d="M62.2457 26.5688H51.5055C43.914 26.5688 37.7043 32.7724 37.7043 40.3542C37.7043 43.4286 40.2231 45.9448 43.3011 45.9448H70.4489C73.527 45.9448 76.0457 43.4286 76.0457 40.3542C76.0457 32.7724 69.836 26.5688 62.2457 26.5688Z" fill="#0A1C40"/>
<path d="M66.7022 14.4998C66.7022 19.9223 62.3032 24.3163 56.8759 24.3163C51.4485 24.3163 47.0483 19.9223 47.0483 14.4998C47.0483 9.0785 51.4485 4.68323 56.8759 4.68323C62.3032 4.68323 66.7022 9.0785 66.7022 14.4998Z" fill="#0A1C40"/>
</svg>
