<svg width="21" height="21" viewBox="0 0 21 21" fill="none" xmlns="http://www.w3.org/2000/svg">
<g clip-path="url(#clip0_2976_9208)">
<path d="M11.3669 20.5001H9.50026C8.86943 20.5001 8.33693 20.0276 8.26193 19.4001L8.06276 17.8368C7.66526 17.7076 7.28193 17.5485 6.91776 17.3626L5.67276 18.3301C5.16776 18.721 4.45693 18.676 4.01859 18.2251L2.70609 16.9126C2.25859 16.4785 2.21359 15.7676 2.60443 15.2635L3.57193 14.0176C3.38526 13.6535 3.22609 13.2701 3.09776 12.8726L1.53109 12.6735C0.906094 12.5968 0.433594 12.0643 0.433594 11.4335V9.56679C0.433594 8.93596 0.906094 8.40346 1.53359 8.32846L3.09693 8.12929C3.22609 7.73179 3.38526 7.34846 3.57109 6.98429L2.60443 5.73929C2.21276 5.23429 2.25859 4.52262 2.71026 4.08429L4.02276 2.77179C4.45693 2.32429 5.16859 2.28012 5.67193 2.67012L6.91693 3.63846C7.28109 3.45262 7.66443 3.29346 8.06276 3.16429L8.26193 1.59762C8.33693 0.972622 8.86943 0.500122 9.50026 0.500122H11.3669C11.9978 0.500122 12.5303 0.972622 12.6053 1.60012L12.8044 3.16346C13.2028 3.29262 13.5861 3.45179 13.9503 3.63762L15.1953 2.67012C15.7011 2.27929 16.4111 2.32429 16.8494 2.77596L18.1619 4.08846C18.6094 4.52262 18.6544 5.23346 18.2636 5.73762L17.2961 6.98346C17.4828 7.34762 17.6419 7.73096 17.7703 8.12846L19.3369 8.32762C19.9611 8.40345 20.4336 8.93596 20.4336 9.56679V11.4335C20.4336 12.0643 19.9611 12.5968 19.3336 12.6718L17.7703 12.871C17.6411 13.2685 17.4819 13.6518 17.2961 14.016L18.2636 15.261C18.6553 15.766 18.6094 16.4768 18.1578 16.9151L16.8453 18.2276C16.4111 18.6751 15.6994 18.721 15.1961 18.3293L13.9503 17.3618C13.5861 17.5485 13.2028 17.7076 12.8053 17.836L12.6061 19.4026C12.5303 20.0276 11.9978 20.5001 11.3669 20.5001ZM6.87526 16.4501C6.94443 16.4501 7.01526 16.4676 7.07859 16.5026C7.53776 16.7593 8.03526 16.966 8.55693 17.116C8.71693 17.1618 8.83443 17.2985 8.85526 17.4635L9.08859 19.2968C9.11359 19.506 9.29443 19.6668 9.50026 19.6668H11.3669C11.5728 19.6668 11.7536 19.506 11.7778 19.301L12.0119 17.4643C12.0328 17.2993 12.1503 17.1626 12.3103 17.1168C12.8319 16.9668 13.3294 16.7601 13.7886 16.5035C13.9344 16.4218 14.1161 16.436 14.2469 16.5385L15.7053 17.6718C15.8728 17.8018 16.1078 17.791 16.2511 17.6435L17.5719 16.3226C17.7228 16.176 17.7344 15.941 17.6044 15.7726L16.4711 14.3143C16.3686 14.1826 16.3544 14.0018 16.4361 13.856C16.6928 13.3968 16.8994 12.8993 17.0494 12.3776C17.0953 12.2176 17.2319 12.1001 17.3969 12.0793L19.2303 11.846C19.4394 11.8201 19.6003 11.6393 19.6003 11.4335V9.56679C19.6003 9.36096 19.4394 9.18012 19.2344 9.15596L17.3978 8.92179C17.2328 8.90096 17.0961 8.78345 17.0503 8.62346C16.9003 8.10179 16.6936 7.60429 16.4369 7.14512C16.3553 6.99929 16.3686 6.81846 16.4719 6.68679L17.6053 5.22846C17.7361 5.06012 17.7244 4.82512 17.5778 4.68346L16.2569 3.36262C16.1111 3.21096 15.8753 3.19929 15.7069 3.33012L14.2486 4.46346C14.1161 4.56596 13.9353 4.58012 13.7894 4.49846C13.3319 4.24179 12.8344 4.03596 12.3111 3.88512C12.1511 3.83929 12.0336 3.70262 12.0128 3.53762L11.7794 1.70429C11.7536 1.49429 11.5728 1.33346 11.3669 1.33346H9.50026C9.29443 1.33346 9.11359 1.49429 9.08943 1.69929L8.85526 3.53596C8.83443 3.70096 8.71693 3.83762 8.55693 3.88429C8.03359 4.03429 7.53609 4.24096 7.07859 4.49679C6.93276 4.57929 6.75193 4.56429 6.61943 4.46262L5.16109 3.32929C4.99276 3.19846 4.75859 3.21012 4.61609 3.35679L3.29526 4.67846C3.14443 4.82512 3.13276 5.06012 3.26276 5.22846L4.39609 6.68679C4.49859 6.81846 4.51276 6.99929 4.43109 7.14512C4.17359 7.60429 3.96776 8.10179 3.81776 8.62346C3.77193 8.78345 3.63526 8.90096 3.47026 8.92179L1.63693 9.15512C1.42776 9.18012 1.26693 9.36096 1.26693 9.56679V11.4335C1.26693 11.6393 1.42776 11.8201 1.63276 11.8443L3.46943 12.0785C3.63443 12.0993 3.77109 12.2168 3.81693 12.3768C3.96693 12.8985 4.17359 13.396 4.43026 13.8551C4.51193 14.001 4.49859 14.1818 4.39526 14.3135L3.26193 15.7718C3.13109 15.9401 3.14276 16.1751 3.28943 16.3168L4.61026 17.6376C4.75609 17.7885 4.99026 17.8001 5.16026 17.6701L6.61859 16.5368C6.69443 16.4801 6.78443 16.4501 6.87526 16.4501Z" fill="black"/>
<path d="M10.4338 14.6668C8.13626 14.6668 6.26709 12.7976 6.26709 10.5001C6.26709 8.2026 8.13626 6.33344 10.4338 6.33344C12.7313 6.33344 14.6004 8.2026 14.6004 10.5001C14.6004 12.7976 12.7313 14.6668 10.4338 14.6668ZM10.4338 7.16677C8.59542 7.16677 7.10042 8.66177 7.10042 10.5001C7.10042 12.3384 8.59542 13.8334 10.4338 13.8334C12.2721 13.8334 13.7671 12.3384 13.7671 10.5001C13.7671 8.66177 12.2721 7.16677 10.4338 7.16677Z" fill="black"/>
</g>
<defs>
<clipPath id="clip0_2976_9208">
<rect width="20" height="20" fill="white" transform="translate(0.433594 0.500122)"/>
</clipPath>
</defs>
</svg>
