<svg width="36" height="37" viewBox="0 0 36 37" fill="none" xmlns="http://www.w3.org/2000/svg">
<g clip-path="url(#clip0_3550_20291)">
<path d="M6.30788 28.5428C5.80578 28.5428 5.3231 28.6682 4.89488 28.9035C2.63911 26.0118 1.40096 22.4197 1.40096 18.7397C1.40096 9.62412 8.81675 2.20833 17.9323 2.20833C19.0405 2.20833 20.1481 2.3186 21.2246 2.53614C21.6033 2.61275 21.9732 2.36758 22.0498 1.98834C22.1264 1.60909 21.8813 1.2397 21.502 1.16281C20.3345 0.926947 19.1335 0.807373 17.9323 0.807373C13.1425 0.807373 8.63917 2.67268 5.25223 6.05961C1.8653 9.44654 0 13.9499 0 18.7397C0 22.7688 1.36813 26.7008 3.85894 29.853C3.53825 30.3321 3.36586 30.8952 3.36586 31.4849C3.36586 32.2707 3.67205 33.0095 4.22778 33.565C4.78324 34.1207 5.52203 34.4269 6.30788 34.4269C7.09373 34.4269 7.83252 34.1207 8.38825 33.565C8.94399 33.0095 9.2499 32.2704 9.2499 31.4846C9.2499 30.699 8.94399 29.9599 8.38825 29.4045C7.83252 28.8488 7.09373 28.5428 6.30788 28.5428ZM7.39746 32.5744C7.10659 32.8656 6.71941 33.0259 6.30788 33.0259C5.89635 33.0259 5.50944 32.8656 5.21831 32.5744C4.92717 32.2833 4.76682 31.8964 4.76682 31.4849C4.76682 31.0731 4.92717 30.6861 5.21831 30.395C5.50917 30.1039 5.89635 29.9438 6.30788 29.9438C6.71941 29.9438 7.10632 30.1041 7.39746 30.395C7.68859 30.6861 7.84894 31.0731 7.84894 31.4849C7.84894 31.8964 7.68859 32.2833 7.39746 32.5744Z" fill="#007AFF"/>
<path d="M32.0067 7.62559C32.7682 6.4832 32.6459 4.92135 31.6387 3.91414C31.083 3.35868 30.3442 3.05249 29.5583 3.05249C28.7725 3.05249 28.0337 3.35868 27.4779 3.91414C26.9222 4.46987 26.6163 5.20866 26.6163 5.99451C26.6163 6.78036 26.9222 7.51915 27.4779 8.07488C28.0337 8.63061 28.7725 8.93653 29.5583 8.93653C30.0604 8.93653 30.5431 8.81121 30.9713 8.57589C33.2271 11.4678 34.4652 15.0597 34.4652 18.7397C34.4652 27.8552 27.0494 35.271 17.9339 35.271C16.8367 35.271 15.7394 35.163 14.6731 34.9495C14.2939 34.8737 13.9247 35.1197 13.8487 35.499C13.7729 35.8785 14.0189 36.2473 14.3981 36.3234C15.5547 36.5546 16.7445 36.672 17.9339 36.672C22.7237 36.672 27.227 34.8067 30.614 31.4198C34.0009 28.0328 35.8662 23.5295 35.8662 18.7397C35.8662 14.7103 34.4978 10.778 32.0067 7.62559ZM28.4687 7.08436C28.1776 6.79322 28.0173 6.40631 28.0173 5.99451C28.0173 5.58298 28.1776 5.19607 28.4687 4.90493C28.7596 4.6138 29.1468 4.45345 29.5583 4.45345C29.9699 4.45345 30.357 4.6138 30.6482 4.90493C31.2488 5.50581 31.2488 6.48348 30.6482 7.08436C30.357 7.37522 29.9699 7.53557 29.5583 7.53557C29.1465 7.53557 28.7596 7.37522 28.4687 7.08436Z" fill="#007AFF"/>
<path d="M15.0419 30.7875C15.0419 31.1744 15.3557 31.488 15.7424 31.488H20.1223C20.5092 31.488 20.8228 31.1744 20.8228 30.7875V29.4295C21.7438 29.1816 22.6243 28.8166 23.4517 28.3399L24.4105 29.2987C24.5419 29.43 24.72 29.5039 24.9061 29.5039C25.0916 29.5039 25.27 29.43 25.4013 29.2984L28.4971 26.2004C28.7705 25.9268 28.7705 25.4833 28.4971 25.2099L27.5394 24.2522C28.0161 23.4248 28.3811 22.5443 28.629 21.6232H29.9818C30.3687 21.6232 30.6823 21.3097 30.6823 20.9228V16.5428C30.6823 16.1559 30.3687 15.8424 29.9818 15.8424H28.6287C28.3808 14.9216 28.0161 14.0411 27.5394 13.2136L28.4919 12.2611C28.6233 12.1298 28.6971 11.9514 28.6971 11.7656C28.6969 11.5798 28.623 11.4014 28.4917 11.2701L25.3934 8.17428C25.12 7.90093 24.6765 7.90093 24.4029 8.17455L23.4517 9.12595C22.6243 8.64929 21.7438 8.28428 20.8228 8.03637V6.69096C20.8228 6.30405 20.5092 5.99048 20.1223 5.99048H15.7424C15.3557 5.99048 15.0419 6.30405 15.0419 6.69096V8.03665C14.1211 8.28428 13.2406 8.64929 12.4132 9.12595L11.4618 8.17455C11.1884 7.9012 10.7449 7.90093 10.4712 8.17428L7.37326 11.2703C7.24165 11.4017 7.16777 11.5798 7.16777 11.7656C7.16777 11.9514 7.24165 12.1298 7.37299 12.2611L8.32548 13.2136C7.84882 14.0411 7.48381 14.9213 7.2359 15.8424H5.88556C5.49866 15.8424 5.18508 16.1559 5.18508 16.5426L5.18262 20.9225C5.18234 21.1083 5.25622 21.2867 5.38756 21.418C5.5189 21.5494 5.69703 21.6232 5.8831 21.6232H7.2359C7.48381 22.5443 7.84882 23.4248 8.32548 24.2522L7.36779 25.2099C7.09444 25.4833 7.09416 25.9268 7.36779 26.2004L10.4636 29.2984C10.5949 29.4298 10.7731 29.5039 10.9588 29.5039H10.9591C11.1449 29.5039 11.323 29.43 11.4544 29.2987L12.4129 28.3399C13.2406 28.8166 14.1211 29.1816 15.0419 29.4295V30.7875ZM12.6876 26.8667C12.4104 26.6875 12.0457 26.7263 11.812 26.9597L10.9591 27.8126L8.85357 25.7054L9.70564 24.8531C9.93904 24.6197 9.9779 24.255 9.79867 23.9778C9.16359 22.9949 8.71703 21.9177 8.47187 20.7755C8.40237 20.4529 8.11725 20.2223 7.78698 20.2223H6.58385L6.58549 17.2433H7.78698C8.11725 17.2433 8.40237 17.0129 8.47187 16.69C8.71703 15.5482 9.16359 14.4709 9.79867 13.4881C9.9779 13.2109 9.93904 12.8462 9.70564 12.6128L8.85905 11.7659L10.9662 9.66034L11.812 10.5064C12.0457 10.7398 12.4102 10.7784 12.6876 10.5994C13.6702 9.96434 14.7475 9.51778 15.8896 9.27261C16.2122 9.20311 16.4428 8.91772 16.4428 8.58773V7.39144H19.4218V8.58746C19.4218 8.91772 19.6522 9.20311 19.9751 9.27234C21.1169 9.51778 22.1944 9.96406 23.177 10.5991C23.4542 10.7784 23.819 10.7398 24.0524 10.5061L24.8984 9.66034L27.0056 11.7659L26.159 12.6125C25.9253 12.8462 25.8867 13.2109 26.066 13.4881C26.701 14.4709 27.1473 15.5482 27.3928 16.69C27.462 17.0129 27.7474 17.2433 28.0777 17.2433H29.2813V20.2223H28.0777C27.7474 20.2223 27.4623 20.4529 27.3928 20.7755C27.1476 21.9174 26.701 22.9949 26.066 23.9775C25.8867 24.255 25.9256 24.6197 26.159 24.8531L27.0111 25.7052L24.9055 27.8124L24.0526 26.9597C23.819 26.7261 23.4542 26.6875 23.177 26.8667C22.1942 27.5018 21.1169 27.9481 19.9751 28.1935C19.6522 28.263 19.4218 28.5481 19.4218 28.8784V30.087H16.4428V28.8784C16.4428 28.5484 16.2122 28.263 15.8896 28.1935C14.7477 27.9484 13.6705 27.5018 12.6876 26.8667Z" fill="#007AFF"/>
<path d="M23.7215 18.7394C23.7215 15.5478 21.1251 12.9514 17.9335 12.9514C14.7419 12.9514 12.1455 15.5478 12.1455 18.7394C12.1455 21.931 14.7419 24.5274 17.9335 24.5274C21.1251 24.5274 23.7215 21.931 23.7215 18.7394ZM13.5465 18.7394C13.5465 16.3203 15.5144 14.3524 17.9335 14.3524C20.3526 14.3524 22.3205 16.3206 22.3205 18.7394C22.3205 21.1583 20.3526 23.1264 17.9335 23.1264C15.5144 23.1264 13.5465 21.1585 13.5465 18.7394Z" fill="#007AFF"/>
<path d="M24.3826 3.45549C24.5669 3.45549 24.7474 3.38057 24.8775 3.25041C25.0077 3.11944 25.0826 2.93897 25.0826 2.75468C25.0826 2.57148 25.008 2.39074 24.8775 2.25976C24.7474 2.12961 24.5669 2.05469 24.3826 2.05469C24.1978 2.05469 24.0181 2.12961 23.888 2.25976C23.7575 2.39074 23.6826 2.57066 23.6826 2.75468C23.6826 2.93952 23.7575 3.11944 23.888 3.25041C24.0181 3.38057 24.1978 3.45549 24.3826 3.45549Z" fill="#007AFF"/>
<path d="M11.5125 34.0364C11.3285 34.0364 11.1477 34.1113 11.0176 34.2415C10.8874 34.3716 10.8125 34.5523 10.8125 34.7364C10.8125 34.9212 10.8874 35.1011 11.0176 35.2313C11.1477 35.3614 11.3285 35.4364 11.5125 35.4364C11.6965 35.4364 11.8773 35.3614 12.0074 35.2313C12.1376 35.1011 12.2125 34.9204 12.2125 34.7364C12.2125 34.5523 12.1376 34.3716 12.0074 34.2415C11.8773 34.1113 11.6965 34.0364 11.5125 34.0364Z" fill="#007AFF"/>
</g>
<defs>
<clipPath id="clip0_3550_20291">
<rect width="35.8646" height="35.8646" fill="white" transform="translate(0 0.807373)"/>
</clipPath>
</defs>
</svg>
