<svg width="37" height="37" viewBox="0 0 37 37" fill="none" xmlns="http://www.w3.org/2000/svg">
<g clip-path="url(#clip0_3550_20300)">
<path d="M36.1457 21.8482C35.9818 21.6844 35.7595 21.5923 35.5277 21.5923C35.296 21.5923 35.0737 21.6844 34.9097 21.8482L27.1326 29.6254C27.0997 29.6583 27.0607 29.6843 27.0178 29.7021C26.9748 29.7199 26.9288 29.7291 26.8823 29.7291C26.8359 29.7291 26.7898 29.7199 26.7469 29.7021C26.704 29.6843 26.665 29.6583 26.6321 29.6254L24.1112 27.1045C23.9468 26.9427 23.7252 26.8525 23.4946 26.8534C23.264 26.8543 23.0431 26.9463 22.88 27.1094C22.717 27.2725 22.6249 27.4934 22.624 27.724C22.6231 27.9546 22.7134 28.1762 22.8751 28.3406L26.6321 32.0975C26.665 32.1304 26.704 32.1565 26.7469 32.1742C26.7898 32.192 26.8359 32.2012 26.8823 32.2012C26.9288 32.2012 26.9748 32.192 27.0178 32.1742C27.0607 32.1565 27.0997 32.1304 27.1326 32.0975L36.1457 23.0843C36.2269 23.0031 36.2913 22.9068 36.3352 22.8008C36.3792 22.6947 36.4018 22.5811 36.4018 22.4663C36.4018 22.3515 36.3792 22.2378 36.3352 22.1318C36.2913 22.0257 36.2269 21.9294 36.1457 21.8482Z" fill="#007AFF"/>
<path d="M34.6628 27.5594C34.431 27.5594 34.2087 27.6515 34.0448 27.8154C33.8809 27.9793 33.7889 28.2016 33.7889 28.4335C33.7889 29.7172 33.4082 30.9721 32.695 32.0394C31.9818 33.1068 30.9681 33.9387 29.7821 34.43C28.5961 34.9212 27.2911 35.0498 26.032 34.7993C24.773 34.5489 23.6165 33.9307 22.7087 33.023C21.801 32.1153 21.1828 30.9588 20.9324 29.6997C20.682 28.4407 20.8105 27.1356 21.3018 25.9496C21.793 24.7636 22.6249 23.7499 23.6923 23.0367C24.7597 22.3235 26.0146 21.9429 27.2983 21.9429C28.3085 21.9397 29.3052 22.1749 30.2075 22.6293C30.4147 22.7334 30.6546 22.7509 30.8747 22.678C31.0947 22.6051 31.2768 22.4477 31.3808 22.2406C31.4848 22.0334 31.5023 21.7934 31.4294 21.5734C31.3565 21.3534 31.1992 21.1713 30.992 21.0673C29.8465 20.4899 28.581 20.1909 27.2982 20.1946C25.6688 20.1946 24.0759 20.6778 22.7211 21.5831C21.3663 22.4883 20.3103 23.775 19.6867 25.2804C19.0632 26.7858 18.9 28.4423 19.2179 30.0404C19.5357 31.6386 20.3204 33.1066 21.4725 34.2588C22.6247 35.411 24.0927 36.1956 25.6908 36.5135C27.2889 36.8315 28.9454 36.6683 30.4508 36.0448C31.9563 35.4213 33.243 34.3653 34.1483 33.0105C35.0536 31.6557 35.5368 30.0629 35.5368 28.4335C35.5368 28.2016 35.4448 27.9793 35.2809 27.8154C35.117 27.6515 34.8946 27.5594 34.6628 27.5594Z" fill="#007AFF"/>
<path d="M29.1115 14.9471H27.6405C27.3977 14.9471 27.1649 15.0435 26.9932 15.2152C26.8215 15.3869 26.7251 15.6197 26.7251 15.8625C26.7251 16.1053 26.8215 16.3382 26.9932 16.5098C27.1649 16.6815 27.3977 16.778 27.6405 16.778H30.0314C30.2838 16.7685 30.523 16.6626 30.6998 16.4823C30.8767 16.3019 30.9777 16.0606 30.9822 15.8081C30.9368 11.8141 29.3183 7.99907 26.4779 5.19078C23.6375 2.38249 19.8044 0.807446 15.8101 0.807373C7.4435 0.807373 0.636719 7.61408 0.636719 15.9807C0.636719 24.3473 7.4435 31.1539 15.8101 31.1539C16.0064 31.1538 16.1974 31.0907 16.355 30.9738C16.5127 30.8569 16.6286 30.6925 16.6857 30.5047C16.7131 30.4265 16.7265 30.344 16.7254 30.2611V27.6931C16.7232 27.4517 16.6259 27.2208 16.4544 27.0509C16.2829 26.8809 16.0513 26.7856 15.8099 26.7856C15.5684 26.7856 15.3368 26.8809 15.1653 27.0509C14.9939 27.2208 14.8965 27.4517 14.8944 27.6931V29.291C8.22628 28.8369 2.88813 23.4618 2.49201 16.7783H3.97941C4.22221 16.7783 4.45506 16.6819 4.62674 16.5102C4.79842 16.3385 4.89487 16.1057 4.89487 15.8629C4.89487 15.6201 4.79842 15.3872 4.62674 15.2155C4.45506 15.0439 4.22221 14.9474 3.97941 14.9474H2.50742C3.01352 8.37305 8.30495 3.11896 14.8946 2.67065V4.03189C14.8967 4.27331 14.9941 4.50412 15.1655 4.67409C15.337 4.84405 15.5686 4.93941 15.8101 4.93941C16.0515 4.93941 16.2832 4.84405 16.4546 4.67409C16.6261 4.50412 16.7235 4.27331 16.7256 4.03189V2.67065C23.2893 3.12197 28.6031 8.38601 29.1115 14.9471Z" fill="#007AFF"/>
<path d="M15.8092 9.7688C15.5664 9.7688 15.3335 9.86526 15.1618 10.037C14.9902 10.2086 14.8937 10.4415 14.8937 10.6843V15.4514L8.70306 19.0196C8.59803 19.0792 8.50582 19.159 8.43174 19.2543C8.35767 19.3497 8.30319 19.4588 8.27145 19.5753C8.23971 19.6918 8.23133 19.8135 8.2468 19.9332C8.26227 20.053 8.30128 20.1685 8.36158 20.2731C8.42188 20.3778 8.50228 20.4694 8.59816 20.5428C8.69403 20.6163 8.80349 20.67 8.92021 20.7009C9.03694 20.7319 9.15863 20.7394 9.27829 20.7231C9.39794 20.7068 9.51319 20.667 9.6174 20.606L16.2664 16.774C16.2832 16.7643 16.2979 16.7549 16.3116 16.7459C16.4386 16.6628 16.5428 16.5493 16.615 16.4158C16.6871 16.2822 16.7249 16.1329 16.7249 15.9811V10.6843C16.7249 10.5641 16.7012 10.445 16.6552 10.3339C16.6092 10.2229 16.5417 10.1219 16.4567 10.0369C16.3717 9.95189 16.2707 9.88445 16.1596 9.83845C16.0485 9.79245 15.9295 9.76878 15.8092 9.7688Z" fill="#007AFF"/>
</g>
<defs>
<clipPath id="clip0_3550_20300">
<rect width="35.8646" height="35.8646" fill="white" transform="translate(0.585938 0.807373)"/>
</clipPath>
</defs>
</svg>
