<svg width="37" height="37" viewBox="0 0 37 37" fill="none" xmlns="http://www.w3.org/2000/svg">
<g clip-path="url(#clip0_3550_20308)">
<path d="M12.4212 23.3937C13.4596 22.3553 13.4596 20.6654 12.4212 19.627C11.918 19.1241 11.2493 18.8469 10.5378 18.8469C10.1266 18.8469 9.72983 18.9399 9.37111 19.1153C8.10614 17.3056 7.43987 15.1877 7.43987 12.9601C7.43987 7.25917 11.8934 2.53641 17.5785 2.20806C17.9651 2.18562 18.2601 1.85426 18.2379 1.4679C18.2155 1.08127 17.8841 0.787122 17.4978 0.808465C11.0717 1.17977 6.03809 6.51737 6.03809 12.9601C6.03809 15.5306 6.82366 17.9721 8.313 20.0459C7.6325 21.0791 7.74633 22.4856 8.65449 23.3937C9.15768 23.8967 9.82642 24.1738 10.5378 24.1738C11.2493 24.1738 11.918 23.8967 12.4212 23.3937ZM9.64556 20.6184C9.89154 20.3724 10.2147 20.2492 10.5378 20.2492C10.8607 20.2492 11.1839 20.3724 11.4299 20.6184C11.9218 21.1101 11.9218 21.9107 11.4299 22.4024C10.9379 22.8944 10.1375 22.8944 9.64556 22.4024C9.15385 21.9107 9.15385 21.1103 9.64556 20.6184Z" fill="#007AFF"/>
<path d="M29.017 25.0916C28.574 25.0916 28.1575 25.207 27.796 25.4095C27.4756 24.3935 26.5245 23.6548 25.404 23.6548C24.6951 23.6548 24.0539 23.9505 23.5975 24.425C23.4709 24.2937 23.3299 24.1763 23.1775 24.0748C24.793 23.3516 26.2468 22.2773 27.4231 20.9166C29.3314 18.7084 30.3823 15.883 30.3823 12.961C30.3823 10.3919 29.5968 7.94897 28.1077 5.87489C28.7882 4.84169 28.6744 3.43553 27.7659 2.5271C26.7275 1.48869 25.0379 1.48869 23.9992 2.5271C22.9608 3.5655 22.9608 5.25541 23.9992 6.29381C24.5186 6.81315 25.2004 7.07282 25.8826 7.07282C26.2823 7.07282 26.6816 6.9828 27.0485 6.8044C28.314 8.6147 28.9806 10.7342 28.9806 12.961C28.9806 18.0312 25.5386 22.317 20.6854 23.446V19.6732C23.4648 18.6472 25.3638 15.9604 25.3638 12.961C25.3638 9.01665 22.1547 5.80758 18.2101 5.80758C14.2658 5.80758 11.0568 9.01638 11.0568 12.961C11.0568 14.5176 11.5485 15.9979 12.4783 17.2413C13.2893 18.3256 14.4114 19.1679 15.6704 19.6483V29.9583L14.7898 28.5138C14.05 27.2992 12.5053 26.9051 11.2738 27.616C10.1024 28.2924 9.64542 29.7766 10.2367 31.0008L12.8512 36.2825C12.9735 36.5296 13.222 36.6727 13.48 36.6727C13.5845 36.6727 13.6904 36.6495 13.7903 36.5999C14.1372 36.4281 14.2793 36.0075 14.1077 35.6609L11.4959 30.3851C11.2253 29.8245 11.4355 29.1415 11.9748 28.8301C12.5322 28.5083 13.2581 28.6936 13.593 29.2433L15.7727 32.8198C15.9363 33.088 16.2584 33.2147 16.5607 33.1298C16.8631 33.045 17.0721 32.7692 17.0721 32.4548V16.3733C17.0721 15.7637 17.5682 15.2679 18.1779 15.2679C18.7875 15.2679 19.2836 15.7637 19.2836 16.3733V19.1457C19.2833 19.1506 19.2836 19.1555 19.2836 19.1607V29.6849C19.2836 30.0721 19.5971 30.3857 19.9843 30.3857C20.3715 30.3857 20.6854 30.0721 20.6854 29.6849V26.1623C20.6854 25.5526 21.1812 25.0565 21.7908 25.0565C22.4004 25.0565 22.8965 25.5526 22.8965 26.1623V29.9399C22.8965 30.3271 23.2104 30.6409 23.5973 30.6409C23.9844 30.6409 24.2983 30.3271 24.2983 29.9399V26.1623C24.2983 25.5526 24.7944 25.0565 25.404 25.0565C26.0136 25.0565 26.5095 25.5526 26.5095 26.1623V29.9873C26.5095 30.3744 26.8233 30.6883 27.2105 30.6883C27.5977 30.6883 27.9112 30.3744 27.9112 29.9873V27.5991C27.9112 26.9894 28.4073 26.4933 29.017 26.4933C29.6266 26.4933 30.1227 26.9894 30.1227 27.5991V35.9714C30.1227 36.3586 30.4362 36.6725 30.8234 36.6725C31.2106 36.6725 31.5245 36.3586 31.5245 35.9714V27.5991C31.5245 26.2164 30.3996 25.0916 29.017 25.0916ZM24.9906 5.30275C24.4986 4.81077 24.4986 4.01042 24.9906 3.51844C25.2366 3.27245 25.5594 3.14959 25.8826 3.14959C26.2057 3.14959 26.5289 3.27245 26.7749 3.51844C27.2666 4.01042 27.2666 4.81077 26.7749 5.30275C26.2829 5.79445 25.4823 5.79445 24.9906 5.30275ZM12.4586 12.961C12.4586 9.78937 15.0388 7.20909 18.2104 7.20909C21.3817 7.20909 23.962 9.78937 23.962 12.961C23.962 15.1943 22.6533 17.2123 20.6854 18.1538V16.3733C20.6854 15.9799 20.594 15.6072 20.4314 15.2753C21.0531 14.676 21.4206 13.8407 21.4206 12.961C21.4206 11.1906 19.9805 9.75052 18.2104 9.75052C16.4401 9.75052 15 11.1906 15 12.961C15 13.8149 15.3478 14.6355 15.9456 15.2337C15.7702 15.5757 15.6704 15.9632 15.6704 16.3733V18.1243C13.7186 17.1704 12.4586 15.1924 12.4586 12.961ZM16.906 14.2136C16.5829 13.8792 16.4018 13.4362 16.4018 12.961C16.4018 11.9636 17.2131 11.1523 18.2101 11.1523C19.2075 11.1523 20.0188 11.9636 20.0188 12.961C20.0188 13.4431 19.8229 13.9022 19.4896 14.2377C19.1076 14.0021 18.6583 13.8661 18.1779 13.8661C17.7138 13.8661 17.2793 13.9931 16.906 14.2136Z" fill="#007AFF"/>
<path d="M20.6925 2.45866C20.8767 2.45866 21.0575 2.38374 21.1876 2.25331C21.3181 2.12316 21.393 1.94242 21.393 1.75812C21.393 1.5741 21.3181 1.39336 21.1876 1.26294C21.0575 1.13278 20.8767 1.05786 20.6925 1.05786C20.5084 1.05786 20.3277 1.13278 20.1975 1.26294C20.0671 1.39336 19.9922 1.5741 19.9922 1.75812C19.9922 1.94242 20.0671 2.12316 20.1975 2.25331C20.3277 2.38374 20.5084 2.45866 20.6925 2.45866Z" fill="#007AFF"/>
</g>
<defs>
<clipPath id="clip0_3550_20308">
<rect width="35.8646" height="35.8646" fill="white" transform="translate(0.855469 0.807373)"/>
</clipPath>
</defs>
</svg>
