<svg width="37" height="37" viewBox="0 0 37 37" fill="none" xmlns="http://www.w3.org/2000/svg">
<g clip-path="url(#clip0_3550_20314)">
<path d="M35.9001 21.0128V16.4679C35.9001 16.1926 35.7002 15.9581 35.4283 15.9146L32.6482 15.4696C32.2883 13.9083 31.676 12.4317 30.8243 11.0703L32.4765 8.78825C32.638 8.56529 32.6135 8.25805 32.4189 8.06339L29.2052 4.84973C29.0106 4.65513 28.7033 4.63062 28.4802 4.79208L26.1982 6.4443C24.8364 5.59238 23.3599 4.98023 21.7989 4.62032L21.3539 1.84025C21.3104 1.5684 21.0758 1.36841 20.8005 1.36841H16.2557C15.9804 1.36841 15.7459 1.5684 15.7024 1.84018L15.2573 4.62025C13.6962 4.98016 12.2195 5.59231 10.858 6.44416L8.57602 4.79201C8.35313 4.63055 8.04583 4.65506 7.85109 4.84966L4.63736 8.06332C4.44276 8.25798 4.41825 8.56522 4.57978 8.78825L6.232 11.0702C5.3798 12.4325 4.76765 13.9089 4.40802 15.4695L1.62795 15.9145C1.35617 15.9581 1.15625 16.1926 1.15625 16.4679V21.0128C1.15625 21.288 1.35617 21.5226 1.62802 21.5661L4.40809 22.0111C4.768 23.5722 5.38022 25.0489 6.23207 26.4104L4.57985 28.6924C4.41832 28.9154 4.44283 29.2226 4.63743 29.4173L7.85116 32.6309C8.04597 32.8257 8.3532 32.8499 8.57609 32.6886L10.858 31.0363C12.2203 31.8886 13.697 32.5008 15.2574 32.8603L15.7024 35.6404C15.7459 35.9122 15.9805 36.1122 16.2557 36.1122H20.8006C21.0759 36.1122 21.3104 35.9122 21.3539 35.6404L21.7532 33.1463C23.2128 34.9539 25.4457 36.1122 27.9444 36.1122C32.3312 36.1122 35.9001 32.5434 35.9001 28.1566C35.9001 25.6578 34.7417 23.4249 32.9342 21.9653L35.4282 21.5661C35.7002 21.5226 35.9001 21.2881 35.9001 21.0128ZM28.5382 20.2232C28.3422 20.2086 28.1442 20.201 27.9444 20.201C26.7414 20.201 25.6003 20.47 24.577 20.95V20.0639C24.577 18.7398 23.5744 17.7317 21.826 17.298C21.2167 17.1469 20.608 17.0386 20.0011 16.9703C20.9292 16.3189 21.5584 15.073 21.5584 13.6454C21.5584 11.7144 20.3973 10.5149 18.5282 10.5149C16.6591 10.5149 15.498 11.7144 15.498 13.6454C15.498 15.0699 16.1245 16.3134 17.0493 16.9659C16.437 17.0342 15.8287 17.1441 15.2258 17.2992C13.4547 17.7544 12.4793 18.7363 12.4793 20.0639V25.0497C12.4793 25.3592 12.7302 25.6101 13.0397 25.6101H20.4069C20.1359 26.41 19.9889 27.2664 19.9889 28.1566C19.9889 28.3563 19.9964 28.5543 20.011 28.7504C19.5208 28.8224 19.024 28.8589 18.5282 28.8589C12.9488 28.8589 8.40958 24.3197 8.40958 18.7403C8.40958 13.1608 12.9488 8.62167 18.5282 8.62167C24.1076 8.62167 28.6467 13.1609 28.6467 18.7403C28.6467 19.2362 28.6103 19.733 28.5382 20.2232ZM21.5226 20.6496C21.2131 20.6496 20.9622 20.9005 20.9622 21.21V24.3466C20.9363 24.3938 20.9111 24.4415 20.8862 24.4892H16.094V21.21C16.094 20.9005 15.8431 20.6496 15.5336 20.6496C15.2241 20.6496 14.9732 20.9005 14.9732 21.21V24.4892H13.6V20.0638C13.6 19.0805 14.6358 18.6079 15.5048 18.3846C17.4749 17.8779 19.5107 17.8783 21.5561 18.3857C22.2657 18.5618 23.4562 19.0138 23.4562 20.0638V21.5915C22.9542 21.9358 22.4933 22.336 22.083 22.7834V21.2099C22.083 20.9005 21.8321 20.6496 21.5226 20.6496ZM18.5282 16.331C17.4753 16.331 16.6187 15.1262 16.6187 13.6453C16.6187 11.8966 17.815 11.6356 18.5282 11.6356C19.2413 11.6356 20.4376 11.8967 20.4376 13.6453C20.4376 15.1263 19.581 16.331 18.5282 16.331ZM34.7793 28.1566C34.7793 31.9254 31.7132 34.9915 27.9444 34.9915C24.1757 34.9915 21.1096 31.9254 21.1096 28.1566C21.1096 24.3878 24.1757 21.3218 27.9444 21.3218C31.7132 21.3218 34.7793 24.3879 34.7793 28.1566ZM34.7793 20.535L32.0929 20.9649C31.9522 20.9875 31.8295 21.0622 31.7443 21.1688C31.0946 20.814 30.39 20.5477 29.6472 20.3851C29.727 19.8413 29.7675 19.2903 29.7675 18.7403C29.7675 12.5429 24.7255 7.50097 18.5281 7.50097C12.3307 7.50097 7.28875 12.543 7.28875 18.7403C7.28875 24.9377 12.3307 29.9797 18.5281 29.9797C19.0781 29.9797 19.6291 29.9393 20.1729 29.8594C20.3355 30.6023 20.6019 31.3068 20.9566 31.9566C20.85 32.0417 20.7753 32.1645 20.7528 32.3052L20.3227 34.9915H16.7335L16.3035 32.3051C16.2666 32.0744 16.0904 31.8908 15.8614 31.8445C14.1749 31.5032 12.5895 30.846 11.1492 29.8909C10.9546 29.7619 10.7003 29.7671 10.511 29.9041L8.30584 31.5007L5.76793 28.9627L7.36447 26.7575C7.50148 26.5683 7.50674 26.3139 7.37764 26.1192C6.42302 24.68 5.76569 23.0946 5.42407 21.4071C5.3777 21.1781 5.1941 21.0019 4.96343 20.965L2.27702 20.535V16.9457L4.96336 16.5157C5.1941 16.4788 5.3777 16.3025 5.424 16.0735C5.76534 14.387 6.4226 12.8017 7.37757 11.3615C7.50674 11.1668 7.50148 10.9124 7.3644 10.7231L5.76786 8.51807L8.30577 5.98009L10.5109 7.57663C10.7001 7.71364 10.9546 7.71882 11.1492 7.58973C12.5884 6.63518 14.1738 5.97785 15.8614 5.63616C16.0904 5.58978 16.2665 5.40619 16.3035 5.17552L16.7335 2.48918H20.3227L20.7528 5.17552C20.7897 5.40619 20.9659 5.58978 21.1949 5.63616C22.882 5.97778 24.4674 6.63511 25.907 7.58973C26.1016 7.71875 26.356 7.71364 26.5453 7.57656L28.7504 5.98002L31.2884 8.518L29.6919 10.7231C29.5548 10.9124 29.5496 11.1667 29.6787 11.3615C30.6332 12.8005 31.2905 14.3859 31.6323 16.0735C31.6786 16.3025 31.8622 16.4787 32.0929 16.5157L34.7793 16.9457V20.535ZM30.2005 25.0718L26.852 28.4689L25.6885 27.3054C25.3772 26.9941 24.9632 26.8225 24.5228 26.8225C24.0824 26.8225 23.6684 26.994 23.3571 27.3054C23.0456 27.6167 22.8741 28.0308 22.8741 28.4711C22.8741 28.9115 23.0456 29.3255 23.357 29.6369L25.6909 31.9707C26.0123 32.2921 26.4344 32.4528 26.8566 32.4527C27.2788 32.4527 27.701 32.292 28.0224 31.9706C29.2127 30.7803 31.6426 28.2929 32.536 27.3907C32.8459 27.079 33.0159 26.6653 33.0147 26.2258C33.0135 25.7862 32.8412 25.3735 32.5295 25.0636C31.8862 24.4237 30.8421 24.4266 30.2005 25.0718ZM31.7403 26.6014C30.8435 27.5072 28.4155 29.9926 27.2298 31.1783C27.024 31.3841 26.6891 31.3841 26.4834 31.1783L24.1496 28.8444H24.1495C24.0498 28.7447 23.9949 28.6122 23.9949 28.4712C23.9949 28.3303 24.0498 28.1977 24.1496 28.098C24.2493 27.9983 24.3817 27.9434 24.5228 27.9434C24.6638 27.9434 24.7963 27.9983 24.896 28.098L26.4587 29.6606C26.5638 29.7657 26.7063 29.8247 26.8549 29.8247H26.8569C27.0063 29.8242 27.1492 29.7641 27.254 29.6577L30.9969 25.8604C31.2009 25.6552 31.5339 25.6543 31.7392 25.8584C31.8386 25.9572 31.8935 26.0889 31.894 26.229C31.8942 26.3691 31.8401 26.5011 31.7403 26.6014Z" fill="#007AFF"/>
</g>
<defs>
<clipPath id="clip0_3550_20314">
<rect width="35.8646" height="35.8646" fill="white" transform="translate(0.595703 0.807373)"/>
</clipPath>
</defs>
</svg>
