<svg width="138" height="40" viewBox="0 0 138 40" fill="none" xmlns="http://www.w3.org/2000/svg">
<path d="M6.93894 39.5842L0.608118 39.5842L12.7443 20.2517L12.8155 20.1383L12.7439 20.0252L0.609755 0.850177L6.82283 0.85005L19.6246 20.1398L6.93894 39.5842Z" stroke="white" stroke-opacity="0.2" stroke-width="0.42487"/>
<path d="M19.1333 39.7458L12.8025 39.7458L24.9387 20.4133L25.0099 20.2999L24.9383 20.1868L12.8041 1.0118L19.0172 1.01167L31.8189 20.3014L19.1333 39.7458Z" stroke="white" stroke-opacity="0.6" stroke-width="0.42487"/>
<path d="M31.1011 39.7458L24.7702 39.7458L36.9065 20.4133L36.9776 20.2999L36.906 20.1868L24.7719 1.0118L30.9849 1.01167L43.7867 20.3014L31.1011 39.7458Z" stroke="white" stroke-width="0.42487"/>
<path d="M53.7925 39.5842L47.4616 39.5842L59.5979 20.2517L59.669 20.1383L59.5974 20.0252L47.4633 0.850177L53.6763 0.85005L66.4781 20.1398L53.7925 39.5842Z" stroke="white" stroke-opacity="0.2" stroke-width="0.42487"/>
<path d="M65.9868 39.7458L59.656 39.7458L71.7922 20.4133L71.8634 20.2999L71.7918 20.1868L59.6576 1.0118L65.8707 1.01167L78.6724 20.3014L65.9868 39.7458Z" stroke="white" stroke-opacity="0.6" stroke-width="0.42487"/>
<path d="M77.9555 39.7458L71.6247 39.7458L83.7609 20.4133L83.8321 20.2999L83.7605 20.1868L71.6264 1.0118L77.8394 1.01167L90.6412 20.3014L77.9555 39.7458Z" stroke="white" stroke-width="0.42487"/>
<path d="M100.646 39.5842L94.3151 39.5842L106.451 20.2517L106.523 20.1383L106.451 20.0252L94.3168 0.850177L100.53 0.85005L113.332 20.1398L100.646 39.5842Z" stroke="white" stroke-opacity="0.2" stroke-width="0.42487"/>
<path d="M112.841 39.7458L106.51 39.7458L118.647 20.4133L118.718 20.2999L118.646 20.1868L106.512 1.0118L112.725 1.01167L125.527 20.3014L112.841 39.7458Z" stroke="white" stroke-opacity="0.6" stroke-width="0.42487"/>
<path d="M124.81 39.7458L118.479 39.7458L130.615 20.4133L130.687 20.2999L130.615 20.1868L118.481 1.0118L124.694 1.01167L137.496 20.3014L124.81 39.7458Z" stroke="white" stroke-width="0.42487"/>
</svg>
