<svg width="13" height="13" viewBox="0 0 13 13" fill="none" xmlns="http://www.w3.org/2000/svg">
<path d="M9.36177 7.41121C8.97737 7.24714 8.53202 7.35496 8.26715 7.67842L7.48896 8.63007C6.41074 8.00423 5.51067 7.10416 4.88484 6.02594L5.83413 5.2501C6.1576 4.98523 6.26776 4.53988 6.10134 4.15547L4.97625 1.53025C4.80045 1.11772 4.35745 0.888012 3.91913 0.981769L1.29391 1.54432C0.862624 1.63573 0.553223 2.01779 0.553223 2.4608C0.553223 8.00892 4.85436 12.5515 10.304 12.9359C10.4095 12.9429 10.5173 12.95 10.6252 12.9546C10.6252 12.9546 10.6252 12.9546 10.6275 12.9546C10.7705 12.9593 10.9111 12.964 11.0564 12.964C11.4995 12.964 11.8815 12.6546 11.9729 12.2233L12.5355 9.59812C12.6292 9.1598 12.3995 8.71679 11.987 8.541L9.36177 7.4159V7.41121ZM11.0471 12.2116C5.66537 12.2069 1.30329 7.84484 1.30329 2.4608C1.30329 2.37173 1.36423 2.29672 1.45095 2.27797L4.07617 1.71542C4.1629 1.69667 4.25197 1.74355 4.28713 1.82559L5.41222 4.45081C5.44504 4.52816 5.42394 4.61723 5.35831 4.6688L4.40667 5.44699C4.12305 5.67904 4.04805 6.08454 4.23322 6.40332C4.92468 7.59639 5.91852 8.59022 7.10924 9.27934C7.42802 9.46451 7.83352 9.38951 8.06557 9.10589L8.84376 8.15425C8.89767 8.08861 8.98674 8.06752 9.06175 8.10033L11.687 9.22543C11.769 9.26059 11.8159 9.34966 11.7971 9.43638L11.2346 12.0616C11.2158 12.1483 11.1385 12.2093 11.0518 12.2093C11.0494 12.2093 11.0471 12.2093 11.0447 12.2093L11.0471 12.2116Z" fill="#0A1C40"/>
</svg>
