<svg width="12" height="14" viewBox="0 0 12 14" fill="none" xmlns="http://www.w3.org/2000/svg">
<path d="M6.32812 11.3066C5.72109 12.384 5.08945 12.6875 4.6875 12.6875C4.28555 12.6875 3.65391 12.384 3.04688 11.3066C2.46445 10.2703 2.0625 8.75 2.0625 7C2.0625 5.25 2.46445 3.72969 3.04688 2.69336C3.65391 1.61602 4.28555 1.3125 4.6875 1.3125C5.08945 1.3125 5.72109 1.61602 6.32812 2.69336C6.91055 3.72969 7.3125 5.25 7.3125 7C7.3125 8.75 6.91055 10.2703 6.32812 11.3066ZM0.75 7C0.75 10.8664 2.51367 14 4.6875 14H6H7.75C9.6832 14 11.25 10.8664 11.25 7C11.25 3.13359 9.6832 0 7.75 0H6H4.6875C2.51367 0 0.75 3.13359 0.75 7ZM8.57852 8.09375C8.61133 7.73828 8.625 7.37187 8.625 7C8.625 6.62813 8.60859 6.26172 8.57852 5.90625H9.89102C9.92109 6.25898 9.9375 6.62539 9.9375 7C9.9375 7.37461 9.92109 7.74102 9.89102 8.09375H8.57852ZM8.46914 8.96875H9.78438C9.67773 9.6168 9.52187 10.2074 9.33047 10.7188H8.02344C8.21484 10.1801 8.36523 9.59219 8.46641 8.96875H8.46914ZM6.98438 12.6875C7.2332 12.3703 7.46016 12.0039 7.65977 11.5938H8.93125C8.41445 12.518 7.93867 12.6875 7.75273 12.6875H6.98438ZM9.78164 5.03125H8.46641C8.3625 4.40781 8.21484 3.81992 8.02344 3.28125H9.32773C9.51914 3.79258 9.675 4.3832 9.78164 5.03125ZM8.92852 2.40625H7.65977C7.45742 1.99609 7.23047 1.62969 6.98438 1.3125H7.75C7.93594 1.3125 8.41172 1.48203 8.92852 2.40625ZM4.03125 7C4.03125 5.90078 4.17344 4.93008 4.38398 4.25742C4.48516 3.93477 4.59453 3.71328 4.6875 3.58203C4.78047 3.71328 4.88711 3.93477 4.99102 4.25742C5.2043 4.93008 5.34375 5.89805 5.34375 7C5.34375 8.10195 5.20156 9.06992 4.99102 9.74258C4.88984 10.0652 4.78047 10.2867 4.6875 10.418C4.59453 10.2867 4.48789 10.0652 4.38398 9.74258C4.1707 9.06992 4.03125 8.10195 4.03125 7ZM4.78047 3.47812C4.77975 3.4783 4.77907 3.47862 4.77848 3.47906C4.77789 3.47951 4.77738 3.48006 4.777 3.48069C4.77662 3.48133 4.77637 3.48203 4.77626 3.48276C4.77615 3.4835 4.77619 3.48424 4.77637 3.48496C4.77655 3.48568 4.77687 3.48635 4.77731 3.48695C4.77775 3.48754 4.7783 3.48805 4.77894 3.48843C4.77957 3.48881 4.78027 3.48906 4.78101 3.48917C4.78174 3.48928 4.78249 3.48924 4.7832 3.48906C4.78392 3.48888 4.7846 3.48856 4.78519 3.48812C4.78579 3.48768 4.78629 3.48713 4.78667 3.48649C4.78705 3.48586 4.7873 3.48516 4.78741 3.48442C4.78752 3.48369 4.78748 3.48294 4.7873 3.48223C4.78713 3.48151 4.78681 3.48083 4.78637 3.48024C4.78592 3.47964 4.78537 3.47914 4.78474 3.47876C4.7841 3.47838 4.7834 3.47813 4.78267 3.47802C4.78193 3.47791 4.78119 3.47795 4.78047 3.47812ZM4.6 3.48086C4.59964 3.47905 4.59857 3.47745 4.59703 3.47643C4.59549 3.4754 4.59361 3.47503 4.5918 3.47539C4.58998 3.47575 4.58839 3.47682 4.58736 3.47836C4.58634 3.4799 4.58597 3.48178 4.58633 3.48359C4.58651 3.48449 4.58686 3.48535 4.58737 3.48611C4.58788 3.48687 4.58854 3.48752 4.5893 3.48803C4.59006 3.48853 4.59091 3.48889 4.59181 3.48907C4.59271 3.48924 4.59363 3.48924 4.59453 3.48906C4.59543 3.48888 4.59628 3.48853 4.59704 3.48802C4.5978 3.48751 4.59846 3.48686 4.59896 3.48609C4.59947 3.48533 4.59983 3.48448 4.6 3.48358C4.60018 3.48268 4.60018 3.48176 4.6 3.48086ZM4.59453 10.5191C4.59598 10.5188 4.59723 10.5179 4.598 10.5166C4.59877 10.5153 4.599 10.5138 4.59863 10.5123C4.59827 10.5109 4.59735 10.5096 4.59606 10.5088C4.59478 10.5081 4.59325 10.5078 4.5918 10.5082C4.59035 10.5086 4.5891 10.5095 4.58833 10.5108C4.58756 10.5121 4.58733 10.5136 4.5877 10.515C4.58806 10.5165 4.58898 10.5177 4.59026 10.5185C4.59155 10.5193 4.59308 10.5195 4.59453 10.5191ZM4.775 10.5164C4.77536 10.5182 4.77643 10.5198 4.77797 10.5208C4.77951 10.5219 4.78139 10.5222 4.7832 10.5219C4.78502 10.5215 4.78661 10.5204 4.78764 10.5189C4.78866 10.5174 4.78903 10.5155 4.78867 10.5137C4.78849 10.5128 4.78814 10.5119 4.78763 10.5112C4.78712 10.5104 4.78646 10.5097 4.7857 10.5092C4.78494 10.5087 4.78409 10.5084 4.78319 10.5082C4.78229 10.508 4.78137 10.508 4.78047 10.5082C4.77957 10.5084 4.77872 10.5087 4.77796 10.5092C4.7772 10.5098 4.77654 10.5104 4.77604 10.5112C4.77553 10.5119 4.77517 10.5128 4.775 10.5137C4.77482 10.5146 4.77482 10.5155 4.775 10.5164ZM4.6875 2.1875C4.20352 2.1875 3.85898 2.49648 3.65117 2.77813C3.43242 3.0707 3.26289 3.45078 3.13437 3.86367C2.87187 4.69492 2.71875 5.80508 2.71875 7C2.71875 8.19492 2.87187 9.30508 3.13437 10.1363C3.26562 10.5492 3.43242 10.9293 3.65117 11.2219C3.86172 11.5035 4.20352 11.8125 4.6875 11.8125C5.17148 11.8125 5.51602 11.5035 5.72383 11.2219C5.94258 10.9293 6.11211 10.5492 6.24062 10.1363C6.50313 9.30508 6.65625 8.19492 6.65625 7C6.65625 5.80508 6.50313 4.69492 6.24062 3.86367C6.10938 3.45078 5.94258 3.0707 5.72383 2.77813C5.51602 2.49648 5.17148 2.1875 4.6875 2.1875Z" fill="black"/>
</svg>
