<svg width="13" height="14" viewBox="0 0 13 14" fill="none" xmlns="http://www.w3.org/2000/svg">
<path d="M3.9375 3.5V5.25H8.3125V3.5C8.3125 2.29141 7.33359 1.3125 6.125 1.3125C4.91641 1.3125 3.9375 2.29141 3.9375 3.5ZM2.625 5.25V3.5C2.625 1.5668 4.1918 0 6.125 0C8.0582 0 9.625 1.5668 9.625 3.5V5.25H10.5C11.4652 5.25 12.25 6.03477 12.25 7V12.25C12.25 13.2152 11.4652 14 10.5 14H1.75C0.784766 14 0 13.2152 0 12.25V7C0 6.03477 0.784766 5.25 1.75 5.25H2.625ZM1.3125 7V12.25C1.3125 12.4906 1.50937 12.6875 1.75 12.6875H10.5C10.7406 12.6875 10.9375 12.4906 10.9375 12.25V7C10.9375 6.75938 10.7406 6.5625 10.5 6.5625H1.75C1.50937 6.5625 1.3125 6.75938 1.3125 7Z" fill="black"/>
</svg>
