<svg width="11" height="14" viewBox="0 0 11 14" fill="none" xmlns="http://www.w3.org/2000/svg">
<path d="M5.82812 11.3066C5.22109 12.384 4.58945 12.6875 4.1875 12.6875C3.78555 12.6875 3.15391 12.384 2.54688 11.3066C1.96445 10.2703 1.5625 8.75 1.5625 7C1.5625 5.25 1.96445 3.72969 2.54688 2.69336C3.15391 1.61602 3.78555 1.3125 4.1875 1.3125C4.58945 1.3125 5.22109 1.61602 5.82812 2.69336C6.41055 3.72969 6.8125 5.25 6.8125 7C6.8125 8.75 6.41055 10.2703 5.82812 11.3066ZM0.25 7C0.25 10.8664 2.01367 14 4.1875 14H5.5H7.25C9.1832 14 10.75 10.8664 10.75 7C10.75 3.13359 9.1832 0 7.25 0H5.5H4.1875C2.01367 0 0.25 3.13359 0.25 7ZM8.07852 8.09375C8.11133 7.73828 8.125 7.37187 8.125 7C8.125 6.62813 8.10859 6.26172 8.07852 5.90625H9.39102C9.42109 6.25898 9.4375 6.62539 9.4375 7C9.4375 7.37461 9.42109 7.74102 9.39102 8.09375H8.07852ZM7.96914 8.96875H9.28438C9.17773 9.6168 9.02187 10.2074 8.83047 10.7188H7.52344C7.71484 10.1801 7.86523 9.59219 7.96641 8.96875H7.96914ZM6.48438 12.6875C6.7332 12.3703 6.96016 12.0039 7.15977 11.5938H8.43125C7.91445 12.518 7.43867 12.6875 7.25273 12.6875H6.48438ZM9.28164 5.03125H7.96641C7.8625 4.40781 7.71484 3.81992 7.52344 3.28125H8.82773C9.01914 3.79258 9.175 4.3832 9.28164 5.03125ZM8.42852 2.40625H7.15977C6.95742 1.99609 6.73047 1.62969 6.48438 1.3125H7.25C7.43594 1.3125 7.91172 1.48203 8.42852 2.40625ZM3.53125 7C3.53125 5.90078 3.67344 4.93008 3.88398 4.25742C3.98516 3.93477 4.09453 3.71328 4.1875 3.58203C4.28047 3.71328 4.38711 3.93477 4.49102 4.25742C4.7043 4.93008 4.84375 5.89805 4.84375 7C4.84375 8.10195 4.70156 9.06992 4.49102 9.74258C4.38984 10.0652 4.28047 10.2867 4.1875 10.418C4.09453 10.2867 3.98789 10.0652 3.88398 9.74258C3.6707 9.06992 3.53125 8.10195 3.53125 7ZM4.28047 3.47812C4.27975 3.4783 4.27907 3.47862 4.27848 3.47906C4.27789 3.47951 4.27738 3.48006 4.277 3.48069C4.27662 3.48133 4.27637 3.48203 4.27626 3.48276C4.27615 3.4835 4.27619 3.48424 4.27637 3.48496C4.27655 3.48568 4.27687 3.48635 4.27731 3.48695C4.27775 3.48754 4.2783 3.48805 4.27894 3.48843C4.27957 3.48881 4.28027 3.48906 4.28101 3.48917C4.28174 3.48928 4.28249 3.48924 4.2832 3.48906C4.28392 3.48888 4.2846 3.48856 4.28519 3.48812C4.28579 3.48768 4.28629 3.48713 4.28667 3.48649C4.28705 3.48586 4.2873 3.48516 4.28741 3.48442C4.28752 3.48369 4.28748 3.48294 4.2873 3.48223C4.28713 3.48151 4.28681 3.48083 4.28637 3.48024C4.28592 3.47964 4.28537 3.47914 4.28474 3.47876C4.2841 3.47838 4.2834 3.47813 4.28267 3.47802C4.28193 3.47791 4.28119 3.47795 4.28047 3.47812ZM4.1 3.48086C4.09964 3.47905 4.09857 3.47745 4.09703 3.47643C4.09549 3.4754 4.09361 3.47503 4.0918 3.47539C4.08998 3.47575 4.08839 3.47682 4.08736 3.47836C4.08634 3.4799 4.08597 3.48178 4.08633 3.48359C4.08651 3.48449 4.08686 3.48535 4.08737 3.48611C4.08788 3.48687 4.08854 3.48752 4.0893 3.48803C4.09006 3.48853 4.09091 3.48889 4.09181 3.48907C4.09271 3.48924 4.09363 3.48924 4.09453 3.48906C4.09543 3.48888 4.09628 3.48853 4.09704 3.48802C4.0978 3.48751 4.09846 3.48686 4.09896 3.48609C4.09947 3.48533 4.09983 3.48448 4.1 3.48358C4.10018 3.48268 4.10018 3.48176 4.1 3.48086ZM4.09453 10.5191C4.09598 10.5188 4.09723 10.5179 4.098 10.5166C4.09877 10.5153 4.099 10.5138 4.09863 10.5123C4.09827 10.5109 4.09735 10.5096 4.09606 10.5088C4.09478 10.5081 4.09325 10.5078 4.0918 10.5082C4.09035 10.5086 4.0891 10.5095 4.08833 10.5108C4.08756 10.5121 4.08733 10.5136 4.0877 10.515C4.08806 10.5165 4.08898 10.5177 4.09026 10.5185C4.09155 10.5193 4.09308 10.5195 4.09453 10.5191ZM4.275 10.5164C4.27536 10.5182 4.27643 10.5198 4.27797 10.5208C4.27951 10.5219 4.28139 10.5222 4.2832 10.5219C4.28502 10.5215 4.28661 10.5204 4.28764 10.5189C4.28866 10.5174 4.28903 10.5155 4.28867 10.5137C4.28849 10.5128 4.28814 10.5119 4.28763 10.5112C4.28712 10.5104 4.28646 10.5097 4.2857 10.5092C4.28494 10.5087 4.28409 10.5084 4.28319 10.5082C4.28229 10.508 4.28137 10.508 4.28047 10.5082C4.27957 10.5084 4.27872 10.5087 4.27796 10.5092C4.2772 10.5098 4.27654 10.5104 4.27604 10.5112C4.27553 10.5119 4.27517 10.5128 4.275 10.5137C4.27482 10.5146 4.27482 10.5155 4.275 10.5164ZM4.1875 2.1875C3.70352 2.1875 3.35898 2.49648 3.15117 2.77813C2.93242 3.0707 2.76289 3.45078 2.63437 3.86367C2.37187 4.69492 2.21875 5.80508 2.21875 7C2.21875 8.19492 2.37187 9.30508 2.63437 10.1363C2.76562 10.5492 2.93242 10.9293 3.15117 11.2219C3.36172 11.5035 3.70352 11.8125 4.1875 11.8125C4.67148 11.8125 5.01602 11.5035 5.22383 11.2219C5.44258 10.9293 5.61211 10.5492 5.74062 10.1363C6.00313 9.30508 6.15625 8.19492 6.15625 7C6.15625 5.80508 6.00313 4.69492 5.74062 3.86367C5.60938 3.45078 5.44258 3.0707 5.22383 2.77813C5.01602 2.49648 4.67148 2.1875 4.1875 2.1875Z" fill="black"/>
</svg>
