<svg width="18" height="14" viewBox="0 0 18 14" fill="none" xmlns="http://www.w3.org/2000/svg">
<path d="M4.1875 3.5C4.1875 2.91984 4.41797 2.36344 4.8282 1.9532C5.23844 1.54297 5.79484 1.3125 6.375 1.3125C6.95516 1.3125 7.51156 1.54297 7.9218 1.9532C8.33203 2.36344 8.5625 2.91984 8.5625 3.5C8.5625 4.08016 8.33203 4.63656 7.9218 5.0468C7.51156 5.45703 6.95516 5.6875 6.375 5.6875C5.79484 5.6875 5.23844 5.45703 4.8282 5.0468C4.41797 4.63656 4.1875 4.08016 4.1875 3.5ZM9.875 3.5C9.875 2.57174 9.50625 1.6815 8.84987 1.02513C8.1935 0.368749 7.30326 0 6.375 0C5.44674 0 4.5565 0.368749 3.90013 1.02513C3.24375 1.6815 2.875 2.57174 2.875 3.5C2.875 4.42826 3.24375 5.3185 3.90013 5.97487C4.5565 6.63125 5.44674 7 6.375 7C7.30326 7 8.1935 6.63125 8.84987 5.97487C9.50625 5.3185 9.875 4.42826 9.875 3.5ZM7.62461 9.625C9.42109 9.625 10.9086 10.9566 11.152 12.6875H1.59805C1.84141 10.9566 3.32891 9.625 5.12539 9.625H7.62461ZM5.12539 8.3125C2.43203 8.3125 0.25 10.4945 0.25 13.1879C0.25 13.6363 0.613672 14 1.06211 14H11.6879C12.1363 14 12.5 13.6363 12.5 13.1879C12.5 10.4945 10.318 8.3125 7.62461 8.3125H6.375H5.12539ZM12.6914 3.91016C12.4344 4.16719 12.4344 4.58281 12.6914 4.83711L13.9766 6.12227L12.6914 7.40742C12.4344 7.66445 12.4344 8.08008 12.6914 8.33437C12.9484 8.58867 13.3641 8.59141 13.6184 8.33437L14.9035 7.04922L16.1887 8.33437C16.4457 8.59141 16.8613 8.59141 17.1156 8.33437C17.3699 8.07734 17.3727 7.66172 17.1156 7.40742L15.8305 6.12227L17.1156 4.83711C17.3727 4.58008 17.3727 4.16445 17.1156 3.91016C16.8586 3.65586 16.443 3.65313 16.1887 3.91016L14.9035 5.19531L13.6184 3.91016C13.3613 3.65313 12.9457 3.65313 12.6914 3.91016Z" fill="black"/>
</svg>
