<svg width="472" height="115" viewBox="0 0 472 115" fill="none" xmlns="http://www.w3.org/2000/svg">
<g clip-path="url(#clip0_3144_5992)">
<path d="M0.433594 18.4313C0.433594 8.49015 8.49247 0.431274 18.4336 0.431274H453.434C463.375 0.431274 471.434 8.49015 471.434 18.4313V96.4313C471.434 106.372 463.375 114.431 453.434 114.431H18.4336C8.49248 114.431 0.433594 106.372 0.433594 96.4313V18.4313Z" fill="#007AFF"/>
<ellipse opacity="0.44" cx="62.9986" cy="61.3095" rx="62.9986" ry="61.3095" transform="matrix(0.828701 -0.559692 0.474513 0.880249 383.834 21.9509)" fill="#00A2FF"/>
<ellipse opacity="0.4" cx="62.9986" cy="61.3095" rx="62.9986" ry="61.3095" transform="matrix(0.828701 -0.559692 0.474513 0.880249 348.434 91.9509)" fill="#00DDFF"/>
</g>
<defs>
<clipPath id="clip0_3144_5992">
<path d="M0.433594 18.4313C0.433594 8.49015 8.49247 0.431274 18.4336 0.431274H453.434C463.375 0.431274 471.434 8.49015 471.434 18.4313V96.4313C471.434 106.372 463.375 114.431 453.434 114.431H18.4336C8.49248 114.431 0.433594 106.372 0.433594 96.4313V18.4313Z" fill="white"/>
</clipPath>
</defs>
</svg>
