<svg width="13" height="13" viewBox="0 0 13 13" fill="none" xmlns="http://www.w3.org/2000/svg">
<path d="M7.44866 9.15003C7.32599 9.16147 7.20283 9.13379 7.09684 9.07093C7.01941 8.99143 6.98228 8.88106 6.99595 8.77093C6.9988 8.67924 7.00975 8.58797 7.02866 8.49821C7.04697 8.39522 7.07062 8.29327 7.09956 8.19275L7.42138 7.08547C7.45457 6.97618 7.47651 6.86377 7.48684 6.75001C7.48684 6.62729 7.5032 6.54272 7.5032 6.49365C7.51005 6.2749 7.41665 6.065 7.24956 5.92365C7.04404 5.76586 6.7881 5.68831 6.52956 5.70547C6.34429 5.70826 6.16045 5.73858 5.9841 5.79547C5.79138 5.85547 5.58864 5.92728 5.37592 6.01093L5.2832 6.37093C5.34592 6.34911 5.4223 6.32457 5.50956 6.29729C5.59281 6.27263 5.67911 6.25976 5.76592 6.25911C5.8877 6.24591 6.01028 6.27582 6.11228 6.34365C6.18156 6.42631 6.21407 6.5337 6.20228 6.64093C6.20198 6.73264 6.19192 6.82407 6.17228 6.91365C6.15318 7.00911 6.12864 7.11001 6.09864 7.21637L5.7741 8.32908C5.74795 8.43251 5.72702 8.53719 5.71138 8.64272C5.69863 8.73308 5.69226 8.8242 5.69228 8.91544C5.69095 9.13569 5.79166 9.34414 5.965 9.47998C6.17369 9.64022 6.43328 9.71965 6.6959 9.70362C6.88082 9.70742 7.06511 9.6807 7.24136 9.62452C7.39591 9.57179 7.60227 9.49634 7.86046 9.39816L7.94774 9.05452C7.8778 9.08354 7.80578 9.10723 7.73228 9.12542C7.63933 9.14665 7.54389 9.1549 7.44866 9.15003Z" fill="#007AFF"/>
<path d="M7.78584 3.9001C7.63741 3.76379 7.44185 3.69045 7.24038 3.69556C7.03903 3.69102 6.84365 3.76428 6.69492 3.9001C6.42229 4.13518 6.39185 4.54677 6.62695 4.81941C6.6479 4.84372 6.67061 4.86643 6.69492 4.88738C7.00551 5.16519 7.47525 5.16519 7.78582 4.88738C8.05844 4.64998 8.08701 4.23655 7.84961 3.96392C7.82988 3.94121 7.80855 3.91988 7.78584 3.9001Z" fill="#007AFF"/>
<path d="M6.64453 0.695312C3.33082 0.695312 0.644531 3.3816 0.644531 6.69531C0.644531 10.009 3.33082 12.6953 6.64453 12.6953C9.95824 12.6953 12.6445 10.009 12.6445 6.69531C12.6445 3.3816 9.95824 0.695312 6.64453 0.695312ZM6.64453 12.1499C3.63206 12.1499 1.18999 9.70778 1.18999 6.69531C1.18999 3.68284 3.63206 1.24077 6.64453 1.24077C9.657 1.24077 12.0991 3.68284 12.0991 6.69531C12.0991 9.70778 9.657 12.1499 6.64453 12.1499Z" fill="#007AFF"/>
</svg>
