<svg width="158" height="160" viewBox="0 0 158 160" fill="none" xmlns="http://www.w3.org/2000/svg">
<path fill-rule="evenodd" clip-rule="evenodd" d="M50.1491 108.23C47.5902 100.48 39.2929 88.9054 31.6563 76.1328C33.0489 73.7948 37.8081 66.2133 46.3687 56.9237C56.7342 45.7169 73.0242 34.5624 73.0242 34.5624L57.587 27.4427C57.587 27.4427 48.4774 34.3868 37.7847 45.2742C29.1578 54.0607 25.1793 60.0006 23.9491 61.9672C17.5569 48.5197 14.2161 34.8482 20.6117 23.6972C40.9283 -2.78248 92.4869 39.2447 96.059 42.5857C102.78 48.5168 109.152 54.8457 114.942 61.6991C119.654 67.2774 123.988 73.2103 127.714 79.4951C130.748 84.6241 133.391 90.0069 135.486 95.6132C137.174 100.167 138.502 104.89 139.34 109.678C140.015 113.532 140.374 117.439 140.388 121.358C140.383 124.343 140.177 127.325 139.712 130.262C139.154 133.844 138.236 137.493 136.06 140.454C133.796 143.543 130.146 145.87 126.275 146.07C124.131 146.189 122.023 145.592 120.21 144.466C118.682 143.516 117.344 142.281 116.151 140.933C108.59 130.372 127.75 104.439 127.75 104.439L121.338 83.7576C121.338 83.7576 116.295 92.2974 115.144 93.6622C114.007 95.0272 93.3233 128.535 101.966 143.931C110.594 159.327 128.364 159.814 129.949 159.53C157.518 158.19 156.443 118.309 156.167 117.244C154.667 103.608 150.491 91.2182 145.134 80.38C148.363 73.341 170.064 23.4982 143.741 8.57792C117.976 -6.02037 82.7108 8.27893 76.4962 11.0076C43.6956 -5.87998 22.4314 3.8408 21.7665 4.1347C0.0787478 13.1618 1.9679 38.2696 1.9679 38.2696C4.06156 74.6025 26.5495 99.2818 33.9618 110.258C35.3163 112.584 51.9164 140.34 34.4997 142.986C8.551 147.257 19.4503 102.661 19.4503 102.661L9.42219 86.4311C-11.3271 146.273 19.3259 162.304 35.3836 157.734C44.5081 154.579 67.6403 147.549 50.1491 108.23ZM136.068 22.0969C148.343 35.4671 138.029 58.6723 135.439 63.9102C121.844 43.9378 106.602 32.1846 105.932 31.7322C102.03 28.2583 98.2395 25.1731 94.5315 22.4046C99.7095 19.7791 123.708 8.63961 136.068 22.0969Z" fill="url(#paint0_linear_2875_25327)"/>
<path d="M70.8193 107.368C76.2677 102.724 83.2288 103.113 88.9018 107.368" stroke="url(#paint1_linear_2875_25327)" stroke-width="6" stroke-linecap="round"/>
<circle cx="60.8433" cy="71.6568" r="8.61773" fill="url(#paint2_linear_2875_25327)"/>
<circle cx="97.2964" cy="71.6568" r="8.61773" fill="url(#paint3_linear_2875_25327)"/>
<path d="M100.682 80.8145C98.5656 83.037 95.5319 88.511 96.9138 92.2808C98.6412 96.9931 110.96 94.7235 100.682 80.8145Z" fill="url(#paint4_linear_2875_25327)"/>
<defs>
<linearGradient id="paint0_linear_2875_25327" x1="156.684" y1="81.1349" x2="1.44474" y2="79.364" gradientUnits="userSpaceOnUse">
<stop stop-color="#00428F"/>
<stop offset="1" stop-color="#02BB8E"/>
</linearGradient>
<linearGradient id="paint1_linear_2875_25327" x1="88.9018" y1="105.699" x2="70.8193" y2="105.699" gradientUnits="userSpaceOnUse">
<stop stop-color="#015C8F"/>
<stop offset="1" stop-color="#02A58F"/>
</linearGradient>
<linearGradient id="paint2_linear_2875_25327" x1="60.8433" y1="63.0391" x2="60.8433" y2="80.2745" gradientUnits="userSpaceOnUse">
<stop stop-color="#029C8F"/>
<stop offset="0.68" stop-color="#01798F"/>
<stop offset="1" stop-color="#01688F"/>
</linearGradient>
<linearGradient id="paint3_linear_2875_25327" x1="97.2964" y1="63.0391" x2="97.2964" y2="80.2745" gradientUnits="userSpaceOnUse">
<stop stop-color="#029C8F"/>
<stop offset="0.68" stop-color="#01798F"/>
<stop offset="1" stop-color="#01688F"/>
</linearGradient>
<linearGradient id="paint4_linear_2875_25327" x1="100.648" y1="80.8145" x2="100.644" y2="94.512" gradientUnits="userSpaceOnUse">
<stop stop-color="#00428F"/>
<stop offset="1" stop-color="#02BB8E"/>
</linearGradient>
</defs>
</svg>
