<svg width="206" height="205" viewBox="0 0 206 205" fill="none" xmlns="http://www.w3.org/2000/svg">
<path d="M103.061 0.132812C46.5753 0.132812 0.626953 46.0809 0.626953 102.567C0.626953 159.052 46.5756 205.001 103.061 205.001C112.512 205.001 121.681 203.714 130.369 201.3C171.652 189.879 202.559 153.18 205.273 108.982C205.434 106.87 205.495 104.719 205.495 102.567C205.495 46.0809 159.546 0.132812 103.061 0.132812ZM185.386 102.566C185.386 144.473 153.916 179.18 113.336 184.248C109.958 184.67 106.54 184.892 103.06 184.892C57.6749 184.892 20.7351 147.952 20.7351 102.566C20.7351 57.1608 57.6749 20.2413 103.06 20.2413C143.419 20.2413 177.061 49.399 184.059 87.7663C184.923 92.5723 185.386 97.5192 185.386 102.566Z" fill="#ED0000"/>
<rect x="45.8027" y="56.9082" width="27.6385" height="143.835" rx="13.8192" transform="rotate(-40.5544 45.8027 56.9082)" fill="#ED0000"/>
<rect x="142.344" y="40.7559" width="27.6385" height="143.835" rx="13.8192" transform="rotate(43.3165 142.344 40.7559)" fill="#ED0000"/>
</svg>
