<svg width="206" height="205" viewBox="0 0 206 205" fill="none" xmlns="http://www.w3.org/2000/svg">
<path d="M103.063 0.132812C46.5773 0.132812 0.628906 46.0809 0.628906 102.567C0.628906 159.052 46.5776 205.001 103.063 205.001C112.514 205.001 121.683 203.714 130.37 201.3C171.653 189.879 202.561 153.18 205.275 108.982C205.436 106.87 205.497 104.719 205.497 102.567C205.497 46.0809 159.548 0.132812 103.063 0.132812ZM185.388 102.566C185.388 144.473 153.918 179.18 113.338 184.248C109.96 184.67 106.542 184.892 103.062 184.892C57.6769 184.892 20.7371 147.952 20.7371 102.566C20.7371 57.1608 57.6769 20.2413 103.062 20.2413C143.421 20.2413 177.063 49.399 184.06 87.7663C184.925 92.5723 185.388 97.5192 185.388 102.566Z" fill="#4FB800"/>
<path d="M161.353 65.0576C155.463 59.1683 145.914 59.1683 140.024 65.0576L88.4096 116.673L66.6347 94.8979C60.7454 89.0075 51.1957 89.0075 45.3064 94.8979C39.4161 100.787 39.4161 110.336 45.3064 116.226L77.7457 148.666C80.5735 151.495 84.4095 153.083 88.4099 153.083C92.4099 153.083 96.2462 151.495 99.074 148.666L161.353 86.3861C167.243 80.4968 167.243 70.9471 161.353 65.0576Z" fill="#4FB800"/>
</svg>
