<svg width="148" height="163" viewBox="0 0 148 163" fill="none" xmlns="http://www.w3.org/2000/svg">
<path d="M102.571 1.87891H1.30859V162.242H144.949V44.2599L102.571 1.87891Z" fill="#161D21"/>
<path d="M102.071 44.2599V44.7599H102.571H144.449V161.742H1.80859V2.37891H102.071V44.2599Z" fill="white" stroke="#D9D9D9"/>
<g filter="url(#filter0_f_3370_9537)">
<path d="M102.648 3.04688V44.2402C102.648 44.7925 103.096 45.2402 103.648 45.2402H144.433" stroke="black"/>
</g>
<rect x="0.792969" y="109.844" width="144.155" height="52.6094" fill="#FF6969"/>
<path d="M50.3653 143.68V126.22C51.1653 126.06 51.9813 125.936 52.8133 125.848C53.6453 125.76 54.5253 125.716 55.4533 125.716C57.9893 125.716 59.8973 126.22 61.1773 127.228C62.4653 128.236 63.1093 129.828 63.1093 132.004C63.1093 134.06 62.4813 135.624 61.2253 136.696C59.9693 137.76 58.0653 138.292 55.5133 138.292C55.1693 138.292 54.8413 138.288 54.5293 138.28C54.2253 138.264 53.9053 138.24 53.5693 138.208V143.68H50.3653ZM55.5493 135.844C57.0933 135.844 58.2173 135.54 58.9213 134.932C59.6253 134.324 59.9773 133.356 59.9773 132.028C59.9773 130.676 59.6293 129.696 58.9333 129.088C58.2373 128.472 57.1693 128.164 55.7293 128.164C55.3133 128.164 54.9333 128.18 54.5893 128.212C54.2453 128.236 53.9053 128.28 53.5693 128.344V135.724C53.8973 135.764 54.2173 135.796 54.5293 135.82C54.8413 135.836 55.1813 135.844 55.5493 135.844ZM70.4426 143.848C69.9626 143.848 69.4666 143.836 68.9546 143.812C68.4506 143.796 67.9346 143.768 67.4066 143.728C66.8786 143.688 66.3466 143.636 65.8106 143.572V126.28C66.3306 126.168 66.8866 126.072 67.4786 125.992C68.0786 125.904 68.6826 125.84 69.2906 125.8C69.9066 125.752 70.5066 125.728 71.0906 125.728C74.2106 125.728 76.5626 126.468 78.1466 127.948C79.7386 129.42 80.5346 131.704 80.5346 134.8C80.5346 136.912 80.1626 138.636 79.4186 139.972C78.6746 141.3 77.5546 142.28 76.0586 142.912C74.5626 143.536 72.6906 143.848 70.4426 143.848ZM71.2346 141.208C72.5706 141.208 73.6826 140.996 74.5706 140.572C75.4666 140.14 76.1346 139.452 76.5746 138.508C77.0146 137.564 77.2346 136.324 77.2346 134.788C77.2346 133.26 77.0146 132.024 76.5746 131.08C76.1346 130.136 75.4706 129.448 74.5826 129.016C73.7026 128.576 72.6066 128.356 71.2946 128.356C70.9426 128.356 70.5666 128.376 70.1666 128.416C69.7746 128.448 69.3906 128.496 69.0146 128.56V141.1C69.3746 141.14 69.7306 141.168 70.0826 141.184C70.4426 141.2 70.8266 141.208 71.2346 141.208ZM83.3887 143.68V125.92H95.2807V128.56H86.5927V143.68H83.3887ZM85.4767 136.228V133.588H94.0687V136.228H85.4767Z" fill="white"/>
<path d="M132.202 62.1836H13.0234V65.7616H132.202V62.1836Z" fill="#B0B0B0" fill-opacity="0.5"/>
<path d="M132.202 70.3301H13.0234V73.915H132.202V70.3301Z" fill="#B0B0B0" fill-opacity="0.5"/>
<path d="M132.202 78.4746H13.0234V82.0596H132.202V78.4746Z" fill="#B0B0B0" fill-opacity="0.5"/>
<path d="M132.202 86.0586H13.0234V89.6366H132.202V86.0586Z" fill="#B0B0B0" fill-opacity="0.5"/>
<path d="M132.202 94.2051H13.0234V97.79H132.202V94.2051Z" fill="#B0B0B0" fill-opacity="0.5"/>
<path d="M132.202 102.35H13.0234V105.935H132.202V102.35Z" fill="#B0B0B0" fill-opacity="0.5"/>
<defs>
<filter id="filter0_f_3370_9537" x="99.1484" y="0.046875" width="48.2832" height="48.6934" filterUnits="userSpaceOnUse" color-interpolation-filters="sRGB">
<feFlood flood-opacity="0" result="BackgroundImageFix"/>
<feBlend mode="normal" in="SourceGraphic" in2="BackgroundImageFix" result="shape"/>
<feGaussianBlur stdDeviation="1.5" result="effect1_foregroundBlur_3370_9537"/>
</filter>
</defs>
</svg>
