<svg width="34" height="34" viewBox="0 0 34 34" fill="none" xmlns="http://www.w3.org/2000/svg">
<path d="M17.1924 33.6654C8.13556 33.6654 0.792969 26.3076 0.792969 17.2321C0.792969 8.1565 8.13556 0.798706 17.1924 0.798706C26.2492 0.798706 33.5918 8.1565 33.5918 17.2321C33.5918 26.3076 26.251 33.6654 17.1924 33.6654Z" fill="url(#paint0_linear_3861_9285)"/>
<path fill-rule="evenodd" clip-rule="evenodd" d="M20.8898 20.9631C19.8808 21.309 18.3804 22.4103 16.7225 23.427C16.4149 23.2485 15.4171 22.6377 14.1905 21.5326C12.7107 20.1945 11.2291 18.082 11.2291 18.082L10.3214 20.1099C10.3214 20.1099 11.2422 21.2902 12.6807 22.6715C13.8417 23.786 14.6238 24.2972 14.8826 24.455C13.1346 25.3102 11.3529 25.7669 9.88624 24.9474C6.39593 22.3313 11.8124 15.5317 12.2438 15.06C13.009 14.1729 13.8267 13.331 14.7138 12.5642C15.4359 11.9402 16.2048 11.3651 17.0207 10.869C17.6865 10.4649 18.386 10.1116 19.1156 9.82967C19.7083 9.60226 20.3234 9.42184 20.948 9.30532C21.4506 9.21135 21.9607 9.15872 22.4727 9.15121C22.8628 9.14745 23.253 9.17 23.6374 9.22638C24.1063 9.29404 24.5846 9.40868 24.9747 9.68871C25.3816 9.98002 25.6911 10.4536 25.723 10.9592C25.7417 11.2392 25.6667 11.5155 25.5223 11.7542C25.4004 11.9552 25.241 12.1319 25.0666 12.2898C23.6974 13.2934 20.2803 10.8276 20.2803 10.8276L17.5871 11.6959C17.5871 11.6959 18.7105 12.3424 18.8905 12.4909C19.0706 12.6375 23.4799 15.2912 25.4792 14.1391C27.4785 12.9889 27.516 10.666 27.4766 10.4593C27.2609 6.85835 22.0508 7.05757 21.912 7.09516C20.1321 7.31129 18.5192 7.8751 17.1107 8.59115C16.1861 8.17956 9.64055 5.41687 7.72941 8.8787C5.85954 12.2672 7.78005 16.8548 8.14578 17.6629C5.98707 21.9743 7.28867 24.7388 7.32806 24.8253C8.53963 27.6462 11.818 27.3625 11.818 27.3625C16.563 27.0354 19.7551 24.0604 21.1786 23.0756C21.4806 22.8952 25.0834 20.685 25.4548 22.9572C26.0512 26.342 20.2071 24.9832 20.2071 24.9832L18.1009 26.3175C25.9518 28.9411 28.0017 24.9117 27.3809 22.82C26.9552 21.6322 26.0024 18.6196 20.8898 20.9631ZM9.50739 9.86161C11.2366 8.23783 14.2843 9.55152 14.9726 9.88229C12.3825 11.6884 10.869 13.6974 10.8109 13.7858C10.3626 14.3007 9.96501 14.8006 9.60867 15.2893C9.25795 14.6165 7.76692 11.4967 9.50739 9.86161Z" fill="white"/>
<defs>
<linearGradient id="paint0_linear_3861_9285" x1="17.1928" y1="0.797654" x2="17.1928" y2="33.6649" gradientUnits="userSpaceOnUse">
<stop offset="0.1553" stop-color="#0C1C3F"/>
<stop offset="1" stop-color="#90D0B9"/>
</linearGradient>
</defs>
</svg>
