<svg width="17" height="18" viewBox="0 0 17 18" fill="none" xmlns="http://www.w3.org/2000/svg">
<path fill-rule="evenodd" clip-rule="evenodd" d="M16.66 9.19323C16.66 8.5905 16.6059 8.01095 16.5055 7.45459H8.5V10.7425H13.0746C12.8775 11.8051 12.2786 12.7053 11.3784 13.308V15.4407H14.1255C15.7327 13.961 16.66 11.7819 16.66 9.19323Z" fill="#4285F4"/>
<path fill-rule="evenodd" clip-rule="evenodd" d="M8.49997 17.5002C10.795 17.5002 12.7191 16.7391 14.1254 15.4409L11.3784 13.3082C10.6173 13.8182 9.64361 14.1196 8.49997 14.1196C6.28611 14.1196 4.41224 12.6243 3.74383 10.6152H0.904053V12.8175C2.30269 15.5955 5.17724 17.5002 8.49997 17.5002Z" fill="#34A853"/>
<path fill-rule="evenodd" clip-rule="evenodd" d="M3.74387 10.6149C3.57387 10.1049 3.47728 9.56012 3.47728 8.9999C3.47728 8.43967 3.57387 7.89489 3.74387 7.38489V5.18262H0.904092C0.32841 6.33012 0 7.6283 0 8.9999C0 10.3715 0.32841 11.6697 0.904092 12.8172L3.74387 10.6149Z" fill="#FBBC05"/>
<path fill-rule="evenodd" clip-rule="evenodd" d="M8.49997 3.88069C9.74793 3.88069 10.8684 4.30955 11.7493 5.15183L14.1873 2.71387C12.7152 1.34227 10.7911 0.5 8.49997 0.5C5.17724 0.5 2.30269 2.40478 0.904053 5.18273L3.74383 7.38501C4.41224 5.37592 6.28611 3.88069 8.49997 3.88069Z" fill="#EA4335"/>
</svg>
