<svg width="20" height="19" viewBox="0 0 20 19" fill="none" xmlns="http://www.w3.org/2000/svg">
<path opacity="0.4" d="M11.3967 1.804C11.3967 1.03627 10.7764 0.416016 10.0087 0.416016C9.24097 0.416016 8.62071 1.03627 8.62071 1.804V8.04991H2.3748C1.60707 8.04991 0.986816 8.67017 0.986816 9.4379C0.986816 10.2056 1.60707 10.8259 2.3748 10.8259H8.62071V17.0718C8.62071 17.8395 9.24097 18.4598 10.0087 18.4598C10.7764 18.4598 11.3967 17.8395 11.3967 17.0718V10.8259H17.6426C18.4103 10.8259 19.0306 10.2056 19.0306 9.4379C19.0306 8.67017 18.4103 8.04991 17.6426 8.04991H11.3967V1.804Z" fill="black"/>
</svg>
