<svg width="13" height="10" viewBox="0 0 41 40" fill="none" xmlns="http://www.w3.org/2000/svg">
<path fill-rule="evenodd" clip-rule="evenodd" d="M11.6429 9.23182C11.6429 6.90033 12.5691 4.66433 14.2177 3.01571C15.8663 1.3671 18.1023 0.440918 20.4338 0.440918C22.7653 0.440918 25.0013 1.3671 26.6499 3.01571C28.2986 4.66433 29.2247 6.90033 29.2247 9.23182C29.2247 11.5633 28.2986 13.7993 26.6499 15.4479C25.0013 17.0965 22.7653 18.0227 20.4338 18.0227C18.1023 18.0227 15.8663 17.0965 14.2177 15.4479C12.5691 13.7993 11.6429 11.5633 11.6429 9.23182ZM11.6429 22.4182C8.72856 22.4182 5.93356 23.5759 3.87279 25.6367C1.81202 27.6975 0.654297 30.4925 0.654297 33.4068C0.654297 35.1554 1.34893 36.8324 2.58539 38.0689C3.82186 39.3054 5.49886 40 7.24748 40H33.6202C35.3688 40 37.0458 39.3054 38.2823 38.0689C39.5187 36.8324 40.2134 35.1554 40.2134 33.4068C40.2134 30.4925 39.0556 27.6975 36.9949 25.6367C34.9341 23.5759 32.1391 22.4182 29.2247 22.4182H11.6429Z" fill="#9D9999"/>
</svg>
