<svg width="22" height="19" viewBox="0 0 22 19" fill="none" xmlns="http://www.w3.org/2000/svg">
<path d="M9.32285 18.3554L9.22031 18.261L2.03437 11.5878C0.775195 10.4188 0.0615234 8.77821 0.0615234 7.05966V6.92431C0.0615234 4.03681 2.1123 1.55946 4.95059 1.01806C6.5666 0.706338 8.21953 1.07958 9.53613 2.00653C9.90527 2.26903 10.2498 2.57255 10.5615 2.92118C10.7338 2.72431 10.9184 2.54384 11.1152 2.37567C11.267 2.24442 11.4229 2.12138 11.5869 2.00653C12.9035 1.07958 14.5564 0.706338 16.1725 1.01396C19.0107 1.55536 21.0615 4.03681 21.0615 6.92431V7.05966C21.0615 8.77821 20.3479 10.4188 19.0887 11.5878L11.9027 18.261L11.8002 18.3554C11.4639 18.6671 11.0209 18.8434 10.5615 18.8434C10.1021 18.8434 9.65918 18.6712 9.32285 18.3554ZM9.86836 5.09911C9.85195 5.08681 9.83965 5.0704 9.82734 5.05399L9.09727 4.23368L9.09316 4.22958C8.1457 3.16728 6.71426 2.68329 5.31973 2.94989C3.4084 3.31493 2.03027 4.98017 2.03027 6.92431V7.05966C2.03027 8.2286 2.51836 9.34833 3.37559 10.144L10.5615 16.8173L17.7475 10.144C18.6047 9.34833 19.0928 8.2286 19.0928 7.05966V6.92431C19.0928 4.98427 17.7146 3.31493 15.8074 2.94989C14.4129 2.68329 12.9773 3.17138 12.034 4.22958C12.034 4.22958 12.034 4.22958 12.0299 4.23368C12.0258 4.23778 12.0299 4.23368 12.0258 4.23778L11.2957 5.0581C11.2834 5.0745 11.267 5.08681 11.2547 5.10321C11.0701 5.28778 10.8199 5.39032 10.5615 5.39032C10.3031 5.39032 10.0529 5.28778 9.86836 5.10321V5.09911Z" fill="white"/>
</svg>
