<svg width="507" height="568" viewBox="0 0 507 568" fill="none" xmlns="http://www.w3.org/2000/svg">
<rect y="0.397949" width="507" height="566.833" rx="11.8708" fill="url(#paint0_linear_4177_73734)"/>
<mask id="mask0_4177_73734" style="mask-type:alpha" maskUnits="userSpaceOnUse" x="0" y="0" width="507" height="568">
<rect y="0.397949" width="507" height="566.833" fill="url(#paint1_linear_4177_73734)"/>
</mask>
<g mask="url(#mask0_4177_73734)">
<ellipse cx="450.521" cy="577.247" rx="38.0907" ry="30.79" fill="#E8A200"/>
<g filter="url(#filter0_b_4177_73734)">
<path d="M281.224 572.692C281.224 716.75 133.781 843.764 -62.147 843.764C-258.075 843.764 -405.518 716.75 -405.518 572.692C-405.518 428.634 -258.075 301.62 -62.147 301.62C133.781 301.62 281.224 428.634 281.224 572.692Z" stroke="url(#paint2_radial_4177_73734)" stroke-opacity="0.7" stroke-width="59.3542"/>
</g>
<g filter="url(#filter1_b_4177_73734)">
<path d="M190.918 590.399C190.918 702.851 75.2567 804.243 -81.4678 804.243C-238.192 804.243 -353.854 702.851 -353.854 590.399C-353.854 477.947 -238.192 376.555 -81.4678 376.555C75.2567 376.555 190.918 477.947 190.918 590.399Z" stroke="url(#paint3_radial_4177_73734)" stroke-opacity="0.7" stroke-width="59.3542"/>
</g>
<g filter="url(#filter2_b_4177_73734)">
<path d="M97.2357 612.178C97.2357 697.731 8.62152 777.318 -114.738 777.318C-238.097 777.318 -326.712 697.731 -326.712 612.178C-326.712 526.625 -238.097 447.038 -114.738 447.038C8.62152 447.038 97.2357 526.625 97.2357 612.178Z" stroke="url(#paint4_radial_4177_73734)" stroke-opacity="0.7" stroke-width="59.3542"/>
</g>
</g>
<rect x="59.6191" y="486.008" width="42.0311" height="11.8708" rx="5.93542" fill="#616161"/>
<rect opacity="0.6" x="108.654" y="486.008" width="14.0104" height="11.8708" rx="5.93542" fill="#969696"/>
<rect opacity="0.6" x="129.671" y="486.008" width="14.0104" height="11.8708" rx="5.93542" fill="#969696"/>
<path d="M64.7657 108.165C61.2045 108.165 58.4445 106.073 59.0232 96.1016L63.2077 95.1223C62.5399 102.111 63.5193 104.382 64.7657 104.382C66.1012 104.382 66.5909 103.358 66.5909 98.9951C66.5909 95.7455 66.0567 94.8552 64.3651 93.3862L62.4509 91.7391C60.0471 89.6914 59.2458 88.3114 59.2458 83.8153C59.2458 78.0728 61.2045 76.1141 64.8548 76.1141C68.3715 76.1141 70.5083 77.3605 70.5973 85.774L66.5464 86.6643C66.7244 81.3669 65.9677 79.8979 64.8548 79.8979C63.6528 79.8979 63.4748 81.3669 63.4748 83.8153C63.4748 86.4417 63.6974 87.4211 65.7006 89.0236L67.6592 90.6262C70.1966 92.7184 70.8199 94.0984 70.8199 98.639C70.8199 106.118 68.4605 108.165 64.7657 108.165ZM78.5826 108.165C76.2678 108.165 74.4427 107.186 74.4427 102.156V86.7979H72.1724V83.2366H74.4427V77.8947L78.2265 75.2238V83.2366H80.8529V86.7979H78.2265V101.933C78.2265 103.669 78.8052 104.382 79.74 104.382C80.4968 104.382 80.7639 104.159 80.8529 104.07V107.72C80.5858 107.854 79.8291 108.165 78.5826 108.165ZM85.8867 108.165C83.3048 108.165 81.8803 106.518 81.8803 100.509C81.8803 95.1668 83.7944 93.8313 85.7531 92.5849C87.4447 91.5165 88.9583 90.9378 88.9583 88.712C88.9583 87.8217 88.7357 86.1301 87.4892 86.1301C86.0202 86.1301 85.486 87.9553 85.9757 90.5372L82.1474 89.6023C81.9248 84.9727 83.9725 82.7914 87.4892 82.7914C91.2285 82.7914 92.7421 85.2398 92.7421 87.9553V103.002C92.7421 104.426 93.0982 104.649 93.5879 104.649C93.8995 104.649 94.1666 104.515 94.3446 104.337V107.498C93.7659 107.943 92.8756 108.165 91.9408 108.165C90.0266 108.165 89.3589 106.963 89.0918 105.138C88.6466 106.741 87.7118 108.165 85.8867 108.165ZM87.3557 104.604C88.246 104.604 88.9583 103.269 88.9583 102.067V94.0984C88.2905 94.5881 87.7118 95.0778 87.2667 95.4339C85.9757 96.5023 85.7976 97.8377 85.7976 100.42C85.7976 103.402 86.3318 104.604 87.3557 104.604ZM99.6747 89.1572V107.72H95.8909V83.2366H99.6747V85.3288H99.8082C99.9418 84.6611 100.877 82.7914 102.568 82.7914C103.191 82.7914 103.592 82.9695 103.815 83.2366V87.1985C103.414 86.8424 102.88 86.5753 102.123 86.5753C100.877 86.5753 99.6747 87.332 99.6747 89.1572ZM110.883 108.165C108.568 108.165 106.743 107.186 106.743 102.156V86.7979H104.472V83.2366H106.743V77.8947L110.526 75.2238V83.2366H113.153V86.7979H110.526V101.933C110.526 103.669 111.105 104.382 112.04 104.382C112.797 104.382 113.064 104.159 113.153 104.07V107.72C112.886 107.854 112.129 108.165 110.883 108.165ZM121.46 115.065C120.258 115.065 119.323 114.798 118.878 114.487V110.836C119.59 111.415 120.258 111.504 120.97 111.504C122.306 111.504 123.508 110.658 123.819 108.967L124.042 107.72L120.035 83.2366H124.042L125.911 100.642L127.781 83.2366H131.788L127.737 107.943C126.802 113.552 124.22 115.065 121.46 115.065ZM137.915 108.165C134.754 108.165 132.484 106.652 132.484 95.4784C132.484 84.305 134.754 82.7914 137.915 82.7914C141.076 82.7914 143.346 84.2159 143.346 95.4784C143.346 106.741 141.076 108.165 137.915 108.165ZM137.915 104.827C139.028 104.827 139.429 102.957 139.429 95.4784C139.429 87.9998 139.028 86.1301 137.915 86.1301C136.802 86.1301 136.402 87.9553 136.402 95.4784C136.402 103.002 136.802 104.827 137.915 104.827ZM148.963 108.165C146.782 108.165 145.58 106.607 145.58 103.714V83.2366H149.364V101.8C149.364 103.491 149.764 104.827 150.877 104.827C152.079 104.827 152.48 103.491 152.48 101.8V83.2366H156.263V107.72H152.48V105.672H152.346C151.945 106.607 150.922 108.165 148.963 108.165ZM162.71 89.1572V107.72H158.926V83.2366H162.71V85.3288H162.843C162.977 84.6611 163.911 82.7914 165.603 82.7914C166.226 82.7914 166.627 82.9695 166.85 83.2366V87.1985C166.449 86.8424 165.915 86.5753 165.158 86.5753C163.911 86.5753 162.71 87.332 162.71 89.1572ZM181.653 108.165C180.05 108.165 179.204 107.275 178.537 105.672H178.403V107.72H174.619V75.4464H178.403V85.2843H178.537C179.071 83.9043 179.828 82.7914 181.653 82.7914C183.834 82.7914 185.615 84.305 185.615 95.4784C185.615 106.652 183.834 108.165 181.653 108.165ZM180.05 104.827C181.163 104.827 181.697 103.002 181.697 95.4784C181.697 87.9553 181.163 86.1301 180.05 86.1301C178.937 86.1301 178.403 87.9998 178.403 95.4784C178.403 102.957 178.937 104.827 180.05 104.827ZM191.218 108.165C189.037 108.165 187.835 106.607 187.835 103.714V83.2366H191.619V101.8C191.619 103.491 192.019 104.827 193.132 104.827C194.334 104.827 194.735 103.491 194.735 101.8V83.2366H198.519V107.72H194.735V105.672H194.601C194.201 106.607 193.177 108.165 191.218 108.165ZM205.944 108.165C201.403 108.165 200.246 104.738 200.558 98.5945L204.475 98.1048C204.163 101.978 204.341 104.827 205.944 104.827C206.701 104.827 207.591 104.114 207.591 101.488C207.591 98.6835 206.968 97.6152 205.41 96.5913L203.941 95.6565C202.561 94.7662 200.825 92.941 200.825 89.4243C200.825 85.7295 202.027 82.7914 206.478 82.7914C210.485 82.7914 211.508 85.1953 211.375 90.9823L207.502 91.6055C207.903 87.0204 207.279 86.1301 206.122 86.1301C205.232 86.1301 204.742 86.8869 204.742 89.4243C204.742 91.472 205.543 92.2733 206.434 92.8075L208.526 94.0984C209.861 94.8997 211.508 96.9029 211.508 100.865C211.508 106.251 209.105 108.165 205.944 108.165ZM213.304 76.5593H217.533L217.311 81.0108H213.527L213.304 76.5593ZM213.527 83.2366H217.311V107.72H213.527V83.2366ZM226.861 89.1572C226.861 87.4656 226.46 86.1301 225.347 86.1301C224.145 86.1301 223.745 87.4656 223.745 89.1572V107.72H219.961V83.2366H223.745V85.2843H223.878C224.279 84.3495 225.303 82.7914 227.261 82.7914C229.443 82.7914 230.645 84.3495 230.645 87.243V107.72H226.861V89.1572ZM238.206 108.165C235.045 108.165 232.775 106.652 232.775 95.4784C232.775 84.305 235.045 82.7914 238.206 82.7914C241.366 82.7914 243.637 84.2159 243.637 95.4784V96.1461H236.692C236.737 103.135 237.137 104.827 238.206 104.827C239.141 104.827 239.586 103.536 239.497 98.6835L243.503 99.4848C243.013 107.097 240.921 108.165 238.206 108.165ZM238.206 86.1301C237.271 86.1301 236.826 87.4656 236.737 92.5849H239.675C239.586 87.5101 239.141 86.1301 238.206 86.1301ZM250.634 108.165C246.093 108.165 244.936 104.738 245.247 98.5945L249.165 98.1048C248.853 101.978 249.031 104.827 250.634 104.827C251.39 104.827 252.281 104.114 252.281 101.488C252.281 98.6835 251.657 97.6152 250.099 96.5913L248.63 95.6565C247.25 94.7662 245.514 92.941 245.514 89.4243C245.514 85.7295 246.716 82.7914 251.168 82.7914C255.174 82.7914 256.198 85.1953 256.064 90.9823L252.192 91.6055C252.592 87.0204 251.969 86.1301 250.812 86.1301C249.921 86.1301 249.432 86.8869 249.432 89.4243C249.432 91.472 250.233 92.2733 251.123 92.8075L253.215 94.0984C254.551 94.8997 256.198 96.9029 256.198 100.865C256.198 106.251 253.794 108.165 250.634 108.165ZM262.98 108.165C258.439 108.165 257.282 104.738 257.593 98.5945L261.511 98.1048C261.199 101.978 261.377 104.827 262.98 104.827C263.736 104.827 264.627 104.114 264.627 101.488C264.627 98.6835 264.004 97.6152 262.445 96.5913L260.976 95.6565C259.596 94.7662 257.86 92.941 257.86 89.4243C257.86 85.7295 259.062 82.7914 263.514 82.7914C267.52 82.7914 268.544 85.1953 268.411 90.9823L264.538 91.6055C264.938 87.0204 264.315 86.1301 263.158 86.1301C262.267 86.1301 261.778 86.8869 261.778 89.4243C261.778 91.472 262.579 92.2733 263.469 92.8075L265.562 94.0984C266.897 94.8997 268.544 96.9029 268.544 100.865C268.544 106.251 266.14 108.165 262.98 108.165ZM284.03 108.165C282.427 108.165 281.582 107.275 280.914 105.672H280.78V107.72H276.997V75.4464H280.78V85.2843H280.914C281.448 83.9043 282.205 82.7914 284.03 82.7914C286.211 82.7914 287.992 84.305 287.992 95.4784C287.992 106.652 286.211 108.165 284.03 108.165ZM282.427 104.827C283.54 104.827 284.075 103.002 284.075 95.4784C284.075 87.9553 283.54 86.1301 282.427 86.1301C281.315 86.1301 280.78 87.9998 280.78 95.4784C280.78 102.957 281.315 104.827 282.427 104.827ZM290.089 115.065C288.887 115.065 287.952 114.798 287.507 114.487V110.836C288.219 111.415 288.887 111.504 289.599 111.504C290.935 111.504 292.137 110.658 292.448 108.967L292.671 107.72L288.665 83.2366H292.671L294.541 100.642L296.41 83.2366H300.417L296.366 107.943C295.431 113.552 292.849 115.065 290.089 115.065ZM313.413 108.165C310.252 108.165 307.982 106.652 307.982 95.4784C307.982 84.305 310.252 82.7914 313.413 82.7914C316.573 82.7914 318.844 84.2159 318.844 95.4784C318.844 106.741 316.573 108.165 313.413 108.165ZM313.413 104.827C314.526 104.827 314.926 102.957 314.926 95.4784C314.926 87.9998 314.526 86.1301 313.413 86.1301C312.3 86.1301 311.899 87.9553 311.899 95.4784C311.899 103.002 312.3 104.827 313.413 104.827ZM327.977 89.1572C327.977 87.4656 327.577 86.1301 326.464 86.1301C325.262 86.1301 324.861 87.4656 324.861 89.1572V107.72H321.077V83.2366H324.861V85.2843H324.995C325.395 84.3495 326.419 82.7914 328.378 82.7914C330.559 82.7914 331.761 84.3495 331.761 87.243V107.72H327.977V89.1572ZM339.322 108.165C336.162 108.165 333.891 106.652 333.891 95.4784C333.891 84.305 336.162 82.7914 339.322 82.7914C342.483 82.7914 344.753 84.2159 344.753 95.4784V96.1461H337.809C337.853 103.135 338.254 104.827 339.322 104.827C340.257 104.827 340.702 103.536 340.613 98.6835L344.62 99.4848C344.13 107.097 342.038 108.165 339.322 108.165ZM339.322 86.1301C338.387 86.1301 337.942 87.4656 337.853 92.5849H340.791C340.702 87.5101 340.257 86.1301 339.322 86.1301ZM358.407 108.165C355.246 108.165 352.976 106.652 352.976 95.4784C352.976 84.305 355.246 82.7914 358.407 82.7914C361.211 82.7914 363.348 83.9043 363.749 92.1843L359.92 93.0746C359.831 87.5991 359.386 86.1301 358.407 86.1301C357.294 86.1301 356.893 87.9553 356.893 95.4784C356.893 103.002 357.294 104.827 358.407 104.827C359.386 104.827 359.831 103.313 359.92 97.6597L363.793 98.4164C363.392 107.008 361.256 108.165 358.407 108.165ZM365.811 75.4464H369.594V107.72H365.811V75.4464ZM372.022 76.5593H376.251L376.028 81.0108H372.244L372.022 76.5593ZM372.244 83.2366H376.028V107.72H372.244V83.2366ZM383.664 108.165C380.503 108.165 378.233 106.652 378.233 95.4784C378.233 84.305 380.503 82.7914 383.664 82.7914C386.469 82.7914 388.605 83.9043 389.006 92.1843L385.178 93.0746C385.089 87.5991 384.643 86.1301 383.664 86.1301C382.551 86.1301 382.151 87.9553 382.151 95.4784C382.151 103.002 382.551 104.827 383.664 104.827C384.643 104.827 385.089 103.313 385.178 97.6597L389.05 98.4164C388.65 107.008 386.513 108.165 383.664 108.165ZM394.852 90.9378H394.985L398.814 83.2366H403.176L398.502 91.1159L403.176 107.72H399.081L396.054 95.2113L394.852 97.259V107.72H391.068V75.4464H394.852V90.9378ZM404.763 112.172C405.92 111.014 407.256 109.1 407.256 107.72H404.763L404.496 103.269H408.814C408.947 104.248 409.036 105.227 409.036 106.251C409.036 108.343 408.68 109.901 406.81 112.172H404.763ZM64.1425 162.165C60.9819 162.165 58.7116 160.652 58.7116 149.478C58.7116 138.305 60.9819 136.791 64.1425 136.791C67.3031 136.791 69.5734 138.216 69.5734 149.478V150.146H62.629C62.6735 157.135 63.0741 158.827 64.1425 158.827C65.0773 158.827 65.5225 157.536 65.4335 152.684L69.4399 153.485C68.9502 161.097 66.858 162.165 64.1425 162.165ZM64.1425 140.13C63.2077 140.13 62.7625 141.466 62.6735 146.585H65.6115C65.5225 141.51 65.0773 140.13 64.1425 140.13ZM77.6419 161.72L75.9948 151.882L74.3477 161.72H70.3413L73.2348 149.256L70.3413 137.237H74.2142L75.9948 146.54L77.7754 137.237H81.6483L78.7103 149.256L81.6483 161.72H77.6419ZM90.0131 162.165C88.1879 162.165 87.4312 161.052 86.897 159.672H86.7634V168.62H82.9796V137.237H86.7634V139.284H86.897C87.5647 137.682 88.4105 136.791 90.0131 136.791C92.8621 136.791 93.975 138.305 93.975 149.478C93.975 160.652 92.8621 162.165 90.0131 162.165ZM88.4105 158.827C89.5234 158.827 90.0576 157.002 90.0576 149.478C90.0576 141.955 89.5234 140.13 88.4105 140.13C87.2976 140.13 86.7634 142 86.7634 149.478C86.7634 156.957 87.2976 158.827 88.4105 158.827ZM96.1952 129.446H99.979V161.72H96.1952V129.446ZM107.615 162.165C104.454 162.165 102.184 160.652 102.184 149.478C102.184 138.305 104.454 136.791 107.615 136.791C110.775 136.791 113.046 138.216 113.046 149.478C113.046 160.741 110.775 162.165 107.615 162.165ZM107.615 158.827C108.728 158.827 109.128 156.957 109.128 149.478C109.128 142 108.728 140.13 107.615 140.13C106.502 140.13 106.101 141.955 106.101 149.478C106.101 157.002 106.502 158.827 107.615 158.827ZM119.063 143.157V161.72H115.28V137.237H119.063V139.329H119.197C119.33 138.661 120.265 136.791 121.957 136.791C122.58 136.791 122.981 136.97 123.203 137.237V141.198C122.803 140.842 122.268 140.575 121.512 140.575C120.265 140.575 119.063 141.332 119.063 143.157ZM129.308 162.165C126.147 162.165 123.877 160.652 123.877 149.478C123.877 138.305 126.147 136.791 129.308 136.791C132.468 136.791 134.738 138.216 134.738 149.478V150.146H127.794C127.839 157.135 128.239 158.827 129.308 158.827C130.242 158.827 130.688 157.536 130.598 152.684L134.605 153.485C134.115 161.097 132.023 162.165 129.308 162.165ZM129.308 140.13C128.373 140.13 127.928 141.466 127.839 146.585H130.777C130.688 141.51 130.242 140.13 129.308 140.13ZM146.878 162.165C144.296 162.165 142.872 160.518 142.872 154.509C142.872 149.167 144.786 147.831 146.745 146.585C148.436 145.517 149.95 144.938 149.95 142.712C149.95 141.822 149.727 140.13 148.481 140.13C147.012 140.13 146.478 141.955 146.967 144.537L143.139 143.602C142.916 138.973 144.964 136.791 148.481 136.791C152.22 136.791 153.734 139.24 153.734 141.955V157.002C153.734 158.426 154.09 158.649 154.58 158.649C154.891 158.649 155.158 158.515 155.336 158.337V161.498C154.758 161.943 153.867 162.165 152.932 162.165C151.018 162.165 150.351 160.963 150.083 159.138C149.638 160.741 148.703 162.165 146.878 162.165ZM148.347 158.604C149.238 158.604 149.95 157.269 149.95 156.067V148.098C149.282 148.588 148.703 149.078 148.258 149.434C146.967 150.502 146.789 151.838 146.789 154.42C146.789 157.402 147.323 158.604 148.347 158.604ZM156.883 129.446H160.666V161.72H156.883V129.446ZM163.316 129.446H167.1V161.72H163.316V129.446ZM181.482 162.165C179.167 162.165 177.342 161.186 177.342 156.156V140.798H175.071V137.237H177.342V131.895L181.125 129.224V137.237H183.752V140.798H181.125V155.933C181.125 157.669 181.704 158.382 182.639 158.382C183.396 158.382 183.663 158.159 183.752 158.07V161.72C183.485 161.854 182.728 162.165 181.482 162.165ZM192.213 143.157C192.213 141.466 191.813 140.13 190.7 140.13C189.498 140.13 189.097 141.466 189.097 143.157V161.72H185.313V129.446H189.097V139.284H189.231C189.631 138.349 190.7 136.791 192.614 136.791C194.795 136.791 195.997 138.349 195.997 141.243V161.72H192.213V143.157ZM203.558 162.165C200.398 162.165 198.127 160.652 198.127 149.478C198.127 138.305 200.398 136.791 203.558 136.791C206.719 136.791 208.989 138.216 208.989 149.478V150.146H202.045C202.089 157.135 202.49 158.827 203.558 158.827C204.493 158.827 204.938 157.536 204.849 152.684L208.856 153.485C208.366 161.097 206.274 162.165 203.558 162.165ZM203.558 140.13C202.623 140.13 202.178 141.466 202.089 146.585H205.027C204.938 141.51 204.493 140.13 203.558 140.13ZM222.42 162.165C217.879 162.165 216.722 158.738 217.034 152.595L220.951 152.105C220.639 155.978 220.817 158.827 222.42 158.827C223.177 158.827 224.067 158.114 224.067 155.488C224.067 152.684 223.444 151.615 221.886 150.591L220.417 149.656C219.037 148.766 217.301 146.941 217.301 143.424C217.301 139.729 218.503 136.791 222.954 136.791C226.961 136.791 227.984 139.195 227.851 144.982L223.978 145.606C224.379 141.02 223.755 140.13 222.598 140.13C221.708 140.13 221.218 140.887 221.218 143.424C221.218 145.472 222.019 146.273 222.91 146.807L225.002 148.098C226.337 148.9 227.984 150.903 227.984 154.865C227.984 160.251 225.581 162.165 222.42 162.165ZM234.989 162.165C231.828 162.165 229.558 160.652 229.558 149.478C229.558 138.305 231.828 136.791 234.989 136.791C238.149 136.791 240.42 138.216 240.42 149.478V150.146H233.475C233.52 157.135 233.92 158.827 234.989 158.827C235.924 158.827 236.369 157.536 236.28 152.684L240.286 153.485C239.796 161.097 237.704 162.165 234.989 162.165ZM234.989 140.13C234.054 140.13 233.609 141.466 233.52 146.585H236.458C236.369 141.51 235.924 140.13 234.989 140.13ZM246.437 143.157V161.72H242.653V137.237H246.437V139.329H246.571C246.704 138.661 247.639 136.791 249.331 136.791C249.954 136.791 250.355 136.97 250.577 137.237V141.198C250.177 140.842 249.642 140.575 248.886 140.575C247.639 140.575 246.437 141.332 246.437 143.157ZM251.235 137.237H255.152L257.556 155.889L259.96 137.237H263.877L259.871 161.72H255.241L251.235 137.237ZM265.21 130.559H269.439L269.217 135.011H265.433L265.21 130.559ZM265.433 137.237H269.217V161.72H265.433V137.237ZM276.853 162.165C273.692 162.165 271.422 160.652 271.422 149.478C271.422 138.305 273.692 136.791 276.853 136.791C279.657 136.791 281.794 137.904 282.194 146.184L278.366 147.075C278.277 141.599 277.832 140.13 276.853 140.13C275.74 140.13 275.339 141.955 275.339 149.478C275.339 157.002 275.74 158.827 276.853 158.827C277.832 158.827 278.277 157.313 278.366 151.66L282.239 152.416C281.838 161.008 279.702 162.165 276.853 162.165ZM289.242 162.165C286.082 162.165 283.811 160.652 283.811 149.478C283.811 138.305 286.082 136.791 289.242 136.791C292.403 136.791 294.673 138.216 294.673 149.478V150.146H287.729C287.773 157.135 288.174 158.827 289.242 158.827C290.177 158.827 290.622 157.536 290.533 152.684L294.54 153.485C294.05 161.097 291.958 162.165 289.242 162.165ZM289.242 140.13C288.307 140.13 287.862 141.466 287.773 146.585H290.711C290.622 141.51 290.177 140.13 289.242 140.13ZM301.67 162.165C297.129 162.165 295.972 158.738 296.284 152.595L300.201 152.105C299.889 155.978 300.067 158.827 301.67 158.827C302.427 158.827 303.317 158.114 303.317 155.488C303.317 152.684 302.694 151.615 301.136 150.591L299.667 149.656C298.287 148.766 296.551 146.941 296.551 143.424C296.551 139.729 297.753 136.791 302.204 136.791C306.211 136.791 307.235 139.195 307.101 144.982L303.228 145.606C303.629 141.02 303.006 140.13 301.848 140.13C300.958 140.13 300.468 140.887 300.468 143.424C300.468 145.472 301.269 146.273 302.16 146.807L304.252 148.098C305.587 148.9 307.235 150.903 307.235 154.865C307.235 160.251 304.831 162.165 301.67 162.165ZM309.253 130.559H313.393L312.992 154.598H309.654L309.253 130.559ZM309.342 157.269H313.348V161.72H309.342V157.269Z" fill="#1C1C1C"/>
<path opacity="0.5" d="M272.457 397.954C263.011 402.577 247.697 402.577 238.252 397.954C228.807 393.331 228.807 385.837 238.252 381.214C247.697 376.591 263.011 376.591 272.456 381.214C281.902 385.837 281.902 393.332 272.457 397.954ZM476.36 463.893C463.063 470.401 441.505 470.401 428.207 463.891C414.911 457.384 414.91 446.832 428.207 440.324C441.504 433.815 463.063 433.817 476.36 440.325C489.658 446.832 489.658 457.385 476.36 463.893Z" fill="#C4D9E8"/>
<path d="M241.484 244.074C241.484 244.074 242.115 255.099 243.105 262.509C244.095 269.919 265.145 256.817 265.145 256.817V248.381L241.484 244.074Z" fill="#6614CF"/>
<path d="M252.697 381.252C253.013 381.923 258.467 387.551 263.921 388.958C266.292 389.57 267.887 389.65 268.931 389.545C269.98 389.439 270.628 388.523 270.275 387.679C269.337 385.439 266.646 380.774 259.811 377.901C250.562 374.015 252.697 381.252 252.697 381.252ZM250.879 383.415C250.879 383.415 252.934 387.502 253.566 390.92C253.952 393.004 252.603 395.712 251.491 397.507C250.801 398.621 249.053 398.872 247.954 398.026C246.171 396.654 243.902 394.273 243.527 390.853C242.895 385.089 243.527 384.084 243.527 384.084L250.879 383.415Z" fill="#173D7A"/>
<path d="M237.738 313.761C237.738 313.761 237.027 321.031 237.738 329.072C238.449 337.113 240.996 374.72 241.471 383.766C241.471 383.766 241.234 386.505 247.488 385.902C253.743 385.299 253.239 382.258 253.239 382.258C253.239 382.258 262.023 382.158 262.3 377.769C262.577 373.378 271.296 325.355 271.296 308.089L237.738 313.761Z" fill="#0079D1"/>
<path d="M274.547 276.173L278.85 281.824L293.643 296.971C293.643 296.971 293.134 298.377 291.293 298.745C289.854 299.032 277.412 288.969 272.039 284.553C271.347 283.985 270.912 283.229 270.808 282.417C270.704 281.606 270.939 280.788 271.471 280.108L274.547 276.173Z" fill="#FFC2B0"/>
<path d="M266.152 252.98C266.152 252.98 272.988 252.83 275.368 261.206C277.748 269.582 279.61 280.069 277.539 280.94C271.327 283.557 267.394 280.495 267.394 280.495L266.152 252.98Z" fill="#8A2AE3"/>
<path d="M268.197 253.336C267.026 252.925 265.724 252.865 264.507 253.164C258.683 254.581 236.784 260.03 233.175 262.645C229.005 265.667 239.428 282.646 239.278 288.213C239.127 293.779 238.388 300.342 237.808 306.394C237.228 312.445 236.442 315.762 242.281 318.335C248.12 320.908 258.089 321.027 265.551 316.207C273.014 311.387 271.66 308.089 271.35 304.589C271.039 301.09 268.497 285.955 268.718 281.658C268.718 281.658 271.347 280.016 273.296 277.2C275.244 274.384 271.803 269.207 270.375 265.842C268.946 262.477 271.18 258.629 270.738 255.883C270.51 254.469 269.445 253.777 268.197 253.336Z" fill="#983BE9"/>
<path d="M253.804 265.556C258.348 265.062 261.657 262.184 261.195 259.126C260.734 256.068 256.675 253.989 252.131 254.482C247.587 254.975 244.278 257.854 244.74 260.912C245.202 263.97 249.26 266.049 253.804 265.556Z" fill="white"/>
<path d="M253.569 263.973C256.816 263.621 259.181 261.563 258.851 259.378C258.521 257.192 255.621 255.706 252.373 256.058C249.126 256.411 246.761 258.469 247.091 260.654C247.421 262.84 250.321 264.326 253.569 263.973Z" fill="#FFC2B0"/>
<path d="M255.623 252.203C255.623 252.203 251.669 249.446 250.893 250.842C250.116 252.239 249.476 258.229 249.476 258.229L257.327 260.017L256.135 253.947C256.135 253.947 257.707 252.818 255.623 252.203Z" fill="#FFC2B0"/>
<path d="M256.19 254.989C262.664 254.989 267.912 250.541 267.912 245.053C267.912 239.565 262.664 235.116 256.19 235.116C249.717 235.116 244.469 239.565 244.469 245.053C244.469 250.541 249.717 254.989 256.19 254.989Z" fill="#FFC2B0"/>
<path d="M250.345 252.58C250.275 252.892 250.208 253.228 250.145 253.571C250.934 257.027 257.035 258.541 257.035 258.541L256.134 253.948C256.134 253.948 256.874 253.416 256.664 252.884C254.253 252.238 251.213 251.667 250.345 252.58Z" fill="#EA9C92"/>
<path d="M256.19 254.989C262.664 254.989 267.912 250.541 267.912 245.053C267.912 239.565 262.664 235.116 256.19 235.116C249.717 235.116 244.469 239.565 244.469 245.053C244.469 250.541 249.717 254.989 256.19 254.989Z" fill="#FFC2B0"/>
<path d="M227.31 287.114L228.622 313.706L233.208 314.106L236.192 290.169L227.31 287.114Z" fill="#FFC2B0"/>
<path d="M242.378 284.892C240.861 279.214 237.864 266.669 237.864 266.669L236.582 279.147C238.061 282.848 239.33 286.244 239.277 288.213C239.189 291.48 238.897 295.092 238.553 298.741L238.554 298.752C238.554 298.752 243.897 290.571 242.378 284.892Z" fill="#8A2AE3"/>
<path d="M234.05 262.1C234.05 262.1 230.384 263.288 228.308 272.836C226.233 282.385 224.681 291.948 228.381 293.181C232.08 294.414 235.172 295.341 236.26 292.786C237.347 290.233 238.022 277.927 238.158 273.502C238.294 269.076 238.494 262.975 234.05 262.1Z" fill="#B45EF4"/>
<path d="M292.546 295.865C292.546 295.865 294.532 296.483 295.967 297.809C297.144 298.896 297.789 299.818 298.305 300.469C299.447 301.913 300.409 305.036 299.713 305.424C299.017 305.813 295.034 300.197 294.392 301.503C293.749 302.81 294.397 304.017 293.574 304.037C292.75 304.057 289.887 298.391 287.636 296.636C285.385 294.879 292.546 295.865 292.546 295.865Z" fill="#FFC2B0"/>
<path d="M253.24 382.258C253.24 382.258 254.329 382.245 255.75 382.038L257.469 323.581L253.24 382.258Z" fill="#D8892B"/>
<path d="M228.658 313.483C228.658 313.483 227.446 319.689 227.628 321.678C227.809 323.666 229.066 326.945 230.018 326.875C230.97 326.807 230.049 318.881 231.722 319.671C233.395 320.46 233.571 321.814 234.329 321.337C235.086 320.858 233.008 314.085 233.562 311.147C234.117 308.209 228.658 313.483 228.658 313.483Z" fill="#FFC2B0"/>
<path d="M260.691 245.92C266.572 247.691 267.716 246.611 267.772 246.553C267.826 246.253 267.869 245.948 267.891 245.639C267.964 244.569 267.832 243.497 267.5 242.464L252.244 240.718C252.245 240.718 254.654 244.102 260.691 245.92Z" fill="#EA9C92"/>
<path d="M268.313 235.739C266.928 234.732 261.928 229.752 252.969 230.928C247.37 231.662 242.651 234.9 241.605 242.285C240.898 247.262 243.053 252.164 247.022 255.787C247.237 255.702 247.46 255.625 247.659 255.514C249.902 254.262 250.144 253.574 250.144 253.567L250.639 249.799C250.624 249.264 250.152 248.788 249.521 248.754C249.035 248.728 248.443 248.53 247.88 247.906C246.593 246.48 247.188 244.255 249.761 244.172C251.106 244.129 251.627 243.512 251.817 242.932C251.855 242.813 251.922 242.702 252.013 242.606C252.104 242.51 252.218 242.431 252.347 242.374C252.476 242.317 252.617 242.284 252.763 242.276C252.908 242.267 253.053 242.285 253.19 242.327C256.118 243.225 263.332 245.161 267.975 244.046C273.913 242.62 269.699 236.746 268.313 235.739Z" fill="#6614CF"/>
<path d="M261.633 250.409L265.22 249.574C265.22 249.574 263.508 251.856 261.009 252.439C258.51 253.021 258.121 251.228 258.121 251.228L261.633 250.409Z" fill="white"/>
<path opacity="0.5" d="M371.853 460.812L290.686 421.578C287.718 420.126 288.091 417.588 291.518 415.909L338.22 393.053C341.647 391.374 346.832 391.192 349.8 392.645L430.967 431.88C433.935 433.333 433.562 435.871 430.136 437.548L383.434 460.406C380.006 462.083 374.821 462.266 371.853 460.812Z" fill="#C4D9E8"/>
<path d="M438.202 418.673V258.038L362.871 241.324L348.996 234.533C345.812 232.974 340.25 233.17 336.573 234.969L323.627 241.305L283.448 241.285L295.345 396.356C295.255 397.411 295.949 398.429 297.479 399.177L372.654 447.264C375.838 448.822 381.4 448.627 385.078 446.827L435.177 422.307C437.298 421.269 438.322 419.924 438.202 418.673Z" fill="#396CAA"/>
<path d="M343.232 233.489C340.902 233.537 338.484 234.035 336.573 234.97L323.627 241.306L283.448 241.286V402.353C283.357 403.408 284.051 404.427 285.582 405.174L372.654 447.264C374.185 448.013 376.264 448.353 378.42 448.309L379.317 286.235L343.232 233.489Z" fill="#D4ECFF"/>
<path d="M373.454 447.596C376.201 448.593 380.173 448.538 383.384 447.5V284.319H373.454V447.596Z" fill="#5793CE"/>
<path d="M372.655 286.254L285.583 244.164C282.399 242.606 282.797 239.883 286.474 238.084L336.573 213.563C340.251 211.763 345.813 211.568 348.997 213.126L436.069 255.216C439.253 256.775 438.854 259.497 435.178 261.297L385.078 285.817C381.401 287.617 375.839 287.812 372.655 286.254Z" fill="#D4ECFF"/>
<path d="M435.178 258.31L385.078 282.831C381.401 284.631 375.839 284.827 372.655 283.268L285.583 241.178C284.872 240.83 284.351 240.423 283.993 239.983C282.899 241.475 283.396 243.095 285.583 244.165L372.655 286.254C375.839 287.813 381.401 287.617 385.078 285.817L435.178 261.298C438.035 259.899 438.903 257.945 437.659 256.411C437.16 257.092 436.33 257.747 435.178 258.31Z" fill="#FAFDFF"/>
<path d="M375.119 269.195L317.148 240.708C315.657 239.978 315.845 238.705 317.565 237.862L341.008 226.388C342.73 225.546 345.333 225.454 346.823 226.184L404.793 254.671C406.284 255.4 406.097 256.674 404.376 257.516L380.932 268.99C379.211 269.833 376.608 269.925 375.119 269.195Z" fill="#173D7A"/>
<path d="M343.821 241.989L340.462 240.345C340.255 240.243 340.281 240.068 340.52 239.95L343.763 238.363C344.001 238.246 344.361 238.234 344.568 238.334L347.927 239.979C348.134 240.079 348.107 240.255 347.869 240.373L344.626 241.96C344.387 242.077 344.027 242.09 343.821 241.989ZM355.044 247.459L351.684 245.815C351.478 245.714 351.504 245.537 351.743 245.421L354.986 243.833C355.224 243.716 355.584 243.704 355.791 243.805L359.15 245.449C359.356 245.55 359.33 245.726 359.092 245.842L355.849 247.43C355.611 247.547 355.25 247.559 355.044 247.459ZM366.265 252.929L362.906 251.285C362.7 251.185 362.726 251.008 362.964 250.891L366.208 249.304C366.446 249.187 366.806 249.175 367.013 249.276L370.371 250.92C370.578 251.021 370.552 251.197 370.314 251.314L367.07 252.901C366.833 253.018 366.472 253.03 366.265 252.929ZM377.489 258.4L374.129 256.755C373.922 256.654 373.949 256.479 374.187 256.362L377.431 254.775C377.669 254.658 378.028 254.646 378.235 254.746L381.594 256.39C381.801 256.491 381.775 256.667 381.536 256.784L378.293 258.371C378.056 258.488 377.695 258.501 377.489 258.4Z" fill="#D4ECFF"/>
<path d="M317.148 240.709L317.216 240.743C317.33 240.674 317.434 240.603 317.565 240.539L341.009 229.065C342.73 228.222 345.333 228.131 346.823 228.861L404.725 257.314C406.098 256.481 406.17 255.346 404.793 254.673L346.823 226.186C345.333 225.457 342.73 225.548 341.009 226.39L317.565 237.864C315.845 238.706 315.657 239.979 317.148 240.709ZM363.035 318.079L298.698 286.59C296.843 285.682 295.339 283.247 295.339 281.15V271.159C295.339 269.062 296.843 268.098 298.698 269.007L363.035 300.496C364.89 301.404 366.394 303.839 366.394 305.936V315.927C366.394 318.024 364.89 318.988 363.035 318.079Z" fill="#5793CE"/>
<path d="M358.169 309.246L355.146 307.766C354.743 307.569 354.413 307.038 354.413 306.581V303.843C354.413 303.386 354.742 303.176 355.146 303.374L358.169 304.854C358.573 305.052 358.902 305.582 358.902 306.04V308.777C358.902 309.234 358.573 309.444 358.169 309.246ZM348.06 304.298L345.036 302.818C344.632 302.62 344.304 302.09 344.304 301.632V298.894C344.304 298.437 344.631 298.227 345.036 298.425L348.06 299.905C348.464 300.102 348.792 300.633 348.792 301.09V303.829C348.791 304.286 348.464 304.496 348.06 304.298Z" fill="#173D7A"/>
<path d="M363.035 354.182L298.698 322.692C296.843 321.785 295.339 319.349 295.339 317.253V307.26C295.339 305.164 296.843 304.201 298.698 305.108L363.035 336.598C364.89 337.506 366.394 339.941 366.394 342.037V352.029C366.394 354.126 364.89 355.09 363.035 354.182Z" fill="#5793CE"/>
<path d="M358.17 345.349L355.147 343.869C354.743 343.671 354.414 343.14 354.414 342.683V339.945C354.414 339.488 354.742 339.278 355.147 339.476L358.17 340.956C358.574 341.154 358.903 341.684 358.903 342.141V344.879C358.902 345.337 358.574 345.546 358.17 345.349Z" fill="#173D7A"/>
<path d="M348.06 340.401L345.036 338.921C344.632 338.723 344.304 338.192 344.304 337.735V334.997C344.304 334.54 344.631 334.33 345.036 334.528L348.06 336.008C348.464 336.206 348.792 336.736 348.792 337.193V339.931C348.791 340.389 348.464 340.598 348.06 340.401Z" fill="#D4ECFF"/>
<path d="M363.035 390.285L298.698 358.795C296.843 357.887 295.339 355.453 295.339 353.355V343.364C295.339 341.267 296.843 340.303 298.698 341.212L363.035 372.7C364.89 373.608 366.394 376.045 366.394 378.14V388.132C366.394 390.229 364.89 391.192 363.035 390.285Z" fill="#5793CE"/>
<path d="M358.17 381.451L355.147 379.971C354.743 379.773 354.414 379.243 354.414 378.785V376.048C354.414 375.591 354.742 375.381 355.147 375.579L358.17 377.059C358.574 377.258 358.903 377.788 358.903 378.244V380.983C358.902 381.439 358.574 381.649 358.17 381.451Z" fill="#D4ECFF"/>
<path d="M348.06 376.504L345.036 375.024C344.632 374.826 344.304 374.295 344.304 373.838V371.101C344.304 370.643 344.631 370.434 345.036 370.632L348.06 372.112C348.464 372.309 348.792 372.839 348.792 373.298V376.035C348.791 376.492 348.464 376.702 348.06 376.504Z" fill="#173D7A"/>
<path d="M363.035 426.387L298.698 394.897C296.843 393.99 295.339 391.554 295.339 389.458V379.467C295.339 377.369 296.843 376.406 298.698 377.314L363.035 408.804C364.89 409.711 366.394 412.147 366.394 414.243V424.236C366.394 426.331 364.89 427.294 363.035 426.387Z" fill="#5793CE"/>
<path d="M358.169 417.555L355.146 416.075C354.743 415.877 354.413 415.345 354.413 414.889V412.151C354.413 411.694 354.742 411.484 355.146 411.683L358.169 413.162C358.573 413.36 358.902 413.89 358.902 414.347V417.086C358.902 417.542 358.573 417.752 358.169 417.555ZM348.06 412.607L345.036 411.126C344.632 410.928 344.304 410.397 344.304 409.941V407.203C344.304 406.746 344.631 406.536 345.036 406.734L348.06 408.213C348.464 408.411 348.792 408.942 348.792 409.399V412.136C348.791 412.594 348.464 412.804 348.06 412.607Z" fill="#D4ECFF"/>
<path d="M394.861 318.079L427.821 302.081C429.676 301.173 431.18 298.738 431.18 296.642V286.649C431.18 284.553 429.676 283.59 427.821 284.497L394.861 300.495C393.006 301.404 391.502 303.839 391.502 305.935V315.927C391.502 318.024 393.006 318.987 394.861 318.079ZM394.861 354.182L427.821 338.184C429.676 337.276 431.18 334.84 431.18 332.744V322.752C431.18 320.655 429.676 319.692 427.821 320.6L394.861 336.598C393.006 337.505 391.502 339.941 391.502 342.037V352.029C391.502 354.126 393.006 355.091 394.861 354.182ZM394.861 390.284L427.821 374.286C429.676 373.379 431.18 370.943 431.18 368.848V358.855C431.18 356.759 429.676 355.795 427.821 356.703L394.861 372.701C393.006 373.609 391.502 376.045 391.502 378.141V388.132C391.502 390.229 393.006 391.192 394.861 390.284ZM394.861 426.387L427.821 410.389C429.676 409.481 431.18 407.045 431.18 404.95V394.958C431.18 392.861 429.676 391.897 427.821 392.806L394.861 408.804C393.006 409.711 391.502 412.147 391.502 414.243V424.236C391.502 426.331 393.006 427.294 394.861 426.387Z" fill="#173D7A"/>
<path opacity="0.5" d="M185.688 453.284L159.733 440.581C158.139 439.801 158.34 438.439 160.179 437.539L185.242 425.272C187.081 424.372 189.863 424.274 191.457 425.054L217.412 437.757C219.005 438.537 218.805 439.899 216.965 440.799L191.903 453.066C190.064 453.966 187.281 454.064 185.688 453.284Z" fill="#C4D9E8"/>
<path d="M226.022 428.081V418.575L200.876 418.563L192.184 414.31C190.189 413.332 186.704 413.455 184.401 414.582L176.292 418.551L151.123 418.539V428.317C151.066 428.978 151.501 429.615 152.459 430.085L184.961 445.992C186.956 446.968 190.44 446.846 192.743 445.719L224.126 430.358C225.456 429.708 226.096 428.865 226.022 428.081Z" fill="#721BD5"/>
<path d="M188.573 413.654C187.113 413.684 185.598 413.996 184.401 414.582L176.292 418.551L151.123 418.539V428.317C151.066 428.978 151.501 429.616 152.459 430.085L184.961 445.992C185.919 446.462 187.222 446.674 188.573 446.646V413.654Z" fill="#983BE9"/>
<path d="M153.971 418.541L151.123 418.539V428.317C151.066 428.978 151.501 429.616 152.459 430.085L153.971 430.824L153.971 418.541Z" fill="#B45EF4"/>
<path d="M185.461 446.199C187.181 446.825 189.67 446.79 191.682 446.14V435.038H185.461V446.199Z" fill="#7E23DC"/>
<path d="M184.961 436.25L152.459 420.342C150.464 419.366 150.714 417.661 153.018 416.534L184.4 401.173C186.704 400.046 190.188 399.923 192.183 400.9L224.685 416.808C226.679 417.784 226.429 419.489 224.126 420.617L192.744 435.976C190.441 437.104 186.956 437.226 184.961 436.25Z" fill="#8A2AE3"/>
<path d="M185.546 433.386L158.309 420.056C156.638 419.238 156.847 417.809 158.778 416.864L185.078 403.992C187.007 403.047 189.928 402.945 191.599 403.763L218.836 417.094C220.508 417.912 220.298 419.34 218.368 420.285L192.069 433.158C190.138 434.102 187.218 434.205 185.546 433.386Z" fill="#6614CF"/>
<path d="M214.067 430.591C214.067 431.301 213.479 432.163 212.754 432.518C212.029 432.873 211.441 432.585 211.441 431.875C211.441 431.166 212.029 430.303 212.754 429.948C213.479 429.594 214.067 429.882 214.067 430.591ZM218.291 428.524C218.291 429.234 217.702 430.096 216.978 430.451C216.253 430.806 215.664 430.518 215.664 429.808C215.664 429.099 216.252 428.236 216.978 427.881C217.702 427.526 218.291 427.814 218.291 428.524ZM222.515 426.455C222.515 427.166 221.927 428.029 221.202 428.384C220.476 428.739 219.889 428.451 219.889 427.741C219.889 427.031 220.476 426.168 221.202 425.814C221.927 425.459 222.515 425.747 222.515 426.455Z" fill="#FF2C9C"/>
<path d="M226.022 412.664V403.157L200.876 403.146L192.184 398.892C190.189 397.916 186.704 398.037 184.401 399.164L176.292 403.134L151.123 403.121V412.899C151.066 413.56 151.501 414.198 152.459 414.667L184.961 430.574C186.956 431.55 190.44 431.428 192.743 430.3L224.126 414.941C225.456 414.29 226.096 413.448 226.022 412.664Z" fill="#721BD5"/>
<path d="M188.573 398.237C187.113 398.266 185.598 398.578 184.401 399.164L176.292 403.134L151.123 403.121V412.899C151.066 413.56 151.501 414.197 152.459 414.667L184.961 430.574C185.919 431.043 187.222 431.255 188.573 431.228V398.237Z" fill="#983BE9"/>
<path d="M153.971 403.123L151.123 403.121V412.898C151.066 413.56 151.501 414.197 152.459 414.667L153.971 415.407L153.971 403.123Z" fill="#B45EF4"/>
<path d="M185.461 430.782C187.181 431.406 189.67 431.372 191.682 430.722V419.62H185.461V430.782Z" fill="#7E23DC"/>
<path d="M184.961 420.832L152.459 404.924C150.464 403.947 150.714 402.242 153.018 401.115L184.4 385.755C186.704 384.627 190.188 384.505 192.183 385.482L224.685 401.389C226.679 402.365 226.429 404.07 224.126 405.198L192.743 420.558C190.441 421.685 186.956 421.808 184.961 420.832Z" fill="#8A2AE3"/>
<path d="M185.546 417.969L158.309 404.638C156.638 403.821 156.847 402.392 158.778 401.446L185.078 388.574C187.007 387.629 189.928 387.527 191.599 388.346L218.836 401.676C220.508 402.494 220.298 403.924 218.368 404.868L192.069 417.74C190.138 418.684 187.218 418.787 185.546 417.969Z" fill="#6614CF"/>
<path d="M214.067 415.172C214.067 415.882 213.479 416.746 212.754 417.099C212.029 417.455 211.441 417.167 211.441 416.458C211.441 415.748 212.029 414.885 212.754 414.529C213.479 414.174 214.067 414.462 214.067 415.172ZM218.291 413.105C218.291 413.814 217.702 414.678 216.978 415.033C216.253 415.388 215.664 415.1 215.664 414.39C215.664 413.68 216.252 412.817 216.978 412.462C217.702 412.107 218.291 412.395 218.291 413.105ZM222.515 411.038C222.515 411.747 221.927 412.611 221.202 412.965C220.476 413.32 219.889 413.033 219.889 412.323C219.889 411.613 220.476 410.75 221.202 410.395C221.927 410.04 222.515 410.328 222.515 411.038Z" fill="#FF2C9C"/>
<path d="M226.022 397.246V387.739L200.876 387.727L192.184 383.473C190.189 382.496 186.704 382.619 184.401 383.746L176.292 387.716L151.123 387.704V397.481C151.066 398.142 151.501 398.779 152.459 399.249L184.961 415.157C186.956 416.133 190.44 416.011 192.743 414.884L224.126 399.524C225.456 398.872 226.096 398.029 226.022 397.246Z" fill="#721BD5"/>
<path d="M188.573 382.819C187.113 382.849 185.598 383.16 184.401 383.746L176.292 387.716L151.123 387.704V397.481C151.066 398.142 151.501 398.78 152.459 399.249L184.961 415.157C185.919 415.626 187.222 415.839 188.573 415.811V382.819Z" fill="#983BE9"/>
<path d="M153.971 387.705L151.123 387.704V397.48C151.066 398.142 151.501 398.779 152.459 399.249L153.971 399.989L153.971 387.705Z" fill="#B45EF4"/>
<path d="M185.461 415.364C187.181 415.989 189.67 415.954 191.682 415.304V404.203H185.461V415.364Z" fill="#7E23DC"/>
<path d="M184.961 405.414L152.459 389.506C150.464 388.53 150.714 386.824 153.018 385.697L184.4 370.337C186.704 369.21 190.188 369.087 192.183 370.063L224.685 385.971C226.679 386.947 226.429 388.653 224.126 389.78L192.743 405.14C190.441 406.268 186.956 406.391 184.961 405.414Z" fill="#8A2AE3"/>
<path d="M224.127 387.909L192.744 403.269C190.441 404.398 186.955 404.52 184.961 403.543L152.459 387.636C152.014 387.417 151.687 387.162 151.463 386.887C150.778 387.821 151.089 388.836 152.459 389.506L184.961 405.414C186.955 406.39 190.44 406.268 192.743 405.14L224.126 389.78C225.916 388.904 226.459 387.681 225.68 386.719C225.368 387.146 224.849 387.556 224.127 387.909Z" fill="#B45EF4"/>
<path d="M214.067 399.754C214.067 400.464 213.479 401.326 212.754 401.681C212.029 402.036 211.441 401.749 211.441 401.039C211.441 400.329 212.029 399.466 212.754 399.112C213.479 398.757 214.067 399.045 214.067 399.754ZM218.291 397.687C218.291 398.397 217.702 399.26 216.978 399.615C216.253 399.97 215.664 399.682 215.664 398.972C215.664 398.262 216.252 397.399 216.978 397.044C217.702 396.69 218.291 396.977 218.291 397.687ZM222.515 395.619C222.515 396.329 221.927 397.193 221.202 397.548C220.476 397.903 219.889 397.615 219.889 396.905C219.889 396.194 220.476 395.332 221.202 394.977C221.927 394.623 222.515 394.91 222.515 395.619Z" fill="#FF2C9C"/>
<path d="M186.882 395.974L171.673 388.53C170.74 388.073 170.857 387.275 171.935 386.747L186.621 379.56C187.699 379.031 189.329 378.976 190.263 379.431L205.471 386.875C206.405 387.332 206.288 388.13 205.21 388.658L190.524 395.845C189.446 396.374 187.816 396.431 186.882 395.974Z" fill="#6614CF"/>
<path d="M188.339 389.742L186.235 388.712C186.106 388.649 186.122 388.538 186.271 388.465L188.303 387.47C188.451 387.397 188.677 387.389 188.807 387.453L190.911 388.482C191.04 388.545 191.024 388.656 190.875 388.729L188.844 389.724C188.693 389.796 188.467 389.804 188.339 389.742Z" fill="#FF2C9C"/>
<path d="M197.661 397.911L195.557 396.881C195.428 396.818 195.444 396.707 195.593 396.634L197.625 395.639C197.774 395.567 198 395.559 198.128 395.622L200.233 396.652C200.362 396.715 200.345 396.826 200.197 396.899L198.164 397.893C198.016 397.967 197.79 397.974 197.661 397.911ZM202.258 395.639L200.153 394.609C200.024 394.546 200.04 394.436 200.19 394.362L202.221 393.368C202.37 393.294 202.595 393.286 202.725 393.35L204.829 394.381C204.958 394.443 204.942 394.554 204.793 394.627L202.762 395.621C202.613 395.694 202.387 395.702 202.258 395.639Z" fill="#6614CF"/>
<path d="M206.855 393.367L204.751 392.337C204.622 392.274 204.638 392.163 204.787 392.09L206.819 391.095C206.969 391.022 207.193 391.014 207.323 391.077L209.427 392.107C209.556 392.17 209.54 392.281 209.391 392.354L207.36 393.349C207.21 393.422 206.985 393.43 206.855 393.367ZM171.673 388.53L171.716 388.55C171.787 388.508 171.853 388.464 171.935 388.423L186.621 381.236C187.699 380.708 189.33 380.651 190.263 381.108L205.429 388.53C206.289 388.008 206.335 387.297 205.472 386.875L190.263 379.431C189.33 378.974 187.699 379.031 186.621 379.559L171.935 386.747C170.857 387.276 170.739 388.073 171.673 388.53Z" fill="#B45EF4"/>
<path d="M175.247 422.841L162.088 416.401C161.278 416.003 160.62 414.938 160.62 414.021C160.62 413.105 161.278 412.683 162.088 413.079L175.247 419.52C176.058 419.917 176.716 420.982 176.716 421.899C176.716 422.816 176.058 423.238 175.247 422.841Z" fill="#6614CF"/>
<path d="M176.424 422.227L163.266 415.786C162.455 415.389 161.797 414.324 161.797 413.408C161.797 413.253 161.822 413.118 161.857 412.993C161.157 412.777 160.62 413.195 160.62 414.022C160.62 414.939 161.278 416.004 162.088 416.401L175.247 422.841C175.921 423.171 176.484 422.93 176.656 422.314C176.575 422.291 176.498 422.262 176.424 422.227Z" fill="#B45EF4"/>
<path d="M471.704 443.643C474.009 444.478 475.461 446.658 475.268 449C475.177 450.104 475.02 451.134 474.749 451.618C474.015 452.924 471.61 454.716 467.773 453.429C463.936 452.144 455.411 445.355 455.092 440.911C454.499 432.656 465.633 441.446 471.704 443.643ZM449.153 457.297C449.153 457.297 450.074 462.057 449.627 462.929C449.179 463.801 446.509 465.664 442.562 465.261C438.616 464.858 427.263 461.539 424.735 455.197C420.815 445.364 446.65 455.935 446.65 455.935L449.153 457.297Z" fill="#173D7A"/>
<path d="M438.058 381.21L437.18 455.51C437.273 458.095 439.27 460.277 441.955 460.661C442.286 460.709 442.642 460.747 443.022 460.776C445.741 460.977 447.325 459.989 448.228 458.95C448.961 458.108 449.345 457.041 449.401 455.95L450.52 424.232L456.105 395.873L463.834 446.065C463.958 447.423 464.724 448.678 465.956 449.37C466.809 449.848 467.964 450.219 469.481 450.18C471.693 450.124 473.229 449.12 474.165 448.224C474.909 447.514 475.3 446.539 475.285 445.537L472.221 415.337L471.081 376.818L438.058 381.21Z" fill="#0079D1"/>
<path d="M474.669 356.807C474.509 356.807 474.348 356.796 474.188 356.776L460.188 354.937C459.363 354.828 458.622 354.447 458.129 353.875C457.635 353.304 457.43 352.59 457.557 351.891C457.686 351.191 458.137 350.564 458.811 350.146C459.485 349.728 460.326 349.553 461.152 349.661L470.811 350.93L467.514 334.922C467.443 334.577 467.453 334.223 467.543 333.881C467.633 333.539 467.802 333.215 468.039 332.928C468.277 332.641 468.579 332.397 468.929 332.209C469.278 332.021 469.667 331.894 470.075 331.834C470.482 331.773 470.9 331.781 471.303 331.858C471.707 331.934 472.089 332.077 472.427 332.279C472.766 332.48 473.054 332.737 473.275 333.033C473.497 333.329 473.647 333.659 473.718 334.004L477.77 353.679C477.85 354.063 477.829 354.456 477.709 354.832C477.59 355.208 477.375 355.557 477.08 355.855C476.784 356.153 476.415 356.393 475.999 356.557C475.582 356.722 475.129 356.807 474.669 356.807Z" fill="#FFC2B0"/>
<path d="M461.888 318.84C461.888 318.84 466.567 318.608 472.597 329.139C478.629 339.669 470.368 342.996 470.368 342.996L461.888 318.84Z" fill="#983BE9"/>
<path d="M449.047 321.597C449.258 321.524 461.955 314.593 466.65 321.846C474.302 333.673 473.852 371.743 471.436 376.675C469.199 381.238 463.614 384.603 459.701 386.498C456.22 388.184 452.321 389.218 448.312 389.244C444.343 389.272 436.735 386.281 437.011 381.884C438.281 361.658 436.172 344.611 434.225 328.07C434.225 328.07 436.659 325.848 449.047 321.597Z" fill="#983BE9"/>
<path d="M429.015 362.897C429.383 362.883 429.743 362.805 430.074 362.667C431.001 362.286 431.661 361.483 431.827 360.534L437.864 345.612C438.133 344.071 434.961 338.061 433.342 337.806C431.721 337.552 427.617 340.277 427.348 341.818L425.866 355.152L410.966 348.936C409.419 348.245 408.139 346.841 407.224 348.139C406.309 349.436 406.673 351.192 408.036 352.064L427.241 362.42C427.748 362.75 428.376 362.919 429.015 362.897Z" fill="#FFC2B0"/>
<path d="M409.806 348.438L408.868 346.495C408.531 345.797 408.017 345.17 407.362 344.658L403.432 341.586C403.286 341.475 403.096 341.416 402.901 341.42C402.705 341.424 402.519 341.492 402.38 341.609C402.242 341.727 402.162 341.884 402.157 342.05C402.151 342.216 402.221 342.377 402.352 342.501L403.993 344.013C404.26 344.26 404.344 344.612 404.211 344.927L403.586 346.413C403.483 346.657 403.457 346.92 403.51 347.176C403.563 347.432 403.693 347.671 403.888 347.871L407.828 351.919L409.806 348.438Z" fill="#FFC2B0"/>
<path d="M434.225 328.07C434.225 328.07 425.749 333.608 424.447 350.468C424.447 350.468 424.263 352.337 429.162 353.458C434.061 354.58 437.409 351.368 437.409 351.368C437.409 351.368 443.109 340.176 434.225 328.07Z" fill="#983BE9"/>
<path d="M450.211 315.08L451.596 321.851C451.596 321.851 451.647 324.161 448.605 324.801C445.563 325.441 444.623 323.776 444.623 323.776L443.247 316.151L450.211 315.08Z" fill="#FFC2B0"/>
<path d="M433.771 315.34C437.061 320.745 444.323 323.101 449.989 320.601C455.656 318.102 457.582 311.694 454.293 306.289C451.003 300.884 443.742 298.529 438.075 301.029C432.407 303.528 430.481 309.935 433.771 315.34Z" fill="#FFC2B0"/>
<path d="M441.97 314.325C441.488 314.388 441.005 314.268 440.665 313.974C440.071 313.46 439.827 310.736 438.273 310.507C435.844 310.149 430.91 313.37 428.907 306.456C427.866 302.864 429.758 301.592 429.343 299.601C429.343 299.601 429.365 300.626 440.279 298.392C451.192 296.158 456.47 303.944 457.536 307.864C458.602 311.784 457.665 318.623 450.301 320.618C449.08 320.949 443.097 318.135 443.138 317.645C443.179 317.156 445.168 316.892 444.603 315.567C444.133 314.462 443.23 314.162 441.97 314.325Z" fill="#173D7A"/>
<path d="M456.106 395.873L463.835 446.065C463.959 447.422 464.725 448.678 465.958 449.369C466.16 449.482 466.382 449.588 466.618 449.686C465.015 448.665 460.329 406.537 459.463 401.85C458.596 397.162 456.106 395.873 456.106 395.873Z" fill="#D8892B"/>
<path d="M436.713 351.92L436.711 352.086C437.406 361.396 437.683 371.193 437.011 381.884C436.901 383.627 438.038 385.142 439.688 386.343C441.619 365.86 439.688 348.016 439.688 348.016C438.647 351.031 436.713 351.92 436.713 351.92Z" fill="#6614CF"/>
<path opacity="0.5" d="M316.236 472.827C303.787 478.92 283.6 478.92 271.15 472.827C258.699 466.733 258.699 456.852 271.149 450.758C283.598 444.665 303.785 444.665 316.236 450.76C328.687 456.853 328.687 466.734 316.236 472.827Z" fill="#C4D9E8"/>
<path d="M306.625 453.44C305.803 453.044 304.949 452.698 304.07 452.404L304.096 452.403L299.181 450.556L299.553 451.284C295.828 450.655 291.787 450.616 288.029 451.179L288.258 450.372L282.477 452.544L282.512 452.545C281.76 452.816 281.03 453.107 280.35 453.44C273.095 456.991 273.095 462.749 280.351 466.299C287.606 469.85 299.369 469.85 306.625 466.299C313.88 462.748 313.879 456.991 306.625 453.44Z" fill="#983BE9"/>
<path d="M299.643 456.793C296.244 458.456 290.731 458.456 287.332 456.792C283.932 455.129 283.932 452.431 287.332 450.767C290.731 449.103 296.244 449.104 299.643 450.767C303.042 452.431 303.042 455.129 299.643 456.793Z" fill="#8A2AE3"/>
<path d="M293.487 454.928C292.702 454.928 291.949 454.664 291.394 454.193C290.839 453.723 290.527 453.085 290.527 452.419V420.704H296.446V452.419C296.446 453.085 296.134 453.723 295.579 454.193C295.024 454.664 294.272 454.928 293.487 454.928Z" fill="#8A2AE3"/>
<path d="M295.57 421.855C294.39 422.431 292.478 422.431 291.297 421.855C290.117 421.277 290.117 420.34 291.297 419.764C292.477 419.186 294.389 419.186 295.57 419.764C296.748 420.341 296.748 421.277 295.57 421.855Z" fill="#983BE9"/>
<path d="M293.487 421.793C292.85 421.793 292.24 421.579 291.79 421.197C291.34 420.816 291.087 420.299 291.087 419.76V389.946H295.887V419.76C295.887 420.299 295.633 420.816 295.183 421.198C294.733 421.579 294.123 421.793 293.487 421.793Z" fill="#8A2AE3"/>
<path d="M327.984 405.567V404.401L329.93 404.162L332.108 402.781C332.46 402.558 333.134 402.535 333.543 402.736L335.15 403.522L336.743 403.328V404.51L336.735 404.511C336.727 404.645 336.608 404.778 336.369 404.868L331.297 406.783C330.895 406.935 330.326 406.917 329.967 406.741L328.278 405.915C328.084 405.82 327.992 405.693 327.992 405.567L327.984 405.567Z" fill="#B45EF4"/>
<path d="M328.194 404.087L332.108 401.604C332.46 401.38 333.134 401.36 333.543 401.559L336.463 402.987C336.871 403.188 336.828 403.518 336.37 403.691L331.298 405.605C330.896 405.758 330.327 405.739 329.968 405.564L328.279 404.737C327.921 404.562 327.885 404.284 328.194 404.087Z" fill="#8A2AE3"/>
<path d="M321.589 409.719C322.149 409.719 322.71 409.609 323.157 409.391L329.238 406.414C329.393 406.332 329.505 406.202 329.549 406.052C329.593 405.902 329.567 405.743 329.476 405.609C329.384 405.475 329.235 405.377 329.059 405.335C328.884 405.292 328.696 405.31 328.535 405.383L322.455 408.359C322.003 408.581 321.178 408.581 320.724 408.359L310.617 403.397C310.537 403.358 310.449 403.332 310.357 403.322C310.266 403.312 310.173 403.317 310.084 403.337C309.995 403.357 309.912 403.392 309.839 403.44C309.766 403.488 309.705 403.547 309.659 403.615C309.613 403.682 309.583 403.757 309.57 403.834C309.558 403.912 309.565 403.991 309.588 404.066C309.612 404.141 309.654 404.212 309.71 404.274C309.766 404.336 309.836 404.388 309.916 404.427L320.024 409.39C320.47 409.609 321.03 409.719 321.589 409.719Z" fill="#B45EF4"/>
<path d="M263.113 398.812L272.879 394L267.407 391.905L262.726 394.718L263.113 398.812Z" fill="url(#paint5_radial_4177_73734)"/>
<path d="M325.826 391.668C325.253 391.415 324.704 391.125 324.182 390.802L303.373 377.873C299.616 375.538 295.746 374.937 292.756 376.222C292.678 376.256 292.61 376.302 292.536 376.337L292.513 376.332L263.772 390.467L266.355 391.196L276.42 395.066L290.113 403.301L300.919 408.161L301.41 408.25C303.93 406.451 306.751 404.907 308.299 402.284C310.973 398.314 318.423 397.178 322.804 393.96C323.246 394.199 323.688 394.421 324.129 394.615C325.034 393.861 325.278 392.79 325.826 391.668Z" fill="#8A2AE3"/>
<path d="M334.955 385.838C334.509 385.838 334.104 385.971 333.776 386.187L333.771 386.181L305.645 399.982L306.673 403.548L307.728 403.121C306.118 405.251 303.647 406.652 301.409 408.25L304.589 408.82L332.133 395.234C332.26 395.187 332.391 395.148 332.514 395.094C332.888 394.932 333.243 394.74 333.575 394.523L333.623 394.498L333.606 394.5C335.702 393.127 336.887 390.739 336.887 387.757V387.477C336.887 387.042 336.683 386.626 336.321 386.318C335.959 386.011 335.467 385.838 334.955 385.838Z" fill="#721BD5"/>
<path d="M296.438 375.563C298.194 375.618 300.076 376.129 301.96 377.078C300.075 376.129 298.193 375.618 296.438 375.563Z" fill="#EAEAEA"/>
<path d="M309.248 401.094V400.814C309.248 400.379 309.044 399.962 308.682 399.655C308.319 399.348 307.828 399.175 307.315 399.175C306.802 399.175 306.311 399.348 305.948 399.655C305.586 399.962 305.382 400.379 305.382 400.814V401.094C305.382 403.284 304.561 404.893 303.127 405.509C301.508 406.203 299.047 405.693 296.545 404.137L275.734 391.21C272.532 389.22 269.25 388.503 266.499 389.127L283.686 380.673L263.772 390.467L266.355 391.196L276.42 395.065L290.113 403.3L300.919 408.161L301.41 408.25C303.93 406.451 306.751 404.907 308.298 402.284C308.563 401.889 308.889 401.529 309.243 401.185C309.243 401.154 309.248 401.125 309.248 401.094Z" fill="#B45EF4"/>
<path d="M300.908 409.624C298.63 409.625 296.124 408.839 293.664 407.312L272.853 394.384C270.352 392.829 267.892 392.317 266.271 393.012C264.838 393.628 264.016 395.236 264.016 397.428C264.016 397.862 263.813 398.279 263.45 398.586C263.088 398.894 262.596 399.066 262.083 399.066C261.571 399.066 261.079 398.894 260.717 398.586C260.354 398.279 260.15 397.862 260.15 397.428C260.15 393.958 261.744 391.284 264.523 390.09C267.512 388.806 271.382 389.407 275.14 391.74L295.95 404.669C298.453 406.223 300.914 406.735 302.533 406.04C303.966 405.424 304.788 403.816 304.788 401.625V401.345C304.788 400.91 304.991 400.493 305.354 400.186C305.716 399.879 306.208 399.706 306.721 399.706C307.233 399.706 307.725 399.879 308.088 400.186C308.45 400.493 308.654 400.91 308.654 401.345V401.625C308.654 405.094 307.06 407.769 304.281 408.963C303.248 409.405 302.11 409.624 300.908 409.624Z" fill="#983BE9"/>
<path d="M284.555 438.526C284.555 438.526 280.636 436.852 278.228 439.347C275.822 441.841 272.38 447.732 272.274 451.711C272.167 455.691 275.989 455.422 278.261 454.48C280.532 453.539 287.169 445.378 287.572 443.779C287.973 442.18 287.097 440.017 286.459 439.594C285.821 439.17 284.555 438.526 284.555 438.526Z" fill="#173D7A"/>
<path d="M285.409 437.725L285.59 441.168C285.629 441.9 285.194 442.598 284.443 442.959C283.757 443.288 282.764 443.541 281.419 443.358C278.467 442.955 278.202 442.24 277.992 438.798C277.781 435.357 285.409 437.725 285.409 437.725Z" fill="#E8A200"/>
<path d="M270.207 431.908C270.207 431.908 266.288 430.232 263.88 432.727C261.473 435.223 258.032 441.112 257.926 445.092C257.819 449.072 261.64 448.803 263.913 447.862C266.185 446.92 272.821 438.758 273.223 437.159C273.625 435.56 272.749 433.398 272.111 432.975C271.472 432.552 270.207 431.908 270.207 431.908Z" fill="#173D7A"/>
<path d="M271.063 431.107L271.243 434.549C271.282 435.282 270.848 435.979 270.095 436.34C269.411 436.67 268.417 436.922 267.072 436.738C264.119 436.337 263.856 435.621 263.645 432.18C263.435 428.739 271.063 431.107 271.063 431.107Z" fill="#E8A200"/>
<path d="M306.035 367.907C304.874 351.906 285.593 370.263 285.593 370.263L272.397 381.228L260.514 392.295C259.367 393.362 258.509 394.629 258 396.006C257.49 397.384 257.341 398.839 257.563 400.27L262.369 431.3C262.484 432.04 262.914 432.718 263.579 433.207C264.244 433.695 265.097 433.96 265.977 433.952C266.574 433.944 267.169 433.9 267.758 433.819C272.046 433.253 271.73 429.796 271.73 429.796L270.851 400.773L295.807 388.02C295.806 388.02 307.195 383.908 306.035 367.907Z" fill="#0079D1"/>
<path d="M320.382 374.004C319.223 358.004 299.942 376.359 299.942 376.359L286.744 387.323L274.862 398.391C273.715 399.458 272.857 400.725 272.347 402.103C271.838 403.48 271.688 404.936 271.91 406.367L276.717 437.396C276.832 438.136 277.262 438.814 277.927 439.303C278.592 439.791 279.445 440.056 280.324 440.048C280.921 440.041 281.516 439.996 282.105 439.915C286.393 439.349 286.078 435.892 286.078 435.892L285.199 406.87L310.154 394.116C310.153 394.116 321.542 390.006 320.382 374.004Z" fill="#0079D1"/>
<path d="M308.976 322.641C323.594 327.778 323.3 335.104 323.3 335.104C323.3 335.104 320.437 361.959 321.414 379.894C321.823 387.392 274.425 387.964 281.493 367.961C289.828 344.376 286.704 325.284 290.605 322.404C294.507 319.523 305.194 321.312 308.976 322.641Z" fill="#983BE9"/>
<path d="M304.991 332.105C309.023 332.985 312.912 331.659 313.676 329.143C314.44 326.627 311.791 323.873 307.759 322.993C303.727 322.113 299.838 323.439 299.074 325.955C298.309 328.471 300.959 331.225 304.991 332.105Z" fill="#FFC2B0"/>
<path d="M307.488 332.962C306.587 332.961 305.69 332.863 304.818 332.671C300.419 331.71 297.54 328.628 298.399 325.799C299.258 322.97 303.538 321.452 307.936 322.412C312.335 323.373 315.214 326.456 314.355 329.284C313.928 330.688 312.674 331.809 310.823 332.441C309.802 332.788 308.667 332.962 307.488 332.962ZM305.259 323.304C302.545 323.304 300.276 324.375 299.752 326.094C299.085 328.29 301.514 330.725 305.167 331.523C306.972 331.918 308.798 331.853 310.3 331.341C311.728 330.853 312.688 330.018 313.001 328.988C313.667 326.793 311.239 324.357 307.586 323.56C306.826 323.392 306.044 323.306 305.259 323.304Z" fill="white"/>
<path d="M303.115 322.082C303.115 322.082 303.241 322.578 302.988 326.506C302.909 327.74 308.008 328.894 309.326 327.776C310.644 326.658 310.116 325.496 310.432 321.295C310.75 317.093 303.115 322.082 303.115 322.082Z" fill="#FFC2B0"/>
<path d="M310.432 321.295C310.432 321.295 309.177 325.191 302.986 326.684L303.081 323.144L310.432 321.295Z" fill="#EA9C92"/>
<path d="M303.46 323.324C309.675 323.324 314.713 319.053 314.713 313.785C314.713 308.517 309.675 304.246 303.46 304.246C297.246 304.246 292.208 308.517 292.208 313.785C292.208 319.053 297.246 323.324 303.46 323.324Z" fill="#FFC2B0"/>
<path d="M306.043 314.135C306.043 314.135 299.848 316.385 295.558 316.411C291.269 316.437 292.214 313.391 292.214 313.391L304.949 311.832L306.043 314.135Z" fill="#EA9C92"/>
<path d="M294.28 314.728C294.28 314.728 299.677 312.786 304.411 313.596C305.524 313.786 306.556 314.291 307.272 315.037C307.507 315.281 307.803 315.504 308.139 315.568C308.978 315.729 310.352 312.776 311.984 312.709C313.615 312.642 314.705 313.621 313.367 315.437C312.029 317.253 312.481 319.285 313.097 319.576C313.712 319.868 320.242 315.628 314.483 305.956C308.723 296.283 294.092 301.493 291.816 303.453C291.816 303.453 289.419 305.224 287.469 303.648C287.469 303.649 285.283 317.526 294.28 314.728Z" fill="#FF2C9C"/>
<path d="M315.1 354.723V361.98C315.1 362.391 314.999 362.798 314.803 363.174C314.607 363.55 314.32 363.888 313.962 364.165L296.378 377.755L298.375 380.345L321.601 367.158C322.137 366.828 322.585 366.407 322.916 365.921C323.248 365.436 323.455 364.896 323.524 364.338L325.091 350.592L315.1 354.723Z" fill="#FFC2B0"/>
<path d="M322.063 331.475C322.063 331.475 327.397 338.276 329.385 356.178C329.385 356.178 320.272 358.677 315.101 357.259C309.928 355.84 322.063 331.475 322.063 331.475Z" fill="#983BE9"/>
<path d="M314.127 340.075C314.127 340.075 312.037 349.55 311.919 354.003C311.901 354.599 312.104 355.185 312.5 355.677C312.896 356.17 313.465 356.545 314.127 356.748V340.075Z" fill="#6614CF"/>
<path d="M309.564 387.191L305.678 386.756L280.59 374.477C279.785 374.084 278.38 374.132 277.451 374.587L259.674 383.285L257.323 383.021V385.005L257.326 385.006C257.31 385.267 257.485 385.518 257.865 385.704L286.298 399.62C287.102 400.013 288.506 399.963 289.435 399.51L308.796 390.037C309.318 389.781 309.58 389.451 309.564 389.142V387.191H309.564Z" fill="#173D7A"/>
<path d="M290.713 379.432L288.93 378.56H269.334L259.674 383.285L257.323 383.022V385.005L257.326 385.006C257.31 385.267 257.485 385.519 257.865 385.704L286.298 399.62C286.723 399.828 287.315 399.912 287.917 399.877L290.713 379.432Z" fill="#396CAA"/>
<path d="M258.366 383.138L257.323 383.021V385.005L257.326 385.006C257.31 385.267 257.485 385.518 257.865 385.704L258.366 385.949V383.138Z" fill="#5793CE"/>
<path d="M286.584 399.733C287.346 399.977 288.437 399.924 289.251 399.592V396.218H286.584V399.733Z" fill="#274F89"/>
<path d="M286.299 397.638L257.866 383.722C257.062 383.328 257.163 382.641 258.091 382.186L277.451 372.713C278.38 372.258 279.785 372.209 280.59 372.603L309.022 386.519C309.826 386.912 309.726 387.6 308.796 388.055L289.436 397.528C288.507 397.982 287.103 398.031 286.299 397.638Z" fill="white"/>
<path d="M285.817 395.528L262.176 383.957C261.507 383.629 261.592 383.058 262.364 382.68L272.737 377.734C273.509 377.356 274.679 377.316 275.347 377.643L298.988 389.214C299.657 389.541 299.572 390.113 298.801 390.491L288.427 395.437C287.655 395.814 286.487 395.855 285.817 395.528Z" fill="#D4ECFF"/>
<path d="M278.55 372.257L278.255 373.919C278.005 375.336 278.048 376.78 278.383 378.184L278.733 379.649C278.83 380.053 279.067 380.423 279.414 380.712C279.761 381.001 280.202 381.195 280.681 381.269C280.862 381.296 281.047 381.292 281.226 381.257C281.405 381.221 281.574 381.155 281.721 381.062C281.869 380.969 281.992 380.851 282.084 380.716C282.176 380.581 282.234 380.431 282.254 380.276L282.723 376.721C282.723 376.721 283.797 377.912 284.314 377.912C284.833 377.912 283.735 374.352 282.563 372.337C281.392 370.323 278.55 372.257 278.55 372.257Z" fill="#FFC2B0"/>
<path d="M288.188 345.825L285.137 350.943C284.415 352.153 283.99 353.475 283.888 354.829L282.564 372.338L278.55 372.256L276.728 352.594C276.672 351.986 276.707 351.375 276.831 350.775L278.913 340.805L288.188 345.825Z" fill="#FFC2B0"/>
<path d="M285.335 398.975L282.95 396.336L257.88 384.031C257.077 383.637 256.426 382.579 256.427 381.67L256.449 364.27L255.007 362.675L256.362 362.01L256.364 362.012C256.623 361.869 256.967 361.872 257.347 362.059L285.759 376.005C286.563 376.399 287.213 377.456 287.213 378.365L287.188 397.315C287.188 397.826 286.981 398.181 286.656 398.324L285.335 398.975Z" fill="#173D7A"/>
<path d="M267.997 388.997L266.216 388.122L256.439 373.725L256.449 364.27L255.007 362.675L256.362 362.01L256.364 362.012C256.623 361.869 256.967 361.872 257.347 362.059L285.759 376.005C286.184 376.213 286.565 376.607 286.83 377.066L267.997 388.997Z" fill="#396CAA"/>
<path d="M255.648 363.383L255.008 362.674L256.363 362.009L256.365 362.011C256.624 361.868 256.968 361.872 257.348 362.059L257.848 362.305L255.648 363.383Z" fill="#5793CE"/>
<path d="M286.017 376.158C286.648 376.596 287.138 377.424 287.204 378.188L284.427 379.547L283.097 377.588L286.017 376.158Z" fill="#274F89"/>
<path d="M284.406 376.669L255.993 362.725C255.19 362.33 254.536 362.747 254.536 363.656L254.512 382.606C254.51 383.514 255.16 384.571 255.964 384.966L284.377 398.911C285.18 399.305 285.833 398.888 285.834 397.98L285.859 379.03C285.86 378.121 285.209 377.064 284.406 376.669Z" fill="white"/>
<path d="M298.375 380.345L297.919 381.145C297.396 382.066 296.572 382.84 295.546 383.376L292.723 384.851C291.845 385.31 290.734 385.347 289.842 384.908L289.746 384.859C288.848 384.383 288.768 383.29 289.506 382.647L292.455 380.077C292.455 380.077 290.799 381.153 290.334 380.72C289.994 380.402 291.941 378.853 293.436 378.801C294.931 378.751 296.378 377.755 296.378 377.755L298.375 380.345Z" fill="#FFC2B0"/>
<path d="M290.898 322.366C290.898 322.366 280.086 332.338 275.725 341.487C275.725 341.487 279.422 347.134 288.471 349.349C297.521 351.565 290.898 322.366 290.898 322.366Z" fill="#983BE9"/>
<path d="M286.435 348.757L288.189 334.407L284.06 347.852C284.831 348.191 285.624 348.493 286.435 348.757Z" fill="#6614CF"/>
<path d="M298.996 320.353L296.091 319.677C296.091 319.677 297.477 321.527 299.503 321.998C301.528 322.469 301.843 321.016 301.843 321.016L298.996 320.353Z" fill="white"/>
<defs>
<filter id="filter0_b_4177_73734" x="-442.615" y="264.524" width="760.935" height="616.336" filterUnits="userSpaceOnUse" color-interpolation-filters="sRGB">
<feFlood flood-opacity="0" result="BackgroundImageFix"/>
<feGaussianBlur in="BackgroundImageFix" stdDeviation="3.70964"/>
<feComposite in2="SourceAlpha" operator="in" result="effect1_backgroundBlur_4177_73734"/>
<feBlend mode="normal" in="SourceGraphic" in2="effect1_backgroundBlur_4177_73734" result="shape"/>
</filter>
<filter id="filter1_b_4177_73734" x="-390.951" y="339.459" width="618.966" height="501.881" filterUnits="userSpaceOnUse" color-interpolation-filters="sRGB">
<feFlood flood-opacity="0" result="BackgroundImageFix"/>
<feGaussianBlur in="BackgroundImageFix" stdDeviation="3.70964"/>
<feComposite in2="SourceAlpha" operator="in" result="effect1_backgroundBlur_4177_73734"/>
<feBlend mode="normal" in="SourceGraphic" in2="effect1_backgroundBlur_4177_73734" result="shape"/>
</filter>
<filter id="filter2_b_4177_73734" x="-363.808" y="409.942" width="498.14" height="404.473" filterUnits="userSpaceOnUse" color-interpolation-filters="sRGB">
<feFlood flood-opacity="0" result="BackgroundImageFix"/>
<feGaussianBlur in="BackgroundImageFix" stdDeviation="3.70964"/>
<feComposite in2="SourceAlpha" operator="in" result="effect1_backgroundBlur_4177_73734"/>
<feBlend mode="normal" in="SourceGraphic" in2="effect1_backgroundBlur_4177_73734" result="shape"/>
</filter>
<linearGradient id="paint0_linear_4177_73734" x1="507" y1="567.231" x2="-56.3241" y2="63.369" gradientUnits="userSpaceOnUse">
<stop stop-color="#FFD700"/>
<stop offset="0.750282" stop-color="#FFE34B"/>
</linearGradient>
<linearGradient id="paint1_linear_4177_73734" x1="507" y1="567.231" x2="-56.3241" y2="63.369" gradientUnits="userSpaceOnUse">
<stop stop-color="#FFD700"/>
<stop offset="1" stop-color="#FFD700"/>
</linearGradient>
<radialGradient id="paint2_radial_4177_73734" cx="0" cy="0" r="1" gradientUnits="userSpaceOnUse" gradientTransform="translate(-72.639 585.85) rotate(88.4989) scale(400.509 496.672)">
<stop offset="1" stop-color="#E87F00"/>
</radialGradient>
<radialGradient id="paint3_radial_4177_73734" cx="0" cy="0" r="1" gradientUnits="userSpaceOnUse" gradientTransform="translate(-89.9634 601.053) rotate(88.4989) scale(324.299 402.163)">
<stop offset="1" stop-color="#FFAF66"/>
</radialGradient>
<radialGradient id="paint4_radial_4177_73734" cx="0" cy="0" r="1" gradientUnits="userSpaceOnUse" gradientTransform="translate(-121.534 620.701) rotate(88.4989) scale(259.439 321.731)">
<stop offset="1" stop-color="#FFD5A2"/>
</radialGradient>
<radialGradient id="paint5_radial_4177_73734" cx="0" cy="0" r="1" gradientUnits="userSpaceOnUse" gradientTransform="translate(198.517 392.646) scale(60.2917 51.1111)">
<stop stop-color="#01C8EF"/>
<stop offset="0.089" stop-color="#03BEE9"/>
<stop offset="0.239" stop-color="#08A5D7"/>
<stop offset="0.429" stop-color="#107BBB"/>
<stop offset="0.446" stop-color="#1177B8"/>
<stop offset="1" stop-color="#112564"/>
</radialGradient>
</defs>
</svg>
