<svg width="579" height="764" viewBox="0 0 579 764" fill="none" xmlns="http://www.w3.org/2000/svg">
<rect width="579" height="764" rx="16" fill="url(#paint0_linear_4554_24774)"/>
<mask id="mask0_4554_24774" style="mask-type:alpha" maskUnits="userSpaceOnUse" x="0" y="0" width="579" height="764">
<rect width="579" height="764" fill="url(#paint1_linear_4554_24774)"/>
</mask>
<g mask="url(#mask0_4554_24774)">
<ellipse cx="514.5" cy="777.5" rx="43.5" ry="41.5" fill="#E8A200"/>
<g filter="url(#filter0_b_4554_24774)">
<path d="M315.051 771.361C315.051 971.294 144.119 1136.72 -70.9744 1136.72C-286.068 1136.72 -457 971.294 -457 771.361C-457 571.429 -286.068 406 -70.9744 406C144.119 406 315.051 571.429 315.051 771.361Z" stroke="url(#paint2_radial_4554_24774)" stroke-opacity="0.7" stroke-width="80"/>
</g>
<g filter="url(#filter1_b_4554_24774)">
<path d="M211.92 795.228C211.92 952.561 77.2822 1083.46 -93.04 1083.46C-263.362 1083.46 -398 952.561 -398 795.228C-398 637.895 -263.362 507 -93.04 507C77.2822 507 211.92 637.895 211.92 795.228Z" stroke="url(#paint3_radial_4554_24774)" stroke-opacity="0.7" stroke-width="80"/>
</g>
<g filter="url(#filter2_b_4554_24774)">
<path d="M104.936 824.582C104.936 945.66 1.18692 1047.16 -131.032 1047.16C-263.251 1047.16 -367 945.66 -367 824.582C-367 703.504 -263.251 602 -131.032 602C1.18692 602 104.936 703.504 104.936 824.582Z" stroke="url(#paint4_radial_4554_24774)" stroke-opacity="0.7" stroke-width="80"/>
</g>
</g>
<rect x="68.084" y="654.525" width="48" height="16" rx="8" fill="#616161"/>
<rect opacity="0.6" x="124.084" y="654.525" width="16" height="16" rx="8" fill="#969696"/>
<rect opacity="0.6" x="148.084" y="654.525" width="16" height="16" rx="8" fill="#969696"/>
<path d="M75.3913 144.6C70.5913 144.6 66.8713 141.78 67.6513 128.34L73.2913 127.02C72.3913 136.44 73.7113 139.5 75.3913 139.5C77.1913 139.5 77.8513 138.12 77.8513 132.24C77.8513 127.86 77.1313 126.66 74.8512 124.68L72.2713 122.46C69.0313 119.7 67.9513 117.84 67.9513 111.78C67.9513 104.04 70.5913 101.4 75.5113 101.4C80.2513 101.4 83.1313 103.08 83.2513 114.42L77.7913 115.62C78.0313 108.48 77.0113 106.5 75.5113 106.5C73.8913 106.5 73.6513 108.48 73.6513 111.78C73.6513 115.32 73.9512 116.64 76.6513 118.8L79.2913 120.96C82.7113 123.78 83.5513 125.64 83.5513 131.76C83.5513 141.84 80.3713 144.6 75.3913 144.6ZM94.0142 144.6C90.8942 144.6 88.4342 143.28 88.4342 136.5V115.8H85.3742V111H88.4342V103.8L93.5342 100.2V111H97.0742V115.8H93.5342V136.2C93.5342 138.54 94.3142 139.5 95.5742 139.5C96.5942 139.5 96.9542 139.2 97.0742 139.08V144C96.7142 144.18 95.6942 144.6 94.0142 144.6ZM103.859 144.6C100.379 144.6 98.4589 142.38 98.4589 134.28C98.4589 127.08 101.039 125.28 103.679 123.6C105.959 122.16 107.999 121.38 107.999 118.38C107.999 117.18 107.699 114.9 106.019 114.9C104.039 114.9 103.319 117.36 103.979 120.84L98.8189 119.58C98.5189 113.34 101.279 110.4 106.019 110.4C111.059 110.4 113.099 113.7 113.099 117.36V137.64C113.099 139.56 113.579 139.86 114.239 139.86C114.659 139.86 115.019 139.68 115.259 139.44V143.7C114.479 144.3 113.279 144.6 112.019 144.6C109.439 144.6 108.539 142.98 108.179 140.52C107.579 142.68 106.319 144.6 103.859 144.6ZM105.839 139.8C107.039 139.8 107.999 138 107.999 136.38V125.64C107.099 126.3 106.319 126.96 105.719 127.44C103.979 128.88 103.739 130.68 103.739 134.16C103.739 138.18 104.459 139.8 105.839 139.8ZM122.443 118.98V144H117.343V111H122.443V113.82H122.623C122.803 112.92 124.063 110.4 126.343 110.4C127.183 110.4 127.723 110.64 128.023 111V116.34C127.483 115.86 126.763 115.5 125.743 115.5C124.063 115.5 122.443 116.52 122.443 118.98ZM137.549 144.6C134.429 144.6 131.969 143.28 131.969 136.5V115.8H128.909V111H131.969V103.8L137.069 100.2V111H140.609V115.8H137.069V136.2C137.069 138.54 137.849 139.5 139.109 139.5C140.129 139.5 140.489 139.2 140.609 139.08V144C140.249 144.18 139.229 144.6 137.549 144.6ZM151.806 153.9C150.186 153.9 148.926 153.54 148.326 153.12V148.2C149.286 148.98 150.186 149.1 151.146 149.1C152.946 149.1 154.566 147.96 154.986 145.68L155.286 144L149.886 111H155.286L157.806 134.46L160.326 111H165.726L160.266 144.3C159.006 151.86 155.526 153.9 151.806 153.9ZM173.985 144.6C169.725 144.6 166.665 142.56 166.665 127.5C166.665 112.44 169.725 110.4 173.985 110.4C178.245 110.4 181.305 112.32 181.305 127.5C181.305 142.68 178.245 144.6 173.985 144.6ZM173.985 140.1C175.485 140.1 176.025 137.58 176.025 127.5C176.025 117.42 175.485 114.9 173.985 114.9C172.485 114.9 171.945 117.36 171.945 127.5C171.945 137.64 172.485 140.1 173.985 140.1ZM188.876 144.6C185.936 144.6 184.316 142.5 184.316 138.6V111H189.416V136.02C189.416 138.3 189.956 140.1 191.456 140.1C193.076 140.1 193.616 138.3 193.616 136.02V111H198.716V144H193.616V141.24H193.436C192.896 142.5 191.516 144.6 188.876 144.6ZM207.404 118.98V144H202.304V111H207.404V113.82H207.584C207.764 112.92 209.024 110.4 211.304 110.4C212.144 110.4 212.684 110.64 212.984 111V116.34C212.444 115.86 211.724 115.5 210.704 115.5C209.024 115.5 207.404 116.52 207.404 118.98ZM232.936 144.6C230.776 144.6 229.636 143.4 228.736 141.24H228.556V144H223.456V100.5H228.556V113.76H228.736C229.456 111.9 230.476 110.4 232.936 110.4C235.876 110.4 238.276 112.44 238.276 127.5C238.276 142.56 235.876 144.6 232.936 144.6ZM230.776 140.1C232.276 140.1 232.996 137.64 232.996 127.5C232.996 117.36 232.276 114.9 230.776 114.9C229.276 114.9 228.556 117.42 228.556 127.5C228.556 137.58 229.276 140.1 230.776 140.1ZM245.829 144.6C242.889 144.6 241.269 142.5 241.269 138.6V111H246.369V136.02C246.369 138.3 246.909 140.1 248.409 140.1C250.029 140.1 250.569 138.3 250.569 136.02V111H255.669V144H250.569V141.24H250.389C249.849 142.5 248.469 144.6 245.829 144.6ZM265.677 144.6C259.557 144.6 257.997 139.98 258.417 131.7L263.697 131.04C263.277 136.26 263.517 140.1 265.677 140.1C266.697 140.1 267.897 139.14 267.897 135.6C267.897 131.82 267.057 130.38 264.957 129L262.977 127.74C261.117 126.54 258.777 124.08 258.777 119.34C258.777 114.36 260.397 110.4 266.397 110.4C271.797 110.4 273.177 113.64 272.997 121.44L267.777 122.28C268.317 116.1 267.477 114.9 265.917 114.9C264.717 114.9 264.057 115.92 264.057 119.34C264.057 122.1 265.137 123.18 266.337 123.9L269.157 125.64C270.957 126.72 273.177 129.42 273.177 134.76C273.177 142.02 269.937 144.6 265.677 144.6ZM275.598 102H281.298L280.998 108H275.898L275.598 102ZM275.898 111H280.998V144H275.898V111ZM293.87 118.98C293.87 116.7 293.33 114.9 291.83 114.9C290.21 114.9 289.67 116.7 289.67 118.98V144H284.57V111H289.67V113.76H289.85C290.39 112.5 291.77 110.4 294.41 110.4C297.35 110.4 298.97 112.5 298.97 116.4V144H293.87V118.98ZM309.161 144.6C304.901 144.6 301.841 142.56 301.841 127.5C301.841 112.44 304.901 110.4 309.161 110.4C313.421 110.4 316.481 112.32 316.481 127.5V128.4H307.121C307.181 137.82 307.721 140.1 309.161 140.1C310.421 140.1 311.021 138.36 310.901 131.82L316.301 132.9C315.641 143.16 312.821 144.6 309.161 144.6ZM309.161 114.9C307.901 114.9 307.301 116.7 307.181 123.6H311.141C311.021 116.76 310.421 114.9 309.161 114.9ZM325.911 144.6C319.791 144.6 318.231 139.98 318.651 131.7L323.931 131.04C323.511 136.26 323.751 140.1 325.911 140.1C326.931 140.1 328.131 139.14 328.131 135.6C328.131 131.82 327.291 130.38 325.191 129L323.211 127.74C321.351 126.54 319.011 124.08 319.011 119.34C319.011 114.36 320.631 110.4 326.631 110.4C332.031 110.4 333.411 113.64 333.231 121.44L328.011 122.28C328.551 116.1 327.711 114.9 326.151 114.9C324.951 114.9 324.291 115.92 324.291 119.34C324.291 122.1 325.371 123.18 326.571 123.9L329.391 125.64C331.191 126.72 333.411 129.42 333.411 134.76C333.411 142.02 330.171 144.6 325.911 144.6ZM342.552 144.6C336.432 144.6 334.872 139.98 335.292 131.7L340.572 131.04C340.152 136.26 340.392 140.1 342.552 140.1C343.572 140.1 344.772 139.14 344.772 135.6C344.772 131.82 343.932 130.38 341.832 129L339.852 127.74C337.992 126.54 335.652 124.08 335.652 119.34C335.652 114.36 337.272 110.4 343.272 110.4C348.672 110.4 350.052 113.64 349.872 121.44L344.652 122.28C345.192 116.1 344.352 114.9 342.792 114.9C341.592 114.9 340.932 115.92 340.932 119.34C340.932 122.1 342.012 123.18 343.212 123.9L346.032 125.64C347.832 126.72 350.052 129.42 350.052 134.76C350.052 142.02 346.812 144.6 342.552 144.6ZM370.925 144.6C368.765 144.6 367.625 143.4 366.725 141.24H366.545V144H361.445V100.5H366.545V113.76H366.725C367.445 111.9 368.465 110.4 370.925 110.4C373.865 110.4 376.265 112.44 376.265 127.5C376.265 142.56 373.865 144.6 370.925 144.6ZM368.765 140.1C370.265 140.1 370.985 137.64 370.985 127.5C370.985 117.36 370.265 114.9 368.765 114.9C367.265 114.9 366.545 117.42 366.545 127.5C366.545 137.58 367.265 140.1 368.765 140.1ZM379.091 153.9C377.471 153.9 376.211 153.54 375.611 153.12V148.2C376.571 148.98 377.471 149.1 378.431 149.1C380.231 149.1 381.851 147.96 382.271 145.68L382.571 144L377.171 111H382.571L385.091 134.46L387.611 111H393.011L387.551 144.3C386.291 151.86 382.811 153.9 379.091 153.9ZM410.528 144.6C406.268 144.6 403.208 142.56 403.208 127.5C403.208 112.44 406.268 110.4 410.528 110.4C414.788 110.4 417.848 112.32 417.848 127.5C417.848 142.68 414.788 144.6 410.528 144.6ZM410.528 140.1C412.028 140.1 412.568 137.58 412.568 127.5C412.568 117.42 412.028 114.9 410.528 114.9C409.028 114.9 408.488 117.36 408.488 127.5C408.488 137.64 409.028 140.1 410.528 140.1ZM430.159 118.98C430.159 116.7 429.619 114.9 428.119 114.9C426.499 114.9 425.959 116.7 425.959 118.98V144H420.859V111H425.959V113.76H426.139C426.679 112.5 428.059 110.4 430.699 110.4C433.639 110.4 435.259 112.5 435.259 116.4V144H430.159V118.98ZM445.45 144.6C441.19 144.6 438.13 142.56 438.13 127.5C438.13 112.44 441.19 110.4 445.45 110.4C449.71 110.4 452.77 112.32 452.77 127.5V128.4H443.41C443.47 137.82 444.01 140.1 445.45 140.1C446.71 140.1 447.31 138.36 447.19 131.82L452.59 132.9C451.93 143.16 449.11 144.6 445.45 144.6ZM445.45 114.9C444.19 114.9 443.59 116.7 443.47 123.6H447.43C447.31 116.76 446.71 114.9 445.45 114.9ZM74.5513 217.6C70.2913 217.6 67.2313 215.56 67.2313 200.5C67.2313 185.44 70.2913 183.4 74.5513 183.4C78.3313 183.4 81.2113 184.9 81.7513 196.06L76.5913 197.26C76.4713 189.88 75.8713 187.9 74.5513 187.9C73.0513 187.9 72.5113 190.36 72.5113 200.5C72.5113 210.64 73.0513 213.1 74.5513 213.1C75.8713 213.1 76.4713 211.06 76.5913 203.44L81.8113 204.46C81.2713 216.04 78.3913 217.6 74.5513 217.6ZM84.5305 173.5H89.6305V217H84.5305V173.5ZM92.9023 175H98.6023L98.3023 181H93.2023L92.9023 175ZM93.2023 184H98.3023V217H93.2023V184ZM108.594 217.6C104.334 217.6 101.274 215.56 101.274 200.5C101.274 185.44 104.334 183.4 108.594 183.4C112.374 183.4 115.254 184.9 115.794 196.06L110.634 197.26C110.514 189.88 109.914 187.9 108.594 187.9C107.094 187.9 106.554 190.36 106.554 200.5C106.554 210.64 107.094 213.1 108.594 213.1C109.914 213.1 110.514 211.06 110.634 203.44L115.854 204.46C115.314 216.04 112.434 217.6 108.594 217.6ZM123.673 194.38H123.853L129.013 184H134.893L128.593 194.62L134.893 217H129.373L125.293 200.14L123.673 202.9V217H118.573V173.5H123.673V194.38ZM137.032 223C138.592 221.44 140.392 218.86 140.392 217H137.032L136.672 211H142.492C142.672 212.32 142.792 213.64 142.792 215.02C142.792 217.84 142.312 219.94 139.792 223H137.032ZM161.797 217.6C157.537 217.6 154.477 215.56 154.477 200.5C154.477 185.44 157.537 183.4 161.797 183.4C166.057 183.4 169.117 185.32 169.117 200.5V201.4H159.757C159.817 210.82 160.357 213.1 161.797 213.1C163.057 213.1 163.657 211.36 163.537 204.82L168.937 205.9C168.277 216.16 165.457 217.6 161.797 217.6ZM161.797 187.9C160.537 187.9 159.937 189.7 159.817 196.6H163.777C163.657 189.76 163.057 187.9 161.797 187.9ZM179.992 217L177.772 203.74L175.552 217H170.152L174.052 200.2L170.152 184H175.372L177.772 196.54L180.172 184H185.392L181.432 200.2L185.392 217H179.992ZM196.667 217.6C194.207 217.6 193.187 216.1 192.467 214.24H192.287V226.3H187.187V184H192.287V186.76H192.467C193.367 184.6 194.507 183.4 196.667 183.4C200.507 183.4 202.007 185.44 202.007 200.5C202.007 215.56 200.507 217.6 196.667 217.6ZM194.507 213.1C196.007 213.1 196.727 210.64 196.727 200.5C196.727 190.36 196.007 187.9 194.507 187.9C193.007 187.9 192.287 190.42 192.287 200.5C192.287 210.58 193.007 213.1 194.507 213.1ZM204.999 173.5H210.099V217H204.999V173.5ZM220.391 217.6C216.131 217.6 213.071 215.56 213.071 200.5C213.071 185.44 216.131 183.4 220.391 183.4C224.651 183.4 227.711 185.32 227.711 200.5C227.711 215.68 224.651 217.6 220.391 217.6ZM220.391 213.1C221.891 213.1 222.431 210.58 222.431 200.5C222.431 190.42 221.891 187.9 220.391 187.9C218.891 187.9 218.351 190.36 218.351 200.5C218.351 210.64 218.891 213.1 220.391 213.1ZM235.822 191.98V217H230.722V184H235.822V186.82H236.002C236.182 185.92 237.442 183.4 239.722 183.4C240.562 183.4 241.102 183.64 241.402 184V189.34C240.862 188.86 240.142 188.5 239.122 188.5C237.442 188.5 235.822 189.52 235.822 191.98ZM249.629 217.6C245.369 217.6 242.309 215.56 242.309 200.5C242.309 185.44 245.369 183.4 249.629 183.4C253.889 183.4 256.949 185.32 256.949 200.5V201.4H247.589C247.649 210.82 248.189 213.1 249.629 213.1C250.889 213.1 251.489 211.36 251.369 204.82L256.769 205.9C256.109 216.16 253.289 217.6 249.629 217.6ZM249.629 187.9C248.369 187.9 247.769 189.7 247.649 196.6H251.609C251.489 189.76 250.889 187.9 249.629 187.9ZM273.312 217.6C269.832 217.6 267.912 215.38 267.912 207.28C267.912 200.08 270.492 198.28 273.132 196.6C275.412 195.16 277.452 194.38 277.452 191.38C277.452 190.18 277.152 187.9 275.472 187.9C273.492 187.9 272.772 190.36 273.432 193.84L268.272 192.58C267.972 186.34 270.732 183.4 275.472 183.4C280.512 183.4 282.552 186.7 282.552 190.36V210.64C282.552 212.56 283.032 212.86 283.692 212.86C284.112 212.86 284.472 212.68 284.712 212.44V216.7C283.932 217.3 282.732 217.6 281.472 217.6C278.892 217.6 277.992 215.98 277.632 213.52C277.032 215.68 275.772 217.6 273.312 217.6ZM275.292 212.8C276.492 212.8 277.452 211 277.452 209.38V198.64C276.552 199.3 275.772 199.96 275.172 200.44C273.432 201.88 273.192 203.68 273.192 207.16C273.192 211.18 273.912 212.8 275.292 212.8ZM286.796 173.5H291.896V217H286.796V173.5ZM295.468 173.5H300.568V217H295.468V173.5ZM319.952 217.6C316.832 217.6 314.372 216.28 314.372 209.5V188.8H311.312V184H314.372V176.8L319.472 173.2V184H323.012V188.8H319.472V209.2C319.472 211.54 320.252 212.5 321.512 212.5C322.532 212.5 322.892 212.2 323.012 212.08V217C322.652 217.18 321.632 217.6 319.952 217.6ZM334.416 191.98C334.416 189.7 333.876 187.9 332.376 187.9C330.756 187.9 330.216 189.7 330.216 191.98V217H325.116V173.5H330.216V186.76H330.396C330.936 185.5 332.376 183.4 334.956 183.4C337.896 183.4 339.516 185.5 339.516 189.4V217H334.416V191.98ZM349.708 217.6C345.448 217.6 342.388 215.56 342.388 200.5C342.388 185.44 345.448 183.4 349.708 183.4C353.968 183.4 357.027 185.32 357.027 200.5V201.4H347.668C347.728 210.82 348.268 213.1 349.708 213.1C350.968 213.1 351.568 211.36 351.448 204.82L356.848 205.9C356.188 216.16 353.368 217.6 349.708 217.6ZM349.708 187.9C348.448 187.9 347.848 189.7 347.728 196.6H351.688C351.568 189.76 350.968 187.9 349.708 187.9ZM375.13 217.6C369.01 217.6 367.45 212.98 367.87 204.7L373.15 204.04C372.73 209.26 372.97 213.1 375.13 213.1C376.15 213.1 377.35 212.14 377.35 208.6C377.35 204.82 376.51 203.38 374.41 202L372.43 200.74C370.57 199.54 368.23 197.08 368.23 192.34C368.23 187.36 369.85 183.4 375.85 183.4C381.25 183.4 382.63 186.64 382.45 194.44L377.23 195.28C377.77 189.1 376.93 187.9 375.37 187.9C374.17 187.9 373.51 188.92 373.51 192.34C373.51 195.1 374.59 196.18 375.79 196.9L378.61 198.64C380.41 199.72 382.63 202.42 382.63 207.76C382.63 215.02 379.39 217.6 375.13 217.6ZM392.071 217.6C387.811 217.6 384.751 215.56 384.751 200.5C384.751 185.44 387.811 183.4 392.071 183.4C396.331 183.4 399.391 185.32 399.391 200.5V201.4H390.031C390.091 210.82 390.631 213.1 392.071 213.1C393.331 213.1 393.931 211.36 393.811 204.82L399.211 205.9C398.551 216.16 395.731 217.6 392.071 217.6ZM392.071 187.9C390.811 187.9 390.211 189.7 390.091 196.6H394.051C393.931 189.76 393.331 187.9 392.071 187.9ZM407.502 191.98V217H402.402V184H407.502V186.82H407.682C407.862 185.92 409.122 183.4 411.402 183.4C412.242 183.4 412.782 183.64 413.082 184V189.34C412.542 188.86 411.822 188.5 410.802 188.5C409.122 188.5 407.502 189.52 407.502 191.98ZM413.968 184H419.248L422.488 209.14L425.728 184H431.008L425.608 217H419.368L413.968 184ZM432.805 175H438.505L438.205 181H433.105L432.805 175ZM433.105 184H438.205V217H433.105V184ZM448.497 217.6C444.237 217.6 441.177 215.56 441.177 200.5C441.177 185.44 444.237 183.4 448.497 183.4C452.277 183.4 455.157 184.9 455.697 196.06L450.537 197.26C450.417 189.88 449.817 187.9 448.497 187.9C446.997 187.9 446.457 190.36 446.457 200.5C446.457 210.64 446.997 213.1 448.497 213.1C449.817 213.1 450.417 211.06 450.537 203.44L455.757 204.46C455.217 216.04 452.337 217.6 448.497 217.6ZM465.196 217.6C460.936 217.6 457.876 215.56 457.876 200.5C457.876 185.44 460.936 183.4 465.196 183.4C469.456 183.4 472.516 185.32 472.516 200.5V201.4H463.156C463.216 210.82 463.756 213.1 465.196 213.1C466.456 213.1 467.056 211.36 466.936 204.82L472.336 205.9C471.676 216.16 468.856 217.6 465.196 217.6ZM465.196 187.9C463.936 187.9 463.336 189.7 463.216 196.6H467.176C467.056 189.76 466.456 187.9 465.196 187.9ZM481.947 217.6C475.827 217.6 474.267 212.98 474.687 204.7L479.967 204.04C479.547 209.26 479.787 213.1 481.947 213.1C482.967 213.1 484.167 212.14 484.167 208.6C484.167 204.82 483.327 203.38 481.227 202L479.247 200.74C477.387 199.54 475.047 197.08 475.047 192.34C475.047 187.36 476.667 183.4 482.667 183.4C488.067 183.4 489.447 186.64 489.267 194.44L484.047 195.28C484.587 189.1 483.747 187.9 482.187 187.9C480.987 187.9 480.327 188.92 480.327 192.34C480.327 195.1 481.407 196.18 482.607 196.9L485.427 198.64C487.227 199.72 489.447 202.42 489.447 207.76C489.447 215.02 486.207 217.6 481.947 217.6ZM492.167 175H497.747L497.207 207.4H492.707L492.167 175ZM492.287 211H497.687V217H492.287V211Z" fill="#1C1C1C"/>
<path opacity="0.5" d="M311.151 535.843C300.363 542.074 282.875 542.074 272.088 535.843C261.301 529.611 261.301 519.51 272.088 513.279C282.874 507.048 300.363 507.048 311.149 513.279C321.937 519.51 321.937 529.612 311.151 535.843ZM544.011 624.717C528.825 633.488 504.206 633.488 489.019 624.715C473.835 615.944 473.833 601.722 489.019 592.95C504.205 584.178 528.825 584.179 544.011 592.952C559.196 601.722 559.197 615.945 544.011 624.717Z" fill="#C4D9E8"/>
<path d="M275.779 328.436C275.779 328.436 276.5 343.297 277.63 353.284C278.76 363.271 302.8 345.613 302.8 345.613V334.242L275.779 328.436Z" fill="#6614CF"/>
<path d="M288.582 513.331C288.943 514.234 295.171 521.821 301.4 523.717C304.108 524.542 305.929 524.65 307.122 524.508C308.32 524.366 309.06 523.131 308.656 521.993C307.585 518.974 304.512 512.686 296.707 508.814C286.144 503.577 288.582 513.331 288.582 513.331ZM286.506 516.246C286.506 516.246 288.852 521.754 289.574 526.362C290.015 529.17 288.474 532.82 287.205 535.24C286.417 536.741 284.42 537.079 283.166 535.94C281.13 534.09 278.538 530.881 278.11 526.271C277.388 518.503 278.11 517.148 278.11 517.148L286.506 516.246Z" fill="#173D7A"/>
<path d="M271.502 422.363C271.502 422.363 270.689 432.162 271.502 443C272.314 453.838 275.223 504.526 275.765 516.719C275.765 516.719 275.494 520.411 282.636 519.598C289.779 518.785 289.204 514.686 289.204 514.686C289.204 514.686 299.235 514.551 299.552 508.635C299.868 502.718 309.825 437.99 309.825 414.718L271.502 422.363Z" fill="#0079D1"/>
<path d="M313.537 371.701L318.452 379.317L335.345 399.733C335.345 399.733 334.764 401.628 332.662 402.124C331.018 402.511 316.809 388.948 310.673 382.996C309.883 382.23 309.386 381.211 309.268 380.117C309.149 379.023 309.417 377.922 310.025 377.004L313.537 371.701Z" fill="#FFC2B0"/>
<path d="M303.947 340.44C303.947 340.44 311.753 340.238 314.472 351.527C317.19 362.817 319.316 376.952 316.951 378.126C309.856 381.653 305.365 377.526 305.365 377.526L303.947 340.44Z" fill="#8A2AE3"/>
<path d="M306.283 340.92C304.945 340.367 303.46 340.285 302.069 340.688C295.418 342.599 270.409 349.943 266.287 353.468C261.525 357.54 273.429 380.425 273.258 387.928C273.085 395.431 272.241 404.276 271.578 412.433C270.916 420.59 270.018 425.061 276.687 428.529C283.355 431.996 294.74 432.157 303.261 425.66C311.784 419.163 310.238 414.718 309.884 410.001C309.529 405.285 306.626 384.885 306.878 379.094C306.878 379.094 309.881 376.88 312.106 373.085C314.331 369.289 310.401 362.312 308.77 357.776C307.139 353.24 309.689 348.054 309.184 344.353C308.924 342.448 307.709 341.515 306.283 340.92Z" fill="#983BE9"/>
<path d="M289.848 357.39C295.037 356.725 298.816 352.845 298.289 348.724C297.761 344.602 293.127 341.8 287.937 342.465C282.748 343.129 278.969 347.01 279.496 351.131C280.024 355.253 284.658 358.055 289.848 357.39Z" fill="white"/>
<path d="M289.578 355.257C293.287 354.782 295.988 352.009 295.611 349.063C295.234 346.117 291.922 344.115 288.213 344.59C284.504 345.065 281.804 347.838 282.181 350.784C282.558 353.73 285.87 355.732 289.578 355.257Z" fill="#FFC2B0"/>
<path d="M291.923 339.394C291.923 339.394 287.407 335.678 286.521 337.56C285.634 339.442 284.902 347.515 284.902 347.515L293.869 349.925L292.508 341.744C292.508 341.744 294.303 340.222 291.923 339.394Z" fill="#FFC2B0"/>
<path d="M292.572 343.149C299.965 343.149 305.958 337.152 305.958 329.755C305.958 322.358 299.965 316.362 292.572 316.362C285.179 316.362 279.186 322.358 279.186 329.755C279.186 337.152 285.179 343.149 292.572 343.149Z" fill="#FFC2B0"/>
<path d="M285.896 339.901C285.817 340.322 285.741 340.774 285.668 341.236C286.569 345.895 293.537 347.936 293.537 347.936L292.508 341.745C292.508 341.745 293.353 341.028 293.113 340.31C290.359 339.44 286.889 338.67 285.896 339.901Z" fill="#EA9C92"/>
<path d="M292.572 343.149C299.965 343.149 305.958 337.152 305.958 329.755C305.958 322.358 299.965 316.362 292.572 316.362C285.179 316.362 279.186 322.358 279.186 329.755C279.186 337.152 285.179 343.149 292.572 343.149Z" fill="#FFC2B0"/>
<path d="M259.59 386.448L261.089 422.289L266.326 422.829L269.734 390.565L259.59 386.448Z" fill="#FFC2B0"/>
<path d="M276.799 383.453C275.066 375.8 271.643 358.891 271.643 358.891L270.18 375.709C271.869 380.697 273.318 385.275 273.258 387.928C273.157 392.332 272.823 397.2 272.43 402.118L272.431 402.134C272.431 402.134 278.534 391.106 276.799 383.453Z" fill="#8A2AE3"/>
<path d="M267.288 352.733C267.288 352.733 263.102 354.334 260.731 367.203C258.361 380.073 256.588 392.964 260.814 394.625C265.038 396.287 268.569 397.536 269.811 394.093C271.053 390.651 271.824 374.066 271.98 368.1C272.135 362.135 272.363 353.912 267.288 352.733Z" fill="#B45EF4"/>
<path d="M334.092 398.242C334.092 398.242 336.359 399.076 337.998 400.862C339.343 402.327 340.079 403.571 340.668 404.448C341.973 406.395 343.072 410.603 342.277 411.126C341.481 411.65 336.933 404.081 336.199 405.842C335.465 407.603 336.205 409.23 335.266 409.257C334.325 409.284 331.055 401.648 328.484 399.281C325.914 396.913 334.092 398.242 334.092 398.242Z" fill="#FFC2B0"/>
<path d="M289.203 514.686C289.203 514.686 290.447 514.669 292.069 514.389L294.033 435.599L289.203 514.686Z" fill="#D8892B"/>
<path d="M261.129 421.989C261.129 421.989 259.745 430.354 259.953 433.035C260.16 435.713 261.595 440.134 262.682 440.04C263.77 439.947 262.718 429.265 264.628 430.329C266.539 431.393 266.739 433.218 267.606 432.574C268.47 431.929 266.097 422.8 266.73 418.84C267.363 414.88 261.129 421.989 261.129 421.989Z" fill="#FFC2B0"/>
<path d="M297.713 330.924C304.429 333.311 305.736 331.856 305.799 331.777C305.861 331.373 305.91 330.962 305.935 330.545C306.019 329.104 305.868 327.659 305.488 326.266L288.066 323.913C288.067 323.913 290.818 328.474 297.713 330.924Z" fill="#EA9C92"/>
<path d="M306.417 317.201C304.835 315.844 299.125 309.133 288.894 310.717C282.5 311.707 277.11 316.071 275.915 326.025C275.108 332.733 277.57 339.34 282.102 344.223C282.348 344.109 282.603 344.005 282.83 343.855C285.392 342.167 285.667 341.24 285.667 341.232L286.233 336.152C286.215 335.431 285.676 334.789 284.957 334.744C284.401 334.709 283.725 334.442 283.082 333.601C281.613 331.678 282.291 328.681 285.23 328.568C286.766 328.51 287.361 327.678 287.578 326.897C287.621 326.737 287.698 326.587 287.802 326.458C287.906 326.328 288.036 326.222 288.183 326.145C288.331 326.069 288.492 326.023 288.658 326.012C288.824 326.001 288.99 326.024 289.146 326.081C292.49 327.291 300.729 329.901 306.031 328.398C312.812 326.477 308 318.559 306.417 317.201Z" fill="#6614CF"/>
<path d="M298.789 336.975L302.884 335.85C302.884 335.85 300.929 338.926 298.076 339.71C295.221 340.495 294.777 338.078 294.777 338.078L298.789 336.975Z" fill="white"/>
<path opacity="0.5" d="M424.662 620.565L331.968 567.684C328.578 565.726 329.004 562.305 332.918 560.043L386.252 529.235C390.165 526.974 396.087 526.728 399.476 528.686L492.17 581.568C495.559 583.526 495.134 586.947 491.221 589.208L437.886 620.017C433.972 622.278 428.051 622.524 424.662 620.565Z" fill="#C4D9E8"/>
<path d="M500.433 563.768V347.258L414.405 324.73L398.56 315.577C394.924 313.476 388.571 313.739 384.372 316.165L369.588 324.705L323.703 324.678L337.29 533.689C337.187 535.11 337.979 536.483 339.726 537.491L425.577 602.304C429.213 604.405 435.566 604.141 439.765 601.715L496.979 568.666C499.402 567.267 500.571 565.455 500.433 563.768Z" fill="#396CAA"/>
<path d="M391.976 314.169C389.315 314.234 386.554 314.905 384.371 316.165L369.587 324.705L323.702 324.678V541.771C323.598 543.192 324.391 544.566 326.139 545.574L425.576 602.304C427.325 603.314 429.699 603.772 432.161 603.712L433.186 385.262L391.976 314.169Z" fill="#D4ECFF"/>
<path d="M426.49 602.752C429.627 604.096 434.163 604.021 437.831 602.622V382.681H426.49V602.752Z" fill="#5793CE"/>
<path d="M425.576 385.288L326.139 328.559C322.503 326.458 322.957 322.788 327.157 320.363L384.371 287.313C388.57 284.887 394.923 284.624 398.559 286.724L497.996 343.454C501.632 345.555 501.177 349.224 496.978 351.65L439.764 384.7C435.565 387.126 429.212 387.389 425.576 385.288Z" fill="#D4ECFF"/>
<path d="M496.979 347.625L439.764 380.675C435.565 383.101 429.213 383.365 425.576 381.263L326.139 324.533C325.328 324.064 324.732 323.515 324.323 322.922C323.074 324.933 323.642 327.116 326.139 328.558L425.576 385.288C429.213 387.389 435.565 387.126 439.764 384.7L496.979 351.651C500.241 349.766 501.233 347.132 499.812 345.065C499.242 345.983 498.294 346.865 496.979 347.625Z" fill="#FAFDFF"/>
<path d="M428.39 362.296L362.186 323.9C360.484 322.917 360.698 321.2 362.663 320.065L389.435 304.6C391.401 303.464 394.374 303.341 396.075 304.325L462.278 342.72C463.981 343.703 463.768 345.42 461.802 346.555L435.029 362.02C433.063 363.157 430.091 363.28 428.39 362.296Z" fill="#173D7A"/>
<path d="M392.648 325.625L388.811 323.41C388.575 323.273 388.606 323.036 388.878 322.878L392.582 320.738C392.853 320.581 393.265 320.564 393.501 320.7L397.337 322.916C397.573 323.052 397.543 323.289 397.271 323.447L393.567 325.586C393.294 325.744 392.883 325.761 392.648 325.625ZM405.464 332.998L401.628 330.782C401.392 330.646 401.422 330.408 401.694 330.251L405.398 328.111C405.671 327.954 406.081 327.937 406.317 328.073L410.153 330.289C410.389 330.425 410.359 330.663 410.087 330.819L406.384 332.959C406.112 333.117 405.7 333.134 405.464 332.998ZM418.28 340.371L414.443 338.156C414.208 338.02 414.237 337.781 414.51 337.625L418.214 335.485C418.486 335.328 418.897 335.311 419.133 335.447L422.969 337.663C423.205 337.799 423.175 338.036 422.903 338.194L419.199 340.333C418.928 340.49 418.516 340.507 418.28 340.371ZM431.097 347.745L427.26 345.528C427.024 345.392 427.054 345.155 427.326 344.998L431.031 342.859C431.302 342.701 431.713 342.685 431.949 342.821L435.785 345.036C436.021 345.172 435.992 345.41 435.719 345.567L432.015 347.707C431.744 347.864 431.332 347.881 431.097 347.745Z" fill="#D4ECFF"/>
<path d="M362.185 323.9L362.263 323.946C362.393 323.853 362.512 323.757 362.662 323.672L389.435 308.206C391.401 307.07 394.373 306.947 396.075 307.931L462.199 346.282C463.767 345.158 463.85 343.629 462.278 342.721L396.075 304.325C394.373 303.342 391.401 303.465 389.435 304.6L362.662 320.065C360.697 321.201 360.483 322.917 362.185 323.9ZM414.59 428.183L341.115 385.741C338.997 384.517 337.279 381.235 337.279 378.408V364.941C337.279 362.115 338.997 360.817 341.115 362.041L414.59 404.483C416.708 405.708 418.425 408.99 418.425 411.816V425.283C418.425 428.109 416.708 429.408 414.59 428.183Z" fill="#5793CE"/>
<path d="M409.034 416.278L405.581 414.284C405.12 414.017 404.745 413.302 404.745 412.686V408.996C404.745 408.379 405.12 408.097 405.581 408.363L409.034 410.358C409.495 410.625 409.871 411.34 409.871 411.957V415.646C409.87 416.262 409.495 416.546 409.034 416.278ZM397.489 409.609L394.036 407.614C393.574 407.348 393.199 406.632 393.199 406.016V402.326C393.199 401.709 393.573 401.427 394.036 401.693L397.489 403.688C397.951 403.953 398.325 404.67 398.325 405.286V408.976C398.324 409.593 397.951 409.875 397.489 409.609Z" fill="#173D7A"/>
<path d="M414.59 476.845L341.115 434.402C338.997 433.179 337.279 429.895 337.279 427.07V413.601C337.279 410.776 338.997 409.478 341.115 410.701L414.59 453.144C416.708 454.368 418.425 457.65 418.425 460.476V473.944C418.425 476.77 416.708 478.069 414.59 476.845Z" fill="#5793CE"/>
<path d="M409.033 464.939L405.581 462.944C405.12 462.678 404.744 461.962 404.744 461.346V457.656C404.744 457.04 405.119 456.756 405.581 457.024L409.033 459.018C409.495 459.285 409.87 460 409.87 460.616V464.305C409.87 464.923 409.495 465.205 409.033 464.939Z" fill="#173D7A"/>
<path d="M397.489 458.269L394.036 456.275C393.574 456.007 393.199 455.293 393.199 454.677V450.986C393.199 450.37 393.573 450.087 394.036 450.354L397.489 452.348C397.951 452.615 398.325 453.33 398.325 453.946V457.636C398.324 458.253 397.951 458.536 397.489 458.269Z" fill="#D4ECFF"/>
<path d="M414.59 525.505L341.115 483.062C338.997 481.839 337.279 478.557 337.279 475.73V462.263C337.279 459.437 338.997 458.138 341.115 459.362L414.59 501.804C416.708 503.028 418.425 506.312 418.425 509.136V522.603C418.425 525.43 416.708 526.728 414.59 525.505Z" fill="#5793CE"/>
<path d="M409.033 513.599L405.581 511.604C405.12 511.338 404.744 510.623 404.744 510.006V506.316C404.744 505.7 405.119 505.417 405.581 505.684L409.033 507.679C409.495 507.947 409.87 508.662 409.87 509.277V512.967C409.87 513.583 409.495 513.866 409.033 513.599Z" fill="#D4ECFF"/>
<path d="M397.489 506.931L394.036 504.936C393.574 504.669 393.199 503.954 393.199 503.338V499.649C393.199 499.032 393.573 498.749 394.036 499.016L397.489 501.011C397.951 501.277 398.325 501.992 398.325 502.609V506.298C398.324 506.914 397.951 507.197 397.489 506.931Z" fill="#173D7A"/>
<path d="M414.59 574.165L341.115 531.722C338.997 530.499 337.279 527.216 337.279 524.391V510.924C337.279 508.097 338.997 506.799 341.115 508.023L414.59 550.466C416.708 551.689 418.425 554.972 418.425 557.797V571.266C418.425 574.089 416.708 575.388 414.59 574.165Z" fill="#5793CE"/>
<path d="M409.034 562.261L405.581 560.266C405.12 559.999 404.745 559.283 404.745 558.668V554.978C404.745 554.362 405.12 554.079 405.581 554.346L409.034 556.34C409.495 556.607 409.871 557.322 409.871 557.938V561.628C409.87 562.243 409.495 562.527 409.034 562.261ZM397.489 555.592L394.036 553.596C393.574 553.329 393.199 552.614 393.199 551.998V548.308C393.199 547.692 393.573 547.409 394.036 547.676L397.489 549.67C397.951 549.937 398.325 550.652 398.325 551.268V554.957C398.324 555.575 397.951 555.857 397.489 555.592Z" fill="#D4ECFF"/>
<path d="M450.935 428.183L488.576 406.621C490.694 405.397 492.412 402.114 492.412 399.289V385.821C492.412 382.996 490.694 381.697 488.576 382.921L450.935 404.483C448.817 405.708 447.1 408.99 447.1 411.816V425.283C447.1 428.109 448.817 429.408 450.935 428.183ZM450.935 476.845L488.576 455.281C490.694 454.058 492.412 450.775 492.412 447.949V434.482C492.412 431.655 490.694 430.357 488.576 431.581L450.935 453.143C448.817 454.367 447.1 457.65 447.1 460.475V473.943C447.1 476.77 448.817 478.069 450.935 476.845ZM450.935 525.505L488.576 503.942C490.694 502.719 492.412 499.436 492.412 496.611V483.143C492.412 480.317 490.694 479.019 488.576 480.242L450.935 501.805C448.817 503.028 447.1 506.312 447.1 509.137V522.604C447.1 525.43 448.817 526.728 450.935 525.505ZM450.935 574.165L488.576 552.603C490.694 551.379 492.412 548.096 492.412 545.271V531.803C492.412 528.977 490.694 527.678 488.576 528.904L450.935 550.466C448.817 551.689 447.1 554.972 447.1 557.797V571.266C447.1 574.089 448.817 575.388 450.935 574.165Z" fill="#173D7A"/>
<path opacity="0.5" d="M212.057 610.418L182.416 593.296C180.596 592.245 180.825 590.409 182.925 589.197L211.547 572.663C213.648 571.449 216.825 571.318 218.645 572.368L248.286 589.491C250.105 590.541 249.877 592.378 247.776 593.591L219.155 610.124C217.055 611.337 213.876 611.469 212.057 610.418Z" fill="#C4D9E8"/>
<path d="M258.119 576.449V563.636L229.402 563.62L219.475 557.887C217.197 556.57 213.218 556.735 210.588 558.255L201.326 563.604L172.584 563.588V576.766C172.519 577.657 173.015 578.517 174.11 579.15L211.227 600.59C213.505 601.905 217.484 601.741 220.115 600.222L255.954 579.518C257.472 578.641 258.204 577.506 258.119 576.449Z" fill="#721BD5"/>
<path d="M215.352 557.003C213.685 557.044 211.954 557.464 210.588 558.254L201.326 563.603L172.584 563.588V576.766C172.519 577.657 173.015 578.517 174.11 579.149L211.227 600.59C212.321 601.222 213.809 601.508 215.352 601.471V557.003Z" fill="#983BE9"/>
<path d="M175.837 563.59L172.584 563.588V576.766C172.519 577.657 173.015 578.517 174.11 579.149L175.836 580.146L175.837 563.59Z" fill="#B45EF4"/>
<path d="M211.799 600.869C213.763 601.712 216.606 601.665 218.903 600.789V585.826H211.799V600.869Z" fill="#7E23DC"/>
<path d="M211.228 587.459L174.11 566.017C171.832 564.702 172.118 562.404 174.748 560.885L210.588 540.181C213.218 538.661 217.197 538.496 219.475 539.813L256.593 561.254C258.871 562.569 258.585 564.867 255.955 566.388L220.116 587.09C217.486 588.61 213.506 588.774 211.228 587.459Z" fill="#8A2AE3"/>
<path d="M211.896 583.599L180.791 565.632C178.882 564.529 179.121 562.603 181.326 561.33L211.361 543.981C213.564 542.706 216.899 542.569 218.808 543.672L249.913 561.64C251.823 562.742 251.583 564.668 249.378 565.941L219.344 583.292C217.139 584.564 213.805 584.702 211.896 583.599Z" fill="#6614CF"/>
<path d="M244.467 579.831C244.467 580.788 243.796 581.95 242.968 582.428C242.14 582.908 241.469 582.519 241.469 581.562C241.469 580.606 242.14 579.443 242.968 578.964C243.796 578.487 244.467 578.875 244.467 579.831ZM249.291 577.045C249.291 578.002 248.619 579.164 247.791 579.643C246.963 580.122 246.291 579.733 246.291 578.776C246.291 577.82 246.963 576.657 247.791 576.178C248.619 575.701 249.291 576.088 249.291 577.045ZM254.115 574.258C254.115 575.215 253.443 576.378 252.615 576.857C251.787 577.335 251.116 576.947 251.116 575.99C251.116 575.033 251.787 573.87 252.615 573.392C253.443 572.914 254.115 573.302 254.115 574.258Z" fill="#FF2C9C"/>
<path d="M258.119 555.668V542.855L229.402 542.839L219.475 537.106C217.197 535.79 213.218 535.954 210.588 537.473L201.326 542.823L172.584 542.807V555.985C172.519 556.877 173.015 557.736 174.11 558.368L211.227 579.809C213.505 581.124 217.484 580.96 220.115 579.44L255.954 558.738C257.472 557.86 258.204 556.725 258.119 555.668Z" fill="#721BD5"/>
<path d="M215.352 536.224C213.685 536.263 211.954 536.683 210.588 537.473L201.326 542.823L172.584 542.807V555.985C172.519 556.877 173.015 557.736 174.11 558.368L211.227 579.809C212.321 580.441 213.809 580.727 215.352 580.69V536.224Z" fill="#983BE9"/>
<path d="M175.837 542.809L172.584 542.807V555.985C172.519 556.877 173.015 557.736 174.11 558.368L175.836 559.366L175.837 542.809Z" fill="#B45EF4"/>
<path d="M211.799 580.089C213.763 580.93 216.606 580.884 218.903 580.008V565.044H211.799V580.089Z" fill="#7E23DC"/>
<path d="M211.228 566.678L174.11 545.237C171.832 543.92 172.118 541.622 174.748 540.103L210.588 519.4C213.218 517.879 217.197 517.714 219.475 519.031L256.593 540.472C258.871 541.787 258.585 544.086 255.955 545.606L220.115 566.308C217.486 567.828 213.506 567.994 211.228 566.678Z" fill="#8A2AE3"/>
<path d="M211.896 562.819L180.791 544.851C178.882 543.749 179.121 541.823 181.326 540.549L211.361 523.199C213.564 521.926 216.899 521.788 218.808 522.891L249.913 540.859C251.823 541.961 251.583 543.888 249.378 545.161L219.344 562.511C217.139 563.783 213.805 563.921 211.896 562.819Z" fill="#6614CF"/>
<path d="M244.467 559.05C244.467 560.007 243.796 561.17 242.968 561.647C242.14 562.126 241.469 561.738 241.469 560.782C241.469 559.825 242.14 558.662 242.968 558.183C243.796 557.704 244.467 558.093 244.467 559.05ZM249.291 556.264C249.291 557.219 248.619 558.383 247.791 558.861C246.963 559.34 246.291 558.952 246.291 557.995C246.291 557.038 246.963 555.876 247.791 555.397C248.619 554.919 249.291 555.307 249.291 556.264ZM254.115 553.478C254.115 554.433 253.443 555.598 252.615 556.075C251.787 556.553 251.116 556.166 251.116 555.209C251.116 554.252 251.787 553.09 252.615 552.611C253.443 552.133 254.115 552.521 254.115 553.478Z" fill="#FF2C9C"/>
<path d="M258.119 534.887V522.073L229.402 522.057L219.475 516.324C217.197 515.007 213.218 515.172 210.588 516.691L201.326 522.042L172.584 522.026V535.204C172.519 536.095 173.015 536.954 174.11 537.588L211.227 559.028C213.505 560.344 217.484 560.18 220.115 558.661L255.954 537.958C257.472 537.08 258.204 535.943 258.119 534.887Z" fill="#721BD5"/>
<path d="M215.352 515.443C213.685 515.483 211.954 515.902 210.588 516.692L201.326 522.043L172.584 522.026V535.204C172.519 536.096 173.015 536.955 174.11 537.588L211.227 559.028C212.321 559.66 213.809 559.947 215.352 559.91V515.443Z" fill="#983BE9"/>
<path d="M175.837 522.028L172.584 522.026V535.204C172.519 536.096 173.015 536.955 174.11 537.588L175.836 538.585L175.837 522.028Z" fill="#B45EF4"/>
<path d="M211.799 559.308C213.763 560.15 216.606 560.103 218.903 559.227V544.265H211.799V559.308Z" fill="#7E23DC"/>
<path d="M211.228 545.897L174.11 524.455C171.832 523.14 172.118 520.841 174.748 519.321L210.588 498.619C213.218 497.1 217.197 496.933 219.475 498.249L256.593 519.691C258.871 521.006 258.585 523.305 255.955 524.825L220.115 545.528C217.486 547.048 213.506 547.213 211.228 545.897Z" fill="#8A2AE3"/>
<path d="M255.956 522.304L220.116 543.006C217.486 544.527 213.506 544.692 211.228 543.375L174.11 521.934C173.602 521.641 173.229 521.296 172.973 520.926C172.19 522.185 172.546 523.552 174.11 524.455L211.227 545.897C213.506 547.213 217.485 547.048 220.115 545.528L255.955 524.825C257.998 523.644 258.619 521.995 257.73 520.699C257.373 521.275 256.78 521.827 255.956 522.304Z" fill="#B45EF4"/>
<path d="M244.467 538.268C244.467 539.225 243.796 540.388 242.968 540.866C242.14 541.345 241.469 540.956 241.469 540C241.469 539.043 242.14 537.88 242.968 537.403C243.796 536.925 244.467 537.313 244.467 538.268ZM249.291 535.482C249.291 536.439 248.619 537.602 247.791 538.08C246.963 538.559 246.291 538.171 246.291 537.214C246.291 536.257 246.963 535.095 247.791 534.615C248.619 534.138 249.291 534.526 249.291 535.482ZM254.115 532.695C254.115 533.652 253.443 534.816 252.615 535.294C251.787 535.773 251.116 535.385 251.116 534.428C251.116 533.47 251.787 532.309 252.615 531.829C253.443 531.352 254.115 531.74 254.115 532.695Z" fill="#FF2C9C"/>
<path d="M213.423 533.174L196.053 523.14C194.988 522.524 195.121 521.449 196.353 520.737L213.124 511.05C214.355 510.337 216.217 510.262 217.283 510.877L234.652 520.91C235.718 521.526 235.585 522.601 234.353 523.313L217.581 533C216.351 533.712 214.489 533.79 213.423 533.174Z" fill="#6614CF"/>
<path d="M215.085 524.773L212.681 523.385C212.534 523.3 212.552 523.15 212.723 523.052L215.043 521.712C215.213 521.613 215.47 521.602 215.619 521.689L218.022 523.076C218.169 523.16 218.151 523.31 217.981 523.409L215.661 524.749C215.489 524.847 215.231 524.858 215.085 524.773Z" fill="#FF2C9C"/>
<path d="M225.731 535.785L223.328 534.396C223.181 534.311 223.199 534.162 223.369 534.063L225.689 532.722C225.86 532.625 226.118 532.614 226.265 532.699L228.668 534.087C228.815 534.172 228.796 534.321 228.627 534.42L226.306 535.76C226.137 535.859 225.878 535.869 225.731 535.785ZM230.98 532.722L228.577 531.333C228.43 531.249 228.448 531.1 228.619 531.001L230.939 529.661C231.109 529.561 231.366 529.551 231.514 529.637L233.917 531.026C234.064 531.11 234.046 531.259 233.876 531.358L231.556 532.698C231.386 532.796 231.128 532.807 230.98 532.722Z" fill="#6614CF"/>
<path d="M236.23 529.659L233.827 528.271C233.68 528.187 233.698 528.037 233.868 527.938L236.189 526.598C236.36 526.499 236.616 526.488 236.764 526.574L239.168 527.961C239.315 528.047 239.297 528.197 239.126 528.294L236.806 529.635C236.635 529.734 236.378 529.745 236.23 529.659ZM196.052 523.14L196.101 523.168C196.182 523.11 196.258 523.051 196.351 522.995L213.122 513.309C214.353 512.598 216.216 512.521 217.281 513.136L234.601 523.141C235.584 522.437 235.635 521.479 234.65 520.909L217.281 510.876C216.216 510.261 214.353 510.337 213.122 511.049L196.351 520.737C195.12 521.45 194.985 522.525 196.052 523.14Z" fill="#B45EF4"/>
<path d="M200.135 569.386L185.109 560.705C184.182 560.17 183.432 558.734 183.432 557.499C183.432 556.263 184.182 555.695 185.109 556.229L200.135 564.91C201.062 565.446 201.813 566.881 201.813 568.117C201.813 569.352 201.061 569.921 200.135 569.386Z" fill="#6614CF"/>
<path d="M201.478 568.558L186.451 559.877C185.525 559.341 184.774 557.907 184.774 556.671C184.774 556.462 184.802 556.28 184.842 556.112C184.042 555.821 183.43 556.384 183.43 557.499C183.43 558.734 184.18 560.17 185.107 560.705L200.133 569.386C200.904 569.831 201.546 569.506 201.743 568.675C201.651 568.644 201.562 568.605 201.478 568.558Z" fill="#B45EF4"/>
<path d="M538.692 597.424C541.324 598.549 542.981 601.488 542.762 604.644C542.658 606.132 542.479 607.521 542.169 608.172C541.331 609.933 538.585 612.348 534.202 610.614C529.82 608.882 520.085 599.731 519.72 593.741C519.043 582.614 531.758 594.462 538.692 597.424ZM512.938 615.827C512.938 615.827 513.99 622.242 513.479 623.419C512.968 624.594 509.919 627.104 505.411 626.561C500.905 626.019 487.939 621.545 485.052 612.997C480.576 599.743 510.08 613.991 510.08 613.991L512.938 615.827Z" fill="#173D7A"/>
<path d="M500.269 513.274L499.266 613.419C499.372 616.902 501.652 619.844 504.719 620.362C505.097 620.426 505.503 620.477 505.938 620.516C509.043 620.787 510.852 619.456 511.883 618.055C512.72 616.92 513.159 615.483 513.222 614.011L514.5 571.261L520.879 533.038L529.705 600.689C529.847 602.518 530.721 604.211 532.129 605.142C533.103 605.787 534.422 606.287 536.154 606.235C538.68 606.159 540.434 604.806 541.504 603.598C542.353 602.641 542.8 601.327 542.782 599.976L539.283 559.271L537.982 507.354L500.269 513.274Z" fill="#0079D1"/>
<path d="M542.078 480.382C541.895 480.382 541.712 480.368 541.528 480.34L525.54 477.862C524.598 477.716 523.752 477.201 523.189 476.431C522.625 475.661 522.391 474.699 522.536 473.756C522.684 472.813 523.198 471.968 523.968 471.404C524.737 470.841 525.698 470.606 526.641 470.751L537.672 472.461L533.907 450.885C533.826 450.42 533.837 449.943 533.94 449.482C534.042 449.021 534.235 448.584 534.507 448.198C534.778 447.811 535.123 447.482 535.522 447.229C535.921 446.975 536.366 446.803 536.831 446.723C537.297 446.641 537.773 446.652 538.234 446.755C538.695 446.858 539.131 447.051 539.518 447.323C539.904 447.594 540.233 447.94 540.486 448.339C540.739 448.738 540.911 449.183 540.992 449.648L545.62 476.167C545.71 476.684 545.686 477.214 545.55 477.721C545.414 478.228 545.168 478.698 544.831 479.1C544.493 479.502 544.072 479.825 543.597 480.046C543.121 480.268 542.603 480.382 542.078 480.382Z" fill="#FFC2B0"/>
<path d="M527.482 429.209C527.482 429.209 532.826 428.896 539.713 443.09C546.602 457.284 537.167 461.767 537.167 461.767L527.482 429.209Z" fill="#983BE9"/>
<path d="M512.818 432.924C513.059 432.827 527.56 423.485 532.921 433.261C541.66 449.202 541.146 500.514 538.386 507.161C535.832 513.311 529.454 517.847 524.985 520.402C521.009 522.674 516.557 524.067 511.979 524.103C507.446 524.14 498.757 520.109 499.073 514.182C500.524 486.921 498.114 463.945 495.891 441.65C495.891 441.65 498.671 438.655 512.818 432.924Z" fill="#983BE9"/>
<path d="M489.942 488.591C490.362 488.572 490.774 488.467 491.151 488.281C492.21 487.768 492.964 486.684 493.153 485.406L500.048 465.294C500.355 463.217 496.732 455.116 494.883 454.772C493.033 454.429 488.346 458.103 488.039 460.18L486.346 478.151L469.329 469.774C467.563 468.843 466.101 466.95 465.057 468.699C464.012 470.448 464.428 472.815 465.984 473.99L487.916 487.948C488.495 488.393 489.212 488.62 489.942 488.591Z" fill="#FFC2B0"/>
<path d="M468.002 469.102L466.93 466.484C466.545 465.543 465.958 464.698 465.211 464.008L460.722 459.867C460.556 459.718 460.339 459.638 460.116 459.644C459.892 459.65 459.68 459.741 459.522 459.899C459.364 460.057 459.272 460.27 459.266 460.493C459.26 460.716 459.34 460.934 459.489 461.1L461.364 463.139C461.668 463.471 461.765 463.946 461.613 464.371L460.898 466.373C460.781 466.703 460.751 467.057 460.811 467.402C460.872 467.746 461.02 468.069 461.243 468.339L465.743 473.795L468.002 469.102Z" fill="#FFC2B0"/>
<path d="M495.89 441.65C495.89 441.65 486.21 449.114 484.724 471.838C484.724 471.838 484.513 474.358 490.108 475.869C495.703 477.381 499.526 473.052 499.526 473.052C499.526 473.052 506.036 457.967 495.89 441.65Z" fill="#983BE9"/>
<path d="M514.146 424.141L515.728 433.267C515.728 433.267 515.786 436.381 512.313 437.243C508.838 438.106 507.765 435.861 507.765 435.861L506.193 425.584L514.146 424.141Z" fill="#FFC2B0"/>
<path d="M495.373 424.492C499.13 431.777 507.423 434.951 513.895 431.583C520.366 428.215 522.566 419.577 518.809 412.293C515.052 405.007 506.76 401.833 500.288 405.202C493.816 408.57 491.616 417.207 495.373 424.492Z" fill="#FFC2B0"/>
<path d="M504.735 423.123C504.185 423.208 503.634 423.047 503.245 422.649C502.566 421.958 502.289 418.285 500.514 417.977C497.74 417.495 492.104 421.835 489.817 412.518C488.628 407.675 490.789 405.961 490.316 403.277C490.316 403.277 490.341 404.659 502.804 401.648C515.267 398.637 521.295 409.132 522.512 414.415C523.729 419.699 522.659 428.915 514.249 431.606C512.856 432.052 506.023 428.258 506.07 427.598C506.116 426.938 508.387 426.583 507.742 424.797C507.205 423.308 506.174 422.903 504.735 423.123Z" fill="#173D7A"/>
<path d="M520.879 533.037L529.705 600.688C529.847 602.517 530.722 604.21 532.129 605.142C532.361 605.293 532.613 605.437 532.884 605.568C531.053 604.193 525.702 547.411 524.712 541.094C523.722 534.775 520.879 533.037 520.879 533.037Z" fill="#D8892B"/>
<path d="M498.733 473.795L498.73 474.019C499.524 486.567 499.84 499.773 499.073 514.183C498.948 516.531 500.246 518.574 502.13 520.193C504.335 492.584 502.13 468.533 502.13 468.533C500.942 472.597 498.733 473.795 498.733 473.795Z" fill="#6614CF"/>
<path opacity="0.5" d="M361.144 636.759C346.926 644.972 323.873 644.972 309.654 636.759C295.436 628.545 295.435 615.228 309.654 607.015C323.871 598.802 346.925 598.802 361.143 607.016C375.362 615.229 375.362 628.547 361.144 636.759Z" fill="#C4D9E8"/>
<path d="M350.169 610.628C349.23 610.095 348.255 609.629 347.251 609.232L347.281 609.231L341.668 606.741L342.092 607.723C337.839 606.875 333.223 606.822 328.932 607.581L329.194 606.494L322.592 609.42L322.631 609.422C321.773 609.787 320.939 610.18 320.163 610.628C311.878 615.414 311.878 623.175 320.164 627.96C328.449 632.746 341.883 632.746 350.169 627.96C358.454 623.174 358.454 615.415 350.169 610.628Z" fill="#983BE9"/>
<path d="M342.196 615.148C338.314 617.39 332.018 617.39 328.136 615.147C324.254 612.905 324.254 609.268 328.136 607.025C332.018 604.782 338.314 604.784 342.196 607.025C346.078 609.268 346.078 612.905 342.196 615.148Z" fill="#8A2AE3"/>
<path d="M335.165 612.634C334.268 612.634 333.409 612.278 332.775 611.644C332.141 611.01 331.785 610.15 331.785 609.253V566.505H338.544V609.253C338.544 610.15 338.188 611.01 337.554 611.644C336.921 612.278 336.061 612.634 335.165 612.634Z" fill="#8A2AE3"/>
<path d="M337.545 568.057C336.197 568.834 334.013 568.834 332.665 568.057C331.317 567.278 331.317 566.015 332.665 565.238C334.012 564.46 336.196 564.46 337.545 565.238C338.89 566.016 338.89 567.278 337.545 568.057Z" fill="#983BE9"/>
<path d="M335.164 567.973C334.438 567.973 333.741 567.684 333.227 567.171C332.713 566.657 332.424 565.96 332.424 565.233V525.048H337.905V565.233C337.905 565.96 337.616 566.657 337.102 567.171C336.588 567.685 335.891 567.973 335.164 567.973Z" fill="#8A2AE3"/>
<path d="M374.561 546.104V544.532L376.782 544.21L379.269 542.348C379.672 542.047 380.441 542.017 380.908 542.287L382.744 543.348L384.563 543.085V544.679L384.554 544.68C384.544 544.861 384.409 545.04 384.136 545.16L378.343 547.742C377.885 547.947 377.235 547.923 376.825 547.686L374.896 546.572C374.674 546.444 374.57 546.273 374.57 546.103L374.561 546.104Z" fill="#B45EF4"/>
<path d="M374.8 544.108L379.27 540.762C379.672 540.46 380.442 540.432 380.909 540.701L384.243 542.627C384.709 542.896 384.66 543.341 384.137 543.574L378.344 546.155C377.886 546.36 377.236 546.335 376.826 546.099L374.897 544.985C374.489 544.749 374.447 544.373 374.8 544.108Z" fill="#8A2AE3"/>
<path d="M367.258 551.699C367.898 551.699 368.538 551.551 369.048 551.257L375.993 547.244C376.17 547.134 376.297 546.96 376.348 546.757C376.399 546.555 376.369 546.341 376.264 546.16C376.16 545.98 375.989 545.847 375.789 545.79C375.588 545.733 375.373 545.757 375.19 545.855L368.246 549.867C367.731 550.166 366.788 550.166 366.27 549.867L354.727 543.178C354.636 543.125 354.535 543.091 354.431 543.077C354.327 543.064 354.221 543.071 354.119 543.098C354.017 543.125 353.922 543.172 353.839 543.237C353.755 543.301 353.685 543.381 353.633 543.472C353.58 543.563 353.546 543.664 353.532 543.768C353.518 543.872 353.525 543.978 353.553 544.08C353.58 544.182 353.627 544.277 353.691 544.361C353.756 544.444 353.836 544.514 353.927 544.566L365.47 551.256C365.979 551.551 366.619 551.699 367.258 551.699Z" fill="#B45EF4"/>
<path d="M300.478 536.999L311.631 530.512L305.382 527.688L300.035 531.481L300.478 536.999Z" fill="url(#paint5_radial_4554_24774)"/>
<path d="M372.097 527.37C371.442 527.028 370.815 526.638 370.219 526.202L346.454 508.776C342.164 505.628 337.745 504.819 334.33 506.551C334.241 506.596 334.163 506.659 334.078 506.706L334.053 506.699L301.23 525.751L304.18 526.733L315.674 531.949L331.312 543.048L343.652 549.6L344.213 549.72C347.09 547.295 350.312 545.214 352.08 541.678C355.134 536.327 363.642 534.796 368.645 530.459C369.15 530.781 369.655 531.08 370.158 531.341C371.192 530.326 371.47 528.881 372.097 527.37Z" fill="#8A2AE3"/>
<path d="M382.523 519.511C382.013 519.511 381.55 519.691 381.177 519.982L381.171 519.974L349.051 538.576L350.224 543.382L351.429 542.806C349.591 545.678 346.769 547.566 344.213 549.72L347.844 550.488L379.3 532.176C379.444 532.113 379.594 532.059 379.735 531.987C380.162 531.768 380.567 531.51 380.947 531.217L381.001 531.184L380.982 531.187C383.376 529.337 384.729 526.118 384.729 522.098V521.72C384.728 521.135 384.496 520.573 384.082 520.159C383.669 519.745 383.108 519.512 382.523 519.511Z" fill="#721BD5"/>
<path d="M338.537 505.663C340.542 505.737 342.691 506.425 344.843 507.705C342.69 506.425 340.541 505.736 338.537 505.663Z" fill="#EAEAEA"/>
<path d="M353.164 540.074V539.696C353.164 539.111 352.932 538.549 352.518 538.135C352.104 537.72 351.542 537.488 350.957 537.488C350.371 537.488 349.81 537.72 349.396 538.135C348.982 538.549 348.749 539.111 348.749 539.696V540.074C348.749 543.026 347.812 545.195 346.174 546.025C344.325 546.96 341.514 546.272 338.657 544.176L314.891 526.752C311.233 524.07 307.486 523.104 304.344 523.944L323.972 512.55L301.23 525.751L304.18 526.733L315.674 531.949L331.312 543.048L343.652 549.6L344.213 549.72C347.09 547.295 350.312 545.214 352.079 541.678C352.382 541.146 352.754 540.66 353.158 540.197C353.158 540.155 353.164 540.116 353.164 540.074Z" fill="#B45EF4"/>
<path d="M343.642 551.571C341.04 551.572 338.178 550.513 335.369 548.454L311.602 531.03C308.746 528.935 305.937 528.244 304.086 529.181C302.449 530.011 301.511 532.179 301.511 535.132C301.511 535.718 301.278 536.28 300.864 536.694C300.45 537.108 299.889 537.341 299.303 537.341C298.718 537.341 298.156 537.108 297.742 536.694C297.328 536.28 297.096 535.718 297.096 535.132C297.096 530.455 298.915 526.851 302.089 525.242C305.502 523.512 309.922 524.322 314.214 527.467L337.98 544.892C340.838 546.987 343.649 547.677 345.497 546.741C347.134 545.91 348.072 543.743 348.072 540.789V540.412C348.072 539.826 348.305 539.264 348.719 538.85C349.133 538.436 349.694 538.203 350.28 538.203C350.865 538.203 351.427 538.436 351.841 538.85C352.255 539.264 352.487 539.826 352.487 540.412V540.789C352.487 545.466 350.667 549.07 347.494 550.68C346.313 551.276 345.014 551.571 343.642 551.571Z" fill="#983BE9"/>
<path d="M324.964 590.527C324.964 590.527 320.488 588.27 317.738 591.633C314.99 594.994 311.06 602.934 310.938 608.297C310.816 613.662 315.182 613.3 317.775 612.03C320.369 610.761 327.948 599.762 328.408 597.606C328.867 595.451 327.866 592.536 327.138 591.965C326.409 591.395 324.964 590.527 324.964 590.527Z" fill="#173D7A"/>
<path d="M325.94 589.448L326.147 594.088C326.192 595.074 325.695 596.015 324.837 596.502C324.054 596.945 322.919 597.286 321.384 597.04C318.013 596.496 317.71 595.533 317.47 590.894C317.229 586.256 325.94 589.448 325.94 589.448Z" fill="#E8A200"/>
<path d="M308.58 581.607C308.58 581.607 304.104 579.347 301.355 582.71C298.606 586.074 294.677 594.012 294.555 599.376C294.433 604.741 298.797 604.378 301.393 603.11C303.987 601.84 311.566 590.839 312.025 588.684C312.483 586.528 311.484 583.615 310.755 583.045C310.025 582.475 308.58 581.607 308.58 581.607Z" fill="#173D7A"/>
<path d="M309.556 580.527L309.762 585.166C309.806 586.154 309.311 587.093 308.451 587.581C307.67 588.024 306.535 588.365 304.998 588.117C301.627 587.575 301.326 586.612 301.085 581.972C300.845 577.335 309.556 580.527 309.556 580.527Z" fill="#E8A200"/>
<path d="M349.495 495.344C348.17 473.777 326.151 498.518 326.151 498.518L311.08 513.298L297.51 528.214C296.2 529.653 295.22 531.36 294.638 533.217C294.056 535.073 293.886 537.035 294.14 538.964L299.628 580.788C299.759 581.784 300.251 582.698 301.01 583.357C301.77 584.015 302.744 584.373 303.748 584.361C304.43 584.351 305.11 584.291 305.782 584.182C310.679 583.419 310.319 578.76 310.319 578.76L309.314 539.642L337.815 522.453C337.814 522.453 350.82 516.911 349.495 495.344Z" fill="#0079D1"/>
<path d="M365.879 503.562C364.555 481.995 342.536 506.735 342.536 506.735L327.465 521.514L313.895 536.431C312.585 537.87 311.605 539.577 311.023 541.434C310.441 543.291 310.271 545.252 310.524 547.181L316.013 589.004C316.144 590.001 316.636 590.915 317.395 591.574C318.154 592.232 319.128 592.589 320.133 592.578C320.814 592.568 321.494 592.509 322.167 592.399C327.064 591.636 326.703 586.977 326.703 586.977L325.7 547.86L354.199 530.67C354.198 530.67 367.204 525.129 365.879 503.562Z" fill="#0079D1"/>
<path d="M352.853 434.332C369.547 441.256 369.212 451.13 369.212 451.13C369.212 451.13 365.942 487.326 367.057 511.5C367.525 521.606 313.395 522.376 321.467 495.417C330.986 463.628 327.418 437.894 331.873 434.012C336.33 430.13 348.534 432.541 352.853 434.332Z" fill="#983BE9"/>
<path d="M348.302 447.088C352.906 448.275 357.347 446.487 358.22 443.096C359.093 439.704 356.068 435.993 351.463 434.806C346.858 433.62 342.417 435.407 341.544 438.799C340.671 442.19 343.697 445.901 348.302 447.088Z" fill="#FFC2B0"/>
<path d="M351.155 448.244C350.126 448.241 349.101 448.11 348.105 447.851C343.082 446.556 339.794 442.402 340.775 438.589C341.756 434.776 346.644 432.73 351.666 434.024C356.69 435.319 359.978 439.474 358.997 443.286C358.509 445.178 357.078 446.689 354.963 447.54C353.797 448.008 352.501 448.244 351.155 448.244ZM348.609 435.226C345.51 435.226 342.918 436.669 342.32 438.987C341.559 441.947 344.333 445.229 348.504 446.304C350.566 446.836 352.65 446.748 354.366 446.058C355.997 445.401 357.093 444.275 357.45 442.887C358.212 439.928 355.439 436.645 351.266 435.571C350.399 435.344 349.506 435.229 348.609 435.226Z" fill="white"/>
<path d="M346.162 433.578C346.162 433.578 346.305 434.248 346.017 439.541C345.926 441.205 351.75 442.76 353.254 441.253C354.759 439.747 354.157 438.181 354.518 432.518C354.88 426.855 346.162 433.578 346.162 433.578Z" fill="#FFC2B0"/>
<path d="M354.517 432.518C354.517 432.518 353.083 437.769 346.014 439.782L346.122 435.011L354.517 432.518Z" fill="#EA9C92"/>
<path d="M346.555 435.253C353.653 435.253 359.406 429.497 359.406 422.396C359.406 415.295 353.653 409.539 346.555 409.539C339.458 409.539 333.705 415.295 333.705 422.396C333.705 429.497 339.458 435.253 346.555 435.253Z" fill="#FFC2B0"/>
<path d="M349.507 422.868C349.507 422.868 342.432 425.9 337.533 425.935C332.635 425.969 333.714 421.865 333.714 421.865L348.257 419.763L349.507 422.868Z" fill="#EA9C92"/>
<path d="M336.071 423.667C336.071 423.667 342.234 421.049 347.64 422.14C348.911 422.397 350.09 423.077 350.908 424.083C351.176 424.412 351.514 424.713 351.897 424.798C352.856 425.016 354.425 421.036 356.289 420.945C358.152 420.854 359.396 422.174 357.868 424.621C356.339 427.069 356.856 429.808 357.56 430.201C358.262 430.594 365.719 424.88 359.142 411.843C352.564 398.805 335.855 405.827 333.256 408.47C333.256 408.47 330.519 410.856 328.292 408.732C328.292 408.734 325.796 427.437 336.071 423.667Z" fill="#FF2C9C"/>
<path d="M359.848 477.574V487.354C359.848 487.909 359.732 488.457 359.509 488.964C359.285 489.472 358.957 489.926 358.548 490.3L338.467 508.617L340.748 512.108L367.272 494.334C367.884 493.89 368.396 493.322 368.774 492.667C369.152 492.012 369.389 491.285 369.468 490.533L371.257 472.006L359.848 477.574Z" fill="#FFC2B0"/>
<path d="M367.799 446.24C367.799 446.24 373.89 455.406 376.161 479.535C376.161 479.535 365.754 482.904 359.848 480.991C353.941 479.079 367.799 446.24 367.799 446.24Z" fill="#983BE9"/>
<path d="M358.737 457.83C358.737 457.83 356.351 470.601 356.216 476.603C356.195 477.407 356.427 478.196 356.88 478.86C357.332 479.524 357.982 480.029 358.737 480.303V457.83Z" fill="#6614CF"/>
<path d="M353.525 521.336L349.087 520.749L320.436 504.199C319.517 503.669 317.913 503.734 316.851 504.348L296.55 516.071L293.865 515.715V518.389L293.868 518.39C293.85 518.742 294.05 519.081 294.484 519.331L326.955 538.087C327.873 538.618 329.476 538.55 330.538 537.939L352.648 525.171C353.244 524.827 353.543 524.381 353.525 523.964V521.336H353.525Z" fill="#173D7A"/>
<path d="M331.997 510.877L329.961 509.702H307.582L296.55 516.071L293.865 515.716V518.389L293.868 518.391C293.85 518.742 294.05 519.081 294.484 519.331L326.955 538.087C327.44 538.367 328.116 538.481 328.804 538.434L331.997 510.877Z" fill="#396CAA"/>
<path d="M295.056 515.873L293.865 515.715V518.389L293.868 518.39C293.85 518.742 294.05 519.081 294.484 519.331L295.056 519.662V515.873Z" fill="#5793CE"/>
<path d="M327.281 538.24C328.151 538.569 329.397 538.497 330.327 538.05V533.502H327.281V538.24Z" fill="#274F89"/>
<path d="M326.956 535.416L294.485 516.659C293.567 516.129 293.682 515.203 294.742 514.589L316.852 501.821C317.912 501.209 319.517 501.142 320.436 501.673L352.905 520.43C353.824 520.959 353.709 521.886 352.648 522.499L330.538 535.268C329.477 535.88 327.874 535.946 326.956 535.416Z" fill="white"/>
<path d="M326.406 532.572L299.408 516.976C298.644 516.535 298.741 515.765 299.623 515.255L311.469 508.589C312.351 508.08 313.686 508.025 314.45 508.466L341.448 524.063C342.212 524.503 342.115 525.273 341.235 525.784L329.387 532.449C328.505 532.957 327.171 533.013 326.406 532.572Z" fill="#D4ECFF"/>
<path d="M318.107 501.206L317.771 503.448C317.485 505.358 317.534 507.303 317.917 509.196L318.317 511.17C318.427 511.715 318.698 512.214 319.094 512.603C319.491 512.992 319.995 513.254 320.541 513.353C320.748 513.391 320.96 513.385 321.164 513.337C321.369 513.289 321.561 513.2 321.73 513.075C321.898 512.949 322.039 512.79 322.144 512.608C322.248 512.426 322.314 512.225 322.338 512.016L322.874 507.224C322.874 507.224 324.1 508.83 324.691 508.83C325.283 508.83 324.029 504.03 322.691 501.315C321.353 498.6 318.107 501.206 318.107 501.206Z" fill="#FFC2B0"/>
<path d="M329.115 465.58L325.63 472.479C324.806 474.11 324.321 475.892 324.205 477.716L322.692 501.316L318.108 501.206L316.028 474.704C315.964 473.885 316.003 473.062 316.145 472.253L318.523 458.815L329.115 465.58Z" fill="#FFC2B0"/>
<path d="M325.856 537.218L323.133 533.662L294.502 517.076C293.585 516.545 292.841 515.119 292.842 513.894L292.868 490.441L291.221 488.292L292.768 487.395L292.77 487.398C293.066 487.205 293.459 487.21 293.893 487.462L326.34 506.258C327.258 506.79 328.001 508.214 328 509.439L327.972 534.981C327.972 535.67 327.735 536.149 327.365 536.342L325.856 537.218Z" fill="#173D7A"/>
<path d="M306.055 523.769L304.022 522.59L292.856 503.185L292.868 490.441L291.221 488.292L292.768 487.395L292.77 487.398C293.066 487.205 293.459 487.21 293.893 487.462L326.34 506.258C326.825 506.539 327.26 507.071 327.563 507.689L306.055 523.769Z" fill="#396CAA"/>
<path d="M291.952 489.246L291.221 488.291L292.768 487.395L292.77 487.397C293.066 487.205 293.459 487.209 293.893 487.461L294.464 487.793L291.952 489.246Z" fill="#5793CE"/>
<path d="M326.634 506.465C327.355 507.055 327.914 508.171 327.989 509.2L324.819 511.032L323.299 508.391L326.634 506.465Z" fill="#274F89"/>
<path d="M324.795 507.153L292.348 488.358C291.431 487.826 290.684 488.388 290.684 489.613L290.656 515.155C290.654 516.379 291.397 517.804 292.315 518.337L324.763 537.132C325.68 537.663 326.426 537.101 326.427 535.877L326.455 510.335C326.456 509.11 325.713 507.685 324.795 507.153Z" fill="white"/>
<path d="M340.748 512.108L340.227 513.186C339.63 514.427 338.689 515.471 337.516 516.193L334.293 518.181C333.29 518.8 332.021 518.851 331.002 518.258L330.893 518.192C329.868 517.55 329.776 516.078 330.619 515.211L333.987 511.747C333.987 511.747 332.095 513.198 331.565 512.613C331.176 512.185 333.4 510.097 335.107 510.027C336.815 509.96 338.467 508.618 338.467 508.618L340.748 512.108Z" fill="#FFC2B0"/>
<path d="M332.209 433.961C332.209 433.961 319.861 447.402 314.881 459.734C314.881 459.734 319.103 467.345 329.437 470.331C339.772 473.317 332.209 433.961 332.209 433.961Z" fill="#983BE9"/>
<path d="M327.112 469.533L329.114 450.191L324.398 468.312C325.28 468.769 326.185 469.176 327.112 469.533Z" fill="#6614CF"/>
<path d="M341.456 431.249L338.139 430.337C338.139 430.337 339.722 432.83 342.035 433.465C344.348 434.1 344.707 432.142 344.707 432.142L341.456 431.249Z" fill="white"/>
<defs>
<filter id="filter0_b_4554_24774" x="-507" y="356" width="872.051" height="830.722" filterUnits="userSpaceOnUse" color-interpolation-filters="sRGB">
<feFlood flood-opacity="0" result="BackgroundImageFix"/>
<feGaussianBlur in="BackgroundImageFix" stdDeviation="5"/>
<feComposite in2="SourceAlpha" operator="in" result="effect1_backgroundBlur_4554_24774"/>
<feBlend mode="normal" in="SourceGraphic" in2="effect1_backgroundBlur_4554_24774" result="shape"/>
</filter>
<filter id="filter1_b_4554_24774" x="-448" y="457" width="709.92" height="676.455" filterUnits="userSpaceOnUse" color-interpolation-filters="sRGB">
<feFlood flood-opacity="0" result="BackgroundImageFix"/>
<feGaussianBlur in="BackgroundImageFix" stdDeviation="5"/>
<feComposite in2="SourceAlpha" operator="in" result="effect1_backgroundBlur_4554_24774"/>
<feBlend mode="normal" in="SourceGraphic" in2="effect1_backgroundBlur_4554_24774" result="shape"/>
</filter>
<filter id="filter2_b_4554_24774" x="-417" y="552" width="571.936" height="545.164" filterUnits="userSpaceOnUse" color-interpolation-filters="sRGB">
<feFlood flood-opacity="0" result="BackgroundImageFix"/>
<feGaussianBlur in="BackgroundImageFix" stdDeviation="5"/>
<feComposite in2="SourceAlpha" operator="in" result="effect1_backgroundBlur_4554_24774"/>
<feBlend mode="normal" in="SourceGraphic" in2="effect1_backgroundBlur_4554_24774" result="shape"/>
</filter>
<linearGradient id="paint0_linear_4554_24774" x1="579" y1="764" x2="-156.545" y2="206.564" gradientUnits="userSpaceOnUse">
<stop stop-color="#FFD700"/>
<stop offset="0.750282" stop-color="#FFE34B"/>
</linearGradient>
<linearGradient id="paint1_linear_4554_24774" x1="579" y1="764" x2="-156.545" y2="206.564" gradientUnits="userSpaceOnUse">
<stop stop-color="#FFD700"/>
<stop offset="1" stop-color="#FFD700"/>
</linearGradient>
<radialGradient id="paint2_radial_4554_24774" cx="0" cy="0" r="1" gradientUnits="userSpaceOnUse" gradientTransform="translate(-82.9564 789.096) rotate(88.728) scale(539.77 567.26)">
<stop offset="1" stop-color="#E87F00"/>
</radialGradient>
<radialGradient id="paint3_radial_4554_24774" cx="0" cy="0" r="1" gradientUnits="userSpaceOnUse" gradientTransform="translate(-102.742 809.588) rotate(88.728) scale(437.061 459.32)">
<stop offset="1" stop-color="#FFAF66"/>
</radialGradient>
<radialGradient id="paint4_radial_4554_24774" cx="0" cy="0" r="1" gradientUnits="userSpaceOnUse" gradientTransform="translate(-138.794 836.07) rotate(88.728) scale(349.649 367.456)">
<stop offset="1" stop-color="#FFD5A2"/>
</radialGradient>
<radialGradient id="paint5_radial_4554_24774" cx="0" cy="0" r="1" gradientUnits="userSpaceOnUse" gradientTransform="translate(226.709 528.687) scale(68.8538 68.8896)">
<stop stop-color="#01C8EF"/>
<stop offset="0.089" stop-color="#03BEE9"/>
<stop offset="0.239" stop-color="#08A5D7"/>
<stop offset="0.429" stop-color="#107BBB"/>
<stop offset="0.446" stop-color="#1177B8"/>
<stop offset="1" stop-color="#112564"/>
</radialGradient>
</defs>
</svg>
