<svg width="71" height="71" viewBox="0 0 71 71" fill="none" xmlns="http://www.w3.org/2000/svg">
<g clip-path="url(#clip0_2998_9213)">
<path d="M70.0734 41.5743C69.7525 41.2535 69.3174 41.0732 68.8636 41.0732C68.4098 41.0732 67.9747 41.2535 67.6538 41.5743L52.4288 56.7993C52.3644 56.8637 52.2881 56.9147 52.204 56.9495C52.1199 56.9843 52.0299 57.0023 51.9389 57.0023C51.8479 57.0023 51.7578 56.9843 51.6737 56.9495C51.5897 56.9147 51.5133 56.8637 51.449 56.7993L46.5139 51.8643C46.1922 51.5476 45.7583 51.3709 45.3069 51.3727C44.8554 51.3745 44.4229 51.5546 44.1037 51.8738C43.7845 52.1931 43.6043 52.6255 43.6026 53.077C43.6008 53.5284 43.7775 53.9623 44.0941 54.2841L51.449 61.6389C51.5133 61.7032 51.5897 61.7543 51.6737 61.7891C51.7578 61.8239 51.8479 61.8418 51.9389 61.8418C52.0299 61.8418 52.1199 61.8239 52.204 61.7891C52.2881 61.7543 52.3644 61.7032 52.4288 61.6389L70.0734 43.9941C70.2323 43.8352 70.3584 43.6466 70.4444 43.439C70.5304 43.2314 70.5746 43.0089 70.5746 42.7842C70.5746 42.5595 70.5304 42.337 70.4444 42.1294C70.3584 41.9218 70.2323 41.7332 70.0734 41.5743Z" fill="#0A1C40"/>
<path d="M67.1718 52.7552C66.7181 52.7552 66.2829 52.9355 65.962 53.2564C65.6411 53.5773 65.4609 54.0125 65.4609 54.4663C65.4609 56.9794 64.7157 59.436 63.3195 61.5256C61.9233 63.6151 59.9388 65.2437 57.617 66.2054C55.2953 67.1671 52.7404 67.4188 50.2757 66.9285C47.8109 66.4382 45.5468 65.228 43.7698 63.451C41.9928 61.674 40.7826 59.41 40.2924 56.9452C39.8021 54.4804 40.0537 51.9256 41.0154 49.6038C41.9771 47.282 43.6057 45.2976 45.6953 43.9014C47.7848 42.5052 50.2415 41.76 52.7545 41.76C54.7322 41.7538 56.6835 42.2142 58.4498 43.1038C58.8553 43.3075 59.3252 43.3417 59.7559 43.199C60.1867 43.0563 60.5431 42.7483 60.7468 42.3428C60.9504 41.9372 60.9847 41.4674 60.8419 41.0367C60.6992 40.6059 60.3912 40.2495 59.9857 40.0458C57.7432 38.9156 55.2656 38.3303 52.7544 38.3375C49.5645 38.3375 46.4463 39.2834 43.794 41.0556C41.1417 42.8278 39.0745 45.3467 37.8537 48.2937C36.633 51.2408 36.3136 54.4836 36.9359 57.6122C37.5581 60.7408 39.0942 63.6146 41.3497 65.8702C43.6053 68.1259 46.4791 69.662 49.6076 70.2843C52.7362 70.9067 55.9791 70.5874 58.9262 69.3667C61.8733 68.1461 64.3922 66.0789 66.1645 63.4266C67.9368 60.7744 68.8827 57.6562 68.8828 54.4663C68.8828 54.0125 68.7026 53.5773 68.3817 53.2564C68.0608 52.9355 67.6256 52.7552 67.1718 52.7552Z" fill="#0A1C40"/>
<path d="M56.3035 28.0654H53.4238C52.9485 28.0654 52.4926 28.2542 52.1565 28.5903C51.8204 28.9264 51.6316 29.3823 51.6316 29.8576C51.6316 30.3329 51.8204 30.7887 52.1565 31.1248C52.4926 31.4609 52.9485 31.6497 53.4238 31.6497H58.1043C58.5984 31.6311 59.0667 31.4239 59.4129 31.0708C59.759 30.7177 59.9569 30.2455 59.9657 29.751C59.8767 21.9321 56.7083 14.4636 51.1478 8.96597C45.5873 3.4683 38.0833 0.384909 30.2639 0.384766C13.8849 0.384766 0.55957 13.71 0.55957 30.0889C0.55957 46.4679 13.8849 59.7929 30.2639 59.7929C30.6481 59.7928 31.022 59.6691 31.3306 59.4403C31.6393 59.2115 31.8662 58.8896 31.978 58.522C32.0316 58.3688 32.0579 58.2074 32.0556 58.0451V53.0178C32.0515 52.5451 31.8608 52.0933 31.5252 51.7606C31.1895 51.4278 30.736 51.2411 30.2634 51.2411C29.7908 51.2411 29.3373 51.4278 29.0016 51.7606C28.6659 52.0933 28.4753 52.5451 28.4712 53.0178V56.146C15.4173 55.257 4.96707 44.7344 4.1916 31.6504H7.10342C7.57873 31.6504 8.03457 31.4616 8.37066 31.1255C8.70676 30.7894 8.89557 30.3336 8.89557 29.8583C8.89557 29.383 8.70676 28.9271 8.37066 28.591C8.03457 28.2549 7.57873 28.0661 7.10342 28.0661H4.22177C5.21253 15.1958 15.5713 4.91006 28.4716 4.03243V6.69727C28.4757 7.16989 28.6664 7.62173 29.002 7.95447C29.3377 8.2872 29.7912 8.47389 30.2638 8.47389C30.7364 8.47389 31.1899 8.2872 31.5256 7.95447C31.8612 7.62173 32.0519 7.16989 32.056 6.69727V4.03243C44.9055 4.91596 55.3082 15.2211 56.3035 28.0654Z" fill="#0A1C40"/>
<path d="M30.2628 17.9277C29.7874 17.9277 29.3315 18.1166 28.9954 18.4527C28.6593 18.7888 28.4705 19.2447 28.4705 19.72V29.0523L16.3513 36.0377C16.1457 36.1543 15.9652 36.3105 15.8202 36.4972C15.6752 36.6839 15.5685 36.8974 15.5064 37.1255C15.4442 37.3536 15.4278 37.5917 15.4581 37.8262C15.4884 38.0607 15.5648 38.2868 15.6828 38.4916C15.8009 38.6964 15.9583 38.8759 16.146 39.0196C16.3337 39.1633 16.5479 39.2685 16.7764 39.3291C17.0049 39.3897 17.2432 39.4044 17.4774 39.3725C17.7117 39.3406 17.9373 39.2627 18.1413 39.1433L31.1577 31.6414C31.1906 31.6225 31.2194 31.6041 31.2463 31.5866C31.4948 31.4238 31.6989 31.2016 31.8402 30.9402C31.9814 30.6788 32.0553 30.3864 32.0553 30.0893V19.72C32.0553 19.4846 32.009 19.2515 31.9189 19.0341C31.8288 18.8166 31.6967 18.619 31.5303 18.4526C31.3638 18.2862 31.1662 18.1541 30.9487 18.0641C30.7312 17.974 30.4982 17.9277 30.2628 17.9277Z" fill="#0A1C40"/>
</g>
<defs>
<clipPath id="clip0_2998_9213">
<rect width="70.2106" height="70.2106" fill="white" transform="translate(0.460938 0.384766)"/>
</clipPath>
</defs>
</svg>
