<svg width="71" height="71" viewBox="0 0 71 71" fill="none" xmlns="http://www.w3.org/2000/svg">
<path d="M69.3456 39.6595V30.7623C69.3456 30.2233 68.9543 29.7642 68.4221 29.6791L62.9795 28.8079C62.2749 25.7515 61.0764 22.8607 59.4089 20.1956L62.6434 15.7281C62.9596 15.2917 62.9116 14.6902 62.5307 14.3091L56.2393 8.01786C55.8583 7.63692 55.2569 7.58892 54.8201 7.90501L50.3527 11.1395C47.6867 9.47172 44.7962 8.27334 41.7404 7.56876L40.8692 2.12634C40.784 1.59414 40.3248 1.20264 39.7859 1.20264H30.8886C30.3497 1.20264 29.8906 1.59414 29.8054 2.12621L28.9342 7.56863C25.878 8.2732 22.9872 9.47158 20.3218 11.1392L15.8545 7.90487C15.4181 7.58878 14.8165 7.63678 14.4353 8.01773L8.14392 14.309C7.76297 14.6901 7.71498 15.2915 8.0312 15.7281L11.2657 20.1954C9.59736 22.8623 8.39898 25.7526 7.69495 28.8077L2.25254 29.6789C1.72047 29.7642 1.3291 30.2233 1.3291 30.7623V39.6595C1.3291 40.1985 1.72047 40.6576 2.25267 40.7427L7.69509 41.6139C8.39967 44.67 9.59818 47.5608 11.2658 50.2262L8.03133 54.6937C7.71511 55.1301 7.76311 55.7316 8.14405 56.1127L14.4354 62.4039C14.8168 62.7851 15.4183 62.8326 15.8546 62.5168L20.3219 59.2823C22.9888 60.9506 25.8795 62.1491 28.9343 62.853L29.8055 68.2954C29.8907 68.8275 30.3499 69.219 30.8887 69.219H39.786C40.3249 69.219 40.784 68.8275 40.8692 68.2954L41.6508 63.4129C44.5082 66.9514 48.8795 69.219 53.7712 69.219C62.359 69.2192 69.3456 62.2325 69.3456 53.6447C69.3456 48.753 67.0779 44.3816 63.5394 41.5242L68.4219 40.7427C68.9543 40.6577 69.3456 40.1986 69.3456 39.6595ZM54.9337 38.1138C54.5498 38.0853 54.1623 38.0705 53.7712 38.0705C51.4161 38.0705 49.1822 38.5969 47.179 39.5367V37.802C47.179 35.2098 45.2161 33.2364 41.7933 32.3874C40.6006 32.0916 39.409 31.8796 38.2209 31.7458C40.0378 30.4706 41.2696 28.0316 41.2696 25.2367C41.2696 21.4566 38.9965 19.1083 35.3375 19.1083C31.6783 19.1083 29.4053 21.4566 29.4053 25.2367C29.4053 28.0256 30.6319 30.4599 32.4423 31.7373C31.2436 31.8708 30.0526 32.0861 28.8725 32.3896C25.4053 33.2808 23.4958 35.2029 23.4958 37.802V47.5625C23.4958 48.1683 23.987 48.6595 24.5928 48.6595H39.0152C38.4848 50.2254 38.1969 51.9021 38.1969 53.6447C38.1969 54.0357 38.2117 54.4234 38.2403 54.8072C37.2806 54.9482 36.3081 55.0196 35.3374 55.0196C24.4148 55.0196 15.5286 46.1334 15.5286 35.2108C15.5286 24.2881 24.4148 15.402 35.3374 15.402C46.2599 15.402 55.1461 24.2883 55.1461 35.2109C55.1461 36.1816 55.0746 37.1542 54.9337 38.1138ZM41.1994 38.9487C40.5936 38.9487 40.1024 39.4398 40.1024 40.0457V46.1861C40.0518 46.2785 40.0024 46.3718 39.9536 46.4653H30.5721V40.0457C30.5721 39.4398 30.0809 38.9487 29.475 38.9487C28.8692 38.9487 28.378 39.4398 28.378 40.0457V46.4653H25.6897V37.8018C25.6897 35.8769 27.7175 34.9517 29.4186 34.5144C33.2755 33.5226 37.2609 33.5234 41.2649 34.5167C42.6542 34.8614 44.9847 35.7463 44.9847 37.8018V40.7925C44.0019 41.4666 43.0997 42.2501 42.2964 43.1258V40.0456C42.2964 39.4399 41.8052 38.9487 41.1994 38.9487ZM35.3374 30.4943C33.2762 30.4943 31.5992 28.1357 31.5992 25.2366C31.5992 21.8133 33.9412 21.3022 35.3374 21.3022C36.7335 21.3022 39.0754 21.8134 39.0754 25.2366C39.0754 28.1358 37.3984 30.4943 35.3374 30.4943ZM67.1515 53.6447C67.1515 61.0228 61.1492 67.0251 53.7712 67.0251C46.3933 67.0251 40.391 61.0228 40.391 53.6447C40.391 46.2667 46.3933 40.2646 53.7712 40.2646C61.1492 40.2646 67.1515 46.2669 67.1515 53.6447ZM67.1515 38.7242L61.8925 39.5659C61.6171 39.61 61.3769 39.7563 61.21 39.9649C59.9381 39.2705 58.5588 38.7491 57.1046 38.4308C57.2609 37.3663 57.3402 36.2875 57.3402 35.2109C57.3402 23.0785 47.4697 13.2081 35.3372 13.2081C23.2048 13.2081 13.3344 23.0786 13.3344 35.2109C13.3344 47.3432 23.2049 57.2138 35.3372 57.2138C36.414 57.2138 37.4926 57.1346 38.5572 56.9782C38.8756 58.4325 39.397 59.8118 40.0914 61.0838C39.8828 61.2505 39.7365 61.4908 39.6923 61.7663L38.8505 67.0251H31.8241L30.9822 61.7661C30.91 61.3144 30.565 60.955 30.1167 60.8644C26.8151 60.1963 23.7115 58.9096 20.8919 57.0399C20.511 56.7874 20.0131 56.7975 19.6424 57.0657L15.3256 60.1913L10.3572 55.2228L13.4827 50.9058C13.7509 50.5353 13.7612 50.0374 13.5084 49.6562C11.6396 46.8387 10.3528 43.735 9.68403 40.4316C9.59325 39.9832 9.23383 39.6383 8.78226 39.566L3.52318 38.7242V31.6976L8.78212 30.8558C9.23383 30.7835 9.59325 30.4385 9.68389 29.9902C10.3521 26.6885 11.6388 23.585 13.5083 20.7656C13.7612 20.3845 13.7509 19.8865 13.4825 19.5159L10.3571 15.1992L15.3254 10.2307L19.6423 13.3562C20.0127 13.6244 20.5109 13.6346 20.8919 13.3818C23.7094 11.5132 26.8131 10.2263 30.1167 9.55742C30.565 9.46664 30.9098 9.10723 30.9822 8.65566L31.8241 3.39672H38.8505L39.6923 8.65566C39.7646 9.10723 40.1096 9.46664 40.5579 9.55742C43.8607 10.2262 46.9643 11.513 49.7826 13.3818C50.1636 13.6344 50.6615 13.6244 51.0322 13.3561L55.349 10.2306L60.3175 15.1991L57.1921 19.5159C56.9238 19.8865 56.9135 20.3844 57.1663 20.7656C59.0349 23.5828 60.3216 26.6865 60.9907 29.9902C61.0815 30.4385 61.4409 30.7834 61.8925 30.8558L67.1515 31.6976V38.7242ZM58.1878 47.6057L51.6327 54.2562L49.3549 51.9785C48.7454 51.3689 47.935 51.0331 47.0728 51.0331C46.2107 51.0331 45.4002 51.3688 44.7907 51.9783C44.181 52.5879 43.8452 53.3985 43.8452 54.2605C43.8452 55.1226 44.1809 55.933 44.7906 56.5426L49.3595 61.1115C49.9888 61.7406 50.8151 62.0552 51.6416 62.0551C52.4681 62.0551 53.2947 61.7405 53.9238 61.1113C56.254 58.7811 61.011 53.9116 62.7598 52.1454C63.3666 51.5351 63.6994 50.7254 63.6971 49.8649C63.6946 49.0044 63.3573 48.1963 62.7472 47.5896C61.4878 46.3371 59.4439 46.3427 58.1878 47.6057ZM61.2023 50.6002C59.4465 52.3734 54.6934 57.2391 52.3722 59.5601C51.9693 59.963 51.3137 59.963 50.9109 59.5601L46.3422 54.9912H46.3421C46.1469 54.7961 46.0394 54.5366 46.0394 54.2606C46.0394 53.9847 46.1469 53.7251 46.3422 53.53C46.5373 53.3348 46.7966 53.2273 47.0728 53.2273C47.3489 53.2273 47.6082 53.3348 47.8034 53.53L50.8627 56.5891C51.0684 56.7948 51.3474 56.9104 51.6383 56.9104H51.6423C51.9346 56.9093 52.2144 56.7916 52.4195 56.5834L59.7468 49.1496C60.1463 48.7478 60.7982 48.7462 61.2001 49.1456C61.3947 49.3391 61.5022 49.5968 61.503 49.8712C61.5036 50.1455 61.3976 50.4038 61.2023 50.6002Z" fill="#0A1C40"/>
</svg>
