<svg width="21" height="21" viewBox="0 0 21 21" fill="none" xmlns="http://www.w3.org/2000/svg">
<g clip-path="url(#clip0_2998_10264)">
<path d="M14.482 7.3743C14.7872 7.67947 14.7872 8.17416 14.482 8.47919L9.24091 13.7204C8.93573 14.0255 8.44119 14.0255 8.13602 13.7204L5.64105 11.2253C5.33588 10.9203 5.33588 10.4256 5.64105 10.1206C5.94608 9.8154 6.44077 9.8154 6.74579 10.1206L8.68839 12.0632L13.3771 7.3743C13.6823 7.06927 14.177 7.06927 14.482 7.3743ZM20.0615 10.5474C20.0615 16.0749 15.5883 20.5474 10.0615 20.5474C4.53403 20.5474 0.0615234 16.0741 0.0615234 10.5474C0.0615234 5.01987 4.53479 0.547363 10.0615 0.547363C15.589 0.547363 20.0615 5.02063 20.0615 10.5474ZM18.499 10.5474C18.499 5.88351 14.7248 2.10986 10.0615 2.10986C5.39767 2.10986 1.62402 5.88412 1.62402 10.5474C1.62402 15.2112 5.39828 18.9849 10.0615 18.9849C14.7254 18.9849 18.499 15.2106 18.499 10.5474Z" fill="#0A1C40"/>
</g>
<defs>
<clipPath id="clip0_2998_10264">
<rect width="20" height="20" fill="white" transform="translate(0.0615234 0.547363)"/>
</clipPath>
</defs>
</svg>
