<svg width="14" height="14" viewBox="0 0 14 14" fill="none" xmlns="http://www.w3.org/2000/svg">
<path d="M10.2538 5.01899C10.4511 5.21629 10.4511 5.53612 10.2538 5.73332L6.86534 9.1219C6.66803 9.3191 6.3483 9.3191 6.151 9.1219L4.53795 7.50875C4.34065 7.31155 4.34065 6.99172 4.53795 6.79452C4.73516 6.59721 5.05498 6.59721 5.25219 6.79452L6.50812 8.05045L9.53948 5.01899C9.73678 4.82178 10.0566 4.82178 10.2538 5.01899ZM13.8611 7.07044C13.8611 10.6441 10.969 13.5357 7.39588 13.5357C3.82224 13.5357 0.930664 10.6436 0.930664 7.07044C0.930664 3.4968 3.82273 0.605225 7.39588 0.605225C10.9695 0.605225 13.8611 3.49729 13.8611 7.07044ZM12.8509 7.07044C12.8509 4.05516 10.4108 1.61542 7.39588 1.61542C4.3806 1.61542 1.94085 4.05556 1.94085 7.07044C1.94085 10.0857 4.381 12.5255 7.39588 12.5255C10.4112 12.5255 12.8509 10.0853 12.8509 7.07044Z" fill="#4CAF50"/>
</svg>
