<svg width="81" height="83" viewBox="0 0 81 83" fill="none" xmlns="http://www.w3.org/2000/svg">
<rect x="0.679688" width="79.6426" height="82.648" rx="3" fill="#0A1C40"/>
<rect x="0.679688" width="79.6426" height="82.648" rx="3" fill="black" fill-opacity="0.2"/>
<path opacity="0.932" fill-rule="evenodd" clip-rule="evenodd" d="M56.1935 14.6561C57.1612 14.6382 58.1283 14.6561 59.0947 14.7098C59.1932 14.7501 59.2828 14.8038 59.3634 14.871C59.5459 15.2401 59.7071 15.6162 59.8469 15.9993C60.2626 16.108 60.6565 16.2692 61.0289 16.4828C61.4089 16.2965 61.8029 16.1532 62.2109 16.053C62.4042 16.0613 62.5833 16.115 62.7482 16.2142C63.3427 16.7728 63.8979 17.3638 64.4137 17.9872C64.5127 18.538 64.4232 19.0574 64.1451 19.5453C64.2883 19.9034 64.4317 20.2616 64.5749 20.6198C64.9453 20.8591 65.3392 21.074 65.7569 21.2645C65.8242 21.3452 65.8779 21.4347 65.9181 21.5332C65.9897 22.4644 65.9897 23.3957 65.9181 24.327C65.8681 24.4807 65.7785 24.606 65.6494 24.7031C65.3313 24.839 65.0089 24.9643 64.6823 25.0792C64.4722 25.4767 64.293 25.8886 64.1451 26.3149C64.4302 26.8386 64.5197 27.3938 64.4137 27.9804C63.8194 28.6107 63.1925 29.2017 62.5333 29.7534C61.9893 29.8172 61.488 29.6918 61.0289 29.3773C60.6834 29.5679 60.3253 29.7291 59.9544 29.8609C59.7173 30.212 59.5204 30.5881 59.3634 30.9891C59.1863 31.1199 58.9893 31.2094 58.7724 31.2578C57.9043 31.3546 57.0446 31.3188 56.1935 31.1503C56.0951 31.1101 56.0054 31.0564 55.9249 30.9891C55.7926 30.6172 55.6314 30.2591 55.4413 29.9146C55.0382 29.7563 54.6443 29.5772 54.2593 29.3773C53.7245 29.778 53.1515 29.8676 52.5401 29.6459C51.9455 29.0874 51.3903 28.4964 50.8745 27.873C50.7714 27.337 50.8609 26.8355 51.1432 26.3686C51.0301 25.9635 50.8869 25.5695 50.7133 25.1866C50.2014 24.9937 49.7537 24.7073 49.3702 24.327C49.2985 23.4315 49.2985 22.5361 49.3702 21.6406C49.4328 21.4793 49.5223 21.336 49.6388 21.2108C50.0008 21.031 50.359 20.8519 50.7133 20.6735C50.8092 20.3744 50.9345 20.0879 51.0894 19.8139C51.069 19.3401 50.9794 18.8745 50.8208 18.417C50.8224 18.1877 50.8761 17.9728 50.982 17.7723C51.5013 17.2529 52.0207 16.7336 52.5401 16.2142C53.1535 15.9936 53.7266 16.0831 54.2593 16.4828C54.6318 16.2692 55.0257 16.108 55.4413 15.9993C55.6031 15.4898 55.8538 15.0421 56.1935 14.6561ZM57.268 16.3754C57.5285 16.3423 57.7792 16.3782 58.0202 16.4828C58.149 16.8529 58.3282 17.1932 58.5575 17.5036C59.2773 17.7026 59.9579 17.9891 60.5991 18.3633C61.0852 18.4627 61.533 18.3732 61.9423 18.0946C62.1456 18.2616 62.3068 18.4587 62.4258 18.6856C62.2352 19.1178 62.1815 19.5655 62.2646 20.0288C62.5994 20.603 62.85 21.2119 63.0168 21.8555C63.286 22.2395 63.6621 22.4544 64.1451 22.5003C64.1451 22.7868 64.1451 23.0733 64.1451 23.3599C63.6755 23.4242 63.2994 23.6391 63.0168 24.0046C62.85 24.6482 62.5994 25.2571 62.2646 25.8313C62.1574 26.3532 62.2469 26.8368 62.5333 27.282C62.39 27.4252 62.2467 27.5685 62.1035 27.7118C61.7318 27.6486 61.3557 27.559 60.9752 27.4431C60.1471 27.8031 59.3055 28.1433 58.45 28.464C58.2968 28.7619 58.1534 29.0664 58.0202 29.3773C57.7695 29.5205 57.5187 29.5205 57.268 29.3773C57.159 28.998 56.9799 28.6577 56.7308 28.3565C56.0098 28.157 55.3292 27.8704 54.6891 27.4969C54.198 27.4591 53.7324 27.5307 53.2922 27.7118C53.1067 27.5625 52.9633 27.3834 52.8624 27.1745C52.9946 26.8787 53.102 26.5742 53.1848 26.2611C52.7813 25.4364 52.423 24.5947 52.1102 23.736C51.8084 23.5489 51.486 23.4235 51.1432 23.3599C51.1432 23.0733 51.1432 22.7868 51.1432 22.5003C51.7536 22.4911 52.1655 22.2046 52.3789 21.6406C52.5873 20.9371 52.856 20.2565 53.1848 19.599C53.0568 19.2403 52.9672 18.8821 52.9161 18.5245C53.0613 18.3612 53.2225 18.218 53.3997 18.0946C53.7903 18.3781 54.2201 18.4676 54.6891 18.3633C55.412 17.98 56.1462 17.6397 56.8919 17.3425C57.0707 17.0387 57.196 16.7163 57.268 16.3754ZM57.1606 20.3512C59.5836 20.4367 60.5328 21.6545 60.0081 24.0046C58.9698 25.6363 57.6266 25.9407 55.9786 24.918C54.6702 23.4176 54.7777 22.0207 56.3009 20.7273C56.5866 20.5684 56.8731 20.4431 57.1606 20.3512Z" fill="white"/>
<path opacity="0.936" fill-rule="evenodd" clip-rule="evenodd" d="M20.087 17.1264C20.5793 17.0644 21.027 17.1718 21.4301 17.4487C21.8635 18.4268 22.2754 19.4118 22.6659 20.4037C23.629 20.5217 24.5961 20.5934 25.5671 20.6186C26.4555 20.9179 26.7242 21.5089 26.373 22.3916C25.5137 23.0543 24.7078 23.7707 23.9553 24.5407C24.2281 25.5024 24.4788 26.4695 24.7075 27.442C24.5281 28.4101 23.955 28.7504 22.9882 28.4628C22.1812 27.9417 21.3753 27.4224 20.5705 26.9047C19.739 27.3832 18.9331 27.9026 18.1528 28.4628C16.9197 28.7333 16.3646 28.2498 16.4873 27.0121C16.7201 26.1705 16.9529 25.3287 17.1857 24.487C16.3733 23.8021 15.5674 23.1036 14.768 22.3916C14.3826 21.4972 14.6512 20.9062 15.5739 20.6186C16.5449 20.5934 17.512 20.5217 18.4752 20.4037C18.8293 19.5338 19.1696 18.6562 19.496 17.7711C19.6421 17.5 19.8391 17.2851 20.087 17.1264ZM18.7975 25.7227C18.9918 25.0898 19.0814 24.4451 19.0662 23.7885C18.9945 23.6453 18.9229 23.502 18.8512 23.3587C18.4566 23.0533 18.0805 22.731 17.723 22.3916C18.2567 22.3025 18.794 22.2488 19.3348 22.2304C19.4781 22.1588 19.6213 22.0872 19.7646 22.0155C20.0745 21.4445 20.3431 20.8535 20.5705 20.2425C20.7682 20.8705 21.0369 21.4615 21.3764 22.0155C21.5197 22.0872 21.663 22.1588 21.8062 22.2304C22.347 22.2488 22.8843 22.3025 23.418 22.3916C22.9512 22.8048 22.5034 23.2347 22.0749 23.6811C22.0436 24.4128 22.1153 25.1291 22.2898 25.8302C21.7929 25.3684 21.2198 25.0461 20.5705 24.8631C19.9423 25.0787 19.3513 25.3652 18.7975 25.7227Z" fill="white"/>
<path opacity="0.934" fill-rule="evenodd" clip-rule="evenodd" d="M29.2232 18.5253C32.5186 18.5074 35.8139 18.5253 39.109 18.579C39.8035 18.7677 40.0363 19.2154 39.8074 19.9222C39.682 20.0475 39.5567 20.1729 39.4313 20.2983C35.9211 20.3699 32.411 20.3699 28.9008 20.2983C28.7039 20.2445 28.5785 20.1192 28.5247 19.9222C28.3096 19.206 28.5425 18.7403 29.2232 18.5253Z" fill="white"/>
<path opacity="0.978" fill-rule="evenodd" clip-rule="evenodd" d="M32.446 21.9628C34.7744 21.9449 37.1026 21.9628 39.4305 22.0165C39.6275 22.0702 39.7529 22.1956 39.8066 22.3926C39.9617 22.8989 39.8364 23.3108 39.4305 23.6283C37.1023 23.6999 34.7742 23.6999 32.446 23.6283C31.8774 23.0733 31.8774 22.5181 32.446 21.9628Z" fill="white"/>
<path opacity="0.932" fill-rule="evenodd" clip-rule="evenodd" d="M29.0065 25.2958C32.4453 25.2778 35.8838 25.2958 39.3221 25.3495C39.8849 25.7013 40.0102 26.1849 39.6982 26.8001C39.6012 26.9292 39.4759 27.0188 39.3221 27.0688C35.8836 27.1405 32.445 27.1405 29.0065 27.0688C28.6049 26.9185 28.4258 26.6319 28.4692 26.2092C28.4486 25.7831 28.6277 25.4786 29.0065 25.2958Z" fill="white"/>
<path opacity="0.93" fill-rule="evenodd" clip-rule="evenodd" d="M49.103 30.7743C50.1423 30.7564 51.1811 30.7743 52.2192 30.828C52.3729 30.878 52.4982 30.9676 52.5953 31.0966C52.7313 31.5419 52.9283 31.9538 53.1863 32.3323C53.6651 32.4979 54.1307 32.6949 54.5832 32.9233C54.9762 32.6999 55.3882 32.5208 55.8189 32.3861C55.9801 32.4398 56.1412 32.4935 56.3024 32.5473C57.1742 33.2037 57.8906 33.9916 58.4515 34.9112C58.3258 35.3774 58.1468 35.825 57.9142 36.2544C58.1502 36.7476 58.3651 37.2491 58.559 37.7588C59.0354 37.9231 59.4832 38.138 59.9021 38.4035C60.0223 38.965 60.076 39.5381 60.0633 40.1228C60.076 40.7074 60.0223 41.2805 59.9021 41.842C59.4707 42.1474 59.0051 42.3981 58.5052 42.5942C58.3675 43.0846 58.1705 43.5502 57.9142 43.9911C58.1098 44.4354 58.2889 44.8832 58.4515 45.3343C58.3734 45.4846 58.3197 45.6458 58.2903 45.8178C57.6243 46.5197 56.9259 47.1824 56.195 47.8057C55.692 47.8772 55.2264 47.7697 54.7981 47.4834C54.2006 47.5509 53.6275 47.7301 53.0788 48.0206C52.9086 48.5327 52.6579 48.9985 52.3266 49.4175C51.3677 49.5873 50.4006 49.6231 49.4254 49.525C49.2084 49.4766 49.0115 49.3871 48.8344 49.2563C48.6475 48.8209 48.4506 48.3911 48.2434 47.9669C47.7688 47.8087 47.3031 47.6296 46.8465 47.4296C46.5036 47.5022 46.1812 47.6276 45.8794 47.8057C45.6287 47.8774 45.3779 47.8774 45.1272 47.8057C44.4321 47.2182 43.7694 46.5914 43.1393 45.9253C43.0364 45.7427 42.9827 45.5456 42.9781 45.3343C43.0885 44.8777 43.2318 44.43 43.408 43.9911C43.1855 43.5027 43.0064 43.0013 42.8707 42.4867C41.5039 42.318 40.9666 41.5479 41.2589 40.1765C41.2497 39.6126 41.3035 39.0574 41.4201 38.5109C41.824 38.1478 42.2897 37.8971 42.817 37.7588C42.975 37.3203 43.1541 36.8904 43.3542 36.4693C43.2673 35.9684 43.1419 35.4669 42.9781 34.965C42.9864 34.7717 43.0401 34.5925 43.1393 34.4277C43.7661 33.8009 44.393 33.174 45.0198 32.5473C45.1809 32.4935 45.3421 32.4398 45.5033 32.3861C45.9571 32.5503 46.4048 32.7294 46.8465 32.9233C47.2874 32.6671 47.753 32.4701 48.2434 32.3323C48.4607 31.7656 48.7471 31.2463 49.103 30.7743ZM50.1776 32.601C50.5357 32.601 50.8939 32.601 51.2521 32.601C51.2942 33.2187 51.5808 33.6665 52.1117 33.9442C52.9139 34.2202 53.7018 34.5246 54.4757 34.8575C54.8889 34.8094 55.265 34.6661 55.604 34.4277C55.8189 34.6426 56.0338 34.8575 56.2487 35.0724C56.0817 35.5902 56.0102 36.1275 56.0338 36.6842C56.4547 37.4814 56.8128 38.3053 57.1083 39.1557C57.4336 39.33 57.7739 39.4732 58.1291 39.5855C58.2535 39.9384 58.2714 40.2966 58.1829 40.66C57.7323 40.7741 57.3384 40.9891 57.0009 41.3048C56.7614 42.0958 56.439 42.848 56.0338 43.5613C55.9497 44.1285 56.0751 44.6479 56.4099 45.1194C56.195 45.3343 55.9801 45.5492 55.7652 45.7641C55.3487 45.6923 54.9368 45.5669 54.5294 45.388C53.6807 45.8034 52.8032 46.1437 51.8968 46.4088C51.5673 46.7631 51.3345 47.1751 51.1984 47.6445C50.8626 47.7828 50.5224 47.7828 50.1776 47.6445C50.0292 47.2528 49.85 46.8767 49.6403 46.5163C48.6919 46.1706 47.7606 45.7945 46.8465 45.388C46.4804 45.5101 46.1221 45.6533 45.7719 45.8178C45.4854 45.6029 45.2347 45.3522 45.0198 45.0656C45.1797 44.6928 45.3229 44.3167 45.4496 43.9374C45.0088 43.1441 44.6686 42.3025 44.4288 41.4122C44.3886 41.3138 44.3349 41.2242 44.2676 41.1436C43.914 40.972 43.5557 40.8108 43.193 40.66C43.087 40.3089 43.0512 39.9506 43.0856 39.5855C43.5989 39.5041 44.0466 39.2892 44.4288 38.9408C44.6791 38.046 45.0193 37.1864 45.4496 36.3619C45.3517 35.969 45.2085 35.5929 45.0198 35.2336C45.211 34.9345 45.4439 34.6658 45.7182 34.4277C46.1897 34.7625 46.709 34.8879 47.2763 34.8038C47.9731 34.3565 48.7253 34.0341 49.5328 33.8367C49.8184 33.4646 50.0333 33.0527 50.1776 32.601ZM50.6074 37.0066C53.0481 37.3865 54.0331 38.7835 53.5624 41.1973C52.6218 43.0632 51.1712 43.6183 49.2105 42.8628C47.4633 41.5868 47.1587 40.0287 48.2971 38.1886C48.9245 37.4899 49.6945 37.096 50.6074 37.0066Z" fill="white"/>
<path opacity="0.936" fill-rule="evenodd" clip-rule="evenodd" d="M20.5155 33.7822C20.9213 33.8329 21.2616 34.0121 21.5363 34.3195C21.8985 35.2763 22.2746 36.2255 22.6645 37.167C23.7036 37.2339 24.7423 37.3055 25.7807 37.3819C26.5733 37.8404 26.7345 38.4673 26.2643 39.2624C25.5121 39.8713 24.7599 40.4802 24.0077 41.0891C24.2038 42.092 24.4367 43.0948 24.7062 44.0978C24.569 45.0405 24.0317 45.4166 23.0944 45.2261C22.225 44.7109 21.3833 44.1557 20.5692 43.5605C19.7275 44.1158 18.8857 44.6709 18.044 45.2261C17.1201 45.4278 16.5828 45.0696 16.4322 44.1515C16.6906 43.1282 16.9234 42.1074 17.1307 41.0891C16.468 40.5698 15.8054 40.0503 15.1428 39.531C14.5393 38.9845 14.4498 38.3577 14.8741 37.6506C15.0267 37.5474 15.1878 37.4579 15.3577 37.3819C16.3961 37.3055 17.4348 37.2339 18.4738 37.167C18.8284 36.2111 19.2045 35.262 19.6021 34.3195C19.8349 33.9937 20.1393 33.8147 20.5155 33.7822ZM18.7962 42.486C18.8517 42.0861 18.9413 41.6921 19.0648 41.304C19.2445 40.6423 19.0475 40.123 18.4738 39.7459C18.1873 39.531 17.9008 39.3161 17.6142 39.1012C18.3156 39.1026 18.9962 38.9951 19.6558 38.7788C20.0584 38.2064 20.3628 37.5795 20.5692 36.8984C20.7474 37.6506 21.0877 38.3131 21.59 38.8863C22.2293 39.0016 22.874 39.0733 23.5242 39.1012C22.9602 39.4634 22.4767 39.9112 22.0735 40.4444C22.0329 41.1424 22.1045 41.8229 22.2885 42.486C21.7607 42.0996 21.1876 41.8131 20.5692 41.6264C19.9128 41.7844 19.3218 42.071 18.7962 42.486Z" fill="white"/>
<path opacity="0.931" fill-rule="evenodd" clip-rule="evenodd" d="M28.472 34.7509C32.1256 34.7329 35.7791 34.7509 39.4323 34.8046C39.8931 35.2098 39.9826 35.6934 39.7009 36.2552C39.5751 36.4049 39.4139 36.4945 39.2174 36.5239C35.6714 36.5955 32.1254 36.5955 28.5794 36.5239C27.9301 36.214 27.7689 35.7304 28.0959 35.0732C28.2189 34.9512 28.3443 34.8437 28.472 34.7509Z" fill="white"/>
<path opacity="0.928" fill-rule="evenodd" clip-rule="evenodd" d="M32.0174 38.0819C34.4532 38.064 36.8889 38.0819 39.3242 38.1357C39.8319 38.3973 39.993 38.8093 39.8078 39.3714C39.7073 39.651 39.5103 39.8122 39.2168 39.8549C36.8528 39.9266 34.4888 39.9266 32.1248 39.8549C31.6607 39.7342 31.4458 39.4298 31.4801 38.9416C31.485 38.5432 31.6642 38.2568 32.0174 38.0819Z" fill="white"/>
<path opacity="0.931" fill-rule="evenodd" clip-rule="evenodd" d="M29.3304 41.412C32.6258 41.3941 35.9211 41.412 39.2162 41.4657C39.6802 41.5864 39.8952 41.8908 39.8609 42.3791C39.8846 42.7327 39.7413 43.0014 39.4311 43.185C35.9925 43.2567 32.554 43.2567 29.1155 43.185C28.3753 42.4885 28.447 41.8975 29.3304 41.412Z" fill="white"/>
<path opacity="0.931" fill-rule="evenodd" clip-rule="evenodd" d="M33.414 46.7842C34.0277 46.8384 34.6366 46.928 35.2407 47.0528C38.3687 48.2507 41.5566 49.2536 44.8041 50.0615C46.3588 51.0891 46.8602 52.504 46.3085 54.306C46.3443 54.3417 46.3802 54.3776 46.4159 54.4134C49.5104 52.6691 52.5907 50.8961 55.657 49.0944C56.9789 48.2777 58.4117 47.7941 59.9552 47.6438C62.438 47.8108 63.6378 49.1361 63.5549 51.6196C63.4436 52.6847 62.9601 53.5264 62.1042 54.1448C57.1329 57.1467 52.19 60.1912 47.2756 63.2784C45.6259 64.4608 43.7992 64.8906 41.7954 64.5678C37.9712 63.5715 34.1566 62.5507 30.3516 61.5054C29.8906 61.7084 29.4787 61.977 29.1159 62.3113C29.5523 62.9691 29.8389 63.6854 29.9755 64.4604C29.9439 65.0429 29.7468 65.5622 29.3845 66.0184C28.3359 66.7131 27.2434 67.34 26.1071 67.8989C25.0844 68.1668 24.2426 67.8981 23.582 67.093C21.3526 63.0998 19.0961 59.124 16.8124 55.1656C16.5377 54.688 16.3227 54.1866 16.1677 53.6612C16.0877 52.7289 16.428 51.9946 17.1885 51.4584C18.0297 51.02 18.8535 50.5544 19.6599 50.0615C20.5265 49.6639 21.3504 49.7356 22.1314 50.2764C22.5384 50.7499 22.8787 51.2692 23.1522 51.8345C25.7297 50.262 28.3623 48.7756 31.05 47.3752C31.8278 47.0732 32.6159 46.8763 33.414 46.7842ZM33.414 48.6109C33.9208 48.6655 34.4222 48.7551 34.9184 48.8795C37.9112 50.0205 40.9557 50.9876 44.052 51.7808C44.7939 52.4769 44.8834 53.247 44.3206 54.091C43.9805 54.324 43.6044 54.4672 43.1923 54.5209C41.13 53.9919 39.0704 53.4546 37.0137 52.9091C36.2099 53.1911 35.995 53.7284 36.369 54.5209C38.9131 55.3763 41.5098 56.0389 44.1594 56.5088C45.2291 56.5964 46.2679 56.4532 47.2756 56.0789C50.5343 54.2707 53.758 52.4082 56.9464 50.4913C57.8955 49.9362 58.9163 49.5959 60.0089 49.4705C61.5738 49.7552 62.0753 50.6506 61.5132 52.1569C61.0414 52.5987 60.5221 52.9748 59.9552 53.2851C55.1018 56.2311 50.2663 59.204 45.4489 62.2038C43.9117 63.0408 42.3357 63.1125 40.7209 62.4187C37.3945 61.5066 34.0635 60.6111 30.7277 59.7324C30.4053 59.6607 30.0829 59.6607 29.7606 59.7324C29.2323 60.0233 28.713 60.3278 28.2025 60.6457C26.8235 58.2638 25.4445 55.882 24.0655 53.5001C26.6497 51.8854 29.3003 50.3811 32.0171 48.987C32.492 48.8417 32.9576 48.7163 33.414 48.6109ZM20.627 51.6196C20.828 51.6582 20.9892 51.7656 21.1105 51.942C23.4115 56.0784 25.7397 60.1975 28.095 64.2992C28.1714 64.4998 28.1177 64.661 27.9339 64.7827C27.1642 65.1853 26.412 65.6152 25.6773 66.0722C25.4688 66.152 25.2718 66.1341 25.0863 66.0184C22.7452 61.7837 20.3633 57.575 17.9406 53.3926C18.0481 53.1419 18.2272 52.9628 18.4779 52.8553C19.2186 52.4676 19.9349 52.0558 20.627 51.6196Z" fill="white"/>
<path opacity="0.881" fill-rule="evenodd" clip-rule="evenodd" d="M19.8717 53.2329C21.1589 53.1463 21.5171 53.6657 20.9462 54.791C19.8622 55.1749 19.3786 54.7988 19.4956 53.6627C19.6434 53.5332 19.7688 53.39 19.8717 53.2329Z" fill="white"/>
</svg>
