<svg width="71" height="71" viewBox="0 0 71 71" fill="none" xmlns="http://www.w3.org/2000/svg">
<g clip-path="url(#clip0_2998_9204)">
<path d="M12.5215 54.6813C11.5386 54.6813 10.5937 54.9266 9.75535 55.3873C5.33933 49.7264 2.91545 42.6942 2.91545 35.4901C2.91545 17.6449 17.433 3.12737 35.2782 3.12737C37.4476 3.12737 39.616 3.34324 41.7233 3.76909C42.4646 3.91908 43.1888 3.43912 43.3388 2.69669C43.4888 1.95426 43.0089 1.23112 42.2664 1.08059C39.9808 0.618851 37.6297 0.384766 35.2782 0.384766C25.9013 0.384766 17.0854 4.03639 10.4549 10.6668C3.82448 17.2973 0.172852 26.1133 0.172852 35.4901C0.172852 43.3777 2.85117 51.0752 7.72733 57.2461C7.09953 58.184 6.76206 59.2864 6.76206 60.4408C6.76206 61.9792 7.36147 63.4255 8.4494 64.5129C9.5368 65.6008 10.9831 66.2002 12.5215 66.2002C14.06 66.2002 15.5062 65.6008 16.5942 64.5129C17.6821 63.4255 18.281 61.9787 18.281 60.4402C18.281 58.9024 17.6821 57.4555 16.5942 56.3681C15.5062 55.2802 14.06 54.6813 12.5215 54.6813ZM14.6545 62.5738C14.0851 63.1437 13.3272 63.4576 12.5215 63.4576C11.7159 63.4576 10.9585 63.1437 10.3885 62.5738C9.81856 62.0038 9.50466 61.2464 9.50466 60.4408C9.50466 59.6346 9.81856 58.8772 10.3885 58.3072C10.9579 57.7373 11.7159 57.4239 12.5215 57.4239C13.3272 57.4239 14.0846 57.7378 14.6545 58.3072C15.2245 58.8772 15.5384 59.6346 15.5384 60.4408C15.5384 61.2464 15.2245 62.0038 14.6545 62.5738Z" fill="#0A1C40"/>
<path d="M62.828 13.7333C64.3187 11.4969 64.0793 8.43935 62.1075 6.46757C61.0196 5.38017 59.5733 4.78076 58.0349 4.78076C56.4964 4.78076 55.0501 5.38017 53.9622 6.46757C52.8743 7.5555 52.2754 9.0018 52.2754 10.5402C52.2754 12.0787 52.8743 13.5249 53.9622 14.6129C55.0501 15.7008 56.4964 16.2997 58.0349 16.2997C59.0178 16.2997 59.9627 16.0544 60.801 15.5937C65.217 21.2551 67.6409 28.2868 67.6409 35.4909C67.6409 53.3361 53.1233 67.8536 35.2782 67.8536C33.1302 67.8536 30.9822 67.642 28.8947 67.2242C28.1523 67.0759 27.4297 67.5574 27.2808 68.2998C27.1324 69.0428 27.6139 69.7649 28.3564 69.9138C30.6206 70.3664 32.9497 70.5962 35.2782 70.5962C44.655 70.5962 53.471 66.9446 60.1014 60.3142C66.7319 53.6837 70.3835 44.8677 70.3835 35.4909C70.3835 27.6027 67.7047 19.9047 62.828 13.7333ZM55.9018 12.6738C55.3319 12.1038 55.018 11.3464 55.018 10.5402C55.018 9.73459 55.3319 8.97716 55.9018 8.40721C56.4712 7.83726 57.2292 7.52336 58.0349 7.52336C58.8405 7.52336 59.5985 7.83726 60.1684 8.40721C61.3442 9.58353 61.3442 11.4975 60.1684 12.6738C59.5985 13.2432 58.8405 13.5571 58.0349 13.5571C57.2287 13.5571 56.4712 13.2432 55.9018 12.6738Z" fill="#0A1C40"/>
<path d="M29.6184 59.0763C29.6184 59.8337 30.2329 60.4476 30.9897 60.4476H39.5641C40.3216 60.4476 40.9354 59.8337 40.9354 59.0763V56.4178C42.7385 55.9325 44.4622 55.2179 46.0821 54.2848L47.9591 56.1617C48.2162 56.4188 48.5649 56.5635 48.9291 56.5635C49.2923 56.5635 49.6416 56.4188 49.8987 56.1612L55.9592 50.0964C56.4943 49.5607 56.4943 48.6924 55.9592 48.1573L54.0844 46.2825C55.0175 44.6626 55.7321 42.9389 56.2174 41.1358H58.8657C59.6231 41.1358 60.237 40.5219 60.237 39.7645V31.1901C60.237 30.4327 59.6231 29.8188 58.8657 29.8188H56.2169C55.7315 28.0163 55.0175 26.2925 54.0844 24.6727L55.949 22.808C56.2061 22.5509 56.3508 22.2017 56.3508 21.838C56.3502 21.4742 56.2056 21.125 55.9485 20.8679L49.8832 14.8074C49.348 14.2722 48.4797 14.2722 47.9441 14.8079L46.0821 16.6704C44.4622 15.7373 42.7385 15.0227 40.9354 14.5374V11.9035C40.9354 11.1461 40.3216 10.5322 39.5641 10.5322H30.9897C30.2329 10.5322 29.6184 11.1461 29.6184 11.9035V14.5379C27.8159 15.0227 26.0922 15.7373 24.4723 16.6704L22.6098 14.8079C22.0747 14.2728 21.2064 14.2722 20.6707 14.8074L14.6059 20.8684C14.3483 21.1255 14.2036 21.4742 14.2036 21.838C14.2036 22.2017 14.3483 22.5509 14.6054 22.808L16.47 24.6727C15.5369 26.2925 14.8223 28.0158 14.337 29.8188H11.6935C10.9361 29.8188 10.3222 30.4327 10.3222 31.1896L10.3174 39.764C10.3168 40.1277 10.4615 40.4769 10.7186 40.7341C10.9757 40.9912 11.3244 41.1358 11.6887 41.1358H14.337C14.8223 42.9389 15.5369 44.6626 16.47 46.2825L14.5952 48.1573C14.0601 48.6924 14.0595 49.5607 14.5952 50.0964L20.6557 56.1612C20.9128 56.4183 21.2615 56.5635 21.6253 56.5635H21.6258C21.9895 56.5635 22.3382 56.4188 22.5953 56.1617L24.4718 54.2848C26.0922 55.2179 27.8159 55.9325 29.6184 56.4178V59.0763ZM25.0096 51.4007C24.467 51.0499 23.7529 51.1259 23.2955 51.5829L21.6258 53.2525L17.5039 49.1274L19.1719 47.4588C19.6288 47.0019 19.7049 46.2878 19.354 45.7452C18.1108 43.8211 17.2366 41.7122 16.7566 39.4763C16.6205 38.8448 16.0624 38.3932 15.4158 38.3932H13.0605L13.0637 32.5614H15.4158C16.0624 32.5614 16.6205 32.1104 16.7566 31.4783C17.2366 29.243 18.1108 27.1341 19.354 25.21C19.7049 24.6673 19.6288 23.9533 19.1719 23.4964L17.5146 21.8385L21.6397 17.7166L23.2955 19.3728C23.7529 19.8298 24.4664 19.9053 25.0096 19.555C26.9332 18.3117 29.0421 17.4375 31.2779 16.9575C31.9095 16.8215 32.361 16.2628 32.361 15.6168V13.2748H38.1928V15.6162C38.1928 16.2628 38.6439 16.8215 39.2759 16.957C41.5113 17.4375 43.6207 18.3111 45.5443 19.5544C46.0869 19.9053 46.8009 19.8298 47.2579 19.3723L48.9141 17.7166L53.0393 21.8385L51.382 23.4958C50.9245 23.9533 50.849 24.6673 51.1998 25.21C52.4431 27.1341 53.3168 29.243 53.7973 31.4783C53.9328 32.1104 54.4915 32.5614 55.138 32.5614H57.4944V38.3932H55.138C54.4915 38.3932 53.9333 38.8448 53.7973 39.4763C53.3173 41.7116 52.4431 43.8211 51.1998 45.7447C50.849 46.2878 50.925 47.0019 51.382 47.4588L53.05 49.1268L48.9281 53.252L47.2584 51.5829C46.8009 51.1254 46.0869 51.0499 45.5443 51.4007C43.6202 52.644 41.5113 53.5177 39.2759 53.9982C38.6439 54.1342 38.1928 54.6924 38.1928 55.3389V57.705H32.361V55.3389C32.361 54.6929 31.9095 54.1342 31.2779 53.9982C29.0426 53.5182 26.9337 52.644 25.0096 51.4007Z" fill="#0A1C40"/>
<path d="M46.6101 35.4896C46.6101 29.2416 41.5271 24.1587 35.2792 24.1587C29.0312 24.1587 23.9482 29.2416 23.9482 35.4896C23.9482 41.7376 29.0312 46.8205 35.2792 46.8205C41.5271 46.8205 46.6101 41.7376 46.6101 35.4896ZM26.6908 35.4896C26.6908 30.7538 30.5433 26.9013 35.2792 26.9013C40.015 26.9013 43.8675 30.7543 43.8675 35.4896C43.8675 40.2249 40.015 44.0779 35.2792 44.0779C30.5433 44.0779 26.6908 40.2254 26.6908 35.4896Z" fill="#0A1C40"/>
<path d="M47.9045 5.57136C48.2655 5.57136 48.6191 5.42459 48.8741 5.16961C49.129 4.91303 49.2758 4.55949 49.2758 4.19845C49.2758 3.83955 49.1296 3.48548 48.8741 3.2289C48.6191 2.97392 48.2655 2.82715 47.9045 2.82715C47.5424 2.82715 47.1905 2.97392 46.9355 3.2289C46.68 3.48548 46.5332 3.83795 46.5332 4.19845C46.5332 4.56056 46.68 4.91303 46.9355 5.16961C47.1905 5.42459 47.5424 5.57136 47.9045 5.57136Z" fill="#0A1C40"/>
<path d="M22.7111 65.4346C22.3506 65.4346 21.9966 65.5813 21.7416 65.8363C21.4866 66.0913 21.3398 66.4454 21.3398 66.8059C21.3398 67.168 21.4866 67.5204 21.7416 67.7754C21.9966 68.0304 22.3506 68.1772 22.7111 68.1772C23.0716 68.1772 23.4257 68.0304 23.6807 67.7754C23.9357 67.5204 24.0824 67.1664 24.0824 66.8059C24.0824 66.4454 23.9357 66.0913 23.6807 65.8363C23.4257 65.5813 23.0716 65.4346 22.7111 65.4346Z" fill="#0A1C40"/>
</g>
<defs>
<clipPath id="clip0_2998_9204">
<rect width="70.2106" height="70.2106" fill="white" transform="translate(0.172852 0.384766)"/>
</clipPath>
</defs>
</svg>
