<svg width="72" height="71" viewBox="0 0 72 71" fill="none" xmlns="http://www.w3.org/2000/svg">
<g clip-path="url(#clip0_2998_9221)">
<path d="M23.4549 44.3218C25.4878 42.289 25.4878 38.9807 23.4549 36.9479C22.4699 35.9633 21.1607 35.4207 19.768 35.4207C18.9629 35.4207 18.1862 35.6028 17.4839 35.9462C15.0075 32.4033 13.7032 28.2573 13.7032 23.8964C13.7032 12.7359 22.4216 3.49032 33.5511 2.84753C34.308 2.8036 34.8855 2.15491 34.8421 1.39856C34.7982 0.641662 34.1495 0.0658242 33.3931 0.107606C20.8131 0.834501 10.959 11.2837 10.959 23.8964C10.959 28.9284 12.4969 33.7082 15.4125 37.768C14.0803 39.7906 14.3031 42.5439 16.081 44.3218C17.0661 45.3064 18.3752 45.849 19.768 45.849C21.1607 45.849 22.4699 45.3064 23.4549 44.3218ZM18.0212 38.8886C18.5027 38.407 19.1354 38.166 19.768 38.166C20.4001 38.166 21.0327 38.407 21.5142 38.8886C22.4774 39.8512 22.4774 41.4185 21.5142 42.3811C20.5511 43.3442 18.9843 43.3442 18.0212 42.3811C17.0586 41.4185 17.0586 39.8517 18.0212 38.8886Z" fill="#0A1C40"/>
<path d="M55.9436 47.6439C55.0764 47.6439 54.2611 47.87 53.5535 48.2664C52.9262 46.2775 51.0642 44.8312 48.8707 44.8312C47.4828 44.8312 46.2277 45.4102 45.3342 46.3391C45.0862 46.0819 44.8104 45.8521 44.512 45.6534C47.6746 44.2376 50.5205 42.1346 52.8234 39.4708C56.5591 35.148 58.6166 29.6167 58.6166 23.8964C58.6166 18.867 57.0787 14.0846 54.1636 10.0243C55.4958 8.00161 55.2729 5.24884 53.4945 3.47043C51.4617 1.43759 48.154 1.43759 46.1206 3.47043C44.0878 5.50328 44.0878 8.81154 46.1206 10.8444C47.1373 11.8611 48.4722 12.3694 49.8076 12.3694C50.5902 12.3694 51.3717 12.1932 52.09 11.8439C54.5675 15.3879 55.8724 19.5371 55.8724 23.8964C55.8724 33.8222 49.1342 42.2123 39.6332 44.4225V37.0367C45.0744 35.028 48.7919 29.7683 48.7919 23.8964C48.7919 16.1748 42.5097 9.8925 34.7876 9.8925C27.066 9.8925 20.7837 16.1742 20.7837 23.8964C20.7837 26.9437 21.7463 29.8417 23.5665 32.2757C25.1542 34.3986 27.3509 36.0474 29.8155 36.988V57.1712L28.0918 54.3435C26.6433 51.9657 23.6195 51.1943 21.2085 52.586C18.9153 53.9101 18.0208 56.8156 19.1783 59.2121L24.2966 69.552C24.536 70.0357 25.0224 70.3159 25.5275 70.3159C25.7322 70.3159 25.9395 70.2704 26.135 70.1734C26.8142 69.837 27.0922 69.0137 26.7564 68.335L21.6434 58.0069C21.1137 56.9093 21.5251 55.5723 22.5809 54.9627C23.672 54.3328 25.0931 54.6954 25.7488 55.7716L30.0159 62.7732C30.3362 63.2982 30.9667 63.5462 31.5586 63.3801C32.1505 63.2141 32.5597 62.6741 32.5597 62.0586V30.5766C32.5597 29.3832 33.5309 28.4125 34.7244 28.4125C35.9178 28.4125 36.889 29.3832 36.889 30.5766V36.004C36.8884 36.0136 36.889 36.0232 36.889 36.0334V56.6361C36.889 57.3941 37.5028 58.008 38.2608 58.008C39.0188 58.008 39.6332 57.3941 39.6332 56.6361V49.74C39.6332 48.5465 40.6038 47.5754 41.7973 47.5754C42.9907 47.5754 43.9619 48.5465 43.9619 49.74V57.1354C43.9619 57.8933 44.5763 58.5077 45.3337 58.5077C46.0917 58.5077 46.7061 57.8933 46.7061 57.1354V49.74C46.7061 48.5465 47.6772 47.5754 48.8707 47.5754C50.0641 47.5754 51.0348 48.5465 51.0348 49.74V57.228C51.0348 57.986 51.6492 58.6004 52.4071 58.6004C53.1651 58.6004 53.779 57.986 53.779 57.228V52.5528C53.779 51.3593 54.7501 50.3881 55.9436 50.3881C57.1371 50.3881 58.1082 51.3593 58.1082 52.5528V68.943C58.1082 69.701 58.7221 70.3154 59.48 70.3154C60.238 70.3154 60.8524 69.701 60.8524 68.943V52.5528C60.8524 49.846 58.6503 47.6439 55.9436 47.6439ZM48.0613 8.90421C47.0982 7.94108 47.0982 6.37427 48.0613 5.41114C48.5429 4.92958 49.1749 4.68907 49.8076 4.68907C50.4402 4.68907 51.0728 4.92958 51.5544 5.41114C52.517 6.37427 52.517 7.94108 51.5544 8.90421C50.5912 9.86679 49.0239 9.86679 48.0613 8.90421ZM23.5279 23.8964C23.5279 17.6875 28.5792 12.6362 34.7881 12.6362C40.9964 12.6362 46.0477 17.6875 46.0477 23.8964C46.0477 28.2684 43.4857 32.219 39.6332 34.0622V30.5766C39.6332 29.8063 39.4543 29.0768 39.1361 28.427C40.3531 27.2539 41.0725 25.6185 41.0725 23.8964C41.0725 20.4306 38.2533 17.6114 34.7881 17.6114C31.3224 17.6114 28.5032 20.4306 28.5032 23.8964C28.5032 25.5682 29.184 27.1746 30.3544 28.3456C30.011 29.0152 29.8155 29.7737 29.8155 30.5766V34.0043C25.9946 32.137 23.5279 28.2647 23.5279 23.8964ZM32.2346 26.3486C31.602 25.694 31.2474 24.8268 31.2474 23.8964C31.2474 21.9439 32.8356 20.3556 34.7876 20.3556C36.7401 20.3556 38.3283 21.9439 38.3283 23.8964C38.3283 24.8402 37.9448 25.739 37.2923 26.3958C36.5445 25.9346 35.665 25.6683 34.7244 25.6683C33.8159 25.6683 32.9652 25.9169 32.2346 26.3486Z" fill="#0A1C40"/>
<path d="M39.6462 3.33795C40.0073 3.33795 40.3614 3.19118 40.6163 2.93567C40.8718 2.6807 41.0186 2.32662 41.0186 1.96558C41.0186 1.60508 40.8718 1.25101 40.6163 0.995498C40.3614 0.740522 40.0073 0.59375 39.6462 0.59375C39.2857 0.59375 38.9317 0.740522 38.6767 0.995498C38.4212 1.25101 38.2744 1.60508 38.2744 1.96558C38.2744 2.32662 38.4212 2.6807 38.6767 2.93567C38.9317 3.19118 39.2857 3.33795 39.6462 3.33795Z" fill="#0A1C40"/>
</g>
<defs>
<clipPath id="clip0_2998_9221">
<rect width="70.2106" height="70.2106" fill="white" transform="translate(0.811523 0.104492)"/>
</clipPath>
</defs>
</svg>
