<svg width="262" height="76" viewBox="0 0 262 76" fill="none" xmlns="http://www.w3.org/2000/svg">
<path d="M13.3799 74.5252L1.36044 74.5252L24.4018 37.8213L24.5369 37.606L24.401 37.3912L1.36355 0.986332L13.1594 0.986092L37.4643 37.6088L13.3799 74.5252Z" stroke="white" stroke-opacity="0.2" stroke-width="0.806641"/>
<path d="M36.5313 74.8323L24.5118 74.8323L47.5532 38.1285L47.6883 37.9132L47.5524 37.6984L24.5149 1.29346L36.3108 1.29322L60.6156 37.9159L36.5313 74.8323Z" stroke="white" stroke-opacity="0.6" stroke-width="0.806641"/>
<path d="M59.2539 74.8323L47.2345 74.8323L70.2758 38.1285L70.411 37.9132L70.275 37.6984L47.2376 1.29346L59.0335 1.29322L83.3383 37.9159L59.2539 74.8323Z" stroke="white" stroke-width="0.806641"/>
<path d="M102.335 74.5252L90.3155 74.5252L113.357 37.8213L113.492 37.606L113.356 37.3912L90.3186 0.986332L102.115 0.986092L126.419 37.6088L102.335 74.5252Z" stroke="white" stroke-opacity="0.2" stroke-width="0.806641"/>
<path d="M125.486 74.8323L113.467 74.8323L136.508 38.1285L136.643 37.9132L136.507 37.6984L113.47 1.29346L125.266 1.29322L149.571 37.9159L125.486 74.8323Z" stroke="white" stroke-opacity="0.6" stroke-width="0.806641"/>
<path d="M148.21 74.8323L136.191 74.8323L159.232 38.1285L159.367 37.9132L159.231 37.6984L136.194 1.29346L147.99 1.29322L172.294 37.9159L148.21 74.8323Z" stroke="white" stroke-width="0.806641"/>
<path d="M191.29 74.5252L179.271 74.5252L202.312 37.8213L202.447 37.606L202.311 37.3912L179.274 0.986332L191.07 0.986092L215.374 37.6088L191.29 74.5252Z" stroke="white" stroke-opacity="0.2" stroke-width="0.806641"/>
<path d="M214.441 74.8323L202.422 74.8323L225.463 38.1285L225.598 37.9132L225.463 37.6984L202.425 1.29346L214.221 1.29322L238.526 37.9159L214.441 74.8323Z" stroke="white" stroke-opacity="0.6" stroke-width="0.806641"/>
<path d="M237.165 74.8323L225.146 74.8323L248.187 38.1285L248.322 37.9132L248.186 37.6984L225.149 1.29346L236.945 1.29322L261.249 37.9159L237.165 74.8323Z" stroke="white" stroke-width="0.806641"/>
</svg>
